<svg xmlns="http://www.w3.org/2000/svg" style="display: none;">
    <!-- Arrow Down -->
    <symbol id="arrow-down" viewBox="0 0 20 20">
        <path
            d="M17.544 5.67286C17.2515 5.38097 16.8556 5.2171 16.4428 5.2171C16.0301 5.2171 15.6342 5.38097 15.3417 5.67286L10.0175 11.0047L4.69606 5.67286C4.55329 5.51986 4.38127 5.39721 4.19025 5.31222C3.99923 5.22723 3.7931 5.18163 3.58413 5.17813C3.37517 5.17464 3.16764 5.21333 2.9739 5.29189C2.78015 5.37045 2.60415 5.48728 2.45637 5.63542C2.30859 5.78357 2.19205 5.96001 2.11369 6.15423C2.03532 6.34846 1.99673 6.5565 2.00022 6.76598C2.0037 6.97547 2.04919 7.1821 2.13397 7.3736C2.21875 7.5651 2.34109 7.73754 2.49372 7.88067L8.91631 14.322C9.20882 14.6138 9.60475 14.7777 10.0175 14.7777C10.4302 14.7777 10.8261 14.6138 11.1187 14.322L17.544 7.88343C17.836 7.59007 18 7.19257 18 6.77814C18 6.36372 17.836 5.96622 17.544 5.67286Z"
        />
    </symbol>

    <!-- Crown -->
    <symbol id="crown" viewBox="0 0 24 24">
        <path
            d="M21.75 10.38L19.905 18.5325C19.8684 18.7031 19.7735 18.8556 19.6366 18.9637C19.4997 19.0718 19.3294 19.1289 19.155 19.125H4.78501C4.6106 19.1289 4.44029 19.0718 4.3034 18.9637C4.16651 18.8556 4.0716 18.7031 4.03501 18.5325L2.25001 10.38C2.21997 10.2422 2.22937 10.0988 2.27712 9.96616C2.32488 9.8335 2.40906 9.717 2.52001 9.63C2.63127 9.54269 2.76494 9.48862 2.9056 9.47403C3.04627 9.45943 3.1882 9.4849 3.31501 9.5475L7.69501 11.67L11.325 5.25C11.3904 5.13458 11.4853 5.03857 11.5999 4.97178C11.7145 4.90498 11.8448 4.86979 11.9775 4.86979C12.1102 4.86979 12.2405 4.90498 12.3551 4.97178C12.4697 5.03857 12.5646 5.13458 12.63 5.25L16.26 11.6775L20.67 9.54C20.7977 9.4723 20.9423 9.44295 21.0863 9.45548C21.2303 9.46801 21.3676 9.52189 21.4817 9.61064C21.5958 9.69939 21.6819 9.81922 21.7295 9.95571C21.7771 10.0922 21.7842 10.2395 21.75 10.38Z"
        />
    </symbol>

    <!-- Dashboard -->
    <symbol id="dashboard" viewBox="0 0 32 32">
        <path
            d="M12.7916 2H4.0416C2.9158 2 2 2.9158 2 4.0416V9.2916C2 10.4176 2.9158 11.3334 4.0416 11.3334H12.7916C13.9176 11.3334 14.8334 10.4176 14.8334 9.2916V4.0416C14.8334 2.9158 13.9176 2 12.7916 2Z"
        />
        <path
            d="M12.7916 13.6666H4.0416C2.9158 13.6666 2 14.5824 2 15.7084V27.9584C2 29.0842 2.9158 30 4.0416 30H12.7916C13.9176 30 14.8334 29.0842 14.8334 27.9584V15.7084C14.8334 14.5824 13.9176 13.6666 12.7916 13.6666Z"
        />
        <path
            d="M27.9584 20.6666H19.2084C18.0824 20.6666 17.1666 21.5824 17.1666 22.7084V27.9584C17.1666 29.0842 18.0824 30 19.2084 30H27.9584C29.0842 30 30 29.0842 30 27.9584V22.7084C30 21.5824 29.0842 20.6666 27.9584 20.6666Z"
        />
        <path
            d="M27.9584 2H19.2084C18.0824 2 17.1666 2.9158 17.1666 4.0416V16.2916C17.1666 17.4176 18.0824 18.3334 19.2084 18.3334H27.9584C29.0842 18.3334 30 17.4176 30 16.2916V4.0416C30 2.9158 29.0842 2 27.9584 2Z"
        />
    </symbol>

    <!-- Facebook -->
    <symbol id="facebook" viewBox="0 0 32 32">
        <path
            d="M25.8984 2H6.10156C3.84015 2 2 3.84015 2 6.10156V25.8984C2 28.1599 3.84015 30 6.10156 30H14.3594V20.1016H11.0781V15.1797H14.3594V11.8438C14.3594 9.12967 16.5672 6.92188 19.2812 6.92188H24.2578V11.8438H19.2812V15.1797H24.2578L23.4375 20.1016H19.2812V30H25.8984C28.1599 30 30 28.1599 30 25.8984V6.10156C30 3.84015 28.1599 2 25.8984 2Z" />
    </symbol>

    <!-- Info -->
    <symbol id="info" viewBox="0 0 32 32">
        <path
            d="M29.691 7.66615L29.6866 7.62459C29.5449 6.26351 28.9391 4.99265 27.9711 4.02542C27.003 3.05818 25.7317 2.45347 24.3705 2.31281C22.3749 2.105 19.0866 2 16 2C12.9134 2 9.62508 2.105 7.62953 2.31281C6.26833 2.45347 4.99697 3.05818 4.02894 4.02542C3.0609 4.99265 2.45513 6.26351 2.31336 7.62459L2.30898 7.66615C2.13617 9.32099 2 9.58677 2 13.0769C2 16.5671 2.13617 17.1303 2.30898 18.7857L2.31336 18.8267C2.45513 20.1878 3.0609 21.4587 4.02894 22.4259C4.99697 23.3931 6.26833 23.9979 7.62953 24.1385C8.73039 24.2534 10.225 24.3365 11.8618 24.3884L15.038 29.4322C15.1476 29.6061 15.2995 29.7494 15.4794 29.8486C15.6593 29.9479 15.8615 30 16.067 30C16.2725 30 16.4747 29.9479 16.6546 29.8486C16.8345 29.7494 16.9864 29.6061 17.0959 29.4322L20.2749 24.3841C21.8581 24.3294 23.3002 24.2501 24.3699 24.1385C25.7312 23.998 27.0027 23.3933 27.9709 22.4261C28.939 21.4588 29.5448 20.1879 29.6866 18.8267L29.691 18.7852C29.8638 17.1303 30 16.5671 30 13.0769C30 9.58677 29.8638 9.32153 29.691 7.66615ZM15.9967 21.5266C15.6298 21.526 15.2712 21.4166 14.9664 21.2122C14.6616 21.0079 14.4242 20.7178 14.2843 20.3786C14.1443 20.0394 14.108 19.6663 14.18 19.3064C14.252 18.9466 14.429 18.6162 14.6887 18.357C14.9484 18.0977 15.2791 17.9213 15.6391 17.8499C15.9991 17.7785 16.3721 17.8155 16.7111 17.9561C17.05 18.0967 17.3397 18.3346 17.5435 18.6397C17.7473 18.9449 17.8561 19.3036 17.8561 19.6706C17.8552 20.1631 17.6589 20.6352 17.3103 20.9832C16.9617 21.3312 16.4893 21.5266 15.9967 21.5266ZM17.797 15.1342C17.766 15.4212 17.6363 15.6886 17.4301 15.8906C17.2213 16.0943 16.9497 16.2213 16.6595 16.251H16.6508C16.4692 16.272 16.2867 16.2826 16.1039 16.2827C15.8847 16.2837 15.6657 16.2732 15.4477 16.251H15.4384C15.1476 16.2218 14.8753 16.0947 14.6662 15.8906C14.4599 15.6888 14.3302 15.4217 14.2992 15.1348C14.2544 14.7159 14.232 11.8071 14.232 11.159C14.232 10.511 14.2544 7.59396 14.2992 7.17561C14.3303 6.88861 14.46 6.62128 14.6662 6.41928C14.8748 6.21573 15.1462 6.08888 15.4362 6.05944H15.4455C15.6635 6.03771 15.8828 6.03113 16.1017 6.03975C16.2842 6.03109 16.4672 6.03768 16.6486 6.05944H16.6573C16.9475 6.08885 17.2191 6.21569 17.4279 6.41928C17.6339 6.62142 17.7636 6.88867 17.7948 7.17561C17.8391 7.59396 17.8621 10.5115 17.8621 11.159C17.8621 11.8065 17.8413 14.7153 17.797 15.1342Z" />
    </symbol>

    <!-- Inta -->
    <symbol id="instagram" viewBox="0 0 32 32">
        <path
            d="M18.9742 9.95825H13.032C11.3396 9.95825 9.95825 11.3334 9.95825 13.032V18.9742C9.95825 20.6667 11.3334 22.048 13.032 22.048H18.9742C20.6667 22.048 22.048 20.6729 22.048 18.9742V13.032C22.0418 11.3334 20.6667 9.95825 18.9742 9.95825ZM16 19.976C13.8098 19.976 12.024 18.1902 12.024 16C12.024 13.8098 13.8098 12.024 16 12.024C18.1902 12.024 19.976 13.8098 19.976 16C19.976 18.1902 18.1902 19.976 16 19.976ZM20.1751 12.4658C19.8018 12.4658 19.5031 12.1671 19.5031 11.7938C19.5031 11.4205 19.8018 11.1218 20.1751 11.1218C20.5485 11.1218 20.8471 11.4205 20.8471 11.7938C20.8471 12.1671 20.5485 12.4658 20.1751 12.4658Z"
        />
        <path
            d="M18.417 16.0294C18.433 14.6961 17.365 13.6022 16.0317 13.5862C14.6984 13.5702 13.6045 14.6382 13.5885 15.9715C13.5725 17.3048 14.6404 18.3987 15.9738 18.4147C17.3071 18.4307 18.401 17.3628 18.417 16.0294Z"
        />
        <path
            d="M16 2C8.26578 2 2 8.26578 2 16C2 23.7342 8.26578 30 16 30C23.7342 30 30 23.7342 30 16C30 8.26578 23.7342 2 16 2ZM23.7778 18.9742C23.7778 21.6249 21.6249 23.7778 18.9742 23.7778H13.032C10.3813 23.7778 8.22845 21.6249 8.22845 18.9742V13.032C8.22845 10.3813 10.3813 8.22845 13.032 8.22845H18.9742C21.6249 8.22845 23.7778 10.3813 23.7778 13.032V18.9742Z"
        />
    </symbol>


    <!-- Linkedin -->
    <symbol id="linkedin" viewBox="0 0 32 32">
        <path
            d="M26.1818 2H5.81818C4.80554 2 3.83437 2.40227 3.11832 3.11832C2.40227 3.83437 2 4.80554 2 5.81818V26.1818C2 27.1945 2.40227 28.1656 3.11832 28.8817C3.83437 29.5977 4.80554 30 5.81818 30H26.1818C27.1945 30 28.1656 29.5977 28.8817 28.8817C29.5977 28.1656 30 27.1945 30 26.1818V5.81818C30 4.80554 29.5977 3.83437 28.8817 3.11832C28.1656 2.40227 27.1945 2 26.1818 2ZM11.5455 24.1582C11.5457 24.2358 11.5306 24.3127 11.501 24.3845C11.4714 24.4563 11.428 24.5216 11.3731 24.5766C11.3183 24.6315 11.2532 24.6752 11.1815 24.7049C11.1098 24.7347 11.0329 24.75 10.9552 24.75H8.44C8.36222 24.7502 8.28517 24.735 8.21327 24.7054C8.14138 24.6757 8.07605 24.6321 8.02105 24.5771C7.96606 24.5221 7.92247 24.4568 7.8928 24.3849C7.86314 24.313 7.84797 24.236 7.84818 24.1582V13.6136C7.84818 13.4567 7.91053 13.3061 8.02152 13.1952C8.13251 13.0842 8.28304 13.0218 8.44 13.0218H10.9552C11.1119 13.0222 11.262 13.0848 11.3727 13.1957C11.4833 13.3067 11.5455 13.457 11.5455 13.6136V24.1582ZM9.69682 12.0227C9.22484 12.0227 8.76346 11.8828 8.37103 11.6206C7.97859 11.3583 7.67272 10.9856 7.49211 10.5496C7.31149 10.1135 7.26423 9.63372 7.35631 9.17081C7.44839 8.7079 7.67567 8.28269 8.0094 7.94895C8.34314 7.61521 8.76835 7.38793 9.23126 7.29585C9.69417 7.20377 10.174 7.25103 10.61 7.43165C11.0461 7.61227 11.4188 7.91814 11.681 8.31057C11.9432 8.70301 12.0832 9.16439 12.0832 9.63636C12.0832 10.2693 11.8318 10.8762 11.3842 11.3238C10.9367 11.7713 10.3297 12.0227 9.69682 12.0227ZM24.6927 24.1995C24.6929 24.2711 24.679 24.3419 24.6517 24.408C24.6245 24.4741 24.5844 24.5342 24.5338 24.5847C24.4833 24.6353 24.4232 24.6754 24.3571 24.7026C24.291 24.7299 24.2201 24.7438 24.1486 24.7436H21.4441C21.3726 24.7438 21.3017 24.7299 21.2356 24.7026C21.1695 24.6754 21.1095 24.6353 21.0589 24.5847C21.0083 24.5342 20.9683 24.4741 20.941 24.408C20.9137 24.3419 20.8998 24.2711 20.9 24.1995V19.2598C20.9 18.5216 21.1164 16.027 18.9702 16.027C17.3077 16.027 16.9689 17.7341 16.902 18.5009V24.2059C16.9021 24.3488 16.8458 24.486 16.7455 24.5879C16.6452 24.6897 16.5088 24.7479 16.3659 24.75H13.7536C13.6823 24.75 13.6116 24.7359 13.5457 24.7086C13.4797 24.6812 13.4199 24.6411 13.3695 24.5905C13.3191 24.54 13.2791 24.48 13.252 24.414C13.2248 24.348 13.2109 24.2773 13.2111 24.2059V13.5675C13.2109 13.4961 13.2248 13.4254 13.252 13.3594C13.2791 13.2934 13.3191 13.2334 13.3695 13.1829C13.4199 13.1323 13.4797 13.0922 13.5457 13.0649C13.6116 13.0375 13.6823 13.0234 13.7536 13.0234H16.3659C16.5102 13.0234 16.6486 13.0807 16.7506 13.1828C16.8527 13.2848 16.91 13.4232 16.91 13.5675V14.487C17.5273 13.5595 18.442 12.8468 20.3941 12.8468C24.7182 12.8468 24.6895 16.8845 24.6895 19.1023L24.6927 24.1995Z"
        />
    </symbol>

    <!-- Money -->
    <symbol id="money" viewBox="0 0 32 32">
        <path
            d="M16.5 10.5777C10.5859 10.5777 6 17.1031 6 22.7166C6 29.2452 11.993 30 16.5 30C21.007 30 27 29.2453 27 22.7166C27 17.1031 22.4141 10.5777 16.5 10.5777ZM17.3298 24.1889C17.3225 24.1915 17.3149 24.1903 17.3077 24.1928V25.1443C17.3077 25.5917 16.9464 25.9536 16.5 25.9536C16.0536 25.9536 15.6923 25.5916 15.6923 25.1443V24.1872C15.1599 24.0073 14.6498 23.6657 14.2142 23.1457C13.9271 22.8035 13.9713 22.293 14.3136 22.0053C14.6544 21.7176 15.1639 21.7611 15.451 22.104C17.0435 24.0099 18.1185 21.098 16.5001 21.098C15.1639 21.098 14.077 20.0089 14.077 18.6702C14.077 17.7018 14.6303 16.7784 15.6924 16.3997V15.4331C15.6924 14.9858 16.0537 14.6238 16.5001 14.6238C16.9465 14.6238 17.3077 14.9858 17.3077 15.4331V16.4023C17.7259 16.5435 18.1337 16.7677 18.4972 17.1204C18.8174 17.4317 18.8269 17.9439 18.5161 18.2647C18.2054 18.5864 17.6943 18.5951 17.374 18.2837C15.8882 16.8456 14.8847 19.4794 16.5001 19.4794C17.8362 19.4794 18.9232 20.5685 18.9232 21.9072C18.9231 22.9236 18.2826 23.8412 17.3298 24.1889Z"
        />
        <path
            d="M21.1063 2.65197C18.1248 1.78268 14.8751 1.78268 11.8935 2.65197C11.3933 2.79703 11.1544 3.37906 11.4235 3.839L12.6451 6.0303C14.7694 5.1834 17.9202 5.05695 20.3545 6.03068L21.5763 3.839C21.8454 3.37906 21.6065 2.79708 21.1063 2.65197Z"
        />
        <path
            d="M20.2502 7.71007C18.739 6.64333 14.3059 6.59883 12.7405 7.71503C12.0693 8.1897 11.7121 8.93546 11.719 9.7145C13.27 8.89128 15.0885 8.49558 16.5 8.49558C18.2192 8.49558 19.8297 8.94409 21.2811 9.7145C21.2878 8.96394 20.9549 8.20799 20.2502 7.71007Z"
        />
    </symbol>


    <!-- Notification -->
    <symbol id="notification" viewBox="0 0 32 32">
        <path
            d="M27.8182 14.6788C27.1658 14.6788 26.6363 14.1493 26.6363 13.4969C26.6363 10.1819 25.3458 7.06664 23.0022 4.72191C22.5402 4.25982 22.5402 3.51291 23.0022 3.05082C23.4643 2.58873 24.2113 2.58873 24.6733 3.05082C27.4636 5.8411 29 9.55083 29 13.4969C29 14.1493 28.4705 14.6788 27.8182 14.6788Z"
        />
        <path
            d="M4.18176 14.6788C3.52939 14.6788 2.99994 14.1493 2.99994 13.4969C2.99994 9.55083 4.53631 5.8411 7.32658 3.05082C7.78868 2.58873 8.53559 2.58873 8.99768 3.05082C9.45977 3.51291 9.45977 4.25982 8.99768 4.72191C6.65413 7.06546 5.36358 10.1819 5.36358 13.4969C5.36358 14.1493 4.83412 14.6788 4.18176 14.6788Z"
        />
        <path
            d="M27.0843 21.8063C25.2974 20.2959 24.2727 18.0883 24.2727 15.7495V12.4545C24.2727 8.29571 21.1835 4.85307 17.1818 4.27634V2.99997C17.1818 2.34643 16.6524 1.81815 16 1.81815C15.3476 1.81815 14.8182 2.34643 14.8182 2.99997V4.27634C10.8154 4.85307 7.72726 8.29571 7.72726 12.4545V15.7495C7.72726 18.0883 6.70262 20.2959 4.90507 21.8157C4.44534 22.2093 4.1818 22.7813 4.1818 23.3864C4.1818 24.5268 5.10952 25.4546 6.24998 25.4546H25.75C26.8905 25.4546 27.8182 24.5268 27.8182 23.3864C27.8182 22.7813 27.5547 22.2093 27.0843 21.8063Z"
        />
        <path
            d="M16 30.1818C18.1403 30.1818 19.9308 28.6561 20.342 26.6364H11.658C12.0693 28.6561 13.8597 30.1818 16 30.1818Z"
        />
    </symbol>


    <!-- settings -->
    <symbol id="settings" viewBox="0 0 32 32">
        <path
            d="M16.9562 2.66679C17.9645 2.66679 18.8774 3.22679 19.3816 4.05346C19.6269 4.45346 19.7904 4.94679 19.7495 5.46679C19.7223 5.86679 19.8449 6.26679 20.0629 6.64013C20.7578 7.77346 22.2976 8.20013 23.4967 7.56013C24.8457 6.78679 26.5489 7.25346 27.3256 8.57346L28.2386 10.1468C29.0289 11.4668 28.5928 13.1601 27.2302 13.9201C26.072 14.6001 25.6632 16.1068 26.3582 17.2535C26.5762 17.6135 26.8215 17.9201 27.203 18.1068C27.6799 18.3601 28.0478 18.7601 28.3067 19.1601C28.8109 19.9868 28.77 21.0001 28.2794 21.8935L27.3256 23.4935C26.8215 24.3468 25.8813 24.8801 24.9138 24.8801C24.4369 24.8801 23.9055 24.7468 23.4694 24.4801C23.1152 24.2535 22.7064 24.1735 22.2703 24.1735C20.9214 24.1735 19.7904 25.2801 19.7495 26.6001C19.7495 28.1335 18.4959 29.3335 16.9289 29.3335H15.0758C13.4951 29.3335 12.2415 28.1335 12.2415 26.6001C12.2143 25.2801 11.0833 24.1735 9.73433 24.1735C9.28467 24.1735 8.87588 24.2535 8.53523 24.4801C8.09919 24.7468 7.55415 24.8801 7.09086 24.8801C6.10978 24.8801 5.16958 24.3468 4.66542 23.4935L3.72522 21.8935C3.22105 21.0268 3.1938 19.9868 3.69797 19.1601C3.91598 18.7601 4.32477 18.3601 4.78805 18.1068C5.16958 17.9201 5.41485 17.6135 5.6465 17.2535C6.3278 16.1068 5.91902 14.6001 4.7608 13.9201C3.41182 13.1601 2.97578 11.4668 3.75247 10.1468L4.66542 8.57346C5.45573 7.25346 7.14537 6.78679 8.50798 7.56013C9.69345 8.20013 11.2332 7.77346 11.9281 6.64013C12.1461 6.26679 12.2688 5.86679 12.2415 5.46679C12.2143 4.94679 12.3642 4.45346 12.6231 4.05346C13.1272 3.22679 14.0402 2.69346 15.0349 2.66679H16.9562ZM16.016 12.2401C13.8767 12.2401 12.1461 13.9201 12.1461 16.0135C12.1461 18.1068 13.8767 19.7735 16.016 19.7735C18.1553 19.7735 19.8449 18.1068 19.8449 16.0135C19.8449 13.9201 18.1553 12.2401 16.016 12.2401Z"
        />
    </symbol>
    <symbol id="search-icon" viewBox="0 0 24 24">
        <path
            d="M13.4097 14.8822C11.7399 16.1799 9.63851 16.7922 7.53338 16.5942C5.42824 16.3963 3.47766 15.403 2.07881 13.8166C0.679961 12.2303 -0.0619809 10.1701 0.00405863 8.05565C0.0700982 5.94118 0.939153 3.9314 2.43427 2.43552C3.92939 0.939633 5.93814 0.0701341 8.05152 0.00406071C10.1649 -0.0620127 12.224 0.680308 13.8096 2.07987C15.3951 3.47944 16.3879 5.43102 16.5857 7.53723C16.7836 9.64345 16.1717 11.7459 14.8745 13.4166L19.6936 18.2201C20.1016 18.6267 20.1022 19.2872 19.695 19.6946C19.2878 20.1021 18.6273 20.1017 18.2204 19.6939L13.4201 14.8822H13.4097ZM8.31916 14.5495C9.13773 14.5495 9.94829 14.3882 10.7045 14.0748C11.4608 13.7614 12.148 13.302 12.7268 12.7229C13.3056 12.1438 13.7647 11.4563 14.078 10.6996C14.3913 9.94298 14.5525 9.13201 14.5525 8.31302C14.5525 7.49403 14.3913 6.68306 14.078 5.92641C13.7647 5.16976 13.3056 4.48225 12.7268 3.90314C12.148 3.32402 11.4608 2.86465 10.7045 2.55123C9.94829 2.23782 9.13773 2.07651 8.31916 2.07651C6.66598 2.07651 5.08051 2.73356 3.91153 3.90314C2.74256 5.07271 2.08583 6.659 2.08583 8.31302C2.08583 9.96705 2.74256 11.5533 3.91153 12.7229C5.08051 13.8925 6.66598 14.5495 8.31916 14.5495Z"
        />
    </symbol>

    <!-- Tik-Tok -->
    <symbol id="tiktok" viewBox="0 0 32 32">
        <path
            d="M16 2C8.26578 2 2 8.26578 2 16C2 23.7342 8.26578 30 16 30C23.7342 30 30 23.7342 30 16C30 8.26578 23.7342 2 16 2ZM22.8133 14.6498C22.5893 14.6498 20.6356 14.6124 18.8311 13.312V18.9556C18.8311 21.6187 16.6658 23.784 14.0027 23.784C11.3396 23.784 9.17422 21.6187 9.17422 18.9556C9.17422 16.2924 11.3396 14.1271 14.0027 14.1271H14.7867V16.616H14.0027C12.7147 16.616 11.6631 17.6676 11.6631 18.9556C11.6631 20.2436 12.7147 21.2951 14.0027 21.2951C15.2907 21.2951 16.3422 20.2436 16.3422 18.9556V8.22222H18.8311V8.30311C18.8871 8.90667 19.2418 10.5307 20.2622 11.2773C21.432 12.136 22.8071 12.1609 22.8196 12.1609H22.8133V14.6498Z"
        />
    </symbol>


    <!-- Youtube -->
    <symbol id="youtube" viewBox="0 0 32 32">
        <path
            d="M29.3805 8.85766L29.4155 9.08825C29.0772 7.87766 28.1637 6.94354 27.0029 6.60355L26.9784 6.59766C24.7956 6.00002 16.0118 6.00002 16.0118 6.00002C16.0118 6.00002 7.25028 5.98825 5.04531 6.59766C3.86232 6.94354 2.94767 7.87766 2.61517 9.06354L2.60934 9.08825C1.79385 13.3835 1.78801 18.5447 2.6455 23.1435L2.60934 22.9106C2.94767 24.1212 3.86115 25.0553 5.02197 25.3953L5.04647 25.4012C7.22695 26 16.013 26 16.013 26C16.013 26 24.7734 26 26.9795 25.4012C28.1637 25.0553 29.0783 24.1212 29.4108 22.9353L29.4167 22.9106C29.7877 20.9129 30 18.6141 30 16.2659C30 16.18 30 16.0929 29.9988 16.0059C30 15.9259 30 15.8306 30 15.7353C30 13.3859 29.7877 11.0871 29.3805 8.85766ZM13.2095 20.2953V11.7153L20.5198 16.0118L13.2095 20.2953Z"
        />
    </symbol>

    <symbol id="comments" viewBox="0 0 17 17">
        <path
            d="M10.2374 4.82562L2.65115 4.84117C1.92449 4.84117 1.33337 5.43228 1.33337 6.15895V10.8569C1.33337 11.5836 1.92449 12.1745 2.65115 12.1745H4.00004V14.3967C4.00004 14.4885 4.05649 14.5709 4.14226 14.6041C4.16826 14.6141 4.19537 14.6189 4.22226 14.6189C4.2836 14.6189 4.34382 14.5934 4.38671 14.5463L6.54315 12.1741L10.2378 12.1589C10.9645 12.1589 11.5556 11.5678 11.5556 10.8414V6.14339C11.5556 5.41673 10.9645 4.82562 10.2374 4.82562ZM3.5556 7.04784H6.44448C6.56737 7.04784 6.66671 7.14739 6.66671 7.27006C6.66671 7.39273 6.56737 7.49228 6.44448 7.49228H3.5556C3.43271 7.49228 3.33337 7.39273 3.33337 7.27006C3.33337 7.14739 3.43271 7.04784 3.5556 7.04784ZM9.33337 10.1589H3.5556C3.43271 10.1589 3.33337 10.0594 3.33337 9.93673C3.33337 9.81406 3.43271 9.71451 3.5556 9.71451H9.33337C9.45626 9.71451 9.5556 9.81406 9.5556 9.93673C9.5556 10.0594 9.45626 10.1589 9.33337 10.1589ZM9.33337 8.82562H3.5556C3.43271 8.82562 3.33337 8.72606 3.33337 8.60339C3.33337 8.48073 3.43271 8.38117 3.5556 8.38117H9.33337C9.45626 8.38117 9.5556 8.48073 9.5556 8.60339C9.5556 8.72606 9.45626 8.82562 9.33337 8.82562Z"
        />
        <path
            d="M13.3494 2.39678L5.76225 2.38123C5.03558 2.38123 4.44447 2.97234 4.44447 3.699V4.39323L10.2365 4.38123C11.2091 4.38123 12 5.17167 12 6.14345V11.3052L12.7245 12.1021C12.7674 12.1492 12.8276 12.1748 12.8889 12.1748C12.9158 12.1748 12.9429 12.1699 12.9689 12.1599C13.0547 12.1268 13.1111 12.0443 13.1111 11.9526V9.73034H13.3489C14.0756 9.73034 14.6667 9.13923 14.6667 8.41278V3.71456C14.6667 2.98789 14.0756 2.39678 13.3494 2.39678Z"
        />


    </symbol>
</svg>