<svg xmlns="http://www.w3.org/2000/svg" style="display: none;">
    <symbol id="master-card" viewBox="0 0 24 24" fill="none">
        <path fill-rule="evenodd" clip-rule="evenodd"
            d="M14.5626 15.4464C13.0731 16.7318 11.1411 17.5077 9.02983 17.5077C4.319 17.5077 0.500122 13.6445 0.500122 8.87898C0.500122 4.11346 4.319 0.250244 9.02983 0.250244C11.1411 0.250244 13.0732 1.02619 14.5626 2.31154C16.0521 1.0262 17.9842 0.250264 20.0954 0.250264C24.8062 0.250264 28.6251 4.11348 28.6251 8.879C28.6251 13.6445 24.8062 17.5077 20.0954 17.5077C17.9842 17.5077 16.0521 16.7318 14.5626 15.4464Z"
            fill="#ED0006" />
        <path fill-rule="evenodd" clip-rule="evenodd"
            d="M14.5626 15.4464C16.3966 13.8638 17.5596 11.5088 17.5596 8.87898C17.5596 6.2492 16.3966 3.89419 14.5626 2.31152C16.0521 1.02618 17.9842 0.250244 20.0954 0.250244C24.8062 0.250244 28.6251 4.11346 28.6251 8.87898C28.6251 13.6445 24.8062 17.5077 20.0954 17.5077C17.9842 17.5077 16.0521 16.7318 14.5626 15.4464Z"
            fill="#F9A000" />
        <path fill-rule="evenodd" clip-rule="evenodd"
            d="M14.5626 15.4464C16.3966 13.8638 17.5596 11.5088 17.5596 8.87898C17.5596 6.2492 16.3966 3.89419 14.5626 2.31152C12.7286 3.89419 11.5657 6.2492 11.5657 8.87898C11.5657 11.5088 12.7286 13.8638 14.5626 15.4464Z"
            fill="#FF5E00" />
    </symbol>
</svg>