<svg xmlns="http://www.w3.org/2000/svg" style="display: none;">
    <!-- detail-tabs -->
    <symbol id="smart-icon-1" viewBox="0 0 24 24" fill="none">
        <g clip-path="url(#a)" stroke-width="1.833" stroke-linecap="round"
            stroke-linejoin="round">
            <path d="M12 21.03a9.03 9.03 0 1 0 0-18.06 9.03 9.03 0 0 0 0 18.06" />
            <path
                d="M8.388 13.806S9.743 15.612 12 15.612s3.612-1.806 3.612-1.806M9.29 9.291h.01m5.409 0h.01" />
        </g>
        <defs>
            <clipPath id="a">
                <path fill="#fff" d="M0 0h24v24H0z" />
            </clipPath>
        </defs>
    </symbol>

    <!-- detail-tabs-1 -->
    <symbol id="smart-icon-2" viewBox="0 0 24 24">
        <g clip-path="url(#clip0_71_6117)">
            <g clip-path="url(#clip1_71_6117)">
                <path
                    d="M8.50326 15.9355C6.163 13.6371 5.24548 10.1147 6.11805 6.96313C0.963523 8.91879 -0.671665 15.4687 2.94693 19.6278L1.929 22.5579L5.20195 21.4209C8.80418 23.399 13.5844 22.1071 15.6976 18.6206C13.0209 18.8118 10.397 17.8386 8.50326 15.9355Z"
                />
                <path
                    d="M21.2677 14.3505C25.4097 9.21211 21.6452 1.41138 15.0405 1.44223C10.6186 1.42375 7.0552 5.11274 7.08442 9.39834C7.08442 13.7854 10.6539 17.3545 15.0406 17.3545C16.3526 17.3592 17.6273 17.0308 18.7913 16.4212L22.0643 17.5582L21.0464 14.6281L21.2677 14.3505ZM11.307 12.2609C11.0068 12.1465 10.4027 11.9165 10.1026 11.8024C10.4538 10.8794 12.2569 6.14507 12.6463 5.12245L13.8031 5.12116L16.3249 11.8041C16.0243 11.9174 15.4193 12.1457 15.1188 12.2592C15.0636 12.1131 14.7507 11.2832 14.6887 11.1188H11.7418C11.6179 11.4459 11.431 11.9343 11.307 12.2609ZM19.4015 12.2734H18.1124V8.79415H19.4015V12.2734ZM19.4015 7.2645H18.1124V5.97543H19.4015V7.2645Z"
                />
                <path d="M13.2221 7.23267L12.233 9.82976H14.2023L13.2221 7.23267Z" />
            </g>
        </g>
        <defs>
            <clipPath id="clip0_71_6117">
                <rect width="24" height="24" />
            </clipPath>
            <clipPath id="clip1_71_6117">
                <rect width="22" height="22" transform="translate(1 1)" />
            </clipPath>
        </defs>
    </symbol>

    <!-- detail-tabs-2 -->
    <symbol id="smart-icon-3" viewBox="0 0 24 24">
        <g clip-path="url(#clip0_119_4625)">
            <path
                d="M11.5 12C11.2188 12 11 11.7813 11 11.5V4.5C11 4.25 11.2188 4 11.5 4H13.8438C15.1562 4 16.3438 4.96875 16.4688 6.28125C16.4688 6.375 16.4688 6.4375 16.4688 6.53125C16.4688 6.9375 16.375 7.34375 16.1875 7.6875C16.6875 8.15625 17 8.78125 17 9.5C17 9.5625 16.9688 9.625 16.9688 9.65625C16.9062 11 15.6875 12 14.3438 12H11.5ZM12.75 5.75V7.25H14C14.4062 7.25 14.75 6.9375 14.75 6.5C14.75 6.09375 14.4062 5.75 14 5.75H12.75ZM12.75 8.75V10.25H14.5C14.9062 10.25 15.25 9.9375 15.25 9.5C15.25 9.09375 14.9062 8.75 14.5 8.75H12.75ZM7.84375 4.71875L9.96875 11.375C9.96875 11.4375 10 11.4688 10 11.5C10 11.7813 9.75 12 9.5 12H8.71875C8.46875 12 8.28125 11.875 8.21875 11.6563L7.84375 10.5H5.125L4.75 11.6563C4.6875 11.875 4.5 12 4.25 12H3.5C3.21875 12 3 11.7813 3 11.5313C3 11.4688 3 11.4375 3 11.375L5.125 4.71875C5.28125 4.3125 5.65625 4 6.09375 4H6.875C7.3125 4 7.6875 4.3125 7.84375 4.71875ZM5.78125 8.5H7.1875L6.5 6.375L5.78125 8.5ZM20.8438 12.6563C20.9375 12.75 21 12.875 21 13C21 13.1563 20.9375 13.2813 20.8438 13.375L14.3438 19.875C14.25 19.9688 14.125 20.0313 14 20.0313C13.8438 20.0313 13.7188 19.9688 13.625 19.875L10.125 16.375C10.0312 16.2813 10 16.1563 10 16C10 15.875 10.0312 15.75 10.125 15.6563L11.5625 14.25C11.625 14.1563 11.75 14.0938 11.9062 14.0938C12.0312 14.0938 12.1562 14.1563 12.25 14.25L14 15.9688L18.7188 11.25C18.8125 11.1563 18.9375 11.0938 19.0625 11.0938C19.2188 11.0938 19.3438 11.1563 19.4375 11.25L20.8438 12.6563Z"
            />
        </g>
        <defs>
            <clipPath id="clip0_119_4625">
                <rect width="24" height="24" fill="white" />
            </clipPath>
        </defs>
    </symbol>

    <!-- detail-tabs-3-->
    <symbol id="smart-icon-4" width="24" height="24" viewBox="0 0 24 24">
        <g clip-path="url(#clip0_71_6125)">
            <path
                d="M4.52628 3.06514C4.14123 3.17708 3.90967 3.31591 3.61111 3.61379C3.41447 3.80999 3.29542 3.96447 3.21818 4.12376C2.98036 4.61402 2.99429 4.21696 3.00463 10.2129L3.01395 15.6374L3.096 15.8562C3.27294 16.3281 3.65082 16.7746 4.05566 16.9903C4.44919 17.1999 4.63714 17.2396 5.34273 17.2618L5.98329 17.2821L5.99338 18.9586L6.00344 20.6351L6.1048 20.7679C6.26356 20.9759 6.53694 21.0539 6.78369 20.9617C6.83814 20.9413 7.70569 20.1033 8.71156 19.0994L10.5404 17.274L14.9191 17.2637C19.0534 17.254 19.3087 17.2499 19.4913 17.1891C20.1636 16.9654 20.6657 16.4917 20.904 15.8562L20.9861 15.6374L20.9954 10.2129C21.0057 4.21696 21.0196 4.61402 20.7818 4.12376C20.6302 3.81119 20.1909 3.37202 19.8782 3.2205C19.3865 2.98217 19.9749 2.99852 11.9774 3.00126C5.198 3.00362 4.72387 3.0077 4.52628 3.06514ZM12.8089 5.35482C13.4005 5.49686 14.0506 5.88157 14.4771 6.34194C15.067 6.97879 15.3524 7.71626 15.3535 8.60617C15.3541 9.17274 15.2705 9.54023 15.0251 10.0489C14.8196 10.4748 14.5683 10.8037 14.1826 11.1513C13.8635 11.4389 13.6819 11.6827 13.5975 11.9365L13.5418 12.1042L12.5625 12.1042L12.5625 9.74568C12.5625 9.43741 12.3126 9.1875 12.0043 9.1875C11.6968 9.1875 11.4473 9.43616 11.4461 9.74364L11.4375 12.1042L10.4636 12.1042L10.4199 11.9548C10.3433 11.6936 10.2159 11.5208 9.85182 11.1842C9.65666 11.0038 9.41297 10.7454 9.3103 10.6101C7.95016 8.81721 8.73555 6.23791 10.8798 5.45569C11.4684 5.24099 12.1799 5.20379 12.8089 5.35482ZM13.5123 13.2399C13.5123 13.5596 13.5016 13.6236 13.4208 13.7858C13.314 13.9998 13.1597 14.1293 12.928 14.1989C12.7223 14.2608 11.3385 14.2691 11.1032 14.2099C10.9137 14.1622 10.6866 13.9734 10.5849 13.7791C10.5244 13.6635 10.5057 13.5556 10.4943 13.2556L10.4799 12.8776H11.9961H13.5123V13.2399Z"
            />
        </g>
        <defs>
            <clipPath id="clip0_71_6125">
                <rect width="24" height="24" />
            </clipPath>
        </defs>
    </symbol>

    <!-- detail-tabs-5 -->
    <symbol id="smart-icon-5" width="24" height="24" viewBox="0 0 24 24">
        <g clip-path="url(#clip0_71_6129)">
            <path d="M16.4487 16.2501L15.7306 14.814L15.0125 16.2501H16.4487Z" />
            <path
                d="M19.2537 10.6615H18.5231V9.11595C18.5231 8.97013 18.4614 8.83115 18.3532 8.73339C18.245 8.63562 18.1004 8.58829 17.9554 8.60297C17.8734 8.61129 16.0344 8.81925 15.1188 10.6615H14.3696V11.7921C14.3696 13.2133 13.2133 14.3696 11.7921 14.3696H10.6615V19.2537C10.6615 20.1063 11.3552 20.7999 12.2077 20.7999H19.2537C20.1062 20.7999 20.7999 20.1063 20.7999 19.2537V12.2078C20.7999 11.3552 20.1062 10.6615 19.2537 10.6615ZM13.1997 17.57L15.2695 13.4303C15.3568 13.2557 15.5353 13.1453 15.7307 13.1453C15.926 13.1453 16.1045 13.2557 16.1919 13.4303L18.2617 17.57C18.3891 17.8247 18.2858 18.1344 18.0311 18.2618C17.7764 18.3891 17.4667 18.2859 17.3393 18.0312L16.9644 17.2813H14.497L14.1221 18.0312C14.0317 18.2118 13.8496 18.3163 13.6605 18.3163C13.583 18.3163 13.5043 18.2988 13.4303 18.2618C13.1756 18.1344 13.0723 17.8247 13.1997 17.57Z"
            />
            <path
                d="M8.75764 7.54272H7.78046C7.84426 8.05357 8.00779 8.48309 8.26907 8.82917C8.53032 8.48309 8.69384 8.05357 8.75764 7.54272Z"
            />
            <path
                d="M11.7922 13.3383C12.6448 13.3383 13.3384 12.6447 13.3384 11.7921V4.74621C13.3384 3.8936 12.6447 3.19995 11.7922 3.19995H4.74625C3.89365 3.19995 3.2 3.8936 3.2 4.74621V11.7921C3.2 12.6447 3.89365 13.3383 4.74622 13.3383H5.47676V14.8839C5.47676 15.0298 5.53849 15.1687 5.64667 15.2665C5.74189 15.3525 5.86523 15.3996 5.99235 15.3996C6.00964 15.3996 6.02706 15.3987 6.04442 15.3969C6.12651 15.3886 7.9655 15.1806 8.88108 13.3383H11.7922ZM8.544 10.38C8.4538 10.3318 8.36168 10.2775 8.26921 10.217C8.1767 10.2775 8.08461 10.3319 7.99441 10.38C7.11462 10.8492 6.23637 10.8546 6.19942 10.8546C5.91466 10.8546 5.6838 10.6237 5.6838 10.3389C5.6838 10.0542 5.91466 9.82332 6.19942 9.82332C6.20396 9.82329 6.84014 9.81404 7.47315 9.48879C7.11098 9.025 6.82553 8.3957 6.74306 7.54289H6.19939C5.91462 7.54289 5.68376 7.31202 5.68376 7.02726C5.68376 6.7425 5.91462 6.51164 6.19939 6.51164H7.75358V6.19934C7.75358 5.91458 7.98445 5.68372 8.26921 5.68372C8.55397 5.68372 8.78483 5.91458 8.78483 6.19934V6.51164H10.339C10.6238 6.51164 10.8546 6.7425 10.8546 7.02726C10.8546 7.31202 10.6238 7.54289 10.339 7.54289H9.79539C9.71289 8.3957 9.42747 9.025 9.0653 9.48879C9.69828 9.81404 10.3346 9.82325 10.3411 9.82332C10.6259 9.82332 10.8557 10.0542 10.8557 10.3389C10.8557 10.6237 10.6238 10.8546 10.339 10.8546C10.302 10.8546 9.42379 10.8492 8.544 10.38Z"
            />
            <path
                d="M15.7701 6.14998C15.8707 6.25067 16.0027 6.30103 16.1346 6.30103C16.2666 6.30103 16.3986 6.2507 16.4992 6.14998C16.7006 5.94861 16.7006 5.62215 16.4992 5.42079L16.3512 5.27277C18.249 5.38521 19.7586 6.96453 19.7586 8.89008C19.7586 9.17484 19.9895 9.40571 20.2742 9.40571C20.559 9.40571 20.7899 9.17484 20.7899 8.89008C20.7899 6.39195 18.8118 4.34739 16.3398 4.23963L16.4992 4.08016C16.7006 3.87879 16.7006 3.55233 16.4992 3.35096C16.2979 3.14963 15.9714 3.1496 15.77 3.35096L14.7352 4.38589C14.5338 4.58726 14.5338 4.91372 14.7352 5.11509L15.7701 6.14998Z"
            />
            <path
                d="M8.21985 17.8397C8.01851 17.6383 7.69202 17.6383 7.49065 17.8397C7.28928 18.0411 7.28928 18.3675 7.49065 18.5689L7.63867 18.7169C5.74086 18.6045 4.23125 17.0252 4.23125 15.0996C4.23125 14.8148 4.00038 14.584 3.71562 14.584C3.43086 14.584 3.2 14.8148 3.2 15.0996C3.2 17.5977 5.17804 19.6423 7.65011 19.7501L7.49065 19.9095C7.28928 20.1109 7.28928 20.4374 7.49065 20.6387C7.59133 20.7394 7.7233 20.7897 7.85523 20.7897C7.98716 20.7897 8.11916 20.7394 8.21981 20.6387L9.2547 19.6038C9.45607 19.4024 9.45607 19.076 9.2547 18.8746L8.21985 17.8397Z"
            />
        </g>
        <defs>
            <clipPath id="clip0_71_6129">
                <rect width="24" height="24" />
            </clipPath>
        </defs>
    </symbol>

    <symbol id="smiley" width="24" height="24" viewBox="0 0 24 24">
        <path fill-rule="evenodd" clip-rule="evenodd"
            d="M12 4C7.58892 4 4 7.58871 4 12C4 16.4113 7.58892 20 12 20C16.4111 20 20 16.4113 20 12C20 7.58871 16.4111 4 12 4ZM15.192 14.4701C14.3119 15.3502 13.1559 15.7901 12 15.7901C10.8441 15.7901 9.68814 15.3502 8.80796 14.4701C8.63853 14.3006 8.63853 13.5262 8.80796 13.3567C8.97739 13.1873 9.25187 13.1873 9.42129 13.3567C10.8436 14.7787 13.1564 14.7787 14.5787 13.3567C14.7481 13.1873 15.0226 13.1873 15.192 13.3567C15.3615 13.5262 15.3615 14.3006 15.192 14.4701ZM11 10.25C11 10.9404 10.4404 11.5 9.75 11.5C9.05964 11.5 8.5 10.9404 8.5 10.25C8.5 9.55964 9.05964 9 9.75 9C10.4404 9 11 9.55964 11 10.25ZM14.25 11.5C14.9404 11.5 15.5 10.9404 15.5 10.25C15.5 9.55964 14.9404 9 14.25 9C13.5596 9 13 9.55964 13 10.25C13 10.9404 13.5596 11.5 14.25 11.5Z" />
    </symbol>
    <symbol id="nutral-smiley" width="24" height="24" viewBox="0 0 24 24">

        <path
            d="M20 12C20 16.4113 16.4111 20 12 20C7.58892 20 4 16.4113 4 12C4 7.58871 7.58892 4 12 4C16.4111 4 20 7.58871 20 12ZM15.25 14.5C15.25 14.25 15.1251 13.8271 14.8854 13.8271H9.11463C8.87489 13.8271 8.61178 14.2605 8.61178 14.5C8.61178 14.7395 8.87489 15.1946 9.11463 15.1946H14.8854C15.1251 15.1946 15.25 14.75 15.25 14.5ZM9.75 11.5C10.4404 11.5 11 10.9404 11 10.25C11 9.55964 10.4404 9 9.75 9C9.05964 9 8.5 9.55964 8.5 10.25C8.5 10.9404 9.05964 11.5 9.75 11.5ZM14.25 11.5C14.9404 11.5 15.5 10.9404 15.5 10.25C15.5 9.55964 14.9404 9 14.25 9C13.5596 9 13 9.55964 13 10.25C13 10.9404 13.5596 11.5 14.25 11.5Z"
        />
    </symbol>
    <symbol id="thumbs-up" width="24" height="24" viewBox="0 0 24 24">

        <path
            d="M20.3812 12.9563C20.7936 12.4839 21 11.9252 21 11.2801C21 10.6951 20.7859 10.1889 20.3593 9.76122C19.9318 9.33354 19.4256 9.11982 18.8407 9.11982H15.7246C15.7545 9.01485 15.7845 8.92485 15.8145 8.84987C15.8442 8.77488 15.8858 8.69229 15.9381 8.60229C15.9905 8.51226 16.0281 8.44472 16.0505 8.3998C16.1855 8.14494 16.2888 7.9348 16.3601 7.76994C16.4313 7.60476 16.5022 7.37985 16.5737 7.09485C16.645 6.81 16.6805 6.52488 16.6805 6.23987C16.6805 6.05996 16.6783 5.91357 16.6748 5.80116C16.6713 5.68866 16.6522 5.51986 16.6187 5.29483C16.5847 5.06991 16.5397 4.88239 16.4836 4.73246C16.4272 4.58249 16.3371 4.41361 16.2136 4.22625C16.0898 4.03853 15.9399 3.88687 15.7635 3.77055C15.5871 3.65431 15.3622 3.55683 15.0884 3.47814C14.8144 3.39937 14.5052 3.36001 14.16 3.36001C13.9651 3.36001 13.7964 3.43129 13.6538 3.57381C13.5038 3.72378 13.3761 3.91126 13.2712 4.13617C13.1662 4.36121 13.093 4.55621 13.0517 4.72127C13.0105 4.88625 12.9635 5.11507 12.9113 5.40748C12.8435 5.72263 12.7931 5.94935 12.7592 6.08809C12.7255 6.22683 12.6597 6.40868 12.5623 6.63363C12.4647 6.85874 12.3485 7.03862 12.2135 7.17369C11.9661 7.42114 11.5873 7.87117 11.0772 8.52361C10.7096 9.00354 10.3309 9.45727 9.94096 9.88479C9.55091 10.3124 9.26594 10.5336 9.08599 10.5486C8.89863 10.5636 8.73735 10.6405 8.60231 10.7793C8.46728 10.918 8.39978 11.0812 8.39978 11.2686V18.4798C8.39978 18.6748 8.47098 18.8416 8.6135 18.9804C8.75595 19.1193 8.92471 19.1924 9.11972 19.1999C9.38218 19.2074 9.97469 19.3722 10.8972 19.695C11.4747 19.8897 11.9264 20.0381 12.2527 20.1392C12.5789 20.2403 13.0348 20.3491 13.6194 20.4655C14.2045 20.5817 14.7444 20.64 15.2392 20.64H15.4305H16.2856H16.6905C17.6882 20.625 18.4266 20.3324 18.9068 19.7626C19.3417 19.245 19.5253 18.5662 19.4581 17.7262C19.7505 17.4488 19.9532 17.0964 20.0655 16.6688C20.1928 16.2116 20.1928 15.7728 20.0655 15.3529C20.4104 14.8953 20.5717 14.3816 20.5491 13.8116C20.55 13.5714 20.4939 13.2864 20.3812 12.9563Z"
        />
        <path
            d="M6.96003 10.5601H3.72013C3.52501 10.5601 3.35624 10.6314 3.21376 10.7739C3.07128 10.9163 3 11.0851 3 11.2801V18.4803C3 18.6751 3.07128 18.8439 3.2138 18.9865C3.3564 19.1288 3.52517 19.2001 3.72017 19.2001H6.96003C7.15499 19.2001 7.32368 19.1288 7.46624 18.9865C7.60872 18.8439 7.67996 18.6751 7.67996 18.4803V11.2801C7.67996 11.0851 7.60868 10.9164 7.46624 10.7739C7.32372 10.6313 7.15503 10.5601 6.96003 10.5601ZM5.66622 17.552C5.52374 17.6907 5.35501 17.76 5.16001 17.76C4.95747 17.76 4.78682 17.6907 4.64816 17.552C4.50942 17.4132 4.44007 17.2426 4.44007 17.0401C4.44007 16.8451 4.50938 16.6763 4.64816 16.5339C4.78686 16.3914 4.95747 16.32 5.16001 16.32C5.35501 16.32 5.52374 16.3914 5.66622 16.5339C5.80874 16.6763 5.88002 16.8451 5.88002 17.0401C5.88002 17.2426 5.8089 17.4132 5.66622 17.552Z"
        />


    </symbol>

    <symbol id="ai-star" width="24" height="24" viewBox="0 0 24 24">
        <path
            d="M9.97051 5.577L10.5728 7.2495C11.2418 9.10575 12.7035 10.5675 14.5598 11.2365L16.2323 11.8388C16.383 11.8935 16.383 12.1073 16.2323 12.1613L14.5598 12.7635C12.7035 13.4325 11.2418 14.8943 10.5728 16.7505L9.97051 18.423C9.91576 18.5738 9.70201 18.5738 9.64801 18.423L9.04576 16.7505C8.37676 14.8943 6.91501 13.4325 5.05876 12.7635L3.38626 12.1613C3.23551 12.1065 3.23551 11.8928 3.38626 11.8388L5.05876 11.2365C6.91501 10.5675 8.37676 9.10575 9.04576 7.2495L9.64801 5.577C9.70201 5.4255 9.91576 5.4255 9.97051 5.577Z"
        />
        <path
            d="M17.4991 1.55769L17.8043 2.40444C18.1433 3.34419 18.8836 4.08444 19.8233 4.42344L20.6701 4.72869C20.7466 4.75644 20.7466 4.86444 20.6701 4.89219L19.8233 5.19744C18.8836 5.53644 18.1433 6.27669 17.8043 7.21644L17.4991 8.06319C17.4713 8.13969 17.3633 8.13969 17.3356 8.06319L17.0303 7.21644C16.6913 6.27669 15.9511 5.53644 15.0113 5.19744L14.1646 4.89219C14.0881 4.86444 14.0881 4.75644 14.1646 4.72869L15.0113 4.42344C15.9511 4.08444 16.6913 3.34419 17.0303 2.40444L17.3356 1.55769C17.3633 1.48044 17.4721 1.48044 17.4991 1.55769Z"
        />
        <path
            d="M17.4991 15.9375L17.8043 16.7843C18.1433 17.724 18.8836 18.4643 19.8233 18.8033L20.6701 19.1085C20.7466 19.1363 20.7466 19.2443 20.6701 19.272L19.8233 19.5773C18.8836 19.9163 18.1433 20.6565 17.8043 21.5963L17.4991 22.443C17.4713 22.5195 17.3633 22.5195 17.3356 22.443L17.0303 21.5963C16.6913 20.6565 15.9511 19.9163 15.0113 19.5773L14.1646 19.272C14.0881 19.2443 14.0881 19.1363 14.1646 19.1085L15.0113 18.8033C15.9511 18.4643 16.6913 17.724 17.0303 16.7843L17.3356 15.9375C17.3633 15.861 17.4721 15.861 17.4991 15.9375Z"
        />
    </symbol>

    <symbol id="arrow-right" width="24" height="24" viewBox="0 0 24 24">
        <path
            d="M23.52 15.0984C23.52 14.7721 23.3856 14.4626 23.1527 14.2525L17.6998 9.33312C17.2617 8.94274 16.6113 9.00696 16.2471 9.47656C15.8861 9.94206 15.9414 10.6322 16.3711 11.0249L19.6608 13.9926H12.12C6.96639 13.9859 2.78998 9.50984 2.78316 3.98584C2.78316 3.37517 2.32131 2.88012 1.75158 2.88012C1.18185 2.88012 0.719999 3.37517 0.719999 3.98584C0.727957 10.7307 5.82741 16.1962 12.12 16.2041H19.6598L16.3711 19.1729C15.9376 19.5691 15.8858 20.267 16.2554 20.7317C16.6218 21.1923 17.2655 21.2516 17.6998 20.8647L23.1579 15.9453C23.3891 15.734 23.5216 15.4241 23.52 15.0984Z"
        />
    </symbol>

    <!--Calender  -->
    <symbol id="calender" viewBox="0 0 20 20" fill="none">
        <path
            d="M17.5 8.33341H2.5M13.3333 1.66675V5.00008M6.66667 1.66675V5.00008M6.5 18.3334H13.5C14.9001 18.3334 15.6002 18.3334 16.135 18.0609C16.6054 17.8212 16.9878 17.4388 17.2275 16.9684C17.5 16.4336 17.5 15.7335 17.5 14.3334V7.33341C17.5 5.93328 17.5 5.23322 17.2275 4.69844C16.9878 4.22803 16.6054 3.84558 16.135 3.6059C15.6002 3.33341 14.9001 3.33341 13.5 3.33341H6.5C5.09987 3.33341 4.3998 3.33341 3.86502 3.6059C3.39462 3.84558 3.01217 4.22803 2.77248 4.69844C2.5 5.23322 2.5 5.93328 2.5 7.33341V14.3334C2.5 15.7335 2.5 16.4336 2.77248 16.9684C3.01217 17.4388 3.39462 17.8212 3.86502 18.0609C4.3998 18.3334 5.09987 18.3334 6.5 18.3334Z"
            stroke-width="1.33333" stroke-linecap="round" stroke-linejoin="round" />

    </symbol>
    <symbol id="filter" viewBox="0 0 20 20">
        <path d="M12 12L18 6V3H3V6L9 12V18L12 15V12Z" />

    </symbol>

    <symbol id="replyFilled" viewBox="0 0 24 24">
        <path
            d="M8.33333 6.50008V3.16675L2.5 9.00008L8.33333 14.8334V11.4167C12.5 11.4167 15.4167 12.7501 17.5 15.6667C16.6667 11.5001 14.1667 7.33341 8.33333 6.50008Z" />

    </symbol>
    <symbol id="message" viewBox="0 0 512 470">
        <path
            d="M85.3333 196.301H196.267C198.53 196.301 200.7 195.402 202.301 193.802C203.901 192.202 204.8 190.031 204.8 187.768C204.8 185.505 203.901 183.334 202.301 181.734C200.7 180.134 198.53 179.235 196.267 179.235H85.3333C83.0701 179.235 80.8997 180.134 79.2993 181.734C77.699 183.334 76.8 185.505 76.8 187.768C76.8 190.031 77.699 192.202 79.2993 193.802C80.8997 195.402 83.0701 196.301 85.3333 196.301ZM307.2 230.435H85.3333C83.0701 230.435 80.8997 231.334 79.2993 232.934C77.699 234.534 76.8 236.705 76.8 238.968C76.8 241.231 77.699 243.402 79.2993 245.002C80.8997 246.602 83.0701 247.501 85.3333 247.501H307.2C309.463 247.501 311.634 246.602 313.234 245.002C314.834 243.402 315.733 241.231 315.733 238.968C315.733 236.705 314.834 234.534 313.234 232.934C311.634 231.334 309.463 230.435 307.2 230.435ZM307.2 281.635H85.3333C83.0701 281.635 80.8997 282.534 79.2993 284.134C77.699 285.734 76.8 287.905 76.8 290.168C76.8 292.431 77.699 294.602 79.2993 296.202C80.8997 297.802 83.0701 298.701 85.3333 298.701H307.2C309.463 298.701 311.634 297.802 313.234 296.202C314.834 294.602 315.733 292.431 315.733 290.168C315.733 287.905 314.834 285.734 313.234 284.134C311.634 282.534 309.463 281.635 307.2 281.635Z"
            fill="black" />
        <path
            d="M461.414 0.632003L170.069 0.034668C142.165 0.034668 119.467 22.7333 119.467 50.6373V94.3621L50.6027 94.5072C22.6987 94.5072 0 117.206 0 145.11V325.513C0 353.417 22.6987 376.107 50.6027 376.107H102.4V461.441C102.399 463.163 102.92 464.846 103.894 466.267C104.867 467.688 106.248 468.781 107.855 469.403C109.462 470.024 111.219 470.145 112.895 469.749C114.572 469.353 116.089 468.458 117.248 467.184L200.055 376.09L341.931 375.51C369.835 375.51 392.533 352.811 392.533 324.916V323.951L437.419 373.325C438.581 374.591 440.098 375.477 441.772 375.868C443.445 376.259 445.198 376.137 446.801 375.517C448.404 374.897 449.783 373.808 450.758 372.393C451.733 370.977 452.259 369.301 452.267 367.582V282.249H461.397C489.301 282.249 512 259.55 512 231.655V51.2347C511.984 37.8218 506.65 24.9626 497.167 15.4767C487.685 5.99073 474.827 0.652326 461.414 0.632003ZM375.467 324.907C375.455 333.803 371.914 342.331 365.619 348.617C359.325 354.904 350.793 358.435 341.897 358.435L196.233 359.032C195.049 359.036 193.88 359.287 192.799 359.767C191.718 360.247 190.748 360.947 189.952 361.822L119.467 439.365V367.565C119.467 365.302 118.568 363.132 116.967 361.531C115.367 359.931 113.197 359.032 110.933 359.032H50.6027C41.7126 359.023 33.1891 355.488 26.9021 349.203C20.6151 342.917 17.078 334.395 17.0667 325.505V145.101C17.078 136.208 20.6172 127.682 26.9076 121.394C33.1981 115.107 41.7259 111.572 50.6197 111.565L128 111.403H128.017L341.931 110.959C350.822 110.969 359.347 114.505 365.634 120.792C371.922 127.079 375.458 135.604 375.467 144.495V324.907ZM494.933 231.638C494.922 240.528 491.385 249.051 485.098 255.336C478.811 261.621 470.287 265.156 461.397 265.165H443.733C441.47 265.165 439.3 266.064 437.699 267.665C436.099 269.265 435.2 271.435 435.2 273.699V345.498L392.533 298.565V144.504C392.533 116.6 369.835 93.9013 341.914 93.9013L136.533 94.3195V50.6288C136.542 41.7402 140.076 33.218 146.36 26.9313C152.643 20.6445 161.164 17.1064 170.052 17.0928L461.389 17.6901H461.406C470.297 17.6992 478.822 21.2353 485.109 27.5226C491.397 33.8098 494.933 42.3346 494.942 51.2261L494.933 231.638Z"
            fill="black" />

    </symbol>


    <symbol id="stats-icon" viewBox="0 0 24 24">
        <path d="M8.14764 11.4177H10.1689V15.6005H8.14764V11.4177Z" />
        <path d="M13.6905 8.45337V9.29449V15.6005H15.7117V8.45337H13.6905Z" />
        <path d="M10.9189 11.0429V15.6007H12.9405V9.66968H10.9189V11.0429Z" />
        <path
            d="M1.57349 14.1614C1.90611 16.8183 3.26174 19.2644 5.34749 20.971L7.31624 19.0023C5.99924 17.893 4.60911 16.1365 4.21386 14.1618L1.57349 14.1614Z"
        />
        <path
            d="M9.45225 20.3191L7.461 22.3103C8.862 22.9842 10.4156 23.3412 11.988 23.3412C17.7817 23.3412 22.4955 18.6275 22.4955 12.8337C22.4955 7.70446 18.7721 3.32821 13.7674 2.48071V5.13796C17.3389 5.95434 19.9024 9.13884 19.9024 12.8378C19.9024 17.1987 16.3545 20.7466 11.9936 20.7466C11.1184 20.7466 10.266 20.5981 9.45262 20.3191H9.45225Z"
        />
        <path
            d="M1.5401 11.7687H4.16585C4.64098 8.19312 7.45685 5.41887 11.0448 4.99024V2.37012C6.03072 2.81562 2.04073 6.76174 1.5401 11.7687Z"
        />
    </symbol>

    <symbol id="compare-icon" viewBox="0 0 24 24">
        <path
            d="M1.73566 5.41844C1.73566 4.66687 2.34492 4.05762 3.09649 4.05762H6.37391C7.12548 4.05762 7.73474 4.66687 7.73474 5.41844V8.69586C7.73474 9.44743 7.12548 10.0567 6.37391 10.0567H3.09649C2.34492 10.0567 1.73566 9.44743 1.73566 8.69586V5.41844ZM12.3397 5.41844C12.3397 4.66687 12.949 4.05762 13.7005 4.05762H16.978C17.7295 4.05762 18.3388 4.66687 18.3388 5.41844V8.69586C18.3388 9.44743 17.7295 10.0567 16.978 10.0567H13.7005C12.949 10.0567 12.3397 9.44743 12.3397 8.69586V5.41844ZM11.3995 12.1002H17.8029C18.099 12.1002 18.339 11.8602 18.339 11.5641C18.339 11.2681 18.099 11.0281 17.8029 11.0281H2.27175C1.97567 11.0281 1.73566 11.2681 1.73566 11.5641C1.73566 11.8602 1.97567 12.1002 2.27175 12.1002H8.64455L6.17983 16.3692C5.65605 17.2765 6.31078 18.4105 7.35834 18.4105H12.6857C13.7333 18.4105 14.388 17.2765 13.8642 16.3692L11.3995 12.1002Z"
        />
    </symbol>
    <symbol id="menu-icon" viewBox="0 0 24 24">
        <path
            d="M17 5C17 4.40666 17.1759 3.82664 17.5056 3.33329C17.8352 2.83994 18.3038 2.45543 18.8519 2.22836C19.4001 2.0013 20.0033 1.94189 20.5853 2.05765C21.1672 2.1734 21.7018 2.45912 22.1213 2.87868C22.5409 3.29824 22.8266 3.83279 22.9424 4.41473C23.0581 4.99667 22.9987 5.59987 22.7716 6.14805C22.5446 6.69623 22.1601 7.16477 21.6667 7.49441C21.1734 7.82405 20.5933 8 20 8C19.2044 8 18.4413 7.68393 17.8787 7.12132C17.3161 6.55871 17 5.79565 17 5ZM2 6H14C14.2652 6 14.5196 5.89464 14.7071 5.70711C14.8946 5.51957 15 5.26522 15 5C15 4.73478 14.8946 4.48043 14.7071 4.29289C14.5196 4.10536 14.2652 4 14 4H2C1.73478 4 1.48043 4.10536 1.29289 4.29289C1.10536 4.48043 1 4.73478 1 5C1 5.26522 1.10536 5.51957 1.29289 5.70711C1.48043 5.89464 1.73478 6 2 6ZM8 9C7.38106 9.00174 6.7778 9.19488 6.27293 9.55294C5.76807 9.911 5.38631 10.4165 5.18 11H2C1.73478 11 1.48043 11.1054 1.29289 11.2929C1.10536 11.4804 1 11.7348 1 12C1 12.2652 1.10536 12.5196 1.29289 12.7071C1.48043 12.8946 1.73478 13 2 13H5.18C5.36345 13.5189 5.6861 13.9773 6.11264 14.3251C6.53918 14.6729 7.05317 14.8966 7.59836 14.9718C8.14355 15.0471 8.69893 14.9709 9.20371 14.7516C9.70849 14.5323 10.1432 14.1784 10.4603 13.7286C10.7775 13.2788 10.9647 12.7504 11.0017 12.2013C11.0386 11.6522 10.9238 11.1035 10.6697 10.6153C10.4157 10.1271 10.0323 9.71812 9.5614 9.43323C9.09052 9.14833 8.55035 8.99846 8 9ZM22 11H14C13.7348 11 13.4804 11.1054 13.2929 11.2929C13.1054 11.4804 13 11.7348 13 12C13 12.2652 13.1054 12.5196 13.2929 12.7071C13.4804 12.8946 13.7348 13 14 13H22C22.2652 13 22.5196 12.8946 22.7071 12.7071C22.8946 12.5196 23 12.2652 23 12C23 11.7348 22.8946 11.4804 22.7071 11.2929C22.5196 11.1054 22.2652 11 22 11ZM10 18H2C1.73478 18 1.48043 18.1054 1.29289 18.2929C1.10536 18.4804 1 18.7348 1 19C1 19.2652 1.10536 19.5196 1.29289 19.7071C1.48043 19.8946 1.73478 20 2 20H10C10.2652 20 10.5196 19.8946 10.7071 19.7071C10.8946 19.5196 11 19.2652 11 19C11 18.7348 10.8946 18.4804 10.7071 18.2929C10.5196 18.1054 10.2652 18 10 18ZM22 18H18.82C18.5841 17.3328 18.1199 16.7704 17.5095 16.4124C16.8991 16.0543 16.1818 15.9235 15.4843 16.0432C14.7868 16.1629 14.154 16.5253 13.6979 17.0663C13.2418 17.6074 12.9916 18.2923 12.9916 19C12.9916 19.7077 13.2418 20.3926 13.6979 20.9337C14.154 21.4747 14.7868 21.8371 15.4843 21.9568C16.1818 22.0765 16.8991 21.9457 17.5095 21.5876C18.1199 21.2296 18.5841 20.6672 18.82 20H22C22.2652 20 22.5196 19.8946 22.7071 19.7071C22.8946 19.5196 23 19.2652 23 19C23 18.7348 22.8946 18.4804 22.7071 18.2929C22.5196 18.1054 22.2652 18 22 18Z"
        />
    </symbol>


</svg>  