<svg width="750" height="500" viewBox="0 0 750 500" fill="none" xmlns="http://www.w3.org/2000/svg">
<path d="M732.551 300.045C740.438 247.351 733.607 194.022 700.751 148.518C663.09 96.4351 603.438 59.6301 540.027 49.1882C528.729 47.3155 517.302 46.3306 505.851 46.2426C478.517 46.0566 451.341 50.3874 425.42 59.0599C381.657 73.8411 344.039 99.592 310.021 130.326C294.913 143.967 280.164 161.472 260.156 167.807C239.389 174.437 217.048 165.907 196.808 160.691C158.874 150.914 103.191 129.798 65.3934 149.858C15.7709 176.253 0.989782 234.322 19.9941 279.721C38.9985 325.121 97.0673 328.288 103.402 363.129C109.737 397.971 140.355 449.705 206.87 444.426C273.385 439.147 298.724 382.134 340.956 399.026C355.811 404.971 367.478 415.919 380.116 425.326C397.716 438.46 416.805 447.403 438.47 451.521C469.447 457.412 503.274 454.297 534.547 452.798C570.444 451.067 609.065 452.386 643.917 439.844C681.335 426.361 704.963 396.82 717.643 359.782C724.406 340.361 729.395 320.367 732.551 300.045Z" fill="#21BA95"/>
<path opacity="0.7" d="M732.551 300.045C740.438 247.351 733.607 194.022 700.751 148.518C663.09 96.4351 603.438 59.6301 540.027 49.1882C528.729 47.3155 517.302 46.3306 505.851 46.2426C478.517 46.0566 451.341 50.3874 425.42 59.0599C381.657 73.8411 344.039 99.592 310.021 130.326C294.913 143.967 280.164 161.472 260.156 167.807C239.389 174.437 217.048 165.907 196.808 160.691C158.874 150.914 103.191 129.798 65.3934 149.858C15.7709 176.253 0.989782 234.322 19.9941 279.721C38.9985 325.121 97.0673 328.288 103.402 363.129C109.737 397.971 140.355 449.705 206.87 444.426C273.385 439.147 298.724 382.134 340.956 399.026C355.811 404.971 367.478 415.919 380.116 425.326C397.716 438.46 416.805 447.403 438.47 451.521C469.447 457.412 503.274 454.297 534.547 452.798C570.444 451.067 609.065 452.386 643.917 439.844C681.335 426.361 704.963 396.82 717.643 359.782C724.406 340.361 729.395 320.367 732.551 300.045Z" fill="white"/>
<path d="M462.373 404.306H645.554C649.054 404.306 652.411 402.915 654.886 400.44C657.361 397.965 658.751 394.608 658.751 391.108V52.1975C658.751 48.6973 657.361 45.3404 654.886 42.8654C652.411 40.3904 649.054 39 645.554 39H115.544C112.044 39 108.687 40.3904 106.212 42.8654C103.737 45.3404 102.346 48.6973 102.346 52.1975V391.108C102.346 394.608 103.737 397.965 106.212 400.44C108.687 402.915 112.044 404.306 115.544 404.306H298.725" stroke="#6B7280" stroke-linecap="round" stroke-linejoin="round"/>
<path d="M646.082 53.7812H113.96V365.241H646.082V53.7812Z" stroke="#6B7280" stroke-linecap="round" stroke-linejoin="round"/>
<path d="M462.373 404.306H298.725V441.206H462.373V404.306Z" stroke="#6B7280" stroke-linecap="round" stroke-linejoin="round"/>
<path d="M462.373 441.206H490.88V455.29H270.218V441.206H298.725" stroke="#6B7280" stroke-linecap="round" stroke-linejoin="round"/>
<path d="M193.535 152.498H152.095V97.248H184.656L193.535 105.927V152.498Z" fill="white" stroke="#263238" stroke-linecap="round" stroke-linejoin="round"/>
<path d="M185.775 105.019V107.278L193.535 105.937L185.775 105.019Z" fill="#263238" stroke="#263238" stroke-linecap="round" stroke-linejoin="round"/>
<path d="M184.656 97.248V105.937H193.535L184.656 97.248Z" fill="white" stroke="#263238" stroke-linecap="round" stroke-linejoin="round"/>
<path d="M157.364 109.253H189.26" stroke="#263238" stroke-linecap="round" stroke-linejoin="round"/>
<path d="M157.364 117.15H189.26" stroke="#263238" stroke-linecap="round" stroke-linejoin="round"/>
<path d="M157.364 125.037H189.26" stroke="#263238" stroke-linecap="round" stroke-linejoin="round"/>
<path d="M157.364 132.934H189.26" stroke="#263238" stroke-linecap="round" stroke-linejoin="round"/>
<path d="M157.364 140.821H189.26" stroke="#263238" stroke-linecap="round" stroke-linejoin="round"/>
<path d="M76.511 219.267H91.3555" stroke="#263238" stroke-linecap="round" stroke-linejoin="round"/>
<path d="M60.1038 219.267H73.8291" stroke="#263238" stroke-linecap="round" stroke-linejoin="round"/>
<path d="M85.6118 223.954H91.3553" stroke="#263238" stroke-linecap="round" stroke-linejoin="round"/>
<path d="M60.1038 223.954H82.9301" stroke="#263238" stroke-linecap="round" stroke-linejoin="round"/>
<path d="M89.0959 228.642H91.3554" stroke="#263238" stroke-linecap="round" stroke-linejoin="round"/>
<path d="M76.7749 228.642H85.348" stroke="#263238" stroke-linecap="round" stroke-linejoin="round"/>
<path d="M60.1038 228.642H74.3676" stroke="#263238" stroke-linecap="round" stroke-linejoin="round"/>
<path d="M60.1038 233.33H91.3553" stroke="#263238" stroke-linecap="round" stroke-linejoin="round"/>
<path d="M86.1501 238.018H91.3552" stroke="#263238" stroke-linecap="round" stroke-linejoin="round"/>
<path d="M68.2122 238.018H80.7973" stroke="#263238" stroke-linecap="round" stroke-linejoin="round"/>
<path d="M60.1038 238.018H64.4642" stroke="#263238" stroke-linecap="round" stroke-linejoin="round"/>
<path d="M74.3677 242.705H91.3554" stroke="#263238" stroke-linecap="round" stroke-linejoin="round"/>
<path d="M60.1038 242.705H71.4219" stroke="#263238" stroke-linecap="round" stroke-linejoin="round"/>
<path d="M82.9302 247.393H91.3554" stroke="#263238" stroke-linecap="round" stroke-linejoin="round"/>
<path d="M74.6316 247.393H80.5229" stroke="#263238" stroke-linecap="round" stroke-linejoin="round"/>
<path d="M60.1038 247.393H71.4219" stroke="#263238" stroke-linecap="round" stroke-linejoin="round"/>
<path d="M171.67 282.276H137.494V236.708H164.343L171.67 243.856V282.276Z" fill="#21BA95" stroke="#263238" stroke-linecap="round" stroke-linejoin="round"/>
<path d="M165.261 243.117V244.975L171.67 243.867L165.261 243.117Z" fill="#263238" stroke="#263238" stroke-linecap="round" stroke-linejoin="round"/>
<path d="M164.343 236.708V243.866H171.67L164.343 236.708Z" fill="white" stroke="#263238" stroke-linecap="round" stroke-linejoin="round"/>
<path d="M141.833 246.601H168.143" stroke="#263238" stroke-linecap="round" stroke-linejoin="round"/>
<path d="M141.833 253.115H168.143" stroke="#263238" stroke-linecap="round" stroke-linejoin="round"/>
<path d="M141.833 259.629H168.143" stroke="#263238" stroke-linecap="round" stroke-linejoin="round"/>
<path d="M141.833 266.133H168.143" stroke="#263238" stroke-linecap="round" stroke-linejoin="round"/>
<path d="M141.833 272.647H168.143" stroke="#263238" stroke-linecap="round" stroke-linejoin="round"/>
<path d="M135.741 157.608H94.301V102.358H126.862L135.741 111.026V157.608Z" fill="#21BA95" stroke="#263238" stroke-linecap="round" stroke-linejoin="round"/>
<path d="M127.97 110.129V112.388L135.741 111.037L127.97 110.129Z" fill="#263238" stroke="#263238" stroke-linecap="round" stroke-linejoin="round"/>
<path d="M126.862 102.358V111.037H135.741L126.862 102.358Z" fill="white" stroke="#263238" stroke-linecap="round" stroke-linejoin="round"/>
<path d="M99.5591 114.363H131.465" stroke="#263238" stroke-linecap="round" stroke-linejoin="round"/>
<path d="M99.5591 122.25H131.465" stroke="#263238" stroke-linecap="round" stroke-linejoin="round"/>
<path d="M99.5591 130.147H131.465" stroke="#263238" stroke-linecap="round" stroke-linejoin="round"/>
<path d="M99.5591 138.044H131.465" stroke="#263238" stroke-linecap="round" stroke-linejoin="round"/>
<path d="M99.5591 145.931H131.465" stroke="#263238" stroke-linecap="round" stroke-linejoin="round"/>
<path d="M224.491 182.884H183.051V127.624H215.612L224.491 136.302V182.884Z" fill="#21BA95" stroke="#263238" stroke-linecap="round" stroke-linejoin="round"/>
<path d="M216.731 135.394V137.664L224.492 136.313L216.731 135.394Z" fill="#263238" stroke="#263238" stroke-linecap="round" stroke-linejoin="round"/>
<path d="M215.612 127.624V136.313H224.491L215.612 127.624Z" fill="white" stroke="#263238" stroke-linecap="round" stroke-linejoin="round"/>
<path d="M188.32 139.638H220.215" stroke="#263238" stroke-linecap="round" stroke-linejoin="round"/>
<path d="M188.32 147.525H220.215" stroke="#263238" stroke-linecap="round" stroke-linejoin="round"/>
<path d="M188.32 155.423H220.215" stroke="#263238" stroke-linecap="round" stroke-linejoin="round"/>
<path d="M188.32 163.309H220.215" stroke="#263238" stroke-linecap="round" stroke-linejoin="round"/>
<path d="M188.32 171.207H220.215" stroke="#263238" stroke-linecap="round" stroke-linejoin="round"/>
<path d="M280.09 244.12H238.65V188.86H271.21L280.09 197.539V244.12Z" fill="white" stroke="#263238" stroke-linecap="round" stroke-linejoin="round"/>
<path d="M272.319 196.63V198.9L280.09 197.549L272.319 196.63Z" fill="#263238" stroke="#263238" stroke-linecap="round" stroke-linejoin="round"/>
<path d="M271.21 188.86V197.549H280.089L271.21 188.86Z" fill="white" stroke="#263238" stroke-linecap="round" stroke-linejoin="round"/>
<path d="M243.907 200.875H275.814" stroke="#263238" stroke-linecap="round" stroke-linejoin="round"/>
<path d="M243.907 208.762H275.814" stroke="#263238" stroke-linecap="round" stroke-linejoin="round"/>
<path d="M243.907 216.659H275.814" stroke="#263238" stroke-linecap="round" stroke-linejoin="round"/>
<path d="M243.907 224.545H275.814" stroke="#263238" stroke-linecap="round" stroke-linejoin="round"/>
<path d="M243.907 232.443H275.814" stroke="#263238" stroke-linecap="round" stroke-linejoin="round"/>
<path d="M164.448 143.355H118.848C113.828 143.355 109.758 147.425 109.758 152.445V206.65C109.758 211.67 113.828 215.74 118.848 215.74H164.448C169.469 215.74 173.539 211.67 173.539 206.65V152.445C173.539 147.425 169.469 143.355 164.448 143.355Z" fill="white" stroke="#263238" stroke-linecap="round" stroke-linejoin="round"/>
<path d="M166.444 143.355H116.821C114.942 143.355 113.14 144.101 111.812 145.43C110.483 146.759 109.737 148.56 109.737 150.439V151.97H173.507V150.45C173.51 148.573 172.767 146.771 171.443 145.441C170.119 144.111 168.321 143.361 166.444 143.355Z" fill="#263238" stroke="#263238" stroke-linecap="round" stroke-linejoin="round"/>
<path d="M118.859 164.619H164.416" stroke="#263238" stroke-linecap="round" stroke-linejoin="round"/>
<path d="M118.859 175.747H164.416" stroke="#263238" stroke-linecap="round" stroke-linejoin="round"/>
<path d="M118.859 186.885H164.416" stroke="#263238" stroke-linecap="round" stroke-linejoin="round"/>
<path d="M118.859 198.024H164.416" stroke="#263238" stroke-linecap="round" stroke-linejoin="round"/>
<path d="M157.248 147.409C157.248 147.008 157.129 146.616 156.906 146.283C156.683 145.949 156.367 145.69 155.996 145.536C155.626 145.383 155.218 145.343 154.825 145.421C154.432 145.499 154.071 145.692 153.787 145.976C153.504 146.259 153.311 146.62 153.232 147.013C153.154 147.407 153.194 147.814 153.348 148.185C153.501 148.555 153.761 148.872 154.094 149.094C154.428 149.317 154.82 149.436 155.22 149.436C155.758 149.436 156.274 149.223 156.654 148.842C157.034 148.462 157.248 147.947 157.248 147.409Z" fill="white"/>
<path d="M163.962 147.409C163.962 147.008 163.844 146.616 163.621 146.283C163.398 145.949 163.082 145.69 162.711 145.536C162.341 145.383 161.933 145.343 161.54 145.421C161.147 145.499 160.785 145.692 160.502 145.976C160.218 146.259 160.025 146.62 159.947 147.013C159.869 147.407 159.909 147.814 160.063 148.185C160.216 148.555 160.476 148.872 160.809 149.094C161.142 149.317 161.534 149.436 161.935 149.436C162.473 149.436 162.989 149.223 163.369 148.842C163.749 148.462 163.962 147.947 163.962 147.409Z" fill="white"/>
<path d="M170.625 147.409C170.625 147.008 170.505 146.615 170.282 146.282C170.059 145.948 169.742 145.688 169.371 145.535C169 145.382 168.592 145.342 168.198 145.422C167.805 145.501 167.443 145.695 167.16 145.979C166.877 146.264 166.685 146.626 166.608 147.02C166.531 147.414 166.573 147.822 166.728 148.192C166.883 148.562 167.144 148.878 167.479 149.1C167.814 149.321 168.207 149.438 168.608 149.436C168.874 149.436 169.137 149.384 169.382 149.282C169.628 149.18 169.85 149.03 170.038 148.842C170.225 148.653 170.373 148.43 170.474 148.184C170.575 147.938 170.626 147.675 170.625 147.409Z" fill="white"/>
<path d="M120.738 202.627H94.6917C89.6712 202.627 85.6013 206.697 85.6013 211.718V243.73C85.6013 248.75 89.6712 252.82 94.6917 252.82H120.738C125.759 252.82 129.829 248.75 129.829 243.73V211.718C129.829 206.697 125.759 202.627 120.738 202.627Z" fill="white" stroke="#263238" stroke-linecap="round" stroke-linejoin="round"/>
<path d="M124.909 202.648H90.5108C89.2087 202.648 87.96 203.166 87.0393 204.086C86.1186 205.007 85.6013 206.256 85.6013 207.558V208.614H129.797V207.558C129.797 206.259 129.283 205.014 128.366 204.094C127.45 203.174 126.207 202.654 124.909 202.648Z" fill="#263238" stroke="#263238" stroke-linecap="round" stroke-linejoin="round"/>
<path d="M91.9148 217.366H123.504" stroke="#263238" stroke-linecap="round" stroke-linejoin="round"/>
<path d="M91.9148 225.084H123.504" stroke="#263238" stroke-linecap="round" stroke-linejoin="round"/>
<path d="M91.9148 232.812H123.504" stroke="#263238" stroke-linecap="round" stroke-linejoin="round"/>
<path d="M91.9148 240.53H123.504" stroke="#263238" stroke-linecap="round" stroke-linejoin="round"/>
<path d="M117.159 206.829C117.935 206.829 118.563 206.201 118.563 205.425C118.563 204.65 117.935 204.021 117.159 204.021C116.384 204.021 115.755 204.65 115.755 205.425C115.755 206.201 116.384 206.829 117.159 206.829Z" fill="white"/>
<path d="M121.784 206.829C122.559 206.829 123.188 206.201 123.188 205.425C123.188 204.65 122.559 204.021 121.784 204.021C121.008 204.021 120.379 204.65 120.379 205.425C120.379 206.201 121.008 206.829 121.784 206.829Z" fill="white"/>
<path d="M127.812 205.425C127.812 205.147 127.73 204.876 127.575 204.645C127.421 204.414 127.202 204.234 126.945 204.128C126.689 204.022 126.406 203.994 126.134 204.048C125.862 204.102 125.611 204.236 125.415 204.432C125.219 204.629 125.085 204.879 125.031 205.151C124.976 205.424 125.004 205.706 125.111 205.963C125.217 206.219 125.397 206.438 125.628 206.593C125.859 206.747 126.13 206.829 126.408 206.829C126.592 206.829 126.775 206.793 126.945 206.723C127.116 206.652 127.27 206.549 127.401 206.418C127.531 206.288 127.635 206.133 127.705 205.963C127.776 205.792 127.812 205.61 127.812 205.425Z" fill="white"/>
<path d="M107.478 267.928H122.322" stroke="#263238" stroke-linecap="round" stroke-linejoin="round"/>
<path d="M91.0598 267.928H104.796" stroke="#263238" stroke-linecap="round" stroke-linejoin="round"/>
<path d="M116.578 272.616H122.322" stroke="#263238" stroke-linecap="round" stroke-linejoin="round"/>
<path d="M91.0598 272.616H113.897" stroke="#263238" stroke-linecap="round" stroke-linejoin="round"/>
<path d="M120.052 277.304H122.322" stroke="#263238" stroke-linecap="round" stroke-linejoin="round"/>
<path d="M107.741 277.304H116.304" stroke="#263238" stroke-linecap="round" stroke-linejoin="round"/>
<path d="M91.0598 277.304H105.334" stroke="#263238" stroke-linecap="round" stroke-linejoin="round"/>
<path d="M91.0598 281.991H122.322" stroke="#263238" stroke-linecap="round" stroke-linejoin="round"/>
<path d="M117.117 286.679H122.322" stroke="#263238" stroke-linecap="round" stroke-linejoin="round"/>
<path d="M99.179 286.679H111.753" stroke="#263238" stroke-linecap="round" stroke-linejoin="round"/>
<path d="M91.0598 286.679H95.4308" stroke="#263238" stroke-linecap="round" stroke-linejoin="round"/>
<path d="M105.334 291.367H122.322" stroke="#263238" stroke-linecap="round" stroke-linejoin="round"/>
<path d="M91.0598 291.367H102.389" stroke="#263238" stroke-linecap="round" stroke-linejoin="round"/>
<path d="M113.896 296.055H122.322" stroke="#263238" stroke-linecap="round" stroke-linejoin="round"/>
<path d="M105.598 296.055H111.489" stroke="#263238" stroke-linecap="round" stroke-linejoin="round"/>
<path d="M91.0598 296.055H102.389" stroke="#263238" stroke-linecap="round" stroke-linejoin="round"/>
<path d="M212.413 261.625H227.268" stroke="#263238" stroke-linecap="round" stroke-linejoin="round"/>
<path d="M196.006 261.625H209.742" stroke="#263238" stroke-linecap="round" stroke-linejoin="round"/>
<path d="M221.514 266.324H227.268" stroke="#263238" stroke-linecap="round" stroke-linejoin="round"/>
<path d="M196.006 266.324H218.843" stroke="#263238" stroke-linecap="round" stroke-linejoin="round"/>
<path d="M224.998 271.011H227.268" stroke="#263238" stroke-linecap="round" stroke-linejoin="round"/>
<path d="M212.688 271.011H221.25" stroke="#263238" stroke-linecap="round" stroke-linejoin="round"/>
<path d="M196.006 271.011H210.28" stroke="#263238" stroke-linecap="round" stroke-linejoin="round"/>
<path d="M196.006 275.699H227.268" stroke="#263238" stroke-linecap="round" stroke-linejoin="round"/>
<path d="M222.052 280.387H227.268" stroke="#263238" stroke-linecap="round" stroke-linejoin="round"/>
<path d="M204.114 280.387H216.699" stroke="#263238" stroke-linecap="round" stroke-linejoin="round"/>
<path d="M196.006 280.387H200.366" stroke="#263238" stroke-linecap="round" stroke-linejoin="round"/>
<path d="M210.28 285.074H227.268" stroke="#263238" stroke-linecap="round" stroke-linejoin="round"/>
<path d="M196.006 285.074H207.335" stroke="#263238" stroke-linecap="round" stroke-linejoin="round"/>
<path d="M218.843 289.762H227.268" stroke="#263238" stroke-linecap="round" stroke-linejoin="round"/>
<path d="M210.544 289.762H216.436" stroke="#263238" stroke-linecap="round" stroke-linejoin="round"/>
<path d="M196.006 289.762H207.335" stroke="#263238" stroke-linecap="round" stroke-linejoin="round"/>
<path d="M247.149 155.286H261.993" stroke="#263238" stroke-linecap="round" stroke-linejoin="round"/>
<path d="M230.731 155.286H244.467" stroke="#263238" stroke-linecap="round" stroke-linejoin="round"/>
<path d="M256.25 159.973H261.993" stroke="#263238" stroke-linecap="round" stroke-linejoin="round"/>
<path d="M230.731 159.973H253.568" stroke="#263238" stroke-linecap="round" stroke-linejoin="round"/>
<path d="M259.723 164.661H261.993" stroke="#263238" stroke-linecap="round" stroke-linejoin="round"/>
<path d="M247.413 164.661H255.975" stroke="#263238" stroke-linecap="round" stroke-linejoin="round"/>
<path d="M230.731 164.661H245.006" stroke="#263238" stroke-linecap="round" stroke-linejoin="round"/>
<path d="M230.731 169.349H261.993" stroke="#263238" stroke-linecap="round" stroke-linejoin="round"/>
<path d="M256.788 174.036H261.993" stroke="#263238" stroke-linecap="round" stroke-linejoin="round"/>
<path d="M238.85 174.036H251.425" stroke="#263238" stroke-linecap="round" stroke-linejoin="round"/>
<path d="M230.731 174.036H235.102" stroke="#263238" stroke-linecap="round" stroke-linejoin="round"/>
<path d="M245.005 178.724H261.993" stroke="#263238" stroke-linecap="round" stroke-linejoin="round"/>
<path d="M230.731 178.724H242.06" stroke="#263238" stroke-linecap="round" stroke-linejoin="round"/>
<path d="M253.568 183.412H261.993" stroke="#263238" stroke-linecap="round" stroke-linejoin="round"/>
<path d="M245.269 183.412H251.161" stroke="#263238" stroke-linecap="round" stroke-linejoin="round"/>
<path d="M230.731 183.412H242.06" stroke="#263238" stroke-linecap="round" stroke-linejoin="round"/>
<path d="M84.2815 165.875H99.126" stroke="#263238" stroke-linecap="round" stroke-linejoin="round"/>
<path d="M67.864 165.875H81.5999" stroke="#263238" stroke-linecap="round" stroke-linejoin="round"/>
<path d="M93.3826 170.562H99.1261" stroke="#263238" stroke-linecap="round" stroke-linejoin="round"/>
<path d="M67.864 170.562H90.7009" stroke="#263238" stroke-linecap="round" stroke-linejoin="round"/>
<path d="M96.8667 175.25H99.1261" stroke="#263238" stroke-linecap="round" stroke-linejoin="round"/>
<path d="M84.5454 175.25H93.1185" stroke="#263238" stroke-linecap="round" stroke-linejoin="round"/>
<path d="M67.864 175.25H82.1384" stroke="#263238" stroke-linecap="round" stroke-linejoin="round"/>
<path d="M67.864 179.938H99.1261" stroke="#263238" stroke-linecap="round" stroke-linejoin="round"/>
<path d="M93.9209 184.625H99.126" stroke="#263238" stroke-linecap="round" stroke-linejoin="round"/>
<path d="M75.9832 184.625H88.5682" stroke="#263238" stroke-linecap="round" stroke-linejoin="round"/>
<path d="M67.864 184.625H72.235" stroke="#263238" stroke-linecap="round" stroke-linejoin="round"/>
<path d="M82.1384 189.314H99.1262" stroke="#263238" stroke-linecap="round" stroke-linejoin="round"/>
<path d="M67.864 189.314H79.1927" stroke="#263238" stroke-linecap="round" stroke-linejoin="round"/>
<path d="M90.7007 194.001H99.1259" stroke="#263238" stroke-linecap="round" stroke-linejoin="round"/>
<path d="M82.4023 194.001H88.2937" stroke="#263238" stroke-linecap="round" stroke-linejoin="round"/>
<path d="M67.864 194.001H79.1927" stroke="#263238" stroke-linecap="round" stroke-linejoin="round"/>
<path d="M177.118 203.018V249.6H218.558V194.35H186.008L177.118 203.018Z" fill="white" stroke="#263238" stroke-linecap="round" stroke-linejoin="round"/>
<path d="M184.889 202.121V204.38L177.118 203.039L184.889 202.121Z" fill="#263238" stroke="#263238" stroke-linecap="round" stroke-linejoin="round"/>
<path d="M185.997 194.35V203.039H177.118L185.997 194.35Z" fill="white" stroke="#263238" stroke-linecap="round" stroke-linejoin="round"/>
<path d="M213.3 206.354H181.394" stroke="#263238" stroke-linecap="round" stroke-linejoin="round"/>
<path d="M213.3 214.241H181.394" stroke="#263238" stroke-linecap="round" stroke-linejoin="round"/>
<path d="M213.3 222.138H181.394" stroke="#263238" stroke-linecap="round" stroke-linejoin="round"/>
<path d="M213.3 230.036H181.394" stroke="#263238" stroke-linecap="round" stroke-linejoin="round"/>
<path d="M218.558 236.708H177.118V249.61H218.558V236.708Z" fill="#263238" stroke="#263238" stroke-linecap="round" stroke-linejoin="round"/>
<path d="M224.956 206.639H196.281V220.449H224.956V206.639Z" fill="#263238" stroke="#263238" stroke-linecap="round" stroke-linejoin="round"/>
<path d="M208.052 208.592C209.52 208.592 210.164 209.458 210.164 210.862V211.981C210.211 212.275 210.189 212.575 210.102 212.859C210.014 213.143 209.863 213.404 209.659 213.62C209.455 213.836 209.204 214.002 208.925 214.106C208.647 214.21 208.348 214.249 208.052 214.22H207.134V217.894H206.078V208.592H208.052ZM207.979 213.291C208.749 213.291 209.119 212.932 209.119 212.045V210.809C209.119 209.965 208.813 209.532 208.063 209.532H207.071V213.291H207.979Z" fill="white"/>
<path d="M213.205 208.592C214.651 208.592 215.316 209.469 215.316 210.904V215.592C215.316 217.018 214.651 217.894 213.205 217.894H210.988V208.592H213.205ZM213.205 216.944C213.944 216.944 214.261 216.479 214.261 215.634V210.852C214.261 209.996 213.902 209.532 213.152 209.532H212.033V216.923L213.205 216.944Z" fill="white"/>
<path d="M219.413 212.921V213.861H217.301V217.894H216.246V208.592H219.941V209.532H217.28V212.921H219.413Z" fill="white"/>
<path opacity="0.2" d="M714.793 246.148L707.487 245.968L707.381 250.128C705.584 250.316 703.813 250.706 702.102 251.289L700.043 247.52L693.592 251.026L695.577 254.668C694.107 255.747 692.758 256.982 691.555 258.353L687.891 256.104L684.09 262.344L687.627 264.455C686.891 266.124 686.342 267.87 685.991 269.66L681.694 269.544L681.514 276.861L685.674 276.966C685.862 278.764 686.252 280.535 686.835 282.245L683.035 284.389L686.529 290.819L690.182 288.834C691.254 290.303 692.487 291.649 693.856 292.846L691.618 296.52L697.858 300.331L700.022 296.794C701.688 297.529 703.43 298.078 705.217 298.431L705.111 302.728L712.428 302.907L712.597 298.726C714.394 298.538 716.165 298.149 717.876 297.565L719.924 301.334L726.354 297.84L724.358 294.187C725.831 293.114 727.18 291.882 728.381 290.512L732.045 292.751L735.867 286.511L732.319 284.346C733.06 282.679 733.609 280.933 733.956 279.141L738.253 279.258L738.443 271.941L734.283 271.835C734.09 270.039 733.7 268.268 733.121 266.556L736.88 264.508L733.385 258.078L729.732 260.074C728.666 258.596 727.433 257.247 726.058 256.051L728.307 252.377L722.099 248.544L719.935 252.092C718.272 251.346 716.529 250.794 714.74 250.445L714.793 246.148ZM709.514 292.043C706.032 291.957 702.654 290.839 699.807 288.833C696.96 286.826 694.772 284.02 693.519 280.77C692.267 277.52 692.006 273.972 692.771 270.574C693.535 267.175 695.29 264.08 697.813 261.679C700.337 259.279 703.515 257.68 706.947 257.086C710.379 256.491 713.91 256.928 717.094 258.341C720.278 259.753 722.971 262.078 724.834 265.021C726.696 267.965 727.644 271.394 727.557 274.876C727.438 279.544 725.471 283.975 722.088 287.193C718.705 290.412 714.182 292.157 709.514 292.043Z" stroke="#374151" stroke-linecap="round" stroke-linejoin="round"/>
<path opacity="0.2" d="M694.131 191.499L686.825 191.32L686.719 195.469C684.922 195.665 683.152 196.058 681.44 196.641L679.329 192.872L672.909 196.367L674.894 200.02C673.424 201.094 672.075 202.326 670.872 203.694L667.198 201.455L663.386 207.695L666.923 209.86C666.187 211.525 665.638 213.267 665.287 215.054L660.99 214.949L660.81 222.265L664.959 222.36C665.152 224.175 665.545 225.963 666.131 227.692L662.362 229.74L665.857 236.16L669.51 234.175C670.582 235.647 671.814 236.996 673.184 238.197L670.946 241.861L677.185 245.683L679.297 242.135C680.961 242.876 682.704 243.425 684.492 243.772L684.386 248.069L691.703 248.259L691.808 244.099C693.606 243.907 695.377 243.514 697.087 242.927L699.135 246.696L705.555 243.202L703.686 239.601C705.159 238.529 706.508 237.297 707.709 235.927L711.372 238.166L715.194 231.926L711.647 229.761C712.389 228.098 712.938 226.355 713.283 224.567L717.58 224.672L717.77 217.366L713.61 217.261C713.421 215.462 713.028 213.691 712.438 211.982L716.208 209.923L712.713 203.504L709.06 205.489C707.988 204.016 706.756 202.666 705.386 201.466L707.624 197.802L701.384 193.991L699.273 197.528C697.608 196.79 695.865 196.241 694.078 195.891L694.131 191.499ZM688.852 237.384C685.37 237.297 681.991 236.18 679.144 234.173C676.297 232.166 674.109 229.359 672.857 226.109C671.605 222.858 671.345 219.309 672.11 215.911C672.875 212.512 674.631 209.417 677.156 207.017C679.68 204.616 682.86 203.019 686.292 202.425C689.725 201.832 693.256 202.271 696.44 203.685C699.623 205.099 702.316 207.425 704.177 210.37C706.038 213.315 706.984 216.745 706.896 220.228C706.777 224.895 704.809 229.324 701.426 232.541C698.042 235.759 693.519 237.5 688.852 237.384Z" stroke="#374151" stroke-linecap="round" stroke-linejoin="round"/>
<path opacity="0.2" d="M338.254 123.463V116.073H334.094C333.859 114.27 333.424 112.5 332.795 110.794L336.512 108.682L332.848 102.347L329.248 104.459C328.138 103.017 326.874 101.7 325.479 100.532L327.59 96.8151L321.255 93.1515L319.144 96.7518C317.445 96.0568 315.674 95.5505 313.865 95.242V90.8921H306.548V95.0519C304.746 95.2866 302.975 95.7222 301.269 96.3506L299.158 92.6342L292.823 96.2978L294.934 99.898C293.494 101.011 292.178 102.274 291.007 103.667L287.29 101.556L283.637 107.89L287.227 110.002C286.532 111.701 286.026 113.471 285.717 115.281H281.42V122.598H285.58C285.815 124.4 286.25 126.171 286.879 127.877L283.162 129.988L286.826 136.323L290.426 134.211C291.539 135.651 292.802 136.968 294.195 138.139L292.084 141.855L298.418 145.508L300.53 141.919C302.229 142.614 303.999 143.12 305.809 143.429V147.747H313.126V143.524C314.928 143.289 316.699 142.853 318.405 142.225L320.516 145.941L326.851 142.278L324.74 138.677C326.182 137.568 327.499 136.304 328.667 134.908L332.383 137.02L336.047 130.685L332.447 128.573C333.142 126.874 333.648 125.104 333.957 123.294L338.254 123.463ZM292.242 119.335C292.242 115.852 293.275 112.447 295.21 109.551C297.145 106.655 299.896 104.398 303.113 103.065C306.331 101.732 309.872 101.383 313.288 102.063C316.705 102.742 319.843 104.42 322.305 106.883C324.768 109.346 326.446 112.483 327.125 115.9C327.805 119.316 327.456 122.857 326.123 126.075C324.79 129.292 322.533 132.043 319.637 133.978C316.741 135.913 313.336 136.946 309.853 136.946C307.537 136.946 305.243 136.489 303.104 135.601C300.964 134.714 299.021 133.413 297.385 131.773C295.749 130.133 294.453 128.187 293.57 126.045C292.688 123.904 292.237 121.609 292.242 119.293V119.335Z" stroke="#374151" stroke-linecap="round" stroke-linejoin="round"/>
<path opacity="0.2" d="M392.363 101.387V94.0705H388.214C387.979 92.2679 387.544 90.4973 386.915 88.7915L390.621 86.6799L386.968 80.3452L383.368 82.4568C382.26 81.0093 380.992 79.6918 379.588 78.5292L381.7 74.8022L375.365 71.1492L373.253 74.7389C371.556 74.0396 369.785 73.5366 367.974 73.2396V68.8687H360.668V73.0285C358.865 73.2602 357.094 73.6959 355.389 74.3271L353.278 70.6107L346.943 74.2638L349.054 77.864C347.625 78.975 346.326 80.2429 345.18 81.6438L341.463 79.5322L337.8 85.867L341.4 87.9786C340.692 89.6733 340.186 91.445 339.89 93.2575H335.572V100.574H339.732C339.969 102.376 340.404 104.147 341.03 105.853L337.314 107.965L340.967 114.3L344.578 112.188C345.684 113.62 346.949 114.924 348.347 116.073L346.235 119.79L352.57 123.453L354.682 119.853C356.377 120.559 358.148 121.066 359.961 121.363V125.66H367.277V121.5C369.081 121.27 370.852 120.835 372.556 120.201L374.668 123.918L381.003 120.265L378.891 116.665C380.336 115.554 381.653 114.286 382.819 112.885L386.546 114.996L390.199 108.662L386.609 106.55C387.308 104.853 387.811 103.082 388.108 101.271L392.363 101.387ZM346.362 97.259C346.362 93.776 347.395 90.3711 349.33 87.475C351.265 84.579 354.015 82.3218 357.233 80.9889C360.451 79.656 363.992 79.3072 367.408 79.9867C370.825 80.6662 373.962 82.3435 376.425 84.8064C378.888 87.2693 380.565 90.4072 381.245 93.8233C381.925 97.2395 381.576 100.78 380.243 103.998C378.91 107.216 376.653 109.967 373.757 111.902C370.861 113.837 367.456 114.87 363.973 114.87C361.66 114.871 359.369 114.417 357.232 113.532C355.094 112.647 353.153 111.35 351.517 109.715C349.881 108.079 348.584 106.137 347.7 104C346.815 101.863 346.361 99.5721 346.362 97.259Z" stroke="#374151" stroke-linecap="round" stroke-linejoin="round"/>
<g opacity="0.2">
<path d="M174.373 335.478C184.694 335.478 193.06 327.111 193.06 316.791C193.06 306.47 184.694 298.103 174.373 298.103C164.052 298.103 155.685 306.47 155.685 316.791C155.685 327.111 164.052 335.478 174.373 335.478Z" stroke="#374151" stroke-linecap="round" stroke-linejoin="round"/>
<path d="M188.399 319.415C189.856 311.667 184.756 304.205 177.008 302.749C169.261 301.292 161.799 306.391 160.342 314.139C158.885 321.887 163.985 329.349 171.732 330.806C179.48 332.262 186.942 327.163 188.399 319.415Z" stroke="#374151" stroke-linecap="round" stroke-linejoin="round"/>
<path d="M201.739 329.608L191.656 324.139L189.978 327.233L200.071 332.691C199.849 333.102 199.799 333.583 199.932 334.03C200.064 334.477 200.369 334.854 200.778 335.077L220.004 345.487C220.415 345.709 220.896 345.759 221.344 345.626C221.791 345.494 222.167 345.19 222.39 344.78L224.069 341.686C224.287 341.274 224.334 340.793 224.2 340.346C224.065 339.9 223.761 339.524 223.351 339.3L204.125 328.89C203.713 328.672 203.231 328.625 202.785 328.76C202.338 328.894 201.963 329.199 201.739 329.608Z" stroke="#374151" stroke-miterlimit="10"/>
</g>
<path opacity="0.2" d="M488.768 102.348C488.77 106.386 487.574 110.335 485.332 113.695C483.09 117.054 479.901 119.673 476.17 121.22C472.439 122.767 468.334 123.173 464.372 122.386C460.41 121.599 456.771 119.656 453.914 116.8C451.058 113.945 449.112 110.307 448.323 106.346C447.534 102.384 447.938 98.2782 449.483 94.5465C451.028 90.8147 453.646 87.6251 457.004 85.3809C460.362 83.1368 464.31 81.939 468.349 81.939" stroke="#374151" stroke-linecap="round" stroke-linejoin="round"/>
<path opacity="0.2" d="M488.768 102.348H468.349V81.939C473.763 81.939 478.955 84.0888 482.784 87.9158C486.613 91.7429 488.765 96.9339 488.768 102.348Z" stroke="#374151" stroke-linecap="round" stroke-linejoin="round"/>
<path opacity="0.2" d="M486.656 88.274L497.214 79.8276H511.996" stroke="#374151" stroke-linecap="round" stroke-linejoin="round"/>
<path opacity="0.2" d="M520.442 79.8276H540.143" stroke="#374151" stroke-linecap="round" stroke-linejoin="round"/>
<path opacity="0.2" d="M520.442 86.1621H540.143" stroke="#374151" stroke-linecap="round" stroke-linejoin="round"/>
<path opacity="0.2" d="M520.442 92.4971H540.143" stroke="#374151" stroke-linecap="round" stroke-linejoin="round"/>
<path opacity="0.2" d="M520.442 98.832H540.143" stroke="#374151" stroke-linecap="round" stroke-linejoin="round"/>
<g opacity="0.2">
<path d="M262.004 319.958L261.244 316.241H247.878L248.638 319.958L249.324 323.273L253.864 345.445H289.55L284.334 319.958H262.004Z" stroke="#374151" stroke-linecap="round" stroke-linejoin="round"/>
<path d="M289.55 345.445L296.128 321.679H284.883" stroke="#374151" stroke-linecap="round" stroke-linejoin="round"/>
</g>
<g opacity="0.2">
<path d="M312.112 319.958L311.341 316.241H297.986L298.746 319.958L299.432 323.273L303.972 345.445H339.658L334.432 319.958H312.112Z" stroke="#374151" stroke-linecap="round" stroke-linejoin="round"/>
<path d="M339.658 345.445L346.236 321.679H334.991" stroke="#374151" stroke-linecap="round" stroke-linejoin="round"/>
</g>
<path d="M387.897 260.643C388.15 260.64 388.402 260.688 388.636 260.782C388.871 260.877 389.085 261.017 389.266 261.195C389.446 261.372 389.59 261.584 389.688 261.817C389.787 262.05 389.838 262.301 389.84 262.554V274.632C389.804 275.124 389.583 275.584 389.221 275.92C388.86 276.256 388.385 276.442 387.892 276.442C387.399 276.442 386.924 276.256 386.562 275.92C386.201 275.584 385.98 275.124 385.944 274.632V262.554C385.947 262.3 385.999 262.05 386.099 261.816C386.199 261.583 386.343 261.372 386.525 261.194C386.706 261.017 386.921 260.877 387.156 260.782C387.392 260.688 387.643 260.64 387.897 260.643Z" fill="#263238"/>
<path d="M383.188 260.643C383.442 260.64 383.694 260.688 383.929 260.782C384.165 260.877 384.379 261.017 384.561 261.194C384.742 261.372 384.887 261.583 384.986 261.816C385.086 262.05 385.139 262.3 385.141 262.554V274.632C385.105 275.124 384.884 275.584 384.523 275.92C384.162 276.256 383.687 276.442 383.194 276.442C382.7 276.442 382.225 276.256 381.864 275.92C381.503 275.584 381.282 275.124 381.246 274.632V262.554C381.251 262.044 381.459 261.556 381.823 261.198C382.187 260.84 382.678 260.64 383.188 260.643Z" fill="#263238"/>
<path d="M378.553 260.643C378.806 260.64 379.058 260.688 379.293 260.782C379.528 260.877 379.741 261.017 379.922 261.195C380.102 261.372 380.246 261.584 380.345 261.817C380.443 262.05 380.495 262.301 380.496 262.554V274.632C380.495 274.886 380.443 275.136 380.345 275.369C380.246 275.603 380.102 275.814 379.922 275.992C379.741 276.17 379.528 276.31 379.293 276.404C379.058 276.499 378.806 276.546 378.553 276.543C378.3 276.546 378.049 276.499 377.814 276.404C377.579 276.31 377.365 276.17 377.185 275.992C377.004 275.814 376.86 275.603 376.762 275.369C376.663 275.136 376.612 274.886 376.611 274.632V262.554C376.612 262.301 376.663 262.05 376.762 261.817C376.86 261.584 377.004 261.372 377.185 261.195C377.365 261.017 377.579 260.877 377.814 260.782C378.049 260.688 378.3 260.64 378.553 260.643Z" fill="#263238"/>
<path d="M373.876 260.643C374.13 260.64 374.382 260.688 374.617 260.782C374.852 260.877 375.067 261.017 375.248 261.194C375.43 261.372 375.574 261.583 375.674 261.816C375.774 262.05 375.826 262.3 375.829 262.554V274.632C375.793 275.124 375.572 275.584 375.211 275.92C374.849 276.256 374.374 276.442 373.881 276.442C373.388 276.442 372.913 276.256 372.552 275.92C372.191 275.584 371.97 275.124 371.933 274.632V262.554C371.939 262.044 372.146 261.556 372.51 261.198C372.874 260.84 373.365 260.64 373.876 260.643Z" fill="#263238"/>
<path d="M369.21 260.643C369.463 260.64 369.714 260.688 369.949 260.782C370.184 260.877 370.398 261.017 370.578 261.195C370.759 261.372 370.902 261.584 371.001 261.817C371.099 262.05 371.151 262.301 371.152 262.554V274.632C371.152 275.148 370.947 275.642 370.583 276.006C370.219 276.37 369.725 276.575 369.21 276.575C368.694 276.575 368.2 276.37 367.836 276.006C367.472 275.642 367.267 275.148 367.267 274.632V262.554C367.268 262.301 367.32 262.05 367.418 261.817C367.517 261.584 367.66 261.372 367.841 261.195C368.021 261.017 368.235 260.877 368.47 260.782C368.705 260.688 368.956 260.64 369.21 260.643Z" fill="#263238"/>
<path d="M364.533 260.643C364.786 260.64 365.038 260.688 365.274 260.782C365.509 260.877 365.724 261.017 365.905 261.194C366.086 261.372 366.231 261.583 366.331 261.816C366.43 262.05 366.483 262.3 366.486 262.554V274.632C366.483 274.886 366.43 275.137 366.331 275.37C366.231 275.604 366.086 275.815 365.905 275.993C365.724 276.17 365.509 276.31 365.274 276.405C365.038 276.499 364.786 276.546 364.533 276.543C364.022 276.546 363.531 276.347 363.167 275.989C362.803 275.631 362.595 275.143 362.59 274.632V262.554C362.595 262.044 362.803 261.556 363.167 261.198C363.531 260.84 364.022 260.64 364.533 260.643Z" fill="#263238"/>
<path d="M359.866 260.643C360.119 260.64 360.37 260.688 360.605 260.782C360.84 260.877 361.054 261.017 361.234 261.195C361.415 261.372 361.559 261.584 361.657 261.817C361.756 262.05 361.807 262.301 361.808 262.554V274.632C361.808 275.148 361.604 275.642 361.239 276.006C360.875 276.37 360.381 276.575 359.866 276.575C359.351 276.575 358.856 276.37 358.492 276.006C358.128 275.642 357.923 275.148 357.923 274.632V262.554C357.924 262.301 357.976 262.05 358.074 261.817C358.173 261.584 358.317 261.372 358.497 261.195C358.678 261.017 358.891 260.877 359.126 260.782C359.361 260.688 359.613 260.64 359.866 260.643Z" fill="#263238"/>
<path d="M355.199 260.643C355.71 260.64 356.201 260.84 356.565 261.198C356.929 261.556 357.136 262.044 357.142 262.554V274.632C357.105 275.124 356.885 275.584 356.523 275.92C356.162 276.256 355.687 276.442 355.194 276.442C354.701 276.442 354.226 276.256 353.864 275.92C353.503 275.584 353.282 275.124 353.246 274.632V262.554C353.249 262.3 353.301 262.05 353.401 261.816C353.501 261.583 353.645 261.372 353.827 261.194C354.008 261.017 354.223 260.877 354.458 260.782C354.694 260.688 354.945 260.64 355.199 260.643Z" fill="#263238"/>
<path d="M350.522 260.643C350.775 260.64 351.027 260.688 351.261 260.782C351.496 260.877 351.71 261.017 351.891 261.195C352.071 261.372 352.215 261.584 352.313 261.817C352.412 262.05 352.463 262.301 352.465 262.554V274.632C352.465 275.148 352.26 275.642 351.896 276.006C351.531 276.37 351.037 276.575 350.522 276.575C350.007 276.575 349.513 276.37 349.148 276.006C348.784 275.642 348.579 275.148 348.579 274.632V262.554C348.581 262.301 348.632 262.05 348.731 261.817C348.829 261.584 348.973 261.372 349.153 261.195C349.334 261.017 349.548 260.877 349.783 260.782C350.018 260.688 350.269 260.64 350.522 260.643Z" fill="#263238"/>
<path d="M345.855 260.643C346.366 260.64 346.857 260.84 347.221 261.198C347.585 261.556 347.792 262.044 347.798 262.554V274.632C347.762 275.124 347.541 275.584 347.179 275.92C346.818 276.256 346.343 276.442 345.85 276.442C345.357 276.442 344.882 276.256 344.521 275.92C344.159 275.584 343.938 275.124 343.902 274.632V262.554C343.905 262.3 343.958 262.05 344.057 261.816C344.157 261.583 344.302 261.372 344.483 261.194C344.664 261.017 344.879 260.877 345.114 260.782C345.35 260.688 345.602 260.64 345.855 260.643Z" fill="#263238"/>
<path d="M341.178 260.643C341.431 260.64 341.683 260.688 341.917 260.782C342.152 260.877 342.366 261.017 342.547 261.195C342.727 261.372 342.871 261.584 342.969 261.817C343.068 262.05 343.119 262.301 343.121 262.554V274.632C343.121 275.148 342.916 275.642 342.552 276.006C342.187 276.37 341.693 276.575 341.178 276.575C340.663 276.575 340.169 276.37 339.804 276.006C339.44 275.642 339.235 275.148 339.235 274.632V262.554C339.237 262.301 339.288 262.05 339.387 261.817C339.485 261.584 339.629 261.372 339.809 261.195C339.99 261.017 340.204 260.877 340.439 260.782C340.674 260.688 340.925 260.64 341.178 260.643Z" fill="#263238"/>
<path d="M337.842 260.644C337.791 260.827 337.791 261.02 337.842 261.203C338.021 261.38 338.164 261.59 338.262 261.822C338.359 262.054 338.411 262.303 338.412 262.555V274.633C338.411 274.885 338.359 275.134 338.262 275.365C338.164 275.597 338.021 275.808 337.842 275.984C336.998 276.384 336.072 276.576 335.139 276.544C332.943 276.544 331.549 275.689 332.024 274.633L337.008 262.555C337.333 261.939 337.612 261.3 337.842 260.644Z" fill="#263238"/>
<path d="M337.842 260.644C337.468 261.256 337.14 261.894 336.86 262.555L330.705 274.633C330.208 275.689 328.034 276.544 325.837 276.544C323.641 276.544 322.744 275.689 323.853 274.633L335.931 262.555L337.314 261.203C337.662 260.855 337.842 260.644 337.842 260.644Z" fill="#263238"/>
<path d="M337.842 260.644C337.644 260.803 337.457 260.976 337.282 261.161L335.931 262.555L323.853 274.633C322.797 275.689 321.942 274.812 321.942 272.521C321.942 270.23 322.797 268.066 323.853 267.591L335.931 261.552C336.59 261.298 337.229 260.994 337.842 260.644Z" fill="#263238"/>
<path d="M337.842 260.643C337.187 260.85 336.549 261.105 335.931 261.403L323.852 266.228C322.797 266.693 321.941 265.257 321.941 263.008C321.94 262.487 321.989 261.967 322.089 261.456C322.135 261.227 322.195 261.002 322.269 260.78C322.286 260.699 322.322 260.623 322.374 260.559L322.501 260.421C322.676 260.239 322.885 260.093 323.118 259.993C323.35 259.894 323.6 259.842 323.852 259.841H335.931C336.183 259.842 336.433 259.894 336.666 259.993C336.898 260.093 337.108 260.239 337.282 260.421L337.398 260.559C337.398 260.622 337.472 260.664 337.514 260.654H337.842V260.643Z" fill="#263238"/>
<path d="M337.842 257.054C337.847 257.31 337.802 257.564 337.709 257.803C337.616 258.041 337.477 258.259 337.299 258.443C337.122 258.628 336.909 258.775 336.674 258.878C336.44 258.98 336.187 259.034 335.931 259.038H323.853C323.35 259.002 322.88 258.776 322.536 258.407C322.193 258.038 322.002 257.552 322.002 257.048C322.002 256.544 322.193 256.059 322.536 255.69C322.88 255.32 323.35 255.095 323.853 255.058H335.931C336.187 255.064 336.44 255.12 336.675 255.223C336.91 255.326 337.122 255.475 337.3 255.66C337.477 255.845 337.616 256.064 337.709 256.303C337.803 256.542 337.847 256.797 337.842 257.054Z" fill="#263238"/>
<path d="M337.842 252.271C337.847 252.528 337.803 252.783 337.709 253.022C337.616 253.261 337.477 253.479 337.3 253.665C337.122 253.85 336.91 253.999 336.675 254.102C336.44 254.205 336.187 254.261 335.931 254.266H323.853C323.35 254.23 322.88 254.004 322.536 253.635C322.193 253.266 322.002 252.78 322.002 252.276C322.002 251.772 322.193 251.287 322.536 250.918C322.88 250.548 323.35 250.323 323.853 250.286H335.931C336.187 250.29 336.44 250.345 336.674 250.447C336.909 250.549 337.122 250.697 337.299 250.881C337.477 251.066 337.616 251.283 337.709 251.522C337.802 251.76 337.847 252.015 337.842 252.271Z" fill="#263238"/>
<path d="M337.842 247.499C337.847 247.755 337.803 248.01 337.709 248.249C337.616 248.488 337.477 248.707 337.3 248.892C337.122 249.078 336.91 249.226 336.675 249.329C336.44 249.433 336.187 249.489 335.931 249.494H323.853C323.35 249.457 322.88 249.232 322.536 248.863C322.193 248.493 322.002 248.008 322.002 247.504C322.002 247 322.193 246.514 322.536 246.145C322.88 245.776 323.35 245.55 323.853 245.514H335.931C336.187 245.518 336.44 245.572 336.674 245.675C336.909 245.777 337.122 245.924 337.299 246.109C337.477 246.293 337.616 246.511 337.709 246.749C337.802 246.988 337.847 247.243 337.842 247.499Z" fill="#263238"/>
<path d="M337.842 242.768C337.847 243.024 337.802 243.279 337.709 243.518C337.616 243.756 337.477 243.974 337.299 244.158C337.122 244.343 336.909 244.49 336.674 244.592C336.44 244.695 336.187 244.749 335.931 244.753H323.853C323.35 244.717 322.88 244.491 322.536 244.122C322.193 243.753 322.002 243.267 322.002 242.763C322.002 242.259 322.193 241.774 322.536 241.404C322.88 241.035 323.35 240.81 323.853 240.773H335.931C336.187 240.778 336.44 240.834 336.675 240.938C336.91 241.041 337.122 241.189 337.3 241.375C337.477 241.56 337.616 241.779 337.709 242.018C337.803 242.257 337.847 242.512 337.842 242.768Z" fill="#263238"/>
<path d="M337.842 237.943C337.847 238.2 337.803 238.455 337.709 238.694C337.616 238.933 337.477 239.152 337.3 239.337C337.122 239.522 336.91 239.671 336.675 239.774C336.44 239.877 336.187 239.933 335.931 239.939H323.853C323.35 239.902 322.88 239.677 322.536 239.307C322.193 238.938 322.002 238.453 322.002 237.949C322.002 237.445 322.193 236.959 322.536 236.59C322.88 236.221 323.35 235.995 323.853 235.958H335.931C336.187 235.963 336.44 236.017 336.674 236.119C336.909 236.222 337.122 236.369 337.299 236.554C337.477 236.738 337.616 236.956 337.709 237.194C337.802 237.433 337.847 237.687 337.842 237.943Z" fill="#263238"/>
<path d="M337.842 233.172C337.847 233.428 337.802 233.682 337.709 233.921C337.616 234.159 337.477 234.377 337.299 234.562C337.122 234.746 336.909 234.894 336.674 234.996C336.44 235.098 336.187 235.152 335.931 235.157H323.853C323.35 235.12 322.88 234.894 322.536 234.525C322.193 234.156 322.002 233.671 322.002 233.166C322.002 232.662 322.193 232.177 322.536 231.808C322.88 231.438 323.35 231.213 323.853 231.176H335.931C336.187 231.182 336.44 231.238 336.675 231.341C336.91 231.444 337.122 231.593 337.3 231.778C337.477 231.963 337.616 232.182 337.709 232.421C337.803 232.66 337.847 232.915 337.842 233.172Z" fill="#263238"/>
<path d="M337.842 227.217C337.84 227.738 337.787 228.258 337.683 228.769C337.641 228.997 337.584 229.223 337.514 229.445C337.495 229.524 337.455 229.597 337.398 229.656C337.365 229.709 337.326 229.759 337.282 229.803C337.107 229.986 336.898 230.132 336.666 230.232C336.433 230.331 336.183 230.383 335.931 230.384H323.852C323.6 230.383 323.35 230.331 323.117 230.232C322.885 230.132 322.676 229.986 322.501 229.803L322.374 229.656C322.374 229.603 322.3 229.561 322.269 229.571H321.952C322.61 229.375 323.25 229.121 323.863 228.811L335.941 223.997C336.986 223.521 337.842 224.968 337.842 227.217Z" fill="#263238"/>
<path d="M337.842 217.662C337.842 219.911 336.987 222.117 335.931 222.592L323.853 228.621C323.197 228.898 322.559 229.216 321.942 229.571C321.942 229.571 322.153 229.402 322.501 229.054L323.853 227.671L335.931 215.592C336.987 214.484 337.842 215.413 337.842 217.662Z" fill="#263238"/>
<path d="M334.073 213.682C336.184 213.682 337.029 214.537 335.931 215.593L323.853 227.671L322.459 229.043C322.276 229.217 322.104 229.4 321.942 229.593C322.319 228.983 322.654 228.348 322.945 227.692L329.279 215.614C329.818 214.537 331.961 213.682 334.073 213.682Z" fill="#263238"/>
<path d="M325.056 213.682C327.168 213.682 328.488 214.537 327.991 215.593L322.712 227.671C322.396 228.286 322.121 228.921 321.889 229.571C321.904 229.389 321.904 229.205 321.889 229.022V228.737C321.819 228.634 321.759 228.525 321.709 228.41C321.611 228.176 321.56 227.925 321.562 227.671V215.593C321.562 215.336 321.612 215.081 321.709 214.843C321.756 214.731 321.817 214.624 321.889 214.526C322.025 214.415 322.174 214.319 322.332 214.241C323.183 213.842 324.117 213.65 325.056 213.682Z" fill="#263238"/>
<path d="M318.985 213.682C319.487 213.687 319.967 213.891 320.319 214.249C320.671 214.608 320.867 215.09 320.865 215.593V227.671C320.865 228.169 320.667 228.647 320.314 229C319.962 229.352 319.484 229.55 318.985 229.55C318.487 229.55 318.009 229.352 317.656 229C317.304 228.647 317.106 228.169 317.106 227.671V215.593C317.103 215.09 317.299 214.608 317.651 214.249C318.004 213.891 318.483 213.687 318.985 213.682Z" fill="#263238"/>
<path d="M314.477 213.682C314.979 213.687 315.459 213.891 315.811 214.249C316.163 214.608 316.359 215.09 316.356 215.593V227.671C316.356 228.169 316.158 228.647 315.806 229C315.454 229.352 314.976 229.55 314.477 229.55C313.979 229.55 313.501 229.352 313.148 229C312.796 228.647 312.598 228.169 312.598 227.671V215.593C312.595 215.344 312.641 215.096 312.735 214.865C312.828 214.634 312.965 214.424 313.14 214.246C313.315 214.069 313.523 213.927 313.752 213.831C313.982 213.734 314.228 213.683 314.477 213.682Z" fill="#263238"/>
<path d="M309.969 213.682C310.471 213.687 310.951 213.891 311.303 214.249C311.655 214.608 311.851 215.09 311.848 215.593V227.671C311.849 227.919 311.802 228.165 311.708 228.395C311.615 228.625 311.477 228.834 311.302 229.01C311.128 229.187 310.92 229.327 310.691 229.423C310.462 229.52 310.217 229.57 309.969 229.571C309.72 229.571 309.473 229.522 309.243 229.427C309.013 229.331 308.804 229.191 308.629 229.014C308.453 228.838 308.314 228.628 308.22 228.397C308.125 228.167 308.077 227.92 308.079 227.671V215.593C308.077 215.343 308.125 215.096 308.22 214.865C308.314 214.633 308.453 214.423 308.628 214.246C308.804 214.068 309.012 213.927 309.242 213.83C309.472 213.734 309.719 213.683 309.969 213.682Z" fill="#263238"/>
<path d="M306.77 236.93V206.597C309.898 206.597 312.897 207.84 315.109 210.051C317.321 212.263 318.563 215.263 318.563 218.39V225.137C318.563 226.686 318.258 228.219 317.665 229.65C317.073 231.081 316.204 232.381 315.109 233.476C314.014 234.571 312.714 235.44 311.283 236.032C309.852 236.625 308.318 236.93 306.77 236.93Z" fill="white" stroke="#263238" stroke-linecap="round" stroke-linejoin="round"/>
<path d="M276.437 266.187L307.984 250.614C309.473 249.879 310.728 248.742 311.605 247.331C312.481 245.921 312.946 244.293 312.946 242.632V201.456C312.946 199.795 312.481 198.167 311.605 196.756C310.728 195.346 309.473 194.209 307.984 193.474L276.437 177.901V266.187Z" fill="white" stroke="#263238" stroke-linecap="round" stroke-linejoin="round"/>
<path d="M335.424 283.512H358.736" stroke="#263238" stroke-linecap="round" stroke-linejoin="round"/>
<path d="M330.768 287.598H340.09" stroke="#263238" stroke-linecap="round" stroke-linejoin="round"/>
<path d="M345.327 223.163V245.894" stroke="#263238" stroke-linecap="round" stroke-linejoin="round"/>
<path d="M341.252 231.324V217.345" stroke="#263238" stroke-linecap="round" stroke-linejoin="round"/>
<path d="M314.445 259.873V271.529" stroke="#263238" stroke-linecap="round" stroke-linejoin="round"/>
<path d="M318.531 255.797V266.291" stroke="#263238" stroke-linecap="round" stroke-linejoin="round"/>
<path d="M519.006 177.848H525.066" stroke="#263238" stroke-width="9" stroke-linecap="round" stroke-linejoin="round"/>
<path d="M472.498 250.645H496.76V177.848H519.006" stroke="#263238" stroke-width="4" stroke-linecap="round" stroke-linejoin="round"/>
<path d="M519.006 324.793H526.418" stroke="#263238" stroke-width="9" stroke-linecap="round" stroke-linejoin="round"/>
<path d="M467.779 272.89H496.084V324.793H519.006" stroke="#263238" stroke-width="4" stroke-linecap="round" stroke-linejoin="round"/>
<path d="M380.401 181.733H374.351V236.539" stroke="#263238" stroke-width="4" stroke-linecap="round" stroke-linejoin="round"/>
<path d="M385.11 181.733H380.401" stroke="#263238" stroke-width="7" stroke-linecap="round" stroke-linejoin="round"/>
<path d="M439.198 202.3H411.547V231.925H439.198V202.3Z" fill="#263238" stroke="#263238" stroke-linecap="round" stroke-linejoin="round"/>
<path d="M464.685 161.324H437.53V187.994H464.685V161.324Z" fill="#263238" stroke="#263238" stroke-linecap="round" stroke-linejoin="round"/>
<path d="M453.832 187.984H465.857C462.994 195.576 458.025 202.195 451.533 207.064C445.042 211.932 437.296 214.848 429.205 215.47C421.115 216.092 413.014 214.393 405.855 210.574C398.695 206.755 392.774 200.973 388.784 193.907C385.023 187.293 383.119 179.785 383.273 172.178C383.273 171.513 383.273 170.837 383.326 170.172C383.99 159.946 388.31 150.3 395.496 142.995C402.682 135.689 412.255 131.211 422.469 130.377C432.682 129.544 442.855 132.411 451.131 138.454C459.406 144.498 465.232 153.316 467.546 163.299H453.821C452.2 163.299 450.595 163.618 449.098 164.239C447.601 164.859 446.24 165.768 445.094 166.914C443.948 168.06 443.039 169.421 442.418 170.918C441.798 172.416 441.479 174.021 441.479 175.641C441.479 177.262 441.798 178.867 442.418 180.365C443.039 181.862 443.948 183.223 445.094 184.369C446.24 185.515 447.601 186.424 449.098 187.044C450.595 187.664 452.2 187.984 453.821 187.984H453.832Z" fill="white" stroke="#263238" stroke-linecap="round" stroke-linejoin="round"/>
<path d="M429.136 174.649H441.489" stroke="#263238" stroke-linecap="round" stroke-linejoin="round"/>
<path d="M419.265 132.185V213.66" stroke="#263238" stroke-linecap="round" stroke-linejoin="round"/>
<path d="M418.272 185.513C424.272 185.513 429.136 180.649 429.136 174.649C429.136 168.649 424.272 163.785 418.272 163.785C412.272 163.785 407.408 168.649 407.408 174.649C407.408 180.649 412.272 185.513 418.272 185.513Z" fill="#263238" stroke="#263238" stroke-linecap="round" stroke-linejoin="round"/>
<path d="M423.71 174.649C423.71 173.573 423.391 172.521 422.793 171.627C422.195 170.732 421.345 170.036 420.351 169.624C419.357 169.213 418.263 169.106 417.208 169.317C416.153 169.527 415.184 170.046 414.424 170.808C413.664 171.569 413.147 172.539 412.938 173.594C412.73 174.65 412.839 175.744 413.252 176.737C413.665 177.73 414.364 178.579 415.259 179.175C416.155 179.771 417.207 180.088 418.283 180.086C418.996 180.086 419.703 179.945 420.362 179.672C421.021 179.399 421.62 178.998 422.124 178.493C422.628 177.988 423.028 177.388 423.3 176.729C423.572 176.069 423.711 175.362 423.71 174.649Z" fill="white" stroke="#263238" stroke-linecap="round" stroke-linejoin="round"/>
<path d="M454.813 180.075C457.811 180.075 460.24 177.646 460.24 174.648C460.24 171.651 457.811 169.222 454.813 169.222C451.816 169.222 449.387 171.651 449.387 174.648C449.387 177.646 451.816 180.075 454.813 180.075Z" fill="#21BA95"/>
<path d="M397.04 172.178V193.907H388.752C384.991 187.292 383.087 179.785 383.241 172.178H397.04Z" fill="#263238" stroke="#263238" stroke-linecap="round" stroke-linejoin="round"/>
<path d="M425.378 317.202V381.342" stroke="#263238" stroke-width="3" stroke-linecap="round" stroke-linejoin="round"/>
<path d="M425.378 361.556C434.486 361.556 441.869 354.173 441.869 345.065C441.869 335.957 434.486 328.573 425.378 328.573C416.27 328.573 408.886 335.957 408.886 345.065C408.886 354.173 416.27 361.556 425.378 361.556Z" fill="white" stroke="#263238" stroke-linecap="round" stroke-linejoin="round"/>
<path d="M425.378 385.966C429.751 385.966 433.296 382.421 433.296 378.048C433.296 373.675 429.751 370.129 425.378 370.129C421.005 370.129 417.459 373.675 417.459 378.048C417.459 382.421 421.005 385.966 425.378 385.966Z" fill="white" stroke="#263238" stroke-linecap="round" stroke-linejoin="round"/>
<path d="M484.45 243.064L466.237 297.342C461.159 312.461 445.765 322.787 428.313 322.787H422.432C404.98 322.787 389.586 312.461 384.519 297.342L366.295 243.064C363.529 234.818 370.35 226.499 379.862 226.499H470.883C480.406 226.499 487.216 234.818 484.45 243.064Z" fill="white" stroke="#263238" stroke-linecap="round" stroke-linejoin="round"/>
<path d="M476.837 248.153C474.632 247.552 472.28 247.814 470.26 248.885C468.24 249.955 466.703 251.755 465.963 253.918L451.245 296.91C450.528 299.005 450.61 301.291 451.475 303.329C452.341 305.367 453.928 307.014 455.933 307.954L459.1 309.463C462.267 305.948 464.685 301.824 466.206 297.343L482.211 249.631L476.837 248.153Z" fill="white" stroke="#263238" stroke-linecap="round" stroke-linejoin="round"/>
<path d="M384.339 253.918C383.598 251.755 382.062 249.955 380.042 248.885C378.022 247.814 375.67 247.552 373.464 248.153L368.46 249.515L384.518 297.343C386.011 301.762 388.381 305.835 391.487 309.316L394.369 307.954C396.366 307.007 397.945 305.357 398.804 303.32C399.663 301.283 399.742 299.001 399.025 296.91L384.339 253.918Z" fill="white" stroke="#263238" stroke-linecap="round" stroke-linejoin="round"/>
<path d="M453.927 226.499C453.71 228.503 452.761 230.357 451.26 231.704C449.759 233.051 447.813 233.795 445.797 233.794H403.565C401.549 233.795 399.603 233.051 398.102 231.704C396.602 230.357 395.652 228.503 395.436 226.499H453.927Z" fill="white" stroke="#263238" stroke-linecap="round" stroke-linejoin="round"/>
<path d="M425.42 322.481V233.794" stroke="#263238" stroke-linecap="round" stroke-linejoin="round"/>
<path d="M449.408 244.353H401.348C398.397 244.353 396.006 246.744 396.006 249.695V271.592C396.006 274.543 398.397 276.934 401.348 276.934H449.408C452.358 276.934 454.75 274.543 454.75 271.592V249.695C454.75 246.744 452.358 244.353 449.408 244.353Z" fill="#21BA95" stroke="#263238" stroke-linecap="round" stroke-linejoin="round"/>
<path d="M417.829 248.491C419.297 248.491 419.941 249.378 419.941 250.835V255.586C419.941 257.033 419.275 257.919 417.829 257.919H415.612V248.491H417.829ZM417.829 256.938C418.589 256.938 418.948 256.462 418.948 255.597V250.751C418.948 249.885 418.589 249.42 417.818 249.42H416.689V256.938H417.829Z" fill="#263238"/>
<path d="M421.999 256.019L421.63 257.919H420.669L422.474 248.491H423.995L425.8 257.919H424.744L424.385 256.019H421.999ZM422.137 255.122H424.248L423.192 249.674L422.137 255.122Z" fill="#263238"/>
<path d="M427.468 257.919V249.473H425.726V248.512H430.245V249.473H428.503V257.919H427.468Z" fill="#263238"/>
<path d="M431.512 256.019L431.142 257.919H430.171L431.977 248.491H433.507L435.313 257.919H434.257L433.898 256.019H431.512ZM431.649 255.122H433.761L432.705 249.674L431.649 255.122Z" fill="#263238"/>
<path d="M404.536 265.637V266.577H402.193V269.935H405.022V270.885H401.137V261.457H405.022V262.417H402.193V265.637H404.536Z" fill="#263238"/>
<path d="M408.369 266.82L406.796 270.885H405.803L407.704 266.028L405.92 261.457H406.975L408.422 265.226L409.889 261.457H410.882L409.15 265.996L411.04 270.853H409.932L408.369 266.82Z" fill="#263238"/>
<path d="M413.247 270.885V262.438H411.515V261.478H416.023V262.438H414.292V270.885H413.247Z" fill="#263238"/>
<path d="M418.842 261.457C420.321 261.457 420.954 262.217 420.954 263.568V264.339C421.016 264.749 420.933 265.167 420.719 265.522C420.505 265.877 420.174 266.146 419.782 266.282C420.648 266.535 420.965 267.232 420.965 268.245V269.713C420.931 270.099 420.996 270.488 421.155 270.843H420.099C419.955 270.481 419.897 270.09 419.93 269.702V268.214C419.93 267.158 419.423 266.82 418.547 266.82H417.808V270.843H416.752V261.457H418.842ZM418.568 265.901C419.402 265.901 419.909 265.637 419.909 264.613V263.705C419.909 262.861 419.592 262.417 418.853 262.417H417.797V265.901H418.568Z" fill="#263238"/>
<path d="M423.108 268.984L422.749 270.885H421.778L423.583 261.457H425.103L426.909 270.885H425.853L425.483 268.984H423.108ZM423.245 268.087H425.357L424.301 262.639L423.245 268.087Z" fill="#263238"/>
<path d="M431.882 263.737V264.582H430.879V263.684C430.879 262.829 430.551 262.322 429.823 262.322C429.094 262.322 428.714 262.829 428.714 263.684V268.667C428.714 269.512 429.063 270.029 429.823 270.029C430.583 270.029 430.879 269.512 430.879 268.667V267.443H431.882V268.615C431.882 270.04 431.206 270.98 429.77 270.98C428.334 270.98 427.658 270.04 427.658 268.615V263.737C427.658 262.301 428.334 261.361 429.77 261.361C431.206 261.361 431.882 262.301 431.882 263.737Z" fill="#263238"/>
<path d="M434.194 270.885V262.438H432.462V261.478H436.971V262.438H435.239V270.885H434.194Z" fill="#263238"/>
<path d="M438.734 261.457V270.885H437.678V261.457H438.734Z" fill="#263238"/>
<path d="M439.737 263.737C439.737 262.29 440.444 261.361 441.848 261.361C443.252 261.361 443.96 262.29 443.96 263.737V268.615C443.96 270.04 443.252 270.98 441.848 270.98C440.444 270.98 439.737 270.04 439.737 268.615V263.737ZM440.792 268.667C440.792 269.523 441.151 270.029 441.912 270.029C442.672 270.029 443.031 269.523 443.031 268.667V263.684C443.031 262.829 442.682 262.322 441.912 262.322C441.141 262.322 440.792 262.829 440.792 263.684V268.667Z" fill="#263238"/>
<path d="M445.987 270.885H445.037V261.457H446.378L448.553 268.277V261.457H449.482V270.885H448.426L446.019 263.262L445.987 270.885Z" fill="#263238"/>
<path d="M425.378 293.447C428.877 293.447 431.713 290.611 431.713 287.112C431.713 283.614 428.877 280.777 425.378 280.777C421.879 280.777 419.043 283.614 419.043 287.112C419.043 290.611 421.879 293.447 425.378 293.447Z" fill="#263238" stroke="#263238" stroke-linecap="round" stroke-linejoin="round"/>
<path d="M425.378 289.752C426.836 289.752 428.018 288.57 428.018 287.112C428.018 285.654 426.836 284.473 425.378 284.473C423.92 284.473 422.739 285.654 422.739 287.112C422.739 288.57 423.92 289.752 425.378 289.752Z" fill="#21BA95"/>
<path d="M682.285 113.191H536.237C528.656 113.191 522.511 119.336 522.511 126.916V227.66C522.511 235.241 528.656 241.386 536.237 241.386H682.285C689.865 241.386 696.01 235.241 696.01 227.66V126.916C696.01 119.336 689.865 113.191 682.285 113.191Z" fill="#263238" stroke="#263238" stroke-linecap="round" stroke-linejoin="round"/>
<path d="M678.928 121.015H539.594C534.195 121.015 529.817 125.392 529.817 130.791V223.775C529.817 229.175 534.195 233.552 539.594 233.552H678.928C684.327 233.552 688.704 229.175 688.704 223.775V130.791C688.704 125.392 684.327 121.015 678.928 121.015Z" fill="white" stroke="#263238" stroke-linecap="round" stroke-linejoin="round"/>
<path d="M676.351 139.818H550.374V144.411H676.351V139.818Z" fill="#E0E0E0"/>
<path d="M676.351 150.629H550.374V155.222H676.351V150.629Z" fill="#E0E0E0"/>
<path d="M676.351 161.441H550.374V166.034H676.351V161.441Z" fill="#E0E0E0"/>
<path d="M676.351 172.263H550.374V176.855H676.351V172.263Z" fill="#E0E0E0"/>
<path d="M676.351 183.074H550.374V187.666H676.351V183.074Z" fill="#E0E0E0"/>
<path d="M676.351 193.886H550.374V198.478H676.351V193.886Z" fill="#E0E0E0"/>
<path d="M676.351 204.697H550.374V209.289H676.351V204.697Z" fill="#E0E0E0"/>
<path d="M563.455 166.772H551.187V217.451H563.455V166.772Z" fill="#263238"/>
<path d="M582.216 180.983H569.948V217.451H582.216V180.983Z" fill="#21BA95"/>
<path d="M600.978 172.146H588.71V217.451H600.978V172.146Z" fill="#263238"/>
<path d="M619.75 190.464H607.482V217.461H619.75V190.464Z" fill="#21BA95"/>
<path d="M638.512 173.097H626.243V217.462H638.512V173.097Z" fill="#263238"/>
<path d="M657.284 161.409H645.015V217.451H657.284V161.409Z" fill="#21BA95"/>
<path d="M676.045 154.145H663.777V217.451H676.045V154.145Z" fill="#263238"/>
<path d="M541.083 140.673H545.274" stroke="#263238" stroke-linecap="round" stroke-linejoin="round"/>
<path d="M541.083 146.691H545.274" stroke="#263238" stroke-linecap="round" stroke-linejoin="round"/>
<path d="M541.083 152.72H545.274" stroke="#263238" stroke-linecap="round" stroke-linejoin="round"/>
<path d="M541.083 158.749H545.274" stroke="#263238" stroke-linecap="round" stroke-linejoin="round"/>
<path d="M541.083 164.777H545.274" stroke="#263238" stroke-linecap="round" stroke-linejoin="round"/>
<path d="M541.083 170.795H545.274" stroke="#263238" stroke-linecap="round" stroke-linejoin="round"/>
<path d="M541.083 176.824H545.274" stroke="#263238" stroke-linecap="round" stroke-linejoin="round"/>
<path d="M541.083 182.852H545.274" stroke="#263238" stroke-linecap="round" stroke-linejoin="round"/>
<path d="M541.083 188.881H545.274" stroke="#263238" stroke-linecap="round" stroke-linejoin="round"/>
<path d="M541.083 194.899H545.274" stroke="#263238" stroke-linecap="round" stroke-linejoin="round"/>
<path d="M541.083 200.928H545.274" stroke="#263238" stroke-linecap="round" stroke-linejoin="round"/>
<path d="M541.083 206.956H545.274" stroke="#263238" stroke-linecap="round" stroke-linejoin="round"/>
<path d="M541.083 212.985H545.274" stroke="#263238" stroke-linecap="round" stroke-linejoin="round"/>
<path d="M541.083 219.003H545.274" stroke="#263238" stroke-linecap="round" stroke-linejoin="round"/>
<path d="M676.394 220.734V224.925" stroke="#263238" stroke-linecap="round" stroke-linejoin="round"/>
<path d="M666.385 220.734V224.925" stroke="#263238" stroke-linecap="round" stroke-linejoin="round"/>
<path d="M656.376 220.734V224.925" stroke="#263238" stroke-linecap="round" stroke-linejoin="round"/>
<path d="M646.377 220.734V224.925" stroke="#263238" stroke-linecap="round" stroke-linejoin="round"/>
<path d="M636.368 220.734V224.925" stroke="#263238" stroke-linecap="round" stroke-linejoin="round"/>
<path d="M626.359 220.734V224.925" stroke="#263238" stroke-linecap="round" stroke-linejoin="round"/>
<path d="M616.361 220.734V224.925" stroke="#263238" stroke-linecap="round" stroke-linejoin="round"/>
<path d="M606.352 220.734V224.925" stroke="#263238" stroke-linecap="round" stroke-linejoin="round"/>
<path d="M596.343 220.734V224.925" stroke="#263238" stroke-linecap="round" stroke-linejoin="round"/>
<path d="M586.345 220.734V224.925" stroke="#263238" stroke-linecap="round" stroke-linejoin="round"/>
<path d="M576.336 220.734V224.925" stroke="#263238" stroke-linecap="round" stroke-linejoin="round"/>
<path d="M566.327 220.734V224.925" stroke="#263238" stroke-linecap="round" stroke-linejoin="round"/>
<path d="M556.318 220.734V224.925" stroke="#263238" stroke-linecap="round" stroke-linejoin="round"/>
<path d="M546.32 220.734V224.925" stroke="#263238" stroke-linecap="round" stroke-linejoin="round"/>
<path d="M622.77 129.355H594.707V133.958H622.77V129.355Z" fill="#263238"/>
<path d="M682.285 256.938H536.237C528.656 256.938 522.511 263.083 522.511 270.663V371.407C522.511 378.987 528.656 385.132 536.237 385.132H682.285C689.865 385.132 696.01 378.987 696.01 371.407V270.663C696.01 263.083 689.865 256.938 682.285 256.938Z" fill="#263238" stroke="#263238" stroke-linecap="round" stroke-linejoin="round"/>
<path d="M678.928 264.771H539.594C534.195 264.771 529.817 269.149 529.817 274.548V367.532C529.817 372.932 534.195 377.309 539.594 377.309H678.928C684.327 377.309 688.704 372.932 688.704 367.532V274.548C688.704 269.149 684.327 264.771 678.928 264.771Z" fill="white" stroke="#263238" stroke-linecap="round" stroke-linejoin="round"/>
<path d="M582.586 366.424C571.965 366.424 561.723 362.471 553.855 355.336C545.987 348.201 541.056 338.394 540.02 327.823C538.985 317.252 541.92 306.674 548.254 298.148C554.588 289.622 563.868 283.757 574.288 281.696L576.315 292.064C571.985 292.914 567.875 294.644 564.241 297.147C560.607 299.65 557.526 302.873 555.19 306.617C552.853 310.36 551.31 314.543 550.657 318.907C550.004 323.271 550.255 327.723 551.393 331.986C552.532 336.25 554.534 340.233 557.276 343.691C560.019 347.148 563.442 350.005 567.334 352.085C571.225 354.165 575.503 355.422 579.901 355.78C584.299 356.138 588.724 355.589 592.901 354.166L596.29 364.165C591.877 365.662 587.247 366.425 582.586 366.424Z" fill="#263238"/>
<path d="M612.877 312.705C610.25 305.485 605.133 299.439 598.446 295.655C591.759 291.871 583.941 290.598 576.399 292.064L574.288 281.696C584.316 279.744 594.711 281.437 603.601 286.47C612.492 291.503 619.293 299.544 622.78 309.147L612.877 312.705Z" fill="#21BA95"/>
<path d="M596.322 364.185L592.933 354.187C596.988 352.807 600.727 350.633 603.932 347.791C607.137 344.95 609.745 341.499 611.601 337.639C613.458 333.779 614.527 329.588 614.746 325.311C614.965 321.033 614.33 316.755 612.877 312.725L622.812 309.136C624.739 314.486 625.581 320.167 625.289 325.847C624.997 331.526 623.576 337.09 621.11 342.215C618.644 347.339 615.182 351.922 610.926 355.694C606.67 359.466 601.706 362.352 596.322 364.185Z" fill="#A8A8A8"/>
<path d="M651.561 290.702H639.694V302.569H651.561V290.702Z" fill="#263238"/>
<path d="M651.561 319.747H639.694V331.614H651.561V319.747Z" fill="#21BA95"/>
<path d="M651.561 348.803H639.694V360.67H651.561V348.803Z" fill="#A8A8A8"/>
<path d="M657.801 296.952H677.798" stroke="#263238" stroke-linecap="round" stroke-linejoin="round"/>
<path d="M657.801 325.058H677.798" stroke="#263238" stroke-linecap="round" stroke-linejoin="round"/>
<path d="M571.595 324.435H591.592" stroke="#263238" stroke-linecap="round" stroke-linejoin="round"/>
<path d="M657.801 354.419H677.798" stroke="#263238" stroke-linecap="round" stroke-linejoin="round"/>
<path d="M84.3979 455.29H61.1704" stroke="#6B7280" stroke-width="0.75" stroke-miterlimit="10" stroke-linecap="round"/>
<path d="M672.477 455.29H97.0676" stroke="#6B7280" stroke-width="0.75" stroke-miterlimit="10" stroke-linecap="round"/>
<path d="M716.82 455.29H679.867" stroke="#263238" stroke-width="0.75" stroke-miterlimit="10" stroke-linecap="round"/>
</svg>
