<svg width="750" height="500" viewBox="0 0 750 500" fill="none" xmlns="http://www.w3.org/2000/svg">
<path d="M598.491 51.3613C556.847 16.3867 486.741 10.9958 435.208 29.6529C396.82 43.5825 367.092 74.6375 330.284 92.366C304.33 104.824 275.675 110.263 248.009 118.283C218.015 126.979 189.228 138.207 169.521 163.75C147.704 192.02 141.903 229.346 151.913 263.356C162.394 298.945 188.432 328.722 219.897 348.368C251.362 368.014 287.989 378.169 324.821 382.909C374.641 389.301 426.283 386.008 473.499 368.798C525.358 349.852 569.088 314.057 595.548 265.225C618.993 221.941 639.122 160.362 632.067 110.673C628.714 87.0595 616.63 66.6054 598.491 51.3613Z" fill="#21BA95"/>
<path opacity="0.7" d="M598.491 51.3613C556.847 16.3867 486.741 10.9958 435.208 29.6529C396.82 43.5825 367.092 74.6375 330.284 92.366C304.33 104.824 275.675 110.263 248.009 118.283C218.015 126.979 189.228 138.207 169.521 163.75C147.704 192.02 141.903 229.346 151.913 263.356C162.394 298.945 188.432 328.722 219.897 348.368C251.362 368.014 287.989 378.169 324.821 382.909C374.641 389.301 426.283 386.008 473.499 368.798C525.358 349.852 569.088 314.057 595.548 265.225C618.993 221.941 639.122 160.362 632.067 110.673C628.714 87.0595 616.63 66.6054 598.491 51.3613Z" fill="white"/>
<path d="M369.817 475C504.609 475 613.88 459.428 613.88 440.219C613.88 421.009 504.609 405.437 369.817 405.437C235.025 405.437 125.755 421.009 125.755 440.219C125.755 459.428 235.025 475 369.817 475Z" fill="#21BA95"/>
<path opacity="0.5" d="M369.817 475C504.609 475 613.88 459.428 613.88 440.219C613.88 421.009 504.609 405.437 369.817 405.437C235.025 405.437 125.755 421.009 125.755 440.219C125.755 459.428 235.025 475 369.817 475Z" fill="white"/>
<path d="M621.237 308.497C617.146 309.58 613.462 311.835 610.636 314.985C608.165 317.625 606.016 320.548 604.232 323.693C603.026 325.683 602.025 327.745 601.06 329.831C600.433 331.194 599.95 332.895 599.359 334.45C598.503 335.837 597.647 337.26 596.947 338.587C599.504 329.361 607.802 312.38 607.91 307.556C608.079 302.298 603.086 310.113 600.24 320.822C598.649 326.879 597.44 333.03 596.622 339.238C596.332 339.793 596.079 340.312 595.85 340.806C595.331 341.88 594.451 343.701 593.281 346.089C595.85 338.249 596.779 328.951 595.235 327.793C592.992 326.129 592.184 330.205 592.196 337.755C591.976 343.146 591.089 348.489 589.555 353.662C588.144 356.448 586.564 359.524 584.875 362.768C586.648 357.124 587.673 348.995 588.638 342.905C590.049 334.04 589.446 331.279 586.576 335.536C583.705 339.793 584.164 345.968 584.887 353.518C585.131 358.343 584.256 363.16 582.33 367.592C580.172 371.692 577.88 375.938 575.565 380.11C577.529 375.834 578.772 371.261 579.243 366.579C580.244 356.34 578.93 346.933 576.554 349.598C574.178 352.263 575.589 359.391 575.275 368.062C575.103 373.327 574.511 378.57 573.502 383.741L572.779 385.019C573.732 380.616 573.984 376.09 573.527 371.608C573.997 369.895 573.828 368.798 573.261 368.279C573.177 366.35 573.334 363.455 572.513 361.972C570.439 358.269 568.172 363.25 568.148 365.216C568.15 366.721 568.254 368.224 568.461 369.714C567.653 370.465 566.955 371.326 566.387 372.271C566.073 372.802 565.748 373.381 565.398 374.02C565.398 373.405 565.47 372.742 565.494 372.151C565.603 370.48 565.253 368.812 564.481 367.327C565.727 364.84 566.624 362.194 567.147 359.463C567.389 358.56 567.326 357.601 566.966 356.738C566.846 356.471 566.675 356.231 566.462 356.031C566.249 355.831 565.998 355.675 565.725 355.572C565.451 355.469 565.16 355.42 564.868 355.43C564.576 355.44 564.289 355.507 564.023 355.628C563.895 355.689 563.77 355.758 563.649 355.833C559.718 357.92 558.668 362.937 558.21 366.965C557.778 370.439 557.076 373.875 556.112 377.24C555.304 380.267 554.592 383.005 554.134 384.91C553.821 382.878 553.395 380.865 552.855 378.88C552.409 377.228 551.987 375.636 551.577 374.056C551.199 368.469 552.293 362.88 554.749 357.847C559.404 348.271 562.769 343.761 559.573 343.604C556.377 343.447 551.661 348.428 550.998 356.316C550.5 361.095 550.399 365.907 550.697 370.703C549.671 367.085 548.658 363.576 547.609 360.054C546.798 356.165 546.997 352.134 548.188 348.344C550.383 341.843 556.944 330.253 553.494 331.206C550.045 332.159 545.897 338.816 545.426 345.908C545.301 349.613 545.707 353.317 546.632 356.907C545.885 354.446 545.081 351.889 544.22 349.236C543.858 348.03 543.472 346.824 543.099 345.618C543.113 345.401 543.08 345.183 543.002 344.979C542.521 341.315 543.183 337.592 544.896 334.318C548.2 328.384 554.339 323.283 550.721 321.92C547.103 320.557 541.639 330.205 541.314 335.029C541.241 336.865 541.387 338.703 541.748 340.505L541.302 339.383C540.518 336.609 539.758 333.872 539.095 331.447C538.952 327.868 539.671 324.307 541.193 321.064C544.425 313.659 548.526 305.204 544.341 307.351C540.964 309.1 537.322 319.074 538.033 327.504C537.756 326.394 537.491 325.453 537.286 324.682C536.743 319.858 535.706 308.497 537.286 301.767C538.323 297.257 540.023 292.975 540.542 288.332C540.646 287.817 540.609 287.284 540.433 286.788C539.3 283.99 535.609 289.442 535.054 290.334C532.801 293.925 531.648 298.096 531.738 302.334C531.741 305.946 532.17 309.544 533.016 313.056C533.531 315.299 534.154 317.518 534.886 319.713C535.344 321.124 536.164 322.704 536.791 324.235C537.105 325.839 537.454 327.468 537.828 328.927C533.402 320.364 527.794 302.286 524.659 298.607C521.197 294.664 522.874 303.842 528.06 313.55C531.042 319.096 534.369 324.449 538.021 329.578C538.19 330.181 538.359 330.784 538.528 331.254C538.878 332.388 539.481 334.33 540.252 336.875C536.731 329.433 531.111 321.956 529.193 322.161C526.431 322.475 528.626 326.008 533.776 331.52C537.272 335.608 540.249 340.112 542.64 344.931C543.509 347.946 544.461 351.25 545.438 354.772C542.869 349.441 538.069 342.796 534.584 337.695C529.567 330.253 527.239 328.637 528.047 333.703C528.856 338.768 533.426 342.953 539.107 348.006C542.559 351.386 545.191 355.511 546.801 360.066C548.007 364.529 549.213 369.196 550.419 373.839C548.938 369.367 546.729 365.17 543.883 361.417C537.611 353.228 530.23 347.258 530.315 350.816C530.399 354.374 536.285 358.643 542.001 365.156C545.469 369.111 548.604 373.346 551.372 377.819C551.493 378.277 551.601 378.748 551.71 379.206C549.153 374.514 545.064 370.691 541.097 367.146C539.698 365.867 537.587 363.178 535.79 362.599C531.762 361.321 533.499 366.506 534.825 367.954C539.131 372.657 545.197 375.564 549.177 380.52C550.678 382.383 552.021 384.368 553.193 386.454C553.47 388.082 553.675 389.602 553.844 391.025C552.317 389.578 550.709 388.211 549.02 386.924C544.196 383.656 541.338 379.158 537.587 374.864C536.466 373.586 534.56 371.994 532.763 371.909C530.206 371.801 529.446 374.478 530.206 376.589C533.161 385.284 544.281 385.67 550.805 390.193C551.995 390.955 553.096 391.849 554.085 392.858C554.363 395.542 554.435 398.243 554.303 400.938H539.348V407.174H543.786L547.404 429.364H577.301L580.919 407.174H585.358V400.938H562.938C563.963 399.66 565.06 398.382 566.17 396.922L570.897 397.067C570.897 397.067 587.335 397.779 593.366 394.498C599.396 391.218 594.017 388.106 588.24 389.783C582.463 391.459 571.127 396.536 568.618 396.536L566.495 396.476C567.701 394.944 568.907 393.365 569.969 391.748C574.495 390.611 578.945 389.193 583.295 387.503C588.011 385.634 593.534 384.126 597.55 380.955C598.331 380.441 598.923 379.687 599.239 378.808C599.422 378.248 599.377 377.638 599.113 377.112C598.848 376.586 598.386 376.185 597.828 375.998C597.698 375.954 597.565 375.922 597.43 375.901C593.124 374.695 588.927 377.686 585.912 380.315C583.258 382.562 580.436 384.602 577.47 386.418C574.805 388.058 572.417 389.602 570.801 390.651C572.007 388.878 573.092 387.105 574.021 385.381C574.829 383.861 575.613 382.414 576.349 381.003C579.9 376.681 584.513 373.357 589.735 371.355C599.673 367.52 605.185 366.531 603.002 364.227C600.819 361.924 593.908 362.346 588.047 367.664C584.413 370.816 581.049 374.265 577.989 377.976C579.738 374.599 581.378 371.367 583.006 368.086C585.077 364.686 587.983 361.872 591.448 359.91C597.478 356.677 610.165 352.673 607.018 351.021C603.87 349.369 596.272 351.383 591.11 356.255C588.486 358.881 586.252 361.87 584.477 365.132C585.611 362.804 586.769 360.404 587.987 357.895C588.505 356.786 589.072 355.652 589.651 354.47C589.772 354.289 589.904 354.121 590.013 353.928C592.165 350.922 595.194 348.656 598.684 347.439C605.088 345.353 613.156 345.811 611.396 342.314C609.635 338.816 599.07 342.169 595.536 345.486C594.237 346.788 593.088 348.232 592.111 349.791C592.268 349.429 592.425 349.043 592.57 348.657C593.848 346.101 595.126 343.544 596.405 341.421C598.732 338.698 601.687 336.583 605.016 335.258C612.433 332.062 621.213 328.674 616.678 327.383C613.06 326.346 603.532 331.146 598.322 337.803L599.697 335.246C602.592 331.327 609.587 322.318 615.375 318.446C619.211 315.878 623.371 313.876 626.893 310.837C627.28 310.547 627.593 310.171 627.81 309.739C628.75 306.796 622.37 308.292 621.237 308.497ZM554.327 386.08C555.291 384.609 556.992 381.895 558.873 378.41C559.453 379.998 560.113 381.556 560.851 383.077C559.115 386.695 557.523 389.759 556.606 390.555L555.014 391.954C554.906 390.048 554.628 388.094 554.351 386.128L554.327 386.08ZM565.181 396.44C564.014 397.991 562.757 399.473 561.418 400.878H555.629C555.545 398.466 555.376 395.584 555.099 392.436L558.656 389.3C558.656 389.3 560.212 388.022 562.274 385.96C563.286 387.948 564.071 390.043 564.614 392.207C564.998 393.619 565.205 395.073 565.229 396.536L565.181 396.44ZM570.005 384.126C569.835 386.517 569.463 388.889 568.895 391.218C567.991 392.605 567.098 393.859 566.254 395.053C566.182 392.906 565.603 389.023 565.543 388.758C565.145 387.02 564.927 385.246 564.891 383.463C566.594 381.711 568.204 379.871 569.715 377.952C570.058 380.007 570.176 382.094 570.065 384.175L570.005 384.126Z" fill="#6B7280"/>
<path d="M579.026 73.0329V307.291C579.026 313.321 574.527 318.145 568.943 318.145H144.641C139.069 318.145 134.546 313.321 134.546 307.291V73.0329C134.546 67.0028 139.069 62.1787 144.641 62.1787H568.979C574.563 62.1908 579.026 67.039 579.026 73.0329Z" fill="white" stroke="#263238" stroke-width="1.06897" stroke-linecap="round" stroke-linejoin="round"/>
<path d="M257.006 103.219H158.112C153.922 103.219 150.526 106.616 150.526 110.805V277.562C150.526 281.751 153.922 285.148 158.112 285.148H257.006C261.195 285.148 264.592 281.751 264.592 277.562V110.805C264.592 106.616 261.195 103.219 257.006 103.219Z" fill="#21BA95"/>
<path d="M193.328 143.621C193.328 147.082 192.302 150.466 190.379 153.344C188.456 156.221 185.723 158.464 182.525 159.789C179.328 161.113 175.809 161.46 172.415 160.785C169.02 160.109 165.902 158.443 163.455 155.995C161.007 153.548 159.341 150.43 158.665 147.035C157.99 143.641 158.337 140.122 159.661 136.925C160.986 133.727 163.229 130.994 166.106 129.071C168.984 127.148 172.367 126.122 175.828 126.122C178.127 126.12 180.403 126.572 182.527 127.451C184.651 128.33 186.581 129.619 188.206 131.244C189.831 132.869 191.12 134.799 191.999 136.923C192.878 139.047 193.329 141.323 193.328 143.621Z" fill="white" stroke="#263238" stroke-width="1.06897" stroke-linecap="round" stroke-linejoin="round"/>
<path d="M247.478 133.563H210.948V137.024H247.478V133.563Z" fill="#263238"/>
<path d="M251.94 141.884H210.948V145.346H251.94V141.884Z" fill="#263238"/>
<path d="M247.478 150.207H210.948V153.668H247.478V150.207Z" fill="#263238"/>
<path d="M254.292 158.516H210.948V161.977H254.292V158.516Z" fill="#263238"/>
<path d="M245.476 181.586H169.485C165.921 181.586 163.033 184.475 163.033 188.039V203.669C163.033 207.232 165.921 210.121 169.485 210.121H245.476C249.04 210.121 251.929 207.232 251.929 203.669V188.039C251.929 184.475 249.04 181.586 245.476 181.586Z" fill="white" stroke="#263238" stroke-width="1.06897" stroke-linecap="round" stroke-linejoin="round"/>
<path d="M245.476 219.613H169.485C165.921 219.613 163.033 222.502 163.033 226.065V241.695C163.033 245.259 165.921 248.147 169.485 248.147H245.476C249.04 248.147 251.929 245.259 251.929 241.695V226.065C251.929 222.502 249.04 219.613 245.476 219.613Z" fill="white" stroke="#263238" stroke-width="1.06897" stroke-linecap="round" stroke-linejoin="round"/>
<path d="M443.746 102.701V296.207" stroke="#263238" stroke-width="1.06897" stroke-linecap="round" stroke-linejoin="round"/>
<path d="M579.026 72.2969V87.9752H134.546V72.2969C134.546 69.6186 135.61 67.0498 137.502 65.1548C139.395 63.2598 141.962 62.1936 144.641 62.1904H568.979C571.651 62.2 574.21 63.2698 576.094 65.1648C577.978 67.0598 579.032 69.625 579.026 72.2969Z" fill="#263238"/>
<path d="M164.938 79.0994C167.169 79.0994 168.978 77.2905 168.978 75.0592C168.978 72.8279 167.169 71.019 164.938 71.019C162.707 71.019 160.898 72.8279 160.898 75.0592C160.898 77.2905 162.707 79.0994 164.938 79.0994Z" fill="white"/>
<path d="M187.636 75.0592C187.636 75.8583 187.399 76.6394 186.955 77.3038C186.511 77.9682 185.88 78.4861 185.141 78.7919C184.403 79.0976 183.591 79.1777 182.807 79.0218C182.023 78.8659 181.304 78.4811 180.739 77.9161C180.173 77.351 179.789 76.6311 179.633 75.8474C179.477 75.0637 179.557 74.2514 179.863 73.5131C180.169 72.7749 180.686 72.1439 181.351 71.6999C182.015 71.256 182.796 71.019 183.595 71.019C184.667 71.019 185.695 71.4447 186.452 72.2024C187.21 72.9601 187.636 73.9877 187.636 75.0592Z" fill="white"/>
<path d="M206.063 75.0592C206.063 75.8583 205.827 76.6394 205.383 77.3038C204.939 77.9682 204.308 78.4861 203.569 78.7919C202.831 79.0976 202.019 79.1777 201.235 79.0218C200.451 78.8659 199.732 78.4811 199.166 77.9161C198.601 77.351 198.217 76.6311 198.061 75.8474C197.905 75.0637 197.985 74.2514 198.291 73.5131C198.596 72.7749 199.114 72.1439 199.779 71.6999C200.443 71.256 201.224 71.019 202.023 71.019C203.095 71.019 204.122 71.4447 204.88 72.2024C205.638 72.9601 206.063 73.9877 206.063 75.0592Z" fill="white"/>
<path d="M557.98 120.671H460.944V123.891H557.98V120.671Z" fill="#21BA95"/>
<path d="M507.81 130.717H460.944V133.937H507.81V130.717Z" fill="#21BA95"/>
<path d="M535.958 140.763H460.944V143.983H535.958V140.763Z" fill="#21BA95"/>
<path d="M527.95 150.52H460.944V154.017H527.95V150.52Z" fill="#21BA95"/>
<path d="M525.852 160.855H460.944V164.075H525.852V160.855Z" fill="#21BA95"/>
<path d="M503.118 170.901H460.944V174.121H503.118V170.901Z" fill="#21BA95"/>
<path opacity="0.2" d="M557.98 120.671H460.944V123.891H557.98V120.671Z" fill="black"/>
<path opacity="0.2" d="M507.81 130.717H460.944V133.937H507.81V130.717Z" fill="black"/>
<path opacity="0.2" d="M535.958 140.763H460.944V143.983H535.958V140.763Z" fill="black"/>
<path opacity="0.2" d="M527.95 150.52H460.944V154.017H527.95V150.52Z" fill="black"/>
<path opacity="0.2" d="M525.852 160.855H460.944V164.075H525.852V160.855Z" fill="black"/>
<path opacity="0.2" d="M503.118 170.901H460.944V174.121H503.118V170.901Z" fill="black"/>
<path d="M175.828 152.92C181.377 152.92 185.875 148.422 185.875 142.874C185.875 137.325 181.377 132.828 175.828 132.828C170.28 132.828 165.782 137.325 165.782 142.874C165.782 148.422 170.28 152.92 175.828 152.92Z" fill="#263238"/>
<path d="M185.862 157.985C182.834 160.078 179.224 161.164 175.543 161.089C171.862 161.013 168.299 159.779 165.36 157.563C167.012 154.246 170.184 149.12 174.212 149.12C179.253 149.048 182.691 151.267 185.862 157.985Z" fill="#263238"/>
<path d="M551.142 69.4751H454.347C451.583 69.4751 449.342 71.7159 449.342 74.4801V75.6379C449.342 78.402 451.583 80.6429 454.347 80.6429H551.142C553.906 80.6429 556.147 78.402 556.147 75.6379V74.4801C556.147 71.7159 553.906 69.4751 551.142 69.4751Z" fill="white"/>
<path d="M455.674 71.3804V78.4718" stroke="#263238" stroke-width="1.06897" stroke-linecap="round" stroke-linejoin="round"/>
<path d="M245.524 258.809H221.307C218.677 258.809 216.544 260.941 216.544 263.572V269.687C216.544 272.318 218.677 274.451 221.307 274.451H245.524C248.155 274.451 250.288 272.318 250.288 269.687V263.572C250.288 260.941 248.155 258.809 245.524 258.809Z" fill="#21BA95"/>
<path d="M559.162 259.037H469.084V211.833" stroke="#263238" stroke-width="1.06897" stroke-linecap="round" stroke-linejoin="round"/>
<path d="M472.727 239.572L476.598 248.219L496.919 221.325L501.165 234.302L509.197 229.791L527.757 248.219L541.615 235.436L546.969 241.068L556.207 222.905" stroke="#263238" stroke-width="1.06897" stroke-linecap="round" stroke-linejoin="round"/>
<path d="M466.974 256.071H460.449V259.026H466.974V256.071Z" fill="#21BA95"/>
<path d="M466.974 245.265H460.449V248.219H466.974V245.265Z" fill="#21BA95"/>
<path d="M466.974 234.447H460.449V237.402H466.974V234.447Z" fill="#21BA95"/>
<path d="M466.974 223.629H460.449V226.584H466.974V223.629Z" fill="#21BA95"/>
<path d="M466.974 212.823H460.449V215.778H466.974V212.823Z" fill="#21BA95"/>
<path d="M513.068 261.413V280.046H515.975V261.413H513.068Z" fill="#21BA95"/>
<path d="M523.416 261.413V280.046H526.323V261.413H523.416Z" fill="#21BA95"/>
<path d="M533.764 261.426V280.059H536.67V261.426H533.764Z" fill="#21BA95"/>
<path d="M544.111 261.426V280.059H547.017V261.426H544.111Z" fill="#21BA95"/>
<path d="M554.459 261.426V280.059H557.366V261.426H554.459Z" fill="#21BA95"/>
<path d="M502.455 261.426V280.059H505.362V261.426H502.455Z" fill="#21BA95"/>
<path d="M491.842 261.426V280.059H494.749V261.426H491.842Z" fill="#21BA95"/>
<path d="M481.217 261.413V280.046H484.124V261.413H481.217Z" fill="#21BA95"/>
<path d="M470.604 261.426V280.059H473.511V261.426H470.604Z" fill="#21BA95"/>
<path d="M388.052 111.179C383.235 111.179 378.615 113.093 375.209 116.499C371.803 119.905 369.889 124.525 369.889 129.342C369.889 134.159 371.803 138.779 375.209 142.185C378.615 145.591 383.235 147.505 388.052 147.505C390.437 147.553 392.808 147.131 395.03 146.263C397.252 145.395 399.282 144.097 401.003 142.445C402.723 140.793 404.102 138.817 405.059 136.632C406.016 134.447 406.534 132.095 406.582 129.71C406.631 127.325 406.209 124.953 405.341 122.731C404.472 120.509 403.175 118.48 401.523 116.759C399.87 115.038 397.895 113.66 395.71 112.703C393.525 111.745 391.173 111.228 388.788 111.179H388.052Z" fill="#263238"/>
<path d="M399.57 123.517C399.436 123.005 399.169 122.538 398.796 122.163C398.424 121.788 397.958 121.518 397.447 121.382C395.566 120.876 388.04 120.875 388.04 120.875C388.04 120.875 380.514 120.876 378.645 121.382C378.133 121.518 377.665 121.787 377.29 122.162C376.915 122.537 376.646 123.004 376.51 123.517C375.847 127.376 375.847 131.32 376.51 135.179C376.646 135.691 376.915 136.159 377.29 136.534C377.665 136.909 378.133 137.178 378.645 137.314C380.514 137.82 388.04 137.82 388.04 137.82C388.04 137.82 395.566 137.82 397.447 137.314C397.957 137.175 398.421 136.905 398.794 136.53C399.166 136.155 399.434 135.689 399.57 135.179C400.246 131.321 400.246 127.375 399.57 123.517Z" fill="white"/>
<path d="M385.58 132.924V125.772L391.875 129.342L385.58 132.924Z" fill="#263238"/>
<path d="M316.499 111.228C312.921 111.228 309.423 112.289 306.448 114.276C303.473 116.264 301.154 119.089 299.785 122.395C298.416 125.701 298.058 129.338 298.756 132.847C299.454 136.356 301.177 139.58 303.707 142.11C306.237 144.64 309.46 146.363 312.969 147.061C316.478 147.759 320.116 147.4 323.421 146.031C326.727 144.662 329.552 142.343 331.54 139.368C333.528 136.393 334.589 132.896 334.589 129.318C334.589 124.52 332.683 119.919 329.29 116.526C325.898 113.133 321.296 111.228 316.499 111.228Z" fill="#263238"/>
<path d="M313.448 140.968H318.139V129.222H321.407L321.757 125.29H318.139V123.035C318.139 122.106 318.32 121.744 319.224 121.744H321.757V117.656H318.525C315.04 117.656 313.46 119.199 313.46 122.13V125.266H311.048V129.234H313.46L313.448 140.968Z" fill="white"/>
<path d="M316.39 184.855C312.798 184.855 309.287 185.92 306.301 187.916C303.314 189.911 300.986 192.747 299.611 196.065C298.236 199.383 297.876 203.034 298.576 206.557C299.275 210.08 301.004 213.316 303.543 215.857C306.082 218.397 309.317 220.128 312.839 220.83C316.362 221.533 320.013 221.175 323.332 219.802C326.651 218.429 329.489 216.103 331.486 213.118C333.483 210.132 334.551 206.622 334.553 203.03C334.553 198.212 332.64 193.591 329.234 190.183C325.828 186.775 321.208 184.859 316.39 184.855Z" fill="#263238"/>
<path d="M316.39 194.346C319.212 194.346 319.55 194.346 320.672 194.346C321.344 194.357 322.009 194.484 322.638 194.72C323.094 194.887 323.506 195.155 323.844 195.504C324.195 195.842 324.467 196.254 324.64 196.71C324.873 197.34 324.996 198.005 325.001 198.676C325.001 199.798 325.001 200.172 325.001 202.945C325.001 205.719 325.001 206.117 325.001 207.227C324.997 207.898 324.874 208.564 324.64 209.193C324.471 209.651 324.199 210.064 323.844 210.399C323.507 210.751 323.094 211.023 322.638 211.195C322.006 211.422 321.342 211.544 320.672 211.556C319.55 211.556 319.212 211.556 316.39 211.556C313.568 211.556 313.231 211.556 312.109 211.556C311.438 211.546 310.774 211.424 310.143 211.195C309.686 211.023 309.274 210.751 308.937 210.399C308.582 210.064 308.309 209.651 308.141 209.193C307.906 208.564 307.784 207.898 307.779 207.227C307.779 206.117 307.707 205.78 307.707 202.945C307.707 200.111 307.707 199.798 307.779 198.676C307.785 198.005 307.907 197.34 308.141 196.71C308.309 196.252 308.582 195.839 308.937 195.504C309.275 195.155 309.687 194.887 310.143 194.72C310.773 194.487 311.437 194.361 312.109 194.346C313.231 194.346 313.556 194.346 316.39 194.346ZM316.39 192.441C313.52 192.441 313.146 192.441 312.025 192.441C311.16 192.449 310.304 192.604 309.492 192.899C308.791 193.171 308.154 193.586 307.622 194.117C307.091 194.649 306.676 195.286 306.404 195.987C306.098 196.809 305.931 197.678 305.91 198.555C305.91 199.689 305.838 200.051 305.838 202.921C305.838 205.792 305.838 206.153 305.91 207.287C305.928 208.165 306.096 209.034 306.404 209.856C306.671 210.566 307.083 211.211 307.615 211.751C308.147 212.292 308.786 212.714 309.492 212.992C310.316 213.292 311.184 213.459 312.061 213.486C313.194 213.486 313.556 213.486 316.427 213.486C319.297 213.486 319.659 213.486 320.792 213.486C321.669 213.459 322.537 213.292 323.361 212.992C324.063 212.717 324.699 212.3 325.231 211.767C325.763 211.233 326.177 210.595 326.449 209.892C326.757 209.07 326.925 208.201 326.943 207.323C326.943 206.202 327.015 205.84 327.015 202.957C327.015 200.075 327.015 199.725 326.943 198.592C326.923 197.718 326.756 196.853 326.449 196.035C326.179 195.331 325.765 194.692 325.233 194.158C324.702 193.624 324.064 193.208 323.361 192.935C322.538 192.629 321.67 192.462 320.792 192.441C319.659 192.441 319.297 192.441 316.427 192.441" fill="white"/>
<path d="M316.39 197.542C315.314 197.54 314.262 197.856 313.366 198.452C312.471 199.048 311.772 199.896 311.358 200.889C310.944 201.882 310.834 202.975 311.041 204.03C311.249 205.086 311.765 206.056 312.524 206.819C313.283 207.581 314.251 208.101 315.305 208.313C316.36 208.526 317.454 208.42 318.448 208.011C319.443 207.601 320.294 206.906 320.894 206.013C321.494 205.12 321.815 204.069 321.817 202.993C321.817 201.554 321.246 200.173 320.228 199.156C319.21 198.138 317.83 197.566 316.39 197.566M316.39 206.503C315.691 206.505 315.006 206.3 314.424 205.913C313.841 205.526 313.386 204.975 313.117 204.33C312.848 203.684 312.776 202.973 312.911 202.287C313.046 201.601 313.381 200.97 313.875 200.475C314.369 199.979 314.999 199.642 315.684 199.504C316.37 199.367 317.081 199.436 317.728 199.703C318.374 199.97 318.927 200.423 319.315 201.005C319.704 201.586 319.912 202.27 319.912 202.969C319.912 203.904 319.541 204.801 318.881 205.464C318.221 206.126 317.325 206.5 316.39 206.503Z" fill="white"/>
<path d="M388.727 219.842C386.454 219.843 384.203 219.397 382.103 218.528C380.002 217.659 378.094 216.384 376.486 214.776C374.879 213.169 373.604 211.261 372.735 209.16C371.866 207.06 371.419 204.809 371.421 202.535C371.421 197.945 373.244 193.544 376.49 190.298C379.735 187.052 384.137 185.229 388.727 185.229C393.317 185.229 397.719 187.052 400.965 190.298C404.21 193.544 406.034 197.945 406.034 202.535C406.035 204.809 405.589 207.06 404.72 209.16C403.85 211.261 402.576 213.169 400.968 214.776C399.361 216.384 397.452 217.659 395.352 218.528C393.252 219.397 391 219.843 388.727 219.842Z" fill="#263238" stroke="#263238" stroke-width="1.06897" stroke-linecap="round" stroke-linejoin="round"/>
<path d="M379.513 208.397C381.239 209.508 383.25 210.094 385.302 210.085C386.768 210.096 388.221 209.805 389.57 209.232C390.919 208.659 392.136 207.815 393.145 206.752C394.155 205.689 394.936 204.431 395.439 203.054C395.943 201.677 396.158 200.212 396.072 198.748C396.802 198.204 397.434 197.539 397.941 196.783C397.252 197.091 396.52 197.294 395.771 197.386C396.556 196.908 397.143 196.163 397.423 195.287C396.678 195.735 395.862 196.053 395.011 196.228C394.44 195.625 393.686 195.227 392.866 195.094C392.047 194.962 391.206 195.103 390.474 195.495C389.742 195.887 389.16 196.508 388.816 197.264C388.472 198.02 388.386 198.868 388.571 199.677C387.067 199.6 385.597 199.208 384.255 198.527C382.913 197.845 381.729 196.89 380.78 195.721C380.299 196.559 380.155 197.548 380.38 198.487C380.604 199.427 381.178 200.245 381.986 200.774C381.386 200.754 380.799 200.593 380.273 200.304C380.267 201.182 380.565 202.034 381.117 202.716C381.669 203.398 382.441 203.867 383.3 204.043C382.742 204.181 382.158 204.181 381.6 204.043C381.84 204.796 382.31 205.454 382.943 205.926C383.577 206.398 384.343 206.659 385.133 206.672C384.356 207.315 383.46 207.798 382.495 208.094C381.531 208.39 380.518 208.493 379.513 208.397Z" fill="white"/>
<path d="M388.148 262.27C384.553 262.268 381.038 263.332 378.048 265.327C375.057 267.323 372.726 270.16 371.349 273.481C369.971 276.802 369.61 280.457 370.309 283.983C371.009 287.509 372.739 290.749 375.281 293.292C377.822 295.835 381.06 297.567 384.586 298.269C388.112 298.972 391.767 298.612 395.089 297.237C398.411 295.862 401.25 293.532 403.247 290.543C405.245 287.554 406.311 284.04 406.311 280.445C406.311 275.627 404.398 271.006 400.992 267.598C397.586 264.189 392.967 262.273 388.148 262.27Z" fill="#263238"/>
<path d="M382.842 275.681H378.85V288.585H382.842V275.681Z" fill="white"/>
<path d="M380.828 273.992C381.305 273.992 381.771 273.851 382.168 273.586C382.565 273.321 382.874 272.944 383.056 272.503C383.239 272.062 383.287 271.577 383.194 271.109C383.1 270.642 382.871 270.212 382.533 269.874C382.196 269.537 381.766 269.307 381.298 269.214C380.83 269.121 380.346 269.169 379.905 269.352C379.464 269.534 379.087 269.843 378.822 270.24C378.557 270.637 378.416 271.103 378.416 271.58C378.416 272.22 378.67 272.833 379.122 273.286C379.575 273.738 380.188 273.992 380.828 273.992Z" fill="white"/>
<path d="M389.234 281.819C389.234 279.998 390.066 278.925 391.646 278.925C393.226 278.925 393.817 279.962 393.817 281.819V288.585H397.797V280.445C397.797 276.995 395.831 275.307 393.081 275.307C392.304 275.299 391.537 275.492 390.856 275.868C390.176 276.244 389.604 276.791 389.198 277.454V275.729H385.351V288.633H389.198L389.234 281.819Z" fill="white"/>
<path d="M316.378 298.535C311.561 298.535 306.941 296.621 303.535 293.215C300.129 289.809 298.215 285.189 298.215 280.372C298.215 275.554 300.128 270.933 303.534 267.525C306.94 264.117 311.56 262.2 316.378 262.197C321.198 262.197 325.821 264.112 329.229 267.521C332.638 270.929 334.553 275.552 334.553 280.372C334.55 285.19 332.633 289.81 329.225 293.216C325.817 296.622 321.196 298.535 316.378 298.535Z" fill="#263238"/>
<path d="M313.701 287.259C314.223 287.149 314.716 286.931 315.148 286.619C315.609 286.259 315.981 285.797 316.236 285.27C316.491 284.744 316.622 284.165 316.619 283.58C316.637 282.923 316.466 282.274 316.125 281.711C315.776 281.18 315.257 280.785 314.653 280.589C315.022 280.412 315.354 280.167 315.63 279.866C316.041 279.327 316.246 278.66 316.209 277.984C316.232 277.291 316.029 276.61 315.63 276.043C315.226 275.572 314.715 275.204 314.141 274.969C313.566 274.734 312.944 274.639 312.326 274.692H306.163V287.403H311.88C312.49 287.416 313.1 287.367 313.701 287.259ZM308.708 276.899H311.47C311.98 276.881 312.49 276.951 312.977 277.104C313.212 277.197 313.408 277.367 313.533 277.586C313.658 277.805 313.704 278.061 313.665 278.31C313.687 278.526 313.651 278.745 313.56 278.942C313.469 279.14 313.326 279.309 313.146 279.431C312.732 279.655 312.265 279.763 311.795 279.745H308.708V276.899ZM308.708 285.22V281.819H311.831C312.266 281.81 312.699 281.88 313.11 282.024C313.371 282.142 313.589 282.337 313.736 282.583C313.883 282.829 313.95 283.114 313.93 283.399C313.961 283.718 313.898 284.039 313.748 284.323C313.598 284.606 313.367 284.838 313.086 284.991C312.676 285.157 312.237 285.235 311.795 285.22H308.708Z" fill="white"/>
<path d="M318.73 286.596C319.657 287.378 320.833 287.806 322.046 287.802C322.713 287.854 323.384 287.757 324.009 287.52C324.635 287.282 325.2 286.909 325.664 286.427C326.146 285.981 326.464 285.386 326.569 284.738H324.048C323.926 284.981 323.758 285.198 323.554 285.377C323.162 285.681 322.674 285.835 322.179 285.812C321.701 285.823 321.229 285.702 320.816 285.462C320.496 285.242 320.238 284.944 320.066 284.595C319.895 284.247 319.817 283.86 319.839 283.472H326.702C326.726 282.848 326.702 282.223 326.629 281.603C326.504 280.861 326.206 280.159 325.761 279.552C325.359 278.946 324.795 278.466 324.133 278.165C323.433 277.861 322.677 277.709 321.914 277.719C321.294 277.695 320.675 277.798 320.097 278.022C319.518 278.246 318.991 278.586 318.549 279.022C317.669 280.055 317.236 281.395 317.343 282.748C317.262 283.453 317.345 284.167 317.586 284.834C317.827 285.502 318.218 286.104 318.73 286.596ZM320.491 280.324C320.687 280.14 320.918 279.997 321.171 279.904C321.424 279.811 321.693 279.769 321.962 279.782C322.499 279.767 323.023 279.952 323.433 280.3C323.637 280.49 323.801 280.719 323.913 280.974C324.025 281.229 324.083 281.505 324.084 281.784H319.839C319.898 281.241 320.126 280.73 320.491 280.324Z" fill="white"/>
<path d="M324.567 275.416H319.031V276.706H324.567V275.416Z" fill="white"/>
<path d="M336.012 104.39H296.985C293.981 104.39 291.546 106.825 291.546 109.829V148.856C291.546 151.86 293.981 154.295 296.985 154.295H336.012C339.016 154.295 341.451 151.86 341.451 148.856V109.829C341.451 106.825 339.016 104.39 336.012 104.39Z" stroke="#21BA95" stroke-width="1.06897" stroke-miterlimit="10"/>
<path d="M407.927 104.39H368.901C365.897 104.39 363.461 106.825 363.461 109.829V148.856C363.461 151.86 365.897 154.295 368.901 154.295H407.927C410.931 154.295 413.367 151.86 413.367 148.856V109.829C413.367 106.825 410.931 104.39 407.927 104.39Z" stroke="#21BA95" stroke-width="1.06897" stroke-miterlimit="10"/>
<path d="M336.012 177.486H296.985C293.981 177.486 291.546 179.922 291.546 182.925V221.952C291.546 224.956 293.981 227.392 296.985 227.392H336.012C339.016 227.392 341.451 224.956 341.451 221.952V182.925C341.451 179.922 339.016 177.486 336.012 177.486Z" stroke="#21BA95" stroke-width="1.06897" stroke-miterlimit="10"/>
<path d="M407.927 177.486H368.901C365.897 177.486 363.461 179.922 363.461 182.925V221.952C363.461 224.956 365.897 227.392 368.901 227.392H407.927C410.931 227.392 413.367 224.956 413.367 221.952V182.925C413.367 179.922 410.931 177.486 407.927 177.486Z" stroke="#21BA95" stroke-width="1.06897" stroke-miterlimit="10"/>
<path d="M336.012 254.202H296.985C293.981 254.202 291.546 256.637 291.546 259.641V298.668C291.546 301.672 293.981 304.107 296.985 304.107H336.012C339.016 304.107 341.451 301.672 341.451 298.668V259.641C341.451 256.637 339.016 254.202 336.012 254.202Z" stroke="#21BA95" stroke-width="1.06897" stroke-miterlimit="10"/>
<path d="M407.927 254.202H368.901C365.897 254.202 363.461 256.637 363.461 259.641V298.668C363.461 301.672 365.897 304.107 368.901 304.107H407.927C410.931 304.107 413.367 301.672 413.367 298.668V259.641C413.367 256.637 410.931 254.202 407.927 254.202Z" stroke="#21BA95" stroke-width="1.06897" stroke-miterlimit="10"/>
<path d="M406.588 234.314H371.421V244.987H406.588V234.314Z" fill="#21BA95"/>
<path d="M406.588 161.097H371.421V171.77H406.588V161.097Z" fill="#21BA95"/>
<path d="M333.974 161.097H298.806V171.77H333.974V161.097Z" fill="#21BA95"/>
<path d="M333.974 234.314H298.806V244.987H333.974V234.314Z" fill="#21BA95"/>
<path d="M406.588 234.314H371.421V244.987H406.588V234.314Z" fill="#263238"/>
<path d="M406.588 161.097H371.421V171.77H406.588V161.097Z" fill="#263238"/>
<path d="M333.974 161.097H298.806V171.77H333.974V161.097Z" fill="#263238"/>
<path d="M333.974 234.314H298.806V244.987H333.974V234.314Z" fill="#263238"/>
<path d="M168.978 108.562H247.466" stroke="#263238" stroke-width="1.06897" stroke-linecap="round" stroke-linejoin="round"/>
<path d="M271.743 418.534C271.743 418.534 274.553 428.182 273.613 434.079C273.613 434.079 272.491 443.896 271.201 449.13C269.91 454.365 268.596 457.995 275.964 460.069C283.333 462.143 301.436 457.741 305.681 459.225C309.926 460.708 334.095 457.392 337.701 455.8C341.307 454.208 341.874 443.173 334.083 439.338C326.292 435.502 271.743 418.534 271.743 418.534Z" fill="white"/>
<path d="M272.817 438.746C272.817 438.746 270.719 450.541 270.779 452.688C274.358 451.667 278.047 451.076 281.766 450.927C286.735 450.927 301.629 451.12 307.538 450.228C313.448 449.335 324.809 445.175 330.067 445.15C333.403 445.149 336.733 445.444 340.017 446.031C340.017 446.031 340.632 441.822 332.334 439.627C324.037 437.432 293.802 431.076 293.802 431.076C293.802 431.076 287.048 438.336 272.817 438.746Z" fill="#21BA95"/>
<path d="M378.151 433.127C378.151 433.127 383.445 429.774 388.426 431.825C393.407 433.875 411.148 433.923 411.148 433.923C411.148 433.923 425.186 432.162 431.167 435.129C437.149 438.096 437.813 442.57 437.342 446.056C436.872 449.541 428.044 458.839 416.454 459.322C404.864 459.804 403.911 457.199 394.384 456.693C394.384 456.693 381.6 455.885 377.91 454.281C374.219 452.677 369.395 451.35 369.54 444.452C369.685 437.553 378.151 433.127 378.151 433.127Z" fill="white"/>
<path d="M378.151 433.127C378.151 433.127 383.518 430.088 392.997 432.934C402.476 435.78 419.18 431.571 426.416 434.08C433.652 436.588 434.653 441.316 433.724 443.137C432.796 444.958 426.633 452.327 419.783 453.497C412.932 454.667 397.483 453.955 390.404 455.246C390.404 455.246 375.775 456.09 371.108 448.781C366.44 441.473 378.151 433.127 378.151 433.127Z" fill="#21BA95"/>
<path d="M179.133 427.844L170.209 411.213L194.546 386.104L216.508 388.721L228.942 407.668L225.843 418.534L179.133 427.844Z" fill="#263238"/>
<path d="M160.717 423.297C160.717 423.297 161.392 454.401 181.557 457.765C201.722 461.13 273.685 426.119 273.685 426.119C273.685 426.119 300.483 440.037 320.648 441.798C340.812 443.559 370.094 447.309 373.085 450.662C376.076 454.015 387.268 439.953 380.816 431.51C380.816 431.51 358.975 430.123 345.202 423.261C331.429 416.399 286.397 390.349 277.327 388.757C268.258 387.165 215.82 412.021 215.82 412.021L200.021 415.386L160.717 423.297Z" fill="#263238"/>
<path d="M220.379 401.083L216.508 388.721C216.508 388.721 255.257 345.654 271.744 346.233C288.23 346.812 291.136 361.393 292.246 372.766C293.356 384.139 292.246 401.035 292.246 401.035L254.353 405.775L225.782 418.534L220.319 401.083" fill="#263238"/>
<path d="M262.421 393.859C262.421 394.534 263.748 374.225 269.573 365.144" stroke="white" stroke-width="1.06897" stroke-linecap="round" stroke-linejoin="round"/>
<path d="M275.759 364.806C275.347 368.817 275.372 372.86 275.832 376.866" stroke="white" stroke-width="1.06897" stroke-linecap="round" stroke-linejoin="round"/>
<path d="M272.986 438.337C272.986 438.337 270.127 453.279 270.911 456.427C271.912 460.419 282.356 460.503 285.323 460.636C291.884 460.913 298.433 460.262 304.993 460.371C309.986 460.455 314.967 460.986 319.972 460.913C324.985 461.019 329.956 459.992 334.517 457.91C338.352 455.993 340.86 453.267 340.378 448.805C339.739 442.919 337.773 441.436 329.644 440.507C321.516 439.579 292.825 431.004 292.825 431.004C292.825 431.004 288.374 438.819 272.986 438.337Z" stroke="#263238" stroke-width="1.06897" stroke-linecap="round" stroke-linejoin="round"/>
<path d="M272.986 438.337C274.105 432.764 274.105 427.025 272.986 421.453C271.08 412.866 285.854 420.343 285.854 420.343L293.802 428.918L292.825 430.992" stroke="#263238" stroke-width="1.06897" stroke-linecap="round" stroke-linejoin="round"/>
<path d="M271.744 457.971C271.709 457.116 271.973 456.275 272.49 455.593C273.007 454.911 273.745 454.43 274.578 454.232C276.725 453.665 279.33 454.051 281.512 454.111C285.287 454.232 289.062 454.389 292.837 454.425C305.548 454.534 317.886 450.506 330.585 450.023C332.817 449.939 336.809 449.348 338.786 450.735C341.97 452.966 336.097 457.344 333.89 458.236C328.48 460.183 322.752 461.091 317.006 460.913C309.552 460.564 297.878 460.612 292.825 460.672C287.772 460.733 278.292 462.662 271.744 457.971Z" fill="#263238"/>
<path d="M271.273 452.64C274.618 451.36 278.185 450.761 281.765 450.879C294.959 450.819 309.504 451.603 322.095 446.924C327.667 444.849 336.772 443.74 340.089 446.924" stroke="#263238" stroke-width="1.06897" stroke-linecap="round" stroke-linejoin="round"/>
<path d="M370.903 448.033C370.903 448.033 371.373 453.436 380.43 454.714C389.487 455.993 407.771 458.332 413.813 459.165C419.855 459.997 437.186 453.436 437.342 444.933C437.499 436.431 430.034 433.886 425.415 433.73C420.796 433.573 398.882 434.525 392.997 432.934C387.112 431.342 383.771 430.702 380.273 432.777" stroke="#263238" stroke-width="1.06897" stroke-linecap="round" stroke-linejoin="round"/>
<path d="M428.273 434.08C428.273 434.08 433.423 438.023 433.905 441.991C434.388 445.959 424.052 453.75 414.826 454.546C405.6 455.342 393.781 453.714 388.486 455.752" stroke="#263238" stroke-width="1.06897" stroke-linecap="round" stroke-linejoin="round"/>
<path d="M162.152 306.507C162.152 306.507 169.196 311.729 172.597 309.486C175.998 307.242 183.451 298.752 183.451 298.752L194.208 304.613L205.497 340.854L213.047 372.886L225.107 378.784V383.909C225.107 383.909 218.015 391.254 210.634 393.437C203.254 395.62 195.197 397.742 189.119 396.319C183.041 394.896 171.391 354.639 171.391 354.639L142.084 311.813L162.152 306.507Z" fill="#263238"/>
<path d="M257.706 390.735L205.485 377.469L257.706 353.276L307.538 365.988L257.706 390.735Z" fill="white" stroke="#263238" stroke-width="1.06897" stroke-linecap="round" stroke-linejoin="round"/>
<path d="M257.705 390.735L269.38 337.14L318.151 318.531L308.129 366.337L257.705 390.735Z" fill="white"/>
<path d="M205.485 376.854V379.784L258.019 393.859L308.66 368.484L308.937 365.565L258.019 390.192L205.485 376.854Z" fill="#263238"/>
<path d="M180.134 302.563C186.11 309.756 190.82 317.913 194.064 326.683C198.743 340.179 207.535 368.737 206.775 379.748L225.384 365.276C223.554 356.053 222.877 346.638 223.37 337.248C224.395 323.499 225.432 301.598 213.408 299.801C200.842 297.112 184.078 293.011 184.078 293.011L180.134 302.563Z" fill="#21BA95"/>
<path d="M148.669 297.184C148.669 297.184 129.795 307.291 127.455 311.367C125.115 315.443 123.752 314.237 124.633 320.677C125.513 327.118 130.193 348.114 131.326 355.206C132.46 362.297 136.307 392.918 136.307 392.918C139.773 394.424 143.359 395.634 147.029 396.536L122.365 428.773C122.365 428.773 131.664 448.974 149.429 449.601C167.193 450.228 175.43 432.946 183.113 420.777C190.795 408.608 195.945 392.158 195.945 392.158L199.671 391.471L198.285 373.984L195.945 374.345C195.945 374.345 195.45 349.96 185.091 331.58C174.731 313.2 148.669 297.184 148.669 297.184Z" fill="#21BA95"/>
<path opacity="0.2" d="M188.697 296.087C188.697 296.087 196.91 300.284 197.754 305.566C198.598 310.849 195.897 317.397 199.84 319.978C203.784 322.559 208.415 323.102 210.694 329.976C212.974 336.85 212.286 368.641 210.694 374.092C209.102 379.544 206.835 374.092 206.835 374.092L204.218 360.199L198.839 340.312L193.521 325.381L188.697 315.034L182.908 303.251L188.697 296.087Z" fill="black"/>
<path d="M199.346 387.431C199.346 387.431 207.028 388.444 209.597 387.334C212.166 386.225 214.421 385.67 216.23 380.605C218.039 375.539 221.416 373.983 225.046 373.742C228.676 373.501 236.889 371.897 238.313 367.941L234.755 367.688C235.978 367.342 237.108 366.723 238.059 365.879H236.564C236.564 365.879 229.424 362.128 225.782 361.224C222.14 360.319 218.244 359.379 214.807 362.345C211.37 365.312 209.525 371.704 208.126 373.368C206.727 375.033 203.024 377.095 198.164 377.083L199.346 387.431Z" fill="white"/>
<path d="M199.84 387.467C199.84 387.467 210.26 389.288 213.734 385.2C217.207 381.111 216.001 375.323 223.72 373.984C231.438 372.645 237.975 370.969 238.337 367.954C238.337 367.954 222.465 366.446 219.04 369.16" stroke="#263238" stroke-width="1.06897" stroke-linecap="round" stroke-linejoin="round"/>
<path d="M235.31 367.592C236.402 367.354 237.39 366.775 238.132 365.939L231.004 364.577C228.508 364.094 226.011 363.262 223.43 363.37C221.108 363.641 218.985 364.815 217.521 366.639" stroke="#263238" stroke-width="1.06897" stroke-linecap="round" stroke-linejoin="round"/>
<path d="M236.178 365.18L227.917 362.032C224.118 360.585 219.643 359.186 216.182 361.32C214.789 362.292 213.624 363.555 212.769 365.023C211.773 366.569 210.883 368.181 210.104 369.847C209.593 371.124 208.938 372.338 208.15 373.465C205.895 376.311 202.409 377.023 198.779 377.18" stroke="#263238" stroke-width="1.06897" stroke-linecap="round" stroke-linejoin="round"/>
<path d="M147.27 297.184C147.27 297.184 157.75 301.285 162.104 306.507C162.104 306.507 172.608 313.647 176.974 305.795C181.34 297.944 181.798 282.133 181.798 282.133L185.863 273.1L184.295 248.871L172.934 231.806L162.152 223.882L150.442 246.483L136.838 255.745L138.394 281.072L147.27 297.184Z" fill="white"/>
<path d="M169.244 233.724C169.244 233.724 169.75 253.165 153.927 260.328C153.927 260.328 149.32 283.93 164.576 288.923C164.576 288.923 167.157 299.958 156.195 301.719C142.048 294.785 144.544 287.367 144.544 287.367L139.66 266.467L138.104 252.417L156.195 238.222L169.244 233.724Z" fill="#21BA95"/>
<path opacity="0.5" d="M169.244 233.724C169.244 233.724 169.75 253.165 153.927 260.328C153.927 260.328 149.32 283.93 164.576 288.923C164.576 288.923 167.157 299.958 156.195 301.719C142.048 294.785 144.544 287.367 144.544 287.367L139.66 266.467L138.104 252.417L156.195 238.222L169.244 233.724Z" fill="white"/>
<path d="M181.581 243.962C181.581 243.962 182.257 246.157 181.581 252.718C180.906 259.279 182.522 267.661 180.375 273.546C178.228 279.431 174.586 288.404 164.588 288.875C156.918 288.875 148.91 278.02 147.921 270.893C147.921 270.893 138.671 266.551 139.768 260.4C140.866 254.25 146.8 255.902 148.355 260.4" stroke="#263238" stroke-width="1.06897" stroke-linecap="round" stroke-linejoin="round"/>
<path d="M173.26 256.167C172.488 259.788 172.608 263.542 173.609 267.106C173.948 267.89 174.012 268.766 173.79 269.59C173.619 269.934 173.365 270.229 173.052 270.451C172.738 270.672 172.374 270.811 171.993 270.857C171.232 270.937 170.463 270.871 169.726 270.664" stroke="#263238" stroke-width="1.06897" stroke-linecap="round" stroke-linejoin="round"/>
<path d="M169.244 274.873C169.244 274.873 164.926 276.212 162.225 273.1" stroke="#263238" stroke-width="1.06897" stroke-linecap="round" stroke-linejoin="round"/>
<path d="M148.669 297.184C151.346 290.382 146.354 269.988 146.354 269.988" stroke="#263238" stroke-width="1.06897" stroke-linecap="round" stroke-linejoin="round"/>
<path d="M165.36 252.767C165.36 252.767 159.125 247.34 156.207 255.372" stroke="#263238" stroke-width="1.06897" stroke-linecap="round" stroke-linejoin="round"/>
<path d="M174.381 252.417C174.848 251.399 175.598 250.537 176.54 249.932C177.018 249.643 177.572 249.503 178.13 249.528C178.688 249.554 179.226 249.745 179.676 250.077" stroke="#263238" stroke-width="1.06897" stroke-linecap="round" stroke-linejoin="round"/>
<path d="M163.479 262.619C164.052 262.619 164.516 261.572 164.516 260.28C164.516 258.987 164.052 257.94 163.479 257.94C162.906 257.94 162.442 258.987 162.442 260.28C162.442 261.572 162.906 262.619 163.479 262.619Z" fill="#263238"/>
<path d="M176.456 259.243C176.456 260.533 175.997 261.582 175.419 261.582C174.84 261.582 174.381 260.533 174.381 259.243C174.381 257.952 174.84 256.903 175.419 256.903C175.997 256.903 176.456 257.952 176.456 259.243Z" fill="#263238"/>
<path d="M170.558 287.319C170.558 287.319 168.411 291.612 171.836 301.007" stroke="#263238" stroke-width="1.06897" stroke-linecap="round" stroke-linejoin="round"/>
<path d="M146.353 256.903C146.353 256.903 169.654 248.268 169.268 233.675C169.268 233.675 173.151 243.094 181.907 247.954C181.907 247.954 179.398 234.616 176.48 228.815C173.561 223.014 156.146 218.455 149.477 219.866C142.808 221.277 129.951 223.954 127.286 245.446C124.621 266.937 127.286 283.098 121.015 291.721C114.744 300.344 115.684 315.25 124.79 317.288C125.707 314.445 127.276 311.855 129.373 309.727C132.665 306.591 148.995 297.498 148.995 297.498C148.995 297.498 149.706 281.168 146.378 269.988C146.378 269.988 139.407 267.842 139.781 260.4C140.456 254.611 146.353 256.903 146.353 256.903Z" fill="#263238"/>
<path d="M175.684 227.693C179.087 231.184 181.986 235.134 184.295 239.428C189.348 248.268 194.932 258.242 197.465 268.107C198.448 272.014 198.643 276.077 198.036 280.059C197.429 284.042 196.034 287.863 193.931 291.299C193.259 292.281 192.67 293.318 192.17 294.398C191.683 295.739 191.375 297.138 191.254 298.559C190.832 301.779 190.337 305.12 188.576 307.858C186.815 310.595 183.414 312.537 180.291 311.596C177.247 310.364 174.791 308.012 173.429 305.023C171.017 298.451 169.497 294.266 170.558 287.343C170.558 287.343 181.593 277.623 181.509 266.443C181.425 255.263 183.415 247.557 178.88 242.009C174.345 236.461 175.684 227.693 175.684 227.693Z" fill="#263238"/>
<path d="M148.971 297.498C148.971 297.498 133.678 305.481 127.455 311.367C121.232 317.252 126.864 330.856 129.445 344.653C132.026 358.45 134.028 371.596 136.307 392.894C158.667 403.29 179.724 394.848 199.672 391.423L198.285 373.983C195.378 374.14 180.194 378.627 166.928 374.707C160.078 372.669 154.494 375.636 149.779 381.002" stroke="#263238" stroke-width="1.06897" stroke-linecap="round" stroke-linejoin="round"/>
<path d="M146.172 376.371C152.986 373.019 159.149 371.547 165.469 374.345" stroke="#263238" stroke-width="1.06897" stroke-linecap="round" stroke-linejoin="round"/>
<path d="M164.154 373.827C160.211 363.178 159.246 350.84 157.413 339.105" stroke="#263238" stroke-width="1.06897" stroke-linecap="round" stroke-linejoin="round"/>
<path d="M136.307 320.677C144.706 325.551 151.238 333.089 154.868 342.096" stroke="#263238" stroke-width="1.06897" stroke-linecap="round" stroke-linejoin="round"/>
<path d="M151.515 328.625L154.591 334.534" stroke="#263238" stroke-width="1.06897" stroke-linecap="round" stroke-linejoin="round"/>
<path d="M148.669 297.184C148.669 297.184 179.049 314.647 187.997 337.562C196.946 360.476 195.728 374.068 195.728 374.068" stroke="#263238" stroke-width="1.06897" stroke-linecap="round" stroke-linejoin="round"/>
<path d="M148.669 297.184C145.425 304.155 148.44 312.296 153.083 317.843C157.907 323.632 165.807 326.768 173.127 327.914C173.923 328.034 174.876 328.227 175.141 328.987C175.27 329.379 175.27 329.801 175.141 330.193C174.044 333.811 170.667 336.681 170.739 340.444C170.869 341.991 171.308 343.496 172.03 344.87C176.129 354.03 180.748 362.949 185.863 371.584" stroke="#263238" stroke-width="1.06897" stroke-linecap="round" stroke-linejoin="round"/>
<path opacity="0.5" d="M150.442 228.224C149.059 236.142 146.195 243.728 142 250.584" stroke="white" stroke-width="1.06897" stroke-linecap="round" stroke-linejoin="round"/>
<path opacity="0.5" d="M136.838 231.806C132.472 241.997 134.546 253.635 134.088 264.718C133.655 274.702 131.098 284.48 126.587 293.397" stroke="white" stroke-width="1.06897" stroke-linecap="round" stroke-linejoin="round"/>
<path d="M195.945 392.146C195.945 392.146 180.58 433.718 165.794 444.367C151.009 455.016 134.595 449.312 122.378 428.773L147.029 396.597" stroke="#263238" stroke-width="1.06897" stroke-linecap="round" stroke-linejoin="round"/>
<path d="M151.455 397.851C153.819 407.07 159.272 415.2 166.904 420.886" stroke="#263238" stroke-width="1.06897" stroke-linecap="round" stroke-linejoin="round"/>
<path d="M148.476 397.525C147.359 404.285 147.7 411.205 149.477 417.822" stroke="#263238" stroke-width="1.06897" stroke-linecap="round" stroke-linejoin="round"/>
<path d="M174.381 293.65C174.381 293.65 188.395 308.605 196.934 334.535C205.473 360.464 206.775 374.707 206.775 374.707" stroke="#263238" stroke-width="1.06897" stroke-linecap="round" stroke-linejoin="round"/>
<path d="M163.479 307.556C163.479 307.556 172.548 313.586 177.023 305.795C181.497 298.004 178.229 295.363 178.229 295.363" stroke="#263238" stroke-width="1.06897" stroke-linecap="round" stroke-linejoin="round"/>
<path d="M176.215 292.541C179.049 292.082 181.895 293.071 184.548 294.157C187.739 295.337 190.72 297.023 193.376 299.15C196.048 301.302 197.802 304.388 198.285 307.785C198.659 311.511 197.079 315.636 199.02 318.856C201.191 322.474 206.582 322.8 209.127 326.153C210.23 327.869 210.885 329.834 211.032 331.869C212.658 343.718 212.71 355.729 211.189 367.591" stroke="#263238" stroke-width="1.06897" stroke-linecap="round" stroke-linejoin="round"/>
<path d="M208.97 315.13C212.166 317.927 214.837 321.272 216.857 325.007C218.878 328.785 219.408 333.183 218.341 337.333C217.882 338.828 217.135 340.239 216.773 341.747C216.429 343.195 216.223 344.673 216.158 346.161L214.952 361.839" stroke="#263238" stroke-width="1.06897" stroke-linecap="round" stroke-linejoin="round"/>
<path d="M180.134 291.178C186.056 292.951 191.893 295.23 197.923 296.52C203.953 297.811 209.658 298.136 215.398 300.392C216.247 300.697 217.057 301.102 217.81 301.598C222.743 305.047 222.707 311.994 223.262 317.276C224.95 333.376 220.524 345.413 225.047 360.958" stroke="#263238" stroke-width="1.06897" stroke-linecap="round" stroke-linejoin="round"/>
<path d="M194.546 396.246C194.546 396.246 209.658 397.85 223.575 385.248" stroke="#263238" stroke-width="1.06897" stroke-linecap="round" stroke-linejoin="round"/>
<path opacity="0.5" d="M184.657 309.823C181.883 305.771 179.989 300.862 180.713 296.014C181.183 292.866 182.715 289.984 184.09 287.138C186.005 283.453 187.412 279.526 188.275 275.464C189.122 271.379 188.771 267.136 187.262 263.247C185.971 260.542 184.329 258.019 182.377 255.745" stroke="white" stroke-width="1.06897" stroke-linecap="round" stroke-linejoin="round"/>
<path d="M257.705 390.735L318.151 318.531L308.129 366.337L257.705 390.735Z" fill="#263238"/>
<path opacity="0.8" d="M257.705 390.735L318.151 318.531L308.129 366.337L257.705 390.735Z" fill="white"/>
<path d="M297.287 352.577C296.455 355.833 294.031 358.016 291.872 357.461C289.713 356.906 288.664 353.843 289.46 350.563C290.256 347.282 292.728 345.123 294.875 345.678C297.022 346.233 298.131 349.32 297.287 352.577Z" fill="#263238"/>
<path d="M257.705 390.735L269.38 337.14L318.151 318.531L308.129 366.337L257.705 390.735Z" stroke="#263238" stroke-width="1.06897" stroke-linecap="round" stroke-linejoin="round"/>
<path d="M255.728 389.577L267.161 336.332L316.559 317.759L318.38 318.217L269.38 337.14L257.705 390.735L255.728 389.577Z" fill="#263238"/>
<path opacity="0.2" d="M148.669 297.184C148.669 297.184 144.375 309.015 153.083 317.843C161.79 326.671 175.141 328.999 175.141 328.999V330.205C175.141 330.205 169.352 338.056 170.98 342.096C172.608 346.136 187.563 375.756 187.563 375.756L196.005 374.345C196.166 360.527 192.988 346.874 186.743 334.547C176.214 314.527 148.669 297.184 148.669 297.184Z" fill="black"/>
<path opacity="0.2" d="M144.581 399.78C144.581 399.78 145.184 408.536 148.512 413.649C148.512 413.649 148.898 407.209 149.429 401.529C149.429 401.529 154.362 414.144 164.094 418.594C164.094 418.594 158.354 407.209 156.496 401.529C156.496 401.529 176.022 405.002 194.884 395.101V392.351C194.884 392.351 165.795 400.878 147.029 396.596L144.581 399.78Z" fill="black"/>
<path opacity="0.2" d="M157.617 340.854L169.678 371.583L184.246 376.408L168.23 375.792C168.23 375.792 160.789 374.719 151.467 379.748C151.467 379.748 151.889 377.035 155.748 374.743C155.748 374.743 154.361 373.392 148.512 375.286C151.307 372.521 154.575 370.278 158.16 368.665L157.617 340.854Z" fill="black"/>
<path opacity="0.2" d="M211.25 316.939C208.343 313.803 218.184 322.076 219.535 326.129C220.886 330.181 220.958 334.571 220.934 338.828C220.91 343.085 220.813 347.451 221.899 351.588C222.622 354.349 224.19 358.209 225.047 360.934C225.047 360.934 217.123 359.837 215 361.754L216.773 341.71C216.773 341.71 223.25 329.964 211.25 316.939Z" fill="black"/>
<path d="M238.337 367.941L258.924 357.63L263.398 358.631" stroke="#263238" stroke-width="1.06897" stroke-linecap="round" stroke-linejoin="round"/>
<path d="M257.211 386.104L220.801 376.504L231.257 372.44" stroke="#263238" stroke-width="1.06897" stroke-linecap="round" stroke-linejoin="round"/>
<path d="M262.903 361.489L228.942 378.518" stroke="#263238" stroke-width="1.06897" stroke-linecap="round" stroke-linejoin="round"/>
<path d="M262.385 367.942L237.094 380.629" stroke="#263238" stroke-width="1.06897" stroke-linecap="round" stroke-linejoin="round"/>
<path d="M261.287 374.297L244.451 382.739" stroke="#263238" stroke-width="1.06897" stroke-linecap="round" stroke-linejoin="round"/>
<path d="M226.252 373.525L259.044 382.028" stroke="#263238" stroke-width="1.06897" stroke-linecap="round" stroke-linejoin="round"/>
<path d="M235.563 370.836L260.624 377.348" stroke="#263238" stroke-width="1.06897" stroke-linecap="round" stroke-linejoin="round"/>
<path d="M240.64 366.796L261.287 372.151" stroke="#263238" stroke-width="1.06897" stroke-linecap="round" stroke-linejoin="round"/>
<path d="M246.924 363.648L262.385 367.664" stroke="#263238" stroke-width="1.06897" stroke-linecap="round" stroke-linejoin="round"/>
<path d="M253.364 360.669L263.398 363.262" stroke="#263238" stroke-width="1.06897" stroke-linecap="round" stroke-linejoin="round"/>
<path d="M291.257 395.934C297.914 398.249 303.317 400.758 303.317 400.758" stroke="white" stroke-width="1.06897" stroke-linecap="round" stroke-linejoin="round"/>
<path d="M206.775 411.008C206.775 411.008 264.567 391.41 275.518 392.134C278.196 392.355 280.848 392.82 283.442 393.521" stroke="white" stroke-width="1.06897" stroke-linecap="round" stroke-linejoin="round"/>
<path d="M216.508 407.8C218.92 405.123 220.427 403.736 221.742 401.577" stroke="white" stroke-width="1.06897" stroke-linecap="round" stroke-linejoin="round"/>
</svg>
