<svg width="750" height="500" viewBox="0 0 750 500" fill="none" xmlns="http://www.w3.org/2000/svg">
<path d="M405.452 27.7948C305.07 9.44556 151.64 83.2583 190.089 196.115C198.195 219.918 209.925 242.184 218.991 265.595C233.477 303.056 218.122 340.436 247.162 373.864C260.254 388.684 276.375 400.452 294.41 408.357C312.444 416.261 331.962 420.113 351.614 419.645C399.449 418.235 453.024 398.268 484.522 362.748C517.998 324.987 531.534 276.687 555.715 234.189C582.011 187.98 564.473 56.8553 405.452 27.7948Z" fill="#21BA95"/>
<path opacity="0.75" d="M405.452 27.7948C305.07 9.44556 151.64 83.2583 190.089 196.115C198.195 219.918 209.925 242.184 218.991 265.595C233.477 303.056 218.122 340.436 247.162 373.864C260.254 388.684 276.375 400.452 294.41 408.357C312.444 416.261 331.962 420.113 351.614 419.645C399.449 418.235 453.024 398.268 484.522 362.748C517.998 324.987 531.534 276.687 555.715 234.189C582.011 187.98 564.473 56.8553 405.452 27.7948Z" fill="white"/>
<path d="M372.57 483.231C464.152 483.231 538.394 473.862 538.394 462.305C538.394 450.748 464.152 441.379 372.57 441.379C280.988 441.379 206.747 450.748 206.747 462.305C206.747 473.862 280.988 483.231 372.57 483.231Z" stroke="#9CA3AF" stroke-width="0.25" stroke-miterlimit="10"/>
<path d="M372.57 478.275C447.476 478.275 508.199 470.199 508.199 460.237C508.199 450.276 447.476 442.2 372.57 442.2C297.664 442.2 236.941 450.276 236.941 460.237C236.941 470.199 297.664 478.275 372.57 478.275Z" stroke="#9CA3AF" stroke-width="0.5" stroke-miterlimit="10"/>
<path d="M372.57 474.172C430.434 474.172 477.342 467.933 477.342 460.237C477.342 452.541 430.434 446.302 372.57 446.302C314.706 446.302 267.799 452.541 267.799 460.237C267.799 467.933 314.706 474.172 372.57 474.172Z" stroke="#9CA3AF" stroke-miterlimit="10"/>
<path d="M373.736 468.903C421.245 468.903 459.758 464.816 459.758 459.775C459.758 454.733 421.245 450.646 373.736 450.646C326.228 450.646 287.715 454.733 287.715 459.775C287.715 464.816 326.228 468.903 373.736 468.903Z" fill="#21BA95"/>
<path opacity="0.5" d="M373.736 468.903C421.245 468.903 459.758 464.816 459.758 459.775C459.758 454.733 421.245 450.646 373.736 450.646C326.228 450.646 287.715 454.733 287.715 459.775C287.715 464.816 326.228 468.903 373.736 468.903Z" fill="white"/>
<path d="M372.593 371.507C458.17 371.507 527.544 301.393 527.544 214.903C527.544 128.414 458.17 58.2998 372.593 58.2998C287.016 58.2998 217.642 128.414 217.642 214.903C217.642 301.393 287.016 371.507 372.593 371.507Z" stroke="#263238" stroke-linecap="round" stroke-linejoin="round" stroke-dasharray="2 3"/>
<path d="M316.206 373.206C292.414 373.206 272.623 365.8 258.447 351.472C216.556 309.135 237.959 218.59 306.133 149.723C339.152 116.364 378.081 92.9653 415.753 83.8601C453.424 74.7548 485.494 81.006 505.753 101.528C523.371 119.345 530.505 146.846 525.829 178.945L525.269 178.865C529.911 146.927 522.834 119.599 505.341 101.92C485.185 81.5375 453.413 75.3441 415.89 84.4031C378.367 93.4622 339.483 116.826 306.545 150.116C238.576 218.81 217.185 308.95 258.847 351.044C275.436 367.81 299.788 375.021 329.274 371.901L329.331 372.479C324.971 372.951 320.59 373.194 316.206 373.206Z" fill="#21BA95"/>
<path d="M439.384 346.675C400.101 346.675 354.278 330.799 313.21 299.739C237.49 242.473 206.198 154.956 243.469 104.646C259.807 82.5765 287.589 70.3514 321.682 70.2358V70.8136C287.772 70.9291 260.161 83.0618 243.938 104.993C206.884 155.049 238.119 242.208 313.588 299.277C389.057 356.347 480.6 362.055 517.666 311.988C533.009 291.247 537.205 263.965 529.785 233.091L530.345 232.952C537.799 264.012 533.569 291.454 518.123 312.323C501.042 335.363 472.54 346.664 439.384 346.675Z" fill="#21BA95"/>
<path d="M300.2 279.403C288.17 279.461 276.152 278.627 264.243 276.907C228.801 271.58 206.724 258.327 202.242 239.585C197.76 220.843 211.388 198.877 240.554 177.766C269.719 156.655 310.832 138.953 356.438 127.814C402.044 116.675 446.679 113.463 482.087 118.778C517.494 124.093 539.617 137.347 544.099 156.101C548.581 174.854 534.953 196.797 505.787 217.908C476.622 239.019 435.52 256.709 389.903 267.848C358.656 275.474 327.867 279.403 300.2 279.403ZM446.187 116.895C419.16 116.895 388.451 120.592 356.564 128.38C311.027 139.496 269.937 157.198 240.885 178.217C211.834 199.235 198.378 220.97 202.802 239.458C207.227 257.945 229.098 271.06 264.334 276.341C299.571 281.621 344.228 278.432 389.765 267.317C483.71 244.38 552.697 194.521 543.539 156.262C537.491 130.934 498.824 116.895 446.187 116.895Z" fill="#21BA95"/>
<path d="M334.178 390.723C331.868 390.719 329.566 390.443 327.319 389.903C308.763 385.373 295.764 362.645 290.733 325.9C285.703 289.155 289.133 243.028 300.44 195.711C311.747 148.393 329.56 105.675 350.608 75.4011C371.656 45.1273 393.527 30.8223 412.083 35.3518C430.638 39.8813 443.638 62.6098 448.668 99.3429C453.699 136.076 450.257 182.226 438.95 229.544C427.643 276.861 409.785 319.579 388.737 349.888C370.215 376.464 351.122 390.723 334.178 390.723ZM405.131 35.1092C368.272 35.1092 322.814 104.08 300.909 195.849C277.677 293.269 289.499 380.081 327.399 389.336C345.691 393.808 367.323 379.665 388.268 349.518C409.213 319.371 427.06 276.641 438.356 229.347C461.645 131.905 449.789 45.1042 411.865 35.8602C409.658 35.3392 407.398 35.0871 405.131 35.1092Z" fill="#21BA95"/>
<path d="M392.978 342.123C393.378 342.527 393.887 342.801 394.442 342.912C394.996 343.023 395.57 342.965 396.092 342.746C396.614 342.527 397.06 342.157 397.374 341.682C397.687 341.207 397.855 340.649 397.855 340.078C397.855 339.507 397.687 338.949 397.374 338.474C397.06 337.999 396.614 337.629 396.092 337.41C395.57 337.191 394.996 337.134 394.442 337.244C393.887 337.355 393.378 337.63 392.978 338.033C392.446 338.578 392.148 339.313 392.148 340.078C392.148 340.844 392.446 341.578 392.978 342.123Z" fill="#21BA95"/>
<path d="M395.002 343.256C394.268 343.261 393.556 343.008 392.986 342.54C392.416 342.073 392.025 341.42 391.879 340.694C391.732 339.967 391.84 339.212 392.183 338.557C392.527 337.902 393.085 337.387 393.762 337.102C394.439 336.816 395.193 336.777 395.895 336.991C396.598 337.204 397.205 337.658 397.613 338.274C398.021 338.89 398.205 339.63 398.134 340.368C398.062 341.106 397.739 341.796 397.22 342.32C396.93 342.617 396.585 342.853 396.204 343.013C395.823 343.174 395.414 343.256 395.002 343.256ZM395.002 337.478C394.578 337.478 394.162 337.583 393.788 337.785C393.415 337.986 393.097 338.277 392.861 338.633C392.626 338.988 392.481 339.397 392.439 339.823C392.398 340.248 392.461 340.678 392.623 341.073C392.785 341.468 393.04 341.817 393.368 342.088C393.695 342.359 394.083 342.545 394.498 342.628C394.913 342.712 395.342 342.69 395.747 342.566C396.152 342.442 396.52 342.218 396.82 341.915C397.301 341.428 397.572 340.767 397.572 340.078C397.572 339.389 397.301 338.729 396.82 338.241C396.582 337.999 396.298 337.806 395.986 337.675C395.674 337.544 395.34 337.477 395.002 337.478Z" fill="#21BA95"/>
<path d="M287.029 280.409C287.429 280.812 287.938 281.086 288.492 281.197C289.047 281.308 289.621 281.25 290.143 281.031C290.665 280.813 291.111 280.442 291.424 279.967C291.738 279.493 291.906 278.934 291.906 278.363C291.906 277.792 291.738 277.234 291.424 276.759C291.111 276.284 290.665 275.914 290.143 275.695C289.621 275.476 289.047 275.419 288.492 275.53C287.938 275.64 287.429 275.915 287.029 276.318C286.763 276.586 286.552 276.905 286.407 277.256C286.263 277.607 286.189 277.983 286.189 278.363C286.189 278.743 286.263 279.12 286.407 279.47C286.552 279.821 286.763 280.14 287.029 280.409Z" fill="#21BA95"/>
<path d="M289.041 281.541C288.625 281.535 288.215 281.445 287.834 281.276C287.453 281.107 287.109 280.864 286.823 280.559C286.313 280.039 285.996 279.357 285.928 278.628C285.86 277.899 286.043 277.168 286.448 276.561C286.852 275.953 287.453 275.507 288.147 275.296C288.841 275.086 289.585 275.125 290.254 275.407C290.922 275.689 291.473 276.197 291.813 276.843C292.153 277.49 292.261 278.236 292.118 278.953C291.975 279.671 291.59 280.317 291.029 280.78C290.468 281.243 289.766 281.496 289.041 281.495V281.541ZM289.041 275.763C288.533 275.764 288.036 275.917 287.613 276.202C287.19 276.488 286.861 276.894 286.667 277.369C286.472 277.843 286.421 278.366 286.52 278.87C286.619 279.374 286.864 279.837 287.223 280.201C287.713 280.674 288.364 280.938 289.041 280.938C289.718 280.938 290.37 280.674 290.859 280.201C291.218 279.837 291.463 279.374 291.562 278.87C291.661 278.366 291.61 277.843 291.416 277.369C291.221 276.894 290.892 276.488 290.469 276.202C290.046 275.917 289.55 275.764 289.041 275.763Z" fill="#21BA95"/>
<path d="M249.094 232.987C249.494 233.392 250.003 233.668 250.558 233.78C251.112 233.892 251.688 233.835 252.21 233.617C252.733 233.399 253.18 233.028 253.495 232.553C253.809 232.078 253.977 231.519 253.977 230.947C253.977 230.376 253.809 229.817 253.495 229.341C253.18 228.866 252.733 228.496 252.21 228.278C251.688 228.059 251.112 228.003 250.558 228.115C250.003 228.227 249.494 228.503 249.094 228.908C248.56 229.449 248.26 230.183 248.26 230.947C248.26 231.712 248.56 232.445 249.094 232.987Z" fill="#21BA95"/>
<path d="M251.107 234.119C250.379 234.119 249.674 233.864 249.112 233.397C248.549 232.93 248.165 232.28 248.023 231.559C247.882 230.837 247.993 230.089 248.337 229.44C248.681 228.792 249.236 228.285 249.909 228.004C250.582 227.724 251.33 227.688 252.026 227.903C252.722 228.118 253.323 228.57 253.726 229.182C254.129 229.795 254.309 230.529 254.236 231.261C254.163 231.993 253.841 232.676 253.325 233.195C252.735 233.787 251.938 234.12 251.107 234.119ZM251.107 228.342C250.514 228.345 249.941 228.556 249.486 228.938C249.03 229.32 248.719 229.85 248.606 230.438C248.494 231.026 248.586 231.635 248.868 232.161C249.15 232.688 249.603 233.099 250.151 233.326C250.7 233.553 251.309 233.58 251.875 233.404C252.441 233.227 252.929 232.858 253.256 232.359C253.583 231.86 253.729 231.262 253.668 230.666C253.608 230.071 253.345 229.515 252.924 229.093C252.438 228.615 251.785 228.349 251.107 228.353V228.342Z" fill="#21BA95"/>
<path d="M229.784 187.16C230.184 187.563 230.693 187.838 231.248 187.949C231.802 188.059 232.376 188.002 232.898 187.783C233.42 187.564 233.866 187.194 234.18 186.719C234.493 186.244 234.661 185.686 234.661 185.115C234.661 184.544 234.493 183.986 234.18 183.511C233.866 183.036 233.42 182.666 232.898 182.447C232.376 182.228 231.802 182.17 231.248 182.281C230.693 182.392 230.184 182.666 229.784 183.07C229.517 183.337 229.304 183.656 229.159 184.007C229.014 184.358 228.94 184.734 228.94 185.115C228.94 185.495 229.014 185.872 229.159 186.223C229.304 186.574 229.517 186.892 229.784 187.16Z" fill="#21BA95"/>
<path d="M231.796 188.293C230.966 188.29 230.169 187.959 229.578 187.368C229.139 186.924 228.839 186.358 228.718 185.741C228.597 185.125 228.659 184.486 228.897 183.906C229.135 183.325 229.538 182.829 230.055 182.48C230.572 182.131 231.18 181.944 231.802 181.944C232.424 181.944 233.032 182.131 233.549 182.48C234.066 182.829 234.469 183.325 234.707 183.906C234.945 184.486 235.007 185.125 234.886 185.741C234.765 186.358 234.465 186.924 234.026 187.368C233.432 187.961 232.631 188.294 231.796 188.293ZM229.978 186.964C230.338 187.328 230.796 187.576 231.296 187.676C231.795 187.777 232.312 187.726 232.782 187.529C233.252 187.332 233.654 186.999 233.937 186.571C234.22 186.144 234.371 185.641 234.371 185.127C234.371 184.612 234.22 184.11 233.937 183.682C233.654 183.254 233.252 182.921 232.782 182.724C232.312 182.528 231.795 182.476 231.296 182.577C230.796 182.678 230.338 182.926 229.978 183.289C229.497 183.777 229.226 184.438 229.226 185.127C229.226 185.816 229.497 186.476 229.978 186.964Z" fill="#21BA95"/>
<path d="M236.964 272.921C237.364 273.324 237.873 273.598 238.428 273.709C238.982 273.82 239.556 273.763 240.078 273.544C240.6 273.325 241.046 272.955 241.36 272.48C241.673 272.005 241.841 271.447 241.841 270.876C241.841 270.305 241.673 269.746 241.36 269.271C241.046 268.797 240.6 268.426 240.078 268.207C239.556 267.989 238.982 267.931 238.428 268.042C237.873 268.153 237.364 268.427 236.964 268.83C236.698 269.099 236.487 269.417 236.343 269.768C236.198 270.119 236.124 270.496 236.124 270.876C236.124 271.256 236.198 271.632 236.343 271.983C236.487 272.334 236.698 272.652 236.964 272.921Z" fill="#21BA95"/>
<path d="M238.988 274.053C238.153 274.054 237.352 273.722 236.758 273.129C236.171 272.531 235.842 271.723 235.842 270.881C235.842 270.039 236.171 269.231 236.758 268.634C237.123 268.263 237.573 267.989 238.068 267.836C238.562 267.684 239.087 267.657 239.594 267.758C240.102 267.859 240.577 268.085 240.977 268.416C241.378 268.747 241.691 269.173 241.89 269.655C242.088 270.138 242.166 270.663 242.116 271.183C242.066 271.704 241.889 272.204 241.602 272.639C241.315 273.073 240.926 273.43 240.47 273.677C240.014 273.924 239.505 274.053 238.988 274.053ZM238.988 268.275C238.479 268.276 237.982 268.429 237.56 268.714C237.137 269 236.808 269.406 236.613 269.881C236.419 270.355 236.368 270.878 236.467 271.382C236.566 271.886 236.811 272.349 237.17 272.713C237.659 273.186 238.31 273.45 238.988 273.45C239.665 273.45 240.316 273.186 240.806 272.713C241.165 272.349 241.409 271.886 241.509 271.382C241.608 270.878 241.557 270.355 241.362 269.881C241.168 269.406 240.838 269 240.416 268.714C239.993 268.429 239.496 268.276 238.988 268.275Z" fill="#21BA95"/>
<path d="M316.206 141.102C316.605 141.507 317.115 141.783 317.669 141.896C318.224 142.008 318.799 141.951 319.322 141.733C319.845 141.514 320.292 141.144 320.606 140.669C320.921 140.194 321.088 139.635 321.088 139.063C321.088 138.491 320.921 137.932 320.606 137.457C320.292 136.982 319.845 136.612 319.322 136.393C318.799 136.175 318.224 136.118 317.669 136.23C317.115 136.343 316.605 136.619 316.206 137.024C315.94 137.291 315.729 137.609 315.585 137.959C315.441 138.309 315.367 138.684 315.367 139.063C315.367 139.442 315.441 139.817 315.585 140.167C315.729 140.517 315.94 140.835 316.206 141.102Z" fill="#21BA95"/>
<path d="M318.229 142.235C317.712 142.237 317.202 142.109 316.744 141.864C316.287 141.618 315.897 141.262 315.608 140.828C315.32 140.393 315.142 139.893 315.091 139.373C315.039 138.852 315.116 138.326 315.314 137.843C315.512 137.359 315.825 136.933 316.225 136.601C316.625 136.269 317.101 136.042 317.609 135.94C318.117 135.839 318.641 135.865 319.137 136.018C319.632 136.171 320.082 136.445 320.447 136.816C320.885 137.26 321.183 137.825 321.303 138.44C321.424 139.055 321.362 139.693 321.124 140.272C320.887 140.851 320.486 141.347 319.971 141.696C319.456 142.046 318.85 142.233 318.229 142.235ZM318.229 136.458C317.892 136.454 317.558 136.519 317.246 136.648C316.934 136.777 316.65 136.968 316.412 137.209C315.982 137.635 315.713 138.198 315.649 138.802C315.585 139.407 315.731 140.015 316.062 140.523C316.392 141.03 316.887 141.406 317.462 141.586C318.036 141.766 318.655 141.739 319.212 141.509C319.768 141.278 320.229 140.86 320.514 140.325C320.8 139.79 320.892 139.171 320.776 138.575C320.66 137.978 320.343 137.441 319.878 137.055C319.414 136.669 318.831 136.458 318.229 136.458Z" fill="#21BA95"/>
<path d="M443.043 81.4335C443.442 81.8384 443.952 82.1145 444.506 82.2267C445.061 82.3389 445.636 82.2822 446.159 82.0638C446.682 81.8454 447.129 81.4752 447.443 80.9999C447.758 80.5247 447.925 79.9658 447.925 79.3941C447.925 78.8224 447.758 78.2635 447.443 77.7883C447.129 77.313 446.682 76.9428 446.159 76.7244C445.636 76.506 445.061 76.4493 444.506 76.5615C443.952 76.6737 443.442 76.9498 443.043 77.3547C442.777 77.622 442.566 77.9398 442.422 78.2898C442.278 78.6398 442.204 79.0151 442.204 79.3941C442.204 79.7731 442.278 80.1484 442.422 80.4984C442.566 80.8484 442.777 81.1662 443.043 81.4335Z" fill="#21BA95"/>
<path d="M445.055 82.5655C444.643 82.5675 444.235 82.4869 443.855 82.3282C443.474 82.1695 443.128 81.9359 442.837 81.6411C442.545 81.346 442.314 80.9956 442.156 80.61C441.998 80.2244 441.916 79.8111 441.916 79.3937C441.916 78.9763 441.998 78.563 442.156 78.1774C442.314 77.7918 442.545 77.4414 442.837 77.1462C443.129 76.8511 443.476 76.617 443.858 76.4573C444.239 76.2975 444.648 76.2153 445.061 76.2153C445.474 76.2153 445.883 76.2975 446.265 76.4573C446.646 76.617 446.993 76.8511 447.285 77.1462C447.872 77.7437 448.201 78.5516 448.201 79.3937C448.201 80.2357 447.872 81.0437 447.285 81.6411C446.992 81.9368 446.645 82.1708 446.262 82.3295C445.879 82.4882 445.469 82.5684 445.055 82.5655ZM445.055 76.788C444.718 76.788 444.384 76.8554 444.073 76.9862C443.761 77.117 443.478 77.3087 443.24 77.5502C443.002 77.7918 442.814 78.0785 442.686 78.3938C442.558 78.7092 442.493 79.047 442.494 79.3879C442.493 79.7285 442.557 80.0661 442.685 80.3814C442.812 80.6966 443 80.9834 443.237 81.2251C443.729 81.6991 444.382 81.9635 445.061 81.9635C445.74 81.9635 446.393 81.6991 446.885 81.2251C447.364 80.7362 447.632 80.0759 447.632 79.3879C447.632 78.6999 447.364 78.0396 446.885 77.5507C446.397 77.0644 445.74 76.7906 445.055 76.788Z" fill="#21BA95"/>
<path d="M448.428 118.64C448.827 119.045 449.337 119.321 449.891 119.433C450.446 119.545 451.021 119.489 451.544 119.27C452.067 119.052 452.514 118.682 452.828 118.206C453.143 117.731 453.31 117.172 453.31 116.601C453.31 116.029 453.143 115.47 452.828 114.995C452.514 114.52 452.067 114.149 451.544 113.931C451.021 113.713 450.446 113.656 449.891 113.768C449.337 113.88 448.827 114.156 448.428 114.561C448.162 114.829 447.951 115.146 447.807 115.496C447.663 115.846 447.589 116.222 447.589 116.601C447.589 116.98 447.663 117.355 447.807 117.705C447.951 118.055 448.162 118.373 448.428 118.64Z" fill="#21BA95"/>
<path d="M450.451 119.772C450.038 119.775 449.628 119.695 449.245 119.536C448.862 119.378 448.514 119.144 448.222 118.848C447.635 118.25 447.305 117.442 447.305 116.6C447.305 115.758 447.635 114.95 448.222 114.353C448.587 113.982 449.037 113.709 449.531 113.556C450.026 113.403 450.551 113.376 451.058 113.477C451.566 113.578 452.041 113.804 452.441 114.135C452.841 114.466 453.155 114.892 453.353 115.375C453.552 115.857 453.63 116.382 453.58 116.903C453.529 117.423 453.353 117.923 453.066 118.358C452.779 118.793 452.39 119.149 451.934 119.396C451.478 119.643 450.969 119.772 450.451 119.772ZM448.634 118.432C449.123 118.905 449.774 119.169 450.451 119.169C451.129 119.169 451.78 118.905 452.269 118.432C452.509 118.191 452.699 117.905 452.829 117.59C452.959 117.274 453.025 116.936 453.024 116.595C453.021 115.906 452.75 115.246 452.269 114.757C451.78 114.284 451.129 114.02 450.451 114.02C449.774 114.02 449.123 114.284 448.634 114.757C448.152 115.245 447.881 115.906 447.881 116.595C447.881 117.284 448.152 117.944 448.634 118.432Z" fill="#21BA95"/>
<path d="M430.021 256.582C430.42 256.987 430.93 257.263 431.484 257.375C432.039 257.487 432.614 257.431 433.137 257.212C433.66 256.994 434.107 256.624 434.421 256.148C434.735 255.673 434.903 255.114 434.903 254.543C434.903 253.971 434.735 253.412 434.421 252.937C434.107 252.461 433.66 252.091 433.137 251.873C432.614 251.654 432.039 251.598 431.484 251.71C430.93 251.822 430.42 252.098 430.021 252.503C429.755 252.77 429.544 253.088 429.4 253.438C429.256 253.788 429.182 254.164 429.182 254.543C429.182 254.922 429.256 255.297 429.4 255.647C429.544 255.997 429.755 256.315 430.021 256.582Z" fill="#21BA95"/>
<path d="M432.022 257.714C431.187 257.715 430.386 257.383 429.792 256.79C429.274 256.27 428.949 255.585 428.875 254.851C428.8 254.116 428.98 253.379 429.383 252.763C429.787 252.148 430.389 251.693 431.087 251.477C431.785 251.26 432.536 251.294 433.212 251.575C433.887 251.855 434.446 252.363 434.792 253.013C435.138 253.663 435.251 254.414 435.111 255.138C434.97 255.862 434.586 256.515 434.022 256.985C433.459 257.455 432.752 257.712 432.022 257.714ZM430.204 256.385C430.564 256.748 431.022 256.994 431.521 257.093C432.02 257.193 432.536 257.14 433.006 256.943C433.475 256.746 433.876 256.413 434.158 255.985C434.44 255.558 434.591 255.056 434.591 254.542C434.591 254.029 434.44 253.527 434.158 253.099C433.876 252.672 433.475 252.339 433.006 252.142C432.536 251.945 432.02 251.892 431.521 251.992C431.022 252.091 430.564 252.337 430.204 252.699C429.721 253.189 429.451 253.852 429.451 254.542C429.451 255.233 429.721 255.896 430.204 256.385Z" fill="#21BA95"/>
<path d="M303.63 373.876C304.029 374.281 304.538 374.557 305.093 374.67C305.648 374.782 306.223 374.725 306.746 374.507C307.268 374.288 307.715 373.918 308.03 373.443C308.344 372.968 308.512 372.409 308.512 371.837C308.512 371.265 308.344 370.706 308.03 370.231C307.715 369.756 307.268 369.386 306.746 369.167C306.223 368.949 305.648 368.892 305.093 369.004C304.538 369.117 304.029 369.393 303.63 369.798C303.096 370.339 302.796 371.072 302.796 371.837C302.796 372.602 303.096 373.335 303.63 373.876Z" fill="#21BA95"/>
<path d="M305.653 375.02C305.241 375.02 304.832 374.938 304.451 374.777C304.07 374.616 303.725 374.381 303.435 374.084C302.848 373.486 302.519 372.678 302.519 371.836C302.519 370.994 302.848 370.186 303.435 369.589C303.802 369.221 304.252 368.95 304.747 368.799C305.242 368.649 305.765 368.624 306.272 368.727C306.778 368.83 307.252 369.057 307.651 369.389C308.05 369.721 308.361 370.147 308.558 370.63C308.755 371.112 308.832 371.637 308.781 372.156C308.73 372.676 308.553 373.175 308.266 373.609C307.978 374.043 307.59 374.399 307.134 374.645C306.678 374.891 306.17 375.02 305.653 375.02ZM303.835 373.679C304.318 374.166 304.972 374.44 305.653 374.44C306.335 374.44 306.989 374.166 307.471 373.679C307.953 373.192 308.223 372.531 308.223 371.842C308.223 371.153 307.953 370.492 307.471 370.005C306.982 369.532 306.331 369.268 305.653 369.268C304.976 369.268 304.325 369.532 303.835 370.005C303.354 370.492 303.083 371.153 303.083 371.842C303.083 372.531 303.354 373.192 303.835 373.679Z" fill="#21BA95"/>
<path d="M520.936 134.297C521.335 134.702 521.844 134.978 522.399 135.09C522.954 135.203 523.529 135.146 524.052 134.928C524.575 134.709 525.021 134.339 525.336 133.864C525.65 133.388 525.818 132.83 525.818 132.258C525.818 131.686 525.65 131.127 525.336 130.652C525.021 130.177 524.575 129.807 524.052 129.588C523.529 129.37 522.954 129.313 522.399 129.425C521.844 129.538 521.335 129.814 520.936 130.218C520.67 130.486 520.459 130.804 520.315 131.154C520.171 131.504 520.097 131.879 520.097 132.258C520.097 132.637 520.171 133.012 520.315 133.362C520.459 133.712 520.67 134.03 520.936 134.297Z" fill="#21BA95"/>
<path d="M522.959 135.429C522.536 135.44 522.115 135.363 521.722 135.204C521.329 135.045 520.972 134.807 520.673 134.505C520.229 134.059 519.927 133.491 519.803 132.872C519.68 132.253 519.741 131.61 519.979 131.026C520.217 130.442 520.622 129.943 521.141 129.592C521.661 129.24 522.271 129.053 522.896 129.053C523.521 129.053 524.132 129.24 524.652 129.592C525.171 129.943 525.576 130.442 525.814 131.026C526.052 131.61 526.113 132.253 525.99 132.872C525.866 133.491 525.564 134.059 525.12 134.505C524.547 135.086 523.771 135.418 522.959 135.429ZM522.959 129.652C522.451 129.652 521.954 129.805 521.531 130.09C521.109 130.376 520.779 130.782 520.585 131.257C520.39 131.732 520.339 132.254 520.438 132.758C520.538 133.262 520.782 133.725 521.142 134.089C521.631 134.562 522.282 134.826 522.959 134.826C523.637 134.826 524.288 134.562 524.777 134.089C525.136 133.725 525.381 133.262 525.48 132.758C525.579 132.254 525.528 131.732 525.334 131.257C525.139 130.782 524.81 130.376 524.387 130.09C523.965 129.805 523.468 129.652 522.959 129.652Z" fill="#21BA95"/>
<path d="M334.286 58.7627L333.714 58.8452L334.678 65.6642L335.25 65.5816L334.286 58.7627Z" fill="#21BA95"/>
<path d="M427.014 372.432C422.63 372.427 418.249 372.192 413.889 371.727L413.946 371.149C443.432 374.269 467.784 367.059 484.373 350.351C526.035 308.244 504.632 218.105 436.675 149.422C403.736 116.133 364.899 92.8032 327.33 83.6979C289.761 74.5927 258.035 80.8439 237.867 101.215C220.375 118.894 213.309 146.279 217.951 178.171L217.391 178.252C212.715 146.118 219.837 118.617 237.467 100.834C257.772 80.3123 289.738 74.0265 327.467 83.1549C365.196 92.2832 404.068 115.67 437.075 149.018C505.261 217.931 526.664 308.476 484.773 350.767C470.596 365.025 450.794 372.432 427.014 372.432Z" fill="#21BA95"/>
<path d="M303.687 345.983C269.388 345.983 241.686 333.931 225.131 311.573C209.674 290.693 205.455 263.25 212.909 232.202L213.469 232.341C206.049 263.215 210.234 290.496 225.588 311.226C243.526 335.491 274.624 347.497 313.142 345.105C351.659 342.713 393.15 326.166 429.666 298.504C505.124 241.434 536.37 154.276 499.305 104.22C483.081 82.2654 455.471 70.1674 421.56 70.0519V69.4741C455.654 69.5897 483.424 81.8032 499.762 103.873C537.022 154.183 505.73 241.712 430.021 298.966C393.355 326.698 351.865 343.291 313.187 345.683C309.971 345.875 306.804 345.975 303.687 345.983Z" fill="#21BA95"/>
<path d="M443.02 278.617C415.341 278.617 384.564 274.7 353.306 267.062C307.7 255.923 266.541 238.175 237.433 217.133C208.324 196.092 194.639 174.068 199.121 155.314C203.603 136.561 225.623 123.307 261.122 117.992C296.621 112.677 341.153 115.901 386.782 127.028C432.41 138.155 473.558 155.915 502.666 176.968C531.774 198.021 545.448 220.034 540.966 238.776C536.485 257.518 514.465 270.783 478.965 276.098C467.061 277.826 455.047 278.668 443.02 278.617ZM297.113 116.086C285.114 116.029 273.127 116.86 261.248 118.57C225.988 123.862 204.14 136.965 199.715 155.465C195.291 173.964 208.862 195.71 237.799 216.706C266.735 237.701 307.928 255.426 353.477 266.542C447.422 289.479 531.294 276.941 540.452 238.683C544.876 220.195 531.306 198.449 502.369 177.442C473.432 156.435 432.228 138.722 386.679 127.606C355.421 119.945 324.701 116.086 297.113 116.086Z" fill="#21BA95"/>
<path d="M409.03 389.949C392.098 389.949 373.005 375.736 354.472 349.091C333.435 318.805 315.6 276.075 304.304 228.77C293.008 181.464 289.556 135.175 294.598 98.5804C299.64 61.986 312.662 39.1189 331.183 34.5893C349.704 30.0598 371.564 44.2723 392.658 74.6271C413.752 104.982 431.53 147.631 442.826 194.948C454.122 242.266 457.574 288.543 452.532 325.137C447.49 361.732 434.503 384.553 416.016 389.175C413.726 389.715 411.381 389.975 409.03 389.949ZM338.146 34.3351C335.858 34.3305 333.578 34.6021 331.355 35.144C313.062 39.6157 300.2 62.1709 295.181 98.696C290.162 135.221 293.58 181.429 304.876 228.666C316.172 275.902 333.95 318.574 354.952 348.837C375.954 379.099 397.517 393.115 415.833 388.643C453.744 379.318 465.589 292.518 442.311 195.052C431.027 147.816 413.237 105.155 392.235 74.8813C373.817 48.4668 354.884 34.3351 338.134 34.3351H338.146Z" fill="#21BA95"/>
<path d="M350.23 341.349C349.831 341.754 349.322 342.03 348.767 342.142C348.212 342.254 347.637 342.198 347.114 341.979C346.592 341.761 346.145 341.391 345.83 340.915C345.516 340.44 345.348 339.881 345.348 339.31C345.348 338.738 345.516 338.179 345.83 337.704C346.145 337.229 346.592 336.858 347.114 336.64C347.637 336.422 348.212 336.365 348.767 336.477C349.322 336.589 349.831 336.865 350.23 337.27C350.496 337.538 350.707 337.855 350.851 338.205C350.995 338.555 351.069 338.931 351.069 339.31C351.069 339.689 350.995 340.064 350.851 340.414C350.707 340.764 350.496 341.082 350.23 341.349Z" fill="#21BA95"/>
<path d="M348.218 342.481C347.384 342.482 346.582 342.15 345.989 341.557C345.545 341.112 345.243 340.543 345.119 339.924C344.996 339.305 345.057 338.663 345.295 338.079C345.533 337.495 345.938 336.995 346.457 336.644C346.977 336.293 347.588 336.105 348.213 336.105C348.838 336.105 349.448 336.293 349.968 336.644C350.487 336.995 350.892 337.495 351.13 338.079C351.368 338.663 351.429 339.305 351.306 339.924C351.182 340.543 350.88 341.112 350.436 341.557C349.847 342.149 349.049 342.481 348.218 342.481ZM348.218 336.704C347.536 336.704 346.882 336.979 346.4 337.466C346.148 337.704 345.945 337.991 345.804 338.31C345.664 338.629 345.588 338.974 345.582 339.323C345.576 339.672 345.639 340.018 345.769 340.342C345.898 340.666 346.091 340.96 346.335 341.207C346.579 341.454 346.87 341.648 347.191 341.779C347.511 341.91 347.854 341.974 348.199 341.968C348.545 341.962 348.885 341.885 349.201 341.743C349.517 341.601 349.801 341.396 350.036 341.141C350.395 340.777 350.64 340.314 350.739 339.81C350.838 339.306 350.787 338.784 350.593 338.309C350.398 337.834 350.069 337.428 349.646 337.143C349.224 336.857 348.727 336.704 348.218 336.704Z" fill="#21BA95"/>
<path d="M456.191 279.634C455.792 280.039 455.282 280.315 454.728 280.427C454.173 280.54 453.598 280.483 453.075 280.264C452.552 280.046 452.105 279.676 451.791 279.201C451.476 278.725 451.309 278.167 451.309 277.595C451.309 277.023 451.476 276.464 451.791 275.989C452.105 275.514 452.552 275.143 453.075 274.925C453.598 274.707 454.173 274.65 454.728 274.762C455.282 274.874 455.792 275.15 456.191 275.555C456.457 275.823 456.668 276.141 456.812 276.49C456.956 276.84 457.03 277.216 457.03 277.595C457.03 277.974 456.956 278.349 456.812 278.699C456.668 279.049 456.457 279.367 456.191 279.634Z" fill="#21BA95"/>
<path d="M454.179 280.778C453.448 280.781 452.739 280.528 452.172 280.063C451.605 279.597 451.216 278.946 451.071 278.223C450.926 277.499 451.033 276.747 451.376 276.095C451.718 275.442 452.273 274.93 452.948 274.646C453.622 274.361 454.373 274.322 455.072 274.535C455.772 274.747 456.377 275.199 456.784 275.812C457.191 276.425 457.375 277.162 457.304 277.897C457.234 278.632 456.913 279.319 456.397 279.842C456.106 280.138 455.761 280.373 455.38 280.534C455 280.695 454.591 280.778 454.179 280.778ZM454.179 275C453.839 275 453.503 275.067 453.189 275.198C452.875 275.328 452.59 275.521 452.349 275.763C452.111 276.004 451.922 276.29 451.795 276.606C451.667 276.921 451.603 277.259 451.606 277.6C451.605 278.287 451.872 278.948 452.349 279.437C452.839 279.911 453.49 280.175 454.167 280.175C454.844 280.175 455.496 279.911 455.985 279.437C456.467 278.95 456.737 278.289 456.737 277.6C456.737 276.911 456.467 276.25 455.985 275.763C455.749 275.521 455.468 275.328 455.158 275.198C454.848 275.067 454.515 275 454.179 275Z" fill="#21BA95"/>
<path d="M494.125 232.224C493.725 232.628 493.216 232.902 492.662 233.013C492.108 233.124 491.533 233.066 491.011 232.847C490.49 232.629 490.044 232.258 489.73 231.783C489.416 231.308 489.249 230.75 489.249 230.179C489.249 229.608 489.416 229.05 489.73 228.575C490.044 228.1 490.49 227.73 491.011 227.511C491.533 227.292 492.108 227.235 492.662 227.345C493.216 227.456 493.725 227.731 494.125 228.134C494.392 228.402 494.603 228.721 494.747 229.072C494.891 229.423 494.965 229.799 494.965 230.179C494.965 230.559 494.891 230.935 494.747 231.286C494.603 231.637 494.392 231.956 494.125 232.224Z" fill="#21BA95"/>
<path d="M492.113 233.357C491.38 233.362 490.667 233.109 490.098 232.641C489.528 232.174 489.137 231.522 488.99 230.795C488.844 230.068 488.952 229.313 489.295 228.658C489.638 228.003 490.196 227.488 490.873 227.203C491.55 226.917 492.304 226.878 493.007 227.092C493.709 227.305 494.316 227.759 494.725 228.375C495.133 228.991 495.317 229.731 495.245 230.469C495.173 231.207 494.85 231.897 494.331 232.421C494.041 232.717 493.696 232.953 493.315 233.113C492.934 233.274 492.526 233.357 492.113 233.357ZM492.113 227.579C491.775 227.577 491.44 227.644 491.128 227.775C490.816 227.906 490.533 228.099 490.296 228.342C489.841 228.835 489.594 229.487 489.606 230.16C489.617 230.834 489.887 231.476 490.359 231.953C490.83 232.429 491.466 232.702 492.132 232.714C492.799 232.726 493.444 232.476 493.931 232.017C494.413 231.529 494.684 230.868 494.684 230.179C494.684 229.49 494.413 228.83 493.931 228.342C493.694 228.099 493.411 227.906 493.098 227.775C492.786 227.644 492.451 227.578 492.113 227.579Z" fill="#21BA95"/>
<path d="M513.436 186.386C513.036 186.791 512.527 187.067 511.972 187.179C511.418 187.291 510.842 187.235 510.32 187.016C509.797 186.798 509.35 186.428 509.036 185.953C508.721 185.477 508.553 184.918 508.553 184.347C508.553 183.775 508.721 183.216 509.036 182.741C509.35 182.266 509.797 181.895 510.32 181.677C510.842 181.459 511.418 181.402 511.972 181.514C512.527 181.626 513.036 181.902 513.436 182.307C513.702 182.575 513.912 182.892 514.056 183.242C514.2 183.592 514.274 183.968 514.274 184.347C514.274 184.726 514.2 185.101 514.056 185.451C513.912 185.801 513.702 186.119 513.436 186.386Z" fill="#21BA95"/>
<path d="M511.412 187.531C510.682 187.532 509.974 187.276 509.409 186.809C508.844 186.342 508.457 185.691 508.314 184.967C508.171 184.244 508.28 183.492 508.624 182.841C508.967 182.19 509.524 181.679 510.198 181.396C510.872 181.113 511.623 181.075 512.321 181.289C513.02 181.502 513.624 181.954 514.03 182.567C514.437 183.18 514.62 183.917 514.549 184.651C514.478 185.386 514.157 186.073 513.641 186.595C513.35 186.892 513.002 187.128 512.62 187.288C512.237 187.449 511.826 187.531 511.412 187.531ZM511.412 181.753C511.074 181.752 510.739 181.818 510.427 181.949C510.115 182.08 509.832 182.273 509.594 182.516C509.112 183.003 508.842 183.664 508.842 184.353C508.842 185.042 509.112 185.703 509.594 186.19C510.084 186.663 510.735 186.928 511.412 186.928C512.089 186.928 512.74 186.663 513.23 186.19C513.712 185.703 513.982 185.042 513.982 184.353C513.982 183.664 513.712 183.003 513.23 182.516C512.993 182.272 512.71 182.079 512.397 181.948C512.085 181.817 511.75 181.751 511.412 181.753Z" fill="#21BA95"/>
<path d="M506.256 272.147C505.857 272.552 505.347 272.828 504.793 272.94C504.238 273.052 503.663 272.996 503.14 272.777C502.617 272.559 502.17 272.189 501.856 271.713C501.541 271.238 501.374 270.679 501.374 270.107C501.374 269.536 501.541 268.977 501.856 268.502C502.17 268.026 502.617 267.656 503.14 267.438C503.663 267.219 504.238 267.163 504.793 267.275C505.347 267.387 505.857 267.663 506.256 268.068C506.79 268.61 507.09 269.343 507.09 270.107C507.09 270.872 506.79 271.605 506.256 272.147Z" fill="#21BA95"/>
<path d="M504.232 273.279C503.4 273.279 502.602 272.946 502.013 272.353C501.424 271.759 501.091 270.954 501.088 270.113C501.086 269.59 501.213 269.074 501.455 268.612C501.698 268.15 502.05 267.756 502.48 267.464C502.91 267.173 503.405 266.993 503.92 266.941C504.435 266.889 504.955 266.967 505.434 267.167C505.912 267.367 506.334 267.683 506.663 268.088C506.991 268.492 507.216 268.972 507.316 269.486C507.417 269.999 507.39 270.53 507.239 271.03C507.088 271.531 506.817 271.986 506.45 272.355C506.16 272.65 505.814 272.884 505.433 273.043C505.052 273.202 504.644 273.282 504.232 273.279ZM504.232 267.502C503.55 267.502 502.896 267.776 502.413 268.263C501.931 268.751 501.66 269.412 501.66 270.102C501.66 270.616 501.811 271.118 502.094 271.545C502.377 271.972 502.778 272.305 503.248 272.502C503.718 272.698 504.235 272.75 504.733 272.65C505.232 272.549 505.69 272.302 506.05 271.939C506.409 271.575 506.654 271.112 506.753 270.608C506.852 270.104 506.801 269.582 506.607 269.107C506.412 268.632 506.083 268.227 505.66 267.941C505.237 267.655 504.741 267.502 504.232 267.502Z" fill="#21BA95"/>
<path d="M427.014 140.339C426.614 140.742 426.105 141.017 425.551 141.128C424.996 141.239 424.422 141.181 423.9 140.962C423.378 140.743 422.932 140.373 422.619 139.898C422.305 139.423 422.137 138.865 422.137 138.294C422.137 137.723 422.305 137.165 422.619 136.69C422.932 136.215 423.378 135.845 423.9 135.626C424.422 135.407 424.996 135.349 425.551 135.46C426.105 135.571 426.614 135.846 427.014 136.249C427.546 136.794 427.844 137.528 427.844 138.294C427.844 139.06 427.546 139.794 427.014 140.339Z" fill="#21BA95"/>
<path d="M424.99 141.473C424.578 141.474 424.169 141.392 423.788 141.232C423.407 141.071 423.061 140.835 422.772 140.537C422.479 140.242 422.246 139.892 422.087 139.506C421.928 139.121 421.846 138.707 421.846 138.289C421.846 137.871 421.928 137.458 422.087 137.072C422.246 136.686 422.479 136.336 422.772 136.042C423.062 135.745 423.408 135.511 423.789 135.352C424.17 135.193 424.578 135.113 424.99 135.117C425.402 135.115 425.81 135.196 426.191 135.355C426.572 135.513 426.918 135.747 427.208 136.042C427.644 136.488 427.941 137.053 428.06 137.669C428.18 138.284 428.118 138.921 427.881 139.5C427.644 140.08 427.244 140.576 426.73 140.927C426.216 141.277 425.611 141.467 424.99 141.473ZM424.99 135.695C424.652 135.693 424.317 135.759 424.005 135.89C423.693 136.021 423.41 136.214 423.173 136.458C422.691 136.945 422.42 137.606 422.42 138.295C422.42 138.984 422.691 139.645 423.173 140.132C423.662 140.605 424.313 140.869 424.99 140.869C425.668 140.869 426.319 140.605 426.808 140.132C427.168 139.769 427.412 139.306 427.511 138.801C427.61 138.297 427.559 137.775 427.365 137.3C427.17 136.826 426.841 136.42 426.418 136.134C425.996 135.848 425.499 135.696 424.99 135.695Z" fill="#21BA95"/>
<path d="M300.177 80.6586C299.777 81.0618 299.268 81.3362 298.713 81.4471C298.159 81.558 297.585 81.5003 297.063 81.2815C296.541 81.0626 296.095 80.6924 295.781 80.2175C295.468 79.7426 295.3 79.1844 295.3 78.6133C295.3 78.0423 295.468 77.4841 295.781 77.0092C296.095 76.5343 296.541 76.1641 297.063 75.9452C297.585 75.7263 298.159 75.6687 298.713 75.7796C299.268 75.8905 299.777 76.1649 300.177 76.5681C300.709 77.113 301.007 77.8478 301.007 78.6133C301.007 79.3789 300.709 80.1136 300.177 80.6586Z" fill="#21BA95"/>
<path d="M298.153 81.8146C297.429 81.8012 296.731 81.5353 296.178 81.0619C295.625 80.5884 295.251 79.9366 295.119 79.2165C294.987 78.4965 295.105 77.7525 295.454 77.1103C295.802 76.4681 296.359 75.9672 297.031 75.6923C297.702 75.4174 298.447 75.3854 299.139 75.6017C299.832 75.818 300.429 76.2692 300.83 76.8792C301.231 77.4892 301.411 78.2204 301.34 78.9492C301.269 79.6779 300.951 80.3595 300.44 80.8787C300.142 81.1835 299.785 81.4237 299.392 81.5847C298.999 81.7456 298.577 81.8238 298.153 81.8146ZM298.153 76.0372C297.815 76.0356 297.48 76.1022 297.168 76.2331C296.856 76.3641 296.573 76.5568 296.335 76.7998C295.854 77.2873 295.583 77.9481 295.583 78.637C295.583 79.326 295.854 79.9868 296.335 80.4743C296.825 80.9475 297.476 81.2116 298.153 81.2116C298.83 81.2116 299.482 80.9475 299.971 80.4743C300.33 80.1107 300.575 79.6476 300.674 79.1436C300.773 78.6396 300.722 78.1172 300.528 77.6424C300.333 77.1676 300.004 76.7618 299.581 76.4761C299.158 76.1903 298.662 76.0376 298.153 76.0372Z" fill="#21BA95"/>
<path d="M294.826 117.877C294.426 118.28 293.917 118.554 293.363 118.665C292.808 118.776 292.234 118.719 291.712 118.5C291.19 118.281 290.744 117.911 290.431 117.436C290.117 116.961 289.949 116.403 289.949 115.832C289.949 115.261 290.117 114.702 290.431 114.227C290.744 113.753 291.19 113.382 291.712 113.163C292.234 112.945 292.808 112.887 293.363 112.998C293.917 113.109 294.426 113.383 294.826 113.786C295.358 114.331 295.657 115.066 295.657 115.832C295.657 116.597 295.358 117.332 294.826 117.877Z" fill="#21BA95"/>
<path d="M292.768 119.009C292.041 119.011 291.335 118.759 290.771 118.294C290.207 117.829 289.82 117.182 289.676 116.461C289.532 115.74 289.64 114.991 289.981 114.342C290.322 113.692 290.875 113.182 291.546 112.899C292.218 112.616 292.966 112.577 293.662 112.788C294.359 113 294.962 113.449 295.368 114.059C295.773 114.67 295.957 115.403 295.887 116.135C295.818 116.867 295.499 117.552 294.986 118.073C294.696 118.37 294.351 118.606 293.97 118.766C293.59 118.927 293.181 119.01 292.768 119.009ZM292.768 113.232C292.173 113.231 291.596 113.439 291.136 113.82C290.675 114.201 290.36 114.732 290.243 115.322C290.127 115.912 290.216 116.524 290.496 117.055C290.776 117.586 291.23 118.002 291.78 118.233C292.329 118.463 292.941 118.494 293.511 118.32C294.081 118.146 294.573 117.777 294.904 117.277C295.235 116.777 295.384 116.177 295.326 115.578C295.268 114.98 295.007 114.42 294.586 113.994C294.348 113.752 294.065 113.559 293.753 113.428C293.441 113.297 293.106 113.231 292.768 113.232Z" fill="#21BA95"/>
<path d="M313.199 255.82C312.799 256.223 312.29 256.497 311.735 256.608C311.181 256.719 310.607 256.661 310.085 256.443C309.563 256.224 309.117 255.853 308.803 255.379C308.49 254.904 308.322 254.346 308.322 253.774C308.322 253.203 308.49 252.645 308.803 252.17C309.117 251.695 309.563 251.325 310.085 251.106C310.607 250.887 311.181 250.83 311.735 250.941C312.29 251.052 312.799 251.326 313.199 251.729C313.731 252.274 314.029 253.009 314.029 253.774C314.029 254.54 313.731 255.275 313.199 255.82Z" fill="#21BA95"/>
<path d="M311.175 256.952C310.442 256.957 309.729 256.704 309.16 256.237C308.59 255.769 308.199 255.117 308.052 254.39C307.906 253.664 308.013 252.908 308.357 252.253C308.7 251.598 309.258 251.084 309.935 250.798C310.612 250.512 311.366 250.473 312.069 250.687C312.771 250.901 313.378 251.354 313.787 251.97C314.195 252.586 314.379 253.327 314.307 254.065C314.235 254.802 313.912 255.492 313.393 256.016C313.103 256.313 312.758 256.549 312.377 256.709C311.997 256.87 311.588 256.953 311.175 256.952ZM311.175 251.175C310.837 251.172 310.502 251.239 310.19 251.37C309.878 251.501 309.595 251.694 309.357 251.937C308.903 252.43 308.656 253.082 308.667 253.756C308.679 254.429 308.949 255.072 309.42 255.548C309.892 256.024 310.528 256.297 311.194 256.309C311.86 256.321 312.505 256.071 312.993 255.612C313.352 255.248 313.597 254.785 313.696 254.281C313.795 253.777 313.744 253.255 313.55 252.78C313.355 252.305 313.026 251.899 312.603 251.614C312.181 251.328 311.684 251.175 311.175 251.175Z" fill="#21BA95"/>
<path d="M439.579 373.113C439.179 373.516 438.67 373.791 438.115 373.902C437.561 374.013 436.987 373.955 436.465 373.736C435.943 373.517 435.497 373.147 435.183 372.672C434.87 372.197 434.702 371.639 434.702 371.068C434.702 370.497 434.87 369.939 435.183 369.464C435.497 368.989 435.943 368.619 436.465 368.4C436.987 368.181 437.561 368.123 438.115 368.234C438.67 368.345 439.179 368.619 439.579 369.023C439.846 369.29 440.059 369.609 440.204 369.96C440.349 370.311 440.423 370.688 440.423 371.068C440.423 371.448 440.349 371.825 440.204 372.176C440.059 372.527 439.846 372.846 439.579 373.113Z" fill="#21BA95"/>
<path d="M437.555 374.246C437.04 374.236 436.536 374.099 436.086 373.846C435.636 373.593 435.254 373.232 434.975 372.795C434.695 372.359 434.525 371.859 434.481 371.341C434.437 370.822 434.52 370.301 434.722 369.822C434.924 369.344 435.239 368.922 435.64 368.596C436.04 368.269 436.514 368.047 437.02 367.948C437.525 367.85 438.047 367.879 438.539 368.032C439.031 368.185 439.478 368.458 439.842 368.827C440.429 369.424 440.758 370.232 440.758 371.074C440.758 371.916 440.429 372.724 439.842 373.321C439.541 373.622 439.184 373.859 438.791 374.017C438.398 374.176 437.978 374.254 437.555 374.246ZM437.555 368.468C437.047 368.469 436.55 368.621 436.127 368.907C435.705 369.193 435.375 369.599 435.181 370.074C434.986 370.548 434.935 371.071 435.034 371.575C435.133 372.079 435.378 372.542 435.737 372.905C436.227 373.379 436.878 373.643 437.555 373.643C438.232 373.643 438.884 373.379 439.373 372.905C439.732 372.542 439.977 372.079 440.076 371.575C440.175 371.071 440.124 370.548 439.93 370.074C439.735 369.599 439.406 369.193 438.983 368.907C438.56 368.621 438.064 368.469 437.555 368.468Z" fill="#21BA95"/>
<path d="M222.284 133.522C221.885 133.927 221.375 134.203 220.821 134.316C220.266 134.428 219.691 134.371 219.168 134.153C218.645 133.934 218.198 133.564 217.884 133.089C217.569 132.614 217.402 132.055 217.402 131.483C217.402 130.911 217.569 130.352 217.884 129.877C218.198 129.402 218.645 129.032 219.168 128.813C219.691 128.595 220.266 128.538 220.821 128.65C221.375 128.763 221.885 129.039 222.284 129.444C222.818 129.985 223.118 130.718 223.118 131.483C223.118 132.248 222.818 132.981 222.284 133.522Z" fill="#21BA95"/>
<path d="M220.26 134.666C219.527 134.671 218.814 134.418 218.245 133.951C217.675 133.484 217.284 132.831 217.137 132.105C216.991 131.378 217.099 130.623 217.442 129.967C217.785 129.312 218.343 128.798 219.02 128.512C219.697 128.227 220.451 128.187 221.154 128.401C221.856 128.615 222.463 129.069 222.872 129.685C223.28 130.301 223.464 131.041 223.392 131.779C223.32 132.517 222.997 133.207 222.478 133.731C222.189 134.027 221.843 134.263 221.462 134.424C221.082 134.585 220.673 134.667 220.26 134.666ZM220.26 128.889C219.922 128.888 219.588 128.955 219.276 129.086C218.964 129.217 218.68 129.409 218.443 129.652C217.961 130.139 217.69 130.8 217.69 131.489C217.69 132.178 217.961 132.839 218.443 133.326C218.742 133.629 219.11 133.852 219.515 133.976C219.92 134.101 220.349 134.122 220.764 134.039C221.179 133.956 221.567 133.77 221.894 133.499C222.222 133.227 222.477 132.879 222.639 132.484C222.801 132.088 222.864 131.659 222.823 131.233C222.781 130.808 222.636 130.399 222.401 130.043C222.165 129.688 221.847 129.397 221.474 129.195C221.1 128.994 220.684 128.889 220.26 128.889Z" fill="#21BA95"/>
<path d="M263.832 341.233C258.346 341.233 253.086 339.031 249.207 335.111C245.328 331.191 243.149 325.874 243.149 320.331C243.149 314.787 245.328 309.47 249.207 305.55C253.086 301.63 258.346 299.428 263.832 299.428C266.549 299.425 269.241 299.963 271.753 301.012C274.265 302.061 276.548 303.601 278.471 305.542C280.394 307.483 281.919 309.789 282.96 312.326C284.001 314.864 284.537 317.584 284.537 320.331C284.537 323.078 284.001 325.798 282.96 328.335C281.919 330.873 280.394 333.178 278.471 335.119C276.548 337.061 274.265 338.6 271.753 339.649C269.241 340.698 266.549 341.236 263.832 341.233Z" fill="#263238" stroke="#263238" stroke-linecap="round" stroke-linejoin="round"/>
<path d="M263.831 310.936C266.861 310.936 267.261 310.936 268.405 311.005C269.123 311.008 269.836 311.141 270.508 311.398C270.997 311.588 271.441 311.879 271.811 312.254C272.182 312.628 272.47 313.077 272.658 313.571C272.912 314.25 273.044 314.97 273.046 315.697C273.046 316.852 273.115 317.268 273.115 320.319C273.115 323.369 273.115 323.785 273.046 324.941C273.042 325.667 272.911 326.387 272.658 327.067C272.47 327.561 272.182 328.009 271.811 328.384C271.441 328.758 270.997 329.049 270.508 329.239C269.836 329.496 269.123 329.629 268.405 329.632C267.204 329.69 266.85 329.701 263.831 329.701C260.813 329.701 260.402 329.701 259.258 329.632C258.54 329.628 257.827 329.495 257.155 329.239C256.663 329.056 256.217 328.763 255.851 328.384C255.479 328.011 255.191 327.562 255.005 327.067C254.752 326.387 254.621 325.667 254.617 324.941C254.617 323.727 254.548 323.369 254.548 320.319C254.548 317.268 254.548 316.852 254.617 315.697C254.619 314.97 254.751 314.25 255.005 313.571C255.191 313.075 255.479 312.626 255.851 312.253C256.217 311.874 256.663 311.582 257.155 311.398C257.827 311.143 258.54 311.01 259.258 311.005C260.459 310.948 260.813 310.936 263.831 310.936ZM263.831 308.868C260.756 308.868 260.402 308.868 259.155 308.937C258.218 308.96 257.291 309.14 256.411 309.469C255.654 309.76 254.967 310.213 254.399 310.797C253.824 311.367 253.379 312.057 253.096 312.819C252.76 313.71 252.578 314.652 252.559 315.604C252.559 316.829 252.49 317.222 252.49 320.33C252.49 323.438 252.49 323.797 252.559 325.056C252.58 326.008 252.762 326.95 253.096 327.841C253.379 328.603 253.824 329.294 254.399 329.863C254.967 330.447 255.654 330.901 256.411 331.192C257.291 331.521 258.218 331.7 259.155 331.723C260.367 331.781 260.756 331.793 263.831 331.793C266.907 331.793 267.261 331.793 268.508 331.723C269.449 331.701 270.38 331.522 271.263 331.192C272.015 330.897 272.697 330.444 273.264 329.863C273.843 329.294 274.291 328.604 274.578 327.841C274.902 326.948 275.08 326.007 275.104 325.056C275.162 323.831 275.173 323.438 275.173 320.33C275.173 317.222 275.173 316.864 275.104 315.604C275.083 314.653 274.905 313.712 274.578 312.819C274.291 312.057 273.843 311.366 273.264 310.797C272.697 310.217 272.015 309.764 271.263 309.469C270.38 309.139 269.449 308.959 268.508 308.937C267.296 308.879 266.918 308.868 263.831 308.868Z" fill="#21BA95"/>
<path d="M263.831 314.449C262.681 314.449 261.555 314.794 260.598 315.44C259.641 316.087 258.896 317.005 258.455 318.08C258.015 319.155 257.899 320.337 258.124 321.478C258.348 322.619 258.903 323.667 259.717 324.489C260.53 325.312 261.567 325.872 262.696 326.099C263.825 326.326 264.995 326.21 266.058 325.764C267.122 325.319 268.031 324.565 268.67 323.598C269.31 322.631 269.651 321.494 269.651 320.331C269.651 318.771 269.038 317.275 267.946 316.172C266.855 315.069 265.375 314.449 263.831 314.449ZM263.831 324.144C263.083 324.144 262.35 323.919 261.728 323.498C261.105 323.078 260.62 322.48 260.334 321.78C260.048 321.081 259.974 320.311 260.121 319.569C260.268 318.826 260.629 318.145 261.16 317.611C261.69 317.076 262.365 316.713 263.1 316.567C263.835 316.42 264.596 316.498 265.288 316.789C265.979 317.08 266.569 317.572 266.984 318.203C267.398 318.833 267.618 319.574 267.616 320.331C267.616 320.832 267.518 321.329 267.327 321.793C267.137 322.256 266.858 322.677 266.507 323.031C266.155 323.385 265.738 323.666 265.279 323.857C264.82 324.048 264.328 324.145 263.831 324.144Z" fill="#21BA95"/>
<path d="M271.251 314.218C271.251 314.582 271.108 314.932 270.853 315.19C270.598 315.448 270.252 315.593 269.891 315.593C269.53 315.593 269.184 315.448 268.929 315.19C268.674 314.932 268.53 314.582 268.53 314.218C268.53 313.853 268.674 313.503 268.929 313.246C269.184 312.988 269.53 312.843 269.891 312.843C270.252 312.843 270.598 312.988 270.853 313.246C271.108 313.503 271.251 313.853 271.251 314.218Z" fill="#21BA95"/>
<path d="M444.598 96.5583C439.113 96.5583 433.852 94.356 429.973 90.436C426.095 86.5159 423.916 81.1992 423.916 75.6554C423.916 72.911 424.451 70.1934 425.49 67.658C426.53 65.1226 428.053 62.8191 429.974 60.879C431.895 58.9389 434.175 57.4003 436.684 56.3511C439.193 55.3019 441.882 54.7626 444.598 54.7642C447.313 54.7626 450.002 55.302 452.51 56.3513C455.019 57.4007 457.298 58.9395 459.218 60.8797C461.138 62.8199 462.66 65.1236 463.698 67.6589C464.737 70.1942 465.27 72.9115 465.269 75.6554C465.27 78.3999 464.737 81.1178 463.699 83.6537C462.66 86.1897 461.138 88.4941 459.218 90.4353C457.299 92.3764 455.02 93.9163 452.511 94.9669C450.002 96.0175 447.313 96.5583 444.598 96.5583Z" fill="#263238"/>
<path d="M441.351 88.297H446.381V75.5866H449.903L450.269 71.3228H446.381V68.8963C446.381 67.891 446.587 67.4866 447.525 67.4866H450.314V63.0264H446.884C443.134 63.0264 441.442 64.6903 441.442 67.8794V71.3459H438.824V75.6674H441.442L441.351 88.297Z" fill="#21BA95"/>
<path d="M244.052 136.399C238.567 136.399 233.307 134.197 229.428 130.277C225.549 126.357 223.37 121.04 223.37 115.496C223.373 109.954 225.554 104.641 229.432 100.723C233.31 96.8056 238.569 94.605 244.052 94.605C249.534 94.608 254.79 96.8101 258.666 100.727C262.541 104.644 264.72 109.956 264.723 115.496C264.723 121.038 262.546 126.353 258.67 130.273C254.793 134.192 249.536 136.396 244.052 136.399Z" fill="#263238" stroke="#263238" stroke-linecap="round" stroke-linejoin="round"/>
<path d="M233.088 122.499C235.074 123.787 237.372 124.499 239.732 124.554C242.091 124.61 244.42 124.008 246.463 122.814C248.506 121.621 250.184 119.882 251.314 117.788C252.444 115.694 252.981 113.326 252.867 110.944C253.759 110.317 254.534 109.534 255.154 108.633C254.327 108.997 253.453 109.238 252.559 109.349C253.501 108.775 254.208 107.877 254.548 106.819C253.663 107.366 252.693 107.756 251.678 107.974C250.983 107.279 250.086 106.827 249.118 106.685C248.151 106.543 247.163 106.718 246.301 107.184C245.439 107.651 244.748 108.385 244.329 109.277C243.91 110.17 243.785 111.176 243.972 112.146C242.175 112.054 240.417 111.582 238.812 110.76C237.207 109.937 235.791 108.784 234.655 107.373C234.088 108.383 233.918 109.571 234.179 110.701C234.44 111.832 235.111 112.822 236.061 113.474C235.339 113.451 234.633 113.253 234.003 112.897C233.998 113.959 234.356 114.991 235.016 115.818C235.677 116.645 236.599 117.217 237.627 117.438C236.963 117.616 236.268 117.643 235.592 117.519C235.879 118.426 236.441 119.22 237.197 119.788C237.954 120.356 238.868 120.669 239.811 120.685C238.865 121.422 237.784 121.962 236.63 122.273C235.476 122.585 234.272 122.661 233.088 122.499Z" fill="#21BA95"/>
<path d="M484.682 339.951C496.224 339.951 505.581 330.494 505.581 318.828C505.581 307.163 496.224 297.706 484.682 297.706C473.139 297.706 463.782 307.163 463.782 318.828C463.782 330.494 473.139 339.951 484.682 339.951Z" fill="#263238"/>
<path d="M498.081 317.257C498.287 317.241 498.493 317.241 498.699 317.257C499.316 317.257 499.908 317.009 500.344 316.568C500.78 316.127 501.025 315.529 501.025 314.905C501.025 314.282 500.78 313.684 500.344 313.243C499.908 312.802 499.316 312.554 498.699 312.554H489.884C489.884 312.554 490.421 309.342 490.421 308.244C490.421 307.146 490.97 305.482 489.518 303.368C488.066 301.253 484.705 302.085 484.705 302.085L485.208 306.453C485.288 307.138 485.161 307.831 484.842 308.44L480.886 315.951L479.068 317.523L478.52 326.766C479.663 329.609 483.424 330.533 483.424 330.533H495.349C495.977 330.549 496.587 330.317 497.048 329.885C497.51 329.453 497.786 328.857 497.818 328.222C497.814 327.821 497.706 327.428 497.506 327.081C497.305 326.735 497.019 326.447 496.675 326.246C496.827 326.264 496.981 326.264 497.132 326.246C497.762 326.265 498.373 326.034 498.835 325.601C499.297 325.169 499.572 324.571 499.602 323.936C499.594 323.538 499.484 323.15 499.284 322.808C499.084 322.465 498.799 322.181 498.459 321.983C499.016 321.906 499.528 321.631 499.903 321.208C500.278 320.784 500.491 320.24 500.505 319.672C500.504 319.352 500.44 319.036 500.317 318.741C500.194 318.447 500.015 318.18 499.79 317.955C499.565 317.731 499.298 317.554 499.005 317.434C498.711 317.314 498.398 317.254 498.081 317.257Z" fill="white"/>
<path d="M495.326 330.881H483.321C483.161 330.881 479.4 329.875 478.165 326.894C478.154 326.841 478.154 326.786 478.165 326.732L478.714 317.488C478.714 317.438 478.726 317.387 478.747 317.341C478.769 317.295 478.801 317.255 478.84 317.223L480.6 315.709L484.533 308.256C484.819 307.711 484.935 307.09 484.865 306.477L484.35 302.12C484.339 302.031 484.361 301.94 484.412 301.866C484.462 301.791 484.538 301.738 484.625 301.716C484.773 301.716 488.249 300.861 489.827 303.149C490.723 304.425 491.089 306.006 490.844 307.551C490.844 307.794 490.844 308.025 490.844 308.233C490.755 309.554 490.595 310.87 490.364 312.173H498.756H498.882C499.596 312.185 500.278 312.475 500.785 312.984C501.292 313.492 501.585 314.179 501.603 314.9C501.596 315.455 501.421 315.995 501.102 316.447C500.784 316.899 500.336 317.243 499.819 317.431C500.173 317.677 500.462 318.007 500.661 318.391C500.86 318.776 500.964 319.204 500.962 319.638C500.957 320.169 500.797 320.687 500.502 321.126C500.207 321.566 499.791 321.908 499.305 322.11C499.756 322.595 500.01 323.235 500.013 323.901C499.998 324.558 499.753 325.187 499.322 325.678C498.891 326.169 498.301 326.489 497.658 326.582C498.014 327.04 498.207 327.606 498.207 328.188C498.194 328.557 498.109 328.919 497.957 329.254C497.804 329.589 497.588 329.89 497.32 330.14C497.053 330.39 496.739 330.584 496.396 330.712C496.054 330.839 495.69 330.896 495.326 330.881ZM483.47 330.141H495.349C495.888 330.157 496.411 329.957 496.805 329.585C497.199 329.212 497.432 328.698 497.452 328.154C497.448 327.817 497.359 327.488 497.193 327.197C497.027 326.905 496.789 326.662 496.504 326.49C496.431 326.446 496.377 326.378 496.349 326.298C496.322 326.217 496.324 326.13 496.355 326.051C496.383 325.97 496.439 325.903 496.513 325.86C496.586 325.818 496.672 325.804 496.755 325.82H497.155C497.694 325.835 498.218 325.635 498.611 325.263C499.005 324.891 499.238 324.377 499.259 323.832C499.256 323.502 499.169 323.177 499.007 322.89C498.845 322.603 498.613 322.362 498.333 322.191C498.27 322.152 498.221 322.095 498.193 322.026C498.164 321.958 498.157 321.883 498.173 321.81C498.188 321.737 498.224 321.671 498.277 321.619C498.33 321.568 498.397 321.534 498.47 321.521C498.941 321.456 499.375 321.224 499.693 320.866C500.011 320.509 500.193 320.049 500.208 319.568C500.199 319.298 500.138 319.032 500.027 318.786C499.916 318.54 499.759 318.319 499.564 318.134C499.368 317.949 499.139 317.806 498.888 317.711C498.638 317.616 498.371 317.572 498.104 317.581C498.011 317.575 497.924 317.533 497.86 317.465C497.796 317.396 497.761 317.305 497.761 317.211C497.761 316.807 498.093 316.807 498.756 316.807C499.026 316.828 499.297 316.792 499.553 316.702C499.809 316.612 500.043 316.469 500.242 316.283C500.441 316.097 500.599 315.871 500.708 315.62C500.816 315.37 500.872 315.099 500.872 314.825C500.872 314.551 500.816 314.281 500.708 314.03C500.599 313.779 500.441 313.553 500.242 313.367C500.043 313.181 499.809 313.039 499.553 312.948C499.297 312.858 499.026 312.823 498.756 312.843H498.63H489.941C489.887 312.843 489.834 312.832 489.785 312.81C489.736 312.788 489.692 312.756 489.655 312.716C489.623 312.674 489.599 312.626 489.585 312.574C489.572 312.523 489.568 312.469 489.575 312.416C489.83 311.009 490.013 309.59 490.124 308.164C490.124 307.921 490.124 307.678 490.124 307.413C490.237 306.732 490.217 306.036 490.064 305.364C489.911 304.692 489.628 304.057 489.232 303.495C488.18 301.982 485.939 302.167 485.116 302.34L485.585 306.361C485.674 307.122 485.53 307.892 485.173 308.568L481.218 316.079C481.194 316.122 481.163 316.161 481.126 316.194L479.434 317.65L478.897 326.686C479.937 329.09 483.058 330.037 483.47 330.141Z" fill="#263238"/>
<path d="M477.685 314.057H472.975C471.623 314.057 470.528 315.164 470.528 316.529V329.494C470.528 330.86 471.623 331.967 472.975 331.967H477.685C479.036 331.967 480.132 330.86 480.132 329.494V316.529C480.132 315.164 479.036 314.057 477.685 314.057Z" fill="#21BA95" stroke="#263238" stroke-linecap="round" stroke-linejoin="round"/>
<path d="M513.333 109.777C511.199 109.777 509.087 110.202 507.116 111.027C505.145 111.852 503.354 113.062 501.845 114.587C500.336 116.111 499.14 117.921 498.323 119.913C497.507 121.905 497.087 124.041 497.087 126.197C497.087 135.267 513.333 154.992 513.333 154.992C513.333 154.992 529.579 135.267 529.579 126.197C529.579 121.842 527.867 117.666 524.821 114.587C521.774 111.507 517.642 109.777 513.333 109.777ZM513.333 135.36C511.632 135.36 509.97 134.85 508.556 133.895C507.142 132.941 506.04 131.584 505.39 129.996C504.739 128.408 504.569 126.661 504.901 124.975C505.232 123.29 506.051 121.742 507.253 120.526C508.456 119.311 509.988 118.484 511.656 118.148C513.323 117.813 515.052 117.985 516.623 118.643C518.194 119.3 519.537 120.414 520.482 121.843C521.426 123.272 521.93 124.952 521.93 126.671C521.93 127.812 521.708 128.942 521.276 129.996C520.844 131.05 520.211 132.008 519.412 132.815C518.614 133.622 517.666 134.262 516.623 134.698C515.58 135.135 514.462 135.36 513.333 135.36Z" fill="#263238"/>
<path d="M551.256 220.75L551.336 220.693H551.176L525.555 201.223L499.922 220.693H499.762L499.842 220.75L499.762 220.808H499.933L525.783 239.608L551.176 220.808H551.336L551.256 220.75Z" fill="#21BA95" stroke="#263238" stroke-linecap="round" stroke-linejoin="round"/>
<path d="M542.441 203.164H507.845V246.564H542.441V203.164Z" fill="white" stroke="#21BA95" stroke-linecap="round" stroke-linejoin="round"/>
<path d="M532.517 214.972C532.517 220.01 530.231 222.899 527.944 222.899C527.699 222.933 527.449 222.915 527.212 222.844C526.974 222.774 526.754 222.654 526.566 222.491C526.378 222.328 526.226 222.127 526.121 221.9C526.016 221.674 525.959 221.428 525.955 221.177C525.757 221.702 525.401 222.15 524.937 222.459C524.474 222.767 523.926 222.922 523.371 222.899C521.485 222.899 520.833 221.27 521.084 219.017L521.359 216.475C521.576 214.164 522.616 212.719 524.469 212.765C524.967 212.738 525.459 212.892 525.856 213.199C526.252 213.506 526.526 213.947 526.629 214.441L526.812 212.869H528.516L527.761 220.161C527.681 220.738 527.864 221.247 528.493 221.247C530.425 221.247 531.077 217.514 531.054 215.03C531.054 211.494 529.419 209.253 525.646 209.253C520.627 209.253 518.295 213.459 518.295 219.155C518.295 223.546 520.273 226.181 524.652 226.181C526.433 226.257 528.183 225.692 529.591 224.586L529.442 226.342C527.995 227.309 526.282 227.787 524.549 227.706C519.015 227.706 516.603 224.239 516.603 219.051C516.603 213.008 519.472 207.704 525.749 207.704C530.711 207.67 532.517 210.79 532.517 214.972ZM522.994 216.648L522.765 218.959C522.617 220.288 523.017 221.27 524.194 221.27C525.372 221.27 525.978 220.38 526.138 218.959L526.389 216.521C526.515 215.365 526.035 214.499 524.926 214.499C523.817 214.499 523.142 215.284 522.994 216.648Z" fill="#263238"/>
<path d="M499.762 220.692V250.908H551.336V220.692L525.555 235.795L499.762 220.692Z" fill="#21BA95" stroke="#263238" stroke-linecap="round" stroke-linejoin="round"/>
<path d="M499.762 250.908L525.555 235.794L551.336 250.908" stroke="#263238" stroke-linecap="round" stroke-linejoin="round"/>
<path d="M362.441 53.2388H307.688V91.6126H362.441V53.2388Z" fill="#263238" stroke="#263238" stroke-linecap="round" stroke-linejoin="round"/>
<path d="M337.97 84.7565C344.716 83.1386 348.887 76.3002 347.286 69.4826C345.685 62.6649 338.919 58.4497 332.173 60.0676C325.427 61.6855 321.257 68.5239 322.858 75.3415C324.458 82.1592 331.225 86.3744 337.97 84.7565Z" fill="#21BA95"/>
<path d="M344.171 72.6626L328.828 63.7075V81.6176L344.171 72.6626Z" fill="#263238" stroke="#263238" stroke-linecap="round" stroke-linejoin="round"/>
<path d="M308.9 87.7646H360.954" stroke="white" stroke-linecap="round" stroke-linejoin="round"/>
<path d="M249.517 225.788C249.983 223.232 249.693 220.594 248.684 218.204C247.675 215.813 245.991 213.776 243.844 212.346C241.696 210.916 239.18 210.158 236.608 210.165C234.037 210.171 231.524 210.944 229.384 212.385C227.849 208.536 225.034 205.348 221.424 203.371C217.815 201.393 213.636 200.749 209.607 201.549C205.578 202.35 201.951 204.545 199.351 207.756C196.75 210.967 195.339 214.995 195.36 219.144C195.36 219.364 195.36 219.583 195.36 219.791C192.843 220.541 190.656 222.139 189.162 224.319C187.669 226.5 186.958 229.131 187.149 231.775C187.34 234.42 188.421 236.919 190.212 238.857C192.003 240.795 194.397 242.055 196.994 242.427V242.555H248.957C251.142 242.595 253.255 241.765 254.839 240.244C256.424 238.724 257.353 236.634 257.427 234.427C257.5 232.22 256.712 230.072 255.232 228.447C253.753 226.822 251.7 225.851 249.517 225.742V225.788Z" fill="white" stroke="#21BA95" stroke-linecap="round" stroke-linejoin="round"/>
<path d="M234.7 237.216L220.295 218.901L205.901 237.216H211.526V253.705H229.064V237.216H234.7Z" fill="#263238"/>
<path d="M341.255 446.441C339.47 447.849 337.764 449.358 336.145 450.959C333.858 453.27 327.273 455.916 323.306 458.747C319.338 461.578 321.671 464.409 325.169 465.587C328.668 466.766 338.717 465.819 342.444 465.114C346.172 464.409 348.058 459.925 351.088 459.221C354.118 458.516 359.731 461.104 359.96 456.621C360.188 452.137 360.429 447.654 360.429 447.654L341.255 446.441Z" fill="white" stroke="#263238" stroke-linecap="round" stroke-linejoin="round"/>
<path d="M359.994 456.621C359.994 455.708 360.085 454.806 360.131 453.928C357.593 455.777 354.415 455.696 350.185 456.621C344.822 457.776 342.947 462.987 332.212 463.461C325.261 463.761 322.437 462.49 321.293 461.554C321.099 463.299 322.894 464.801 325.204 465.587C328.713 466.743 338.752 465.818 342.479 465.113C346.206 464.409 348.092 459.925 351.122 459.22C354.152 458.516 359.731 461.104 359.994 456.621Z" fill="white" stroke="#263238" stroke-linecap="round" stroke-linejoin="round"/>
<path d="M343.382 445.528C343.382 445.528 338.008 452.137 336.145 454.263C334.281 456.389 339.643 455.673 341.987 453.547C344.166 451.33 346.194 448.968 348.058 446.475L343.382 445.528Z" fill="white" stroke="#263238" stroke-linecap="round" stroke-linejoin="round"/>
<path d="M416.976 446.441C418.761 447.849 420.468 449.358 422.086 450.959C424.373 453.27 430.958 455.916 434.926 458.747C438.893 461.578 436.561 464.409 433.062 465.587C429.564 466.766 419.514 465.819 415.787 465.114C412.06 464.409 410.173 459.925 407.144 459.221C404.114 458.516 398.5 461.104 398.272 456.621C398.043 452.137 397.803 447.654 397.803 447.654L416.976 446.441Z" fill="white" stroke="#263238" stroke-linecap="round" stroke-linejoin="round"/>
<path d="M398.272 456.621C398.272 455.708 398.18 454.806 398.134 453.928C400.672 455.777 403.851 455.696 408.081 456.621C413.443 457.776 415.318 462.987 426.054 463.461C433.005 463.761 435.829 462.49 436.972 461.554C437.166 463.299 435.371 464.801 433.062 465.587C429.552 466.743 419.514 465.818 415.787 465.113C412.06 464.409 410.173 459.925 407.143 459.22C404.114 458.516 398.5 461.104 398.272 456.621Z" fill="white" stroke="#263238" stroke-linecap="round" stroke-linejoin="round"/>
<path d="M414.872 445.528C414.872 445.528 420.246 452.137 422.109 454.263C423.973 456.389 418.611 455.673 416.267 453.547C414.088 451.33 412.06 448.968 410.196 446.475L414.872 445.528Z" fill="white" stroke="#263238" stroke-linecap="round" stroke-linejoin="round"/>
<path d="M344.171 277.855C344.171 277.855 341.256 304.431 341.256 308.672C341.256 312.912 341.256 367.012 341.907 376.58C342.559 386.147 339.301 390.076 341.256 402.266C343.211 414.457 343.862 435.891 343.862 435.891C343.862 435.891 341.256 437.543 341.256 439.196V446.441L360.897 448.602C360.897 448.602 362.132 431.616 362.452 426.335C362.772 421.055 367.677 387.788 368.98 378.221C370.284 368.653 375.429 314.23 375.429 314.23C375.429 314.23 383.98 374.604 384.632 376.626C386.454 381.351 387.981 386.186 389.205 391.104C392.132 401.989 394.75 439.566 394.75 439.566L397.551 450.057L417.628 446.279C417.628 446.279 414.644 429.351 414.644 426.717C414.644 424.082 413.992 425.064 413.34 418.466C412.139 406.208 411.81 393.878 412.357 381.572C413.009 362.448 404.205 311.687 404.205 311.687L401.599 277.728C401.599 277.728 369.266 285.284 344.171 277.855Z" fill="#263238" stroke="#263238" stroke-linecap="round" stroke-linejoin="round"/>
<path d="M383.375 305.979L378.093 315.894C378.093 315.894 389.411 309.03 396.58 307.886" stroke="white" stroke-linecap="round" stroke-linejoin="round"/>
<path d="M365.905 312.392C365.905 312.392 360.989 304.373 352.311 302.085" stroke="white" stroke-linecap="round" stroke-linejoin="round"/>
<path d="M343.199 280.65C343.199 280.65 339.769 289.259 341.495 291.847C343.222 294.435 358.976 300.895 374.742 300.895C390.508 300.895 405.874 295.29 405.874 291.419C405.874 287.549 402.89 278.062 402.89 278.062C402.89 278.062 377.303 290.125 343.199 280.65Z" fill="#21BA95" stroke="#263238" stroke-linecap="round" stroke-linejoin="round"/>
<path d="M348.401 198.611C348.401 198.611 336.968 198.611 334.361 200.749C331.755 202.887 331.457 211.726 331.183 213.332C330.909 214.939 324.883 243.687 324.883 243.687L337.608 261.378L342.319 238.776L342.776 282.685C342.776 282.685 343.633 287.007 346.549 288.613C349.464 290.219 369.861 291.825 379.396 291.825C388.931 291.825 402.673 286.995 403.737 284.048C404.8 281.102 401.656 248.205 401.656 248.205L406.172 258.362L417.01 239.597C417.01 239.597 409.602 214.731 408.538 209.381C407.475 204.031 404.571 202.448 398.74 200.01C392.91 197.572 375.692 198.403 368.809 198.403C361.926 198.403 348.401 198.611 348.401 198.611Z" fill="#21BA95" stroke="#263238" stroke-linecap="round" stroke-linejoin="round"/>
<path d="M351.294 284.961C353.399 284.708 355.367 283.773 356.904 282.297C358.442 280.82 359.465 278.881 359.823 276.769C361.526 269.015 362.384 264.705 362.384 264.705L365.368 264.278C365.308 268.596 365.022 272.908 364.51 277.196C363.664 284.522 361.08 286.683 359.823 286.683" stroke="#263238" stroke-linecap="round" stroke-linejoin="round"/>
<path d="M398.626 281.078C402.056 272.459 394.361 262.591 394.361 262.591L391.377 262.163C391.377 262.163 399.906 273.371 395.642 281.98" stroke="#263238" stroke-linecap="round" stroke-linejoin="round"/>
<path d="M342.319 238.776L340.455 225.118" stroke="#263238" stroke-linecap="round" stroke-linejoin="round"/>
<path d="M401.656 248.147L400.592 223.246" stroke="#263238" stroke-linecap="round" stroke-linejoin="round"/>
<path d="M403.839 249.638C403.839 249.638 400.535 243.444 411.385 238.198" stroke="#263238" stroke-linecap="round" stroke-linejoin="round"/>
<path d="M405.726 236.765C405.726 236.765 411.442 234.339 415.158 234.339" stroke="#263238" stroke-linecap="round" stroke-linejoin="round"/>
<path d="M329.297 238.198C329.297 238.198 338.26 241.064 340.146 248.216" stroke="#263238" stroke-linecap="round" stroke-linejoin="round"/>
<path d="M339.678 241.538C339.678 241.538 336.374 235.818 331.183 234.859" stroke="#263238" stroke-linecap="round" stroke-linejoin="round"/>
<path d="M364.91 186.583C364.91 186.583 358.896 186.583 357.124 187.935C355.352 189.287 354.449 192.88 353.557 193.551C352.666 194.221 348.664 194.001 347.772 196.474C346.88 198.947 346.88 198.277 353.786 204.805C360.691 211.334 377.795 218.752 379.602 218.752C381.408 218.752 392.955 205.256 396.294 203.73C399.632 202.205 400.078 202.159 400.295 201.258C400.512 200.356 400.078 195.862 397.174 194.059C395.106 192.897 392.842 192.137 390.497 191.817C390.497 191.817 390.063 189.114 386.496 187.091C382.929 185.069 378.035 184.619 374.48 184.619C370.924 184.619 364.91 186.583 364.91 186.583Z" fill="#21BA95" stroke="#263238" stroke-linecap="round" stroke-linejoin="round"/>
<path d="M390.497 191.759C390.198 195.09 389.447 198.364 388.268 201.489" stroke="#263238" stroke-linecap="round" stroke-linejoin="round"/>
<path d="M354.781 196.716C354.781 196.716 355.718 199.582 360.909 202.436" stroke="#263238" stroke-linecap="round" stroke-linejoin="round"/>
<path d="M375.428 215.481L375.96 244.935" stroke="white" stroke-linecap="round" stroke-linejoin="round"/>
<path d="M381.785 215.747L384.438 243.051" stroke="white" stroke-linecap="round" stroke-linejoin="round"/>
<path d="M316.93 195.825L306.345 199.505C305.432 199.822 304.946 200.828 305.26 201.751L313.076 224.719C313.391 225.643 314.386 226.134 315.299 225.816L325.884 222.137C326.797 221.819 327.283 220.813 326.969 219.89L319.153 196.922C318.839 195.999 317.843 195.508 316.93 195.825Z" fill="#263238" stroke="#263238" stroke-linecap="round" stroke-linejoin="round"/>
<path d="M316.194 234.57C315.268 233.634 306.762 213.159 305.996 211.287C305.23 209.415 314.651 202.84 314.651 202.84C314.651 202.84 317.132 201.28 317.132 202.69C317.132 204.1 312.33 208.317 311.713 209.415C311.095 210.513 313.108 213.944 313.108 213.944C313.108 213.944 319.133 210.663 319.601 210.663C320.07 210.663 326.713 216.44 327.33 217.064C327.947 217.688 329.617 219.572 329.194 220.531C328.771 221.49 327.639 221.004 326.907 220.843C326.175 220.681 319.327 223.154 319.327 223.154C319.327 223.154 321.957 226.909 321.614 229.093C321.411 230.471 321.102 231.831 320.688 233.16C320.688 233.16 335.367 251.382 337.22 252.48C339.072 253.578 340.124 257.576 338.889 261.793C337.654 266.011 334.75 265.757 330.886 265.606C327.021 265.456 316.194 234.57 316.194 234.57Z" fill="white" stroke="#263238" stroke-linecap="round" stroke-linejoin="round"/>
<path d="M322.071 213.633C320.97 213.598 319.872 213.755 318.824 214.095C318.207 214.568 313.576 217.688 313.576 217.688" stroke="#263238" stroke-linecap="round" stroke-linejoin="round"/>
<path d="M315.268 220.346C316.952 219.086 318.708 217.929 320.527 216.879C322.477 216.642 324.44 216.538 326.404 216.567" stroke="#263238" stroke-linecap="round" stroke-linejoin="round"/>
<path d="M327.799 217.85C327.799 217.85 320.939 219.26 320.07 219.572C318.827 220.318 317.676 221.21 316.64 222.229" stroke="#263238" stroke-linecap="round" stroke-linejoin="round"/>
<path d="M313.107 213.944L311.095 215.192" stroke="#263238" stroke-linecap="round" stroke-linejoin="round"/>
<path d="M416.187 240.844L441.66 220.38C441.66 220.38 440.516 213.02 440.745 211.876C440.974 210.732 443.032 204.065 448.028 201.534C453.024 199.004 454.625 198.542 454.625 200.379C454.625 202.216 452.795 202.69 452.338 203.372C451.881 204.053 449.377 206.584 449.377 206.584C449.377 206.584 454.156 204.516 455.745 204.516C457.334 204.516 460.067 203.834 460.067 205.44C460.067 207.046 458.249 207.046 457.106 207.046C455.962 207.046 452.784 210.27 452.784 210.27C455.423 209.594 458.094 209.054 460.787 208.652C462.147 208.652 463.291 210.27 462.147 210.963C461.14 211.48 460.072 211.868 458.969 212.119C457.953 212.597 456.964 213.134 456.008 213.725C456.008 213.725 462.868 213.031 462.376 214.88C461.885 216.729 458.74 216.255 458.054 216.255C456.565 216.613 455.217 217.419 454.19 218.566C453.733 219.479 452.818 223.396 451 224.344C449.183 225.291 445.775 226.655 445.775 226.655C445.775 226.655 434.171 240.913 429.392 246.425C424.613 251.937 416.015 258.304 411.179 259.459C406.343 260.615 405.463 259.228 405.269 257.148C405.074 255.068 405.246 247.731 416.187 240.844Z" fill="white" stroke="#263238" stroke-linecap="round" stroke-linejoin="round"/>
<path d="M441.888 208.918C441.888 208.918 447.342 206.399 448.474 206.399C449.606 206.399 451.435 207.312 450.074 208.918C448.549 210.401 446.87 211.714 445.067 212.835C445.067 212.835 451.663 215.585 448.497 220.646" stroke="#263238" stroke-linecap="round" stroke-linejoin="round"/>
<path d="M377.624 147.088C377.624 147.088 370.489 148.347 367.197 152.415C363.904 156.482 353.066 181.082 353.134 183.289C353.203 185.496 364.144 184.376 364.144 184.376C364.144 184.376 365.287 196.693 369.14 205.706C370.204 208.156 373.988 213.009 378.047 211.195C382.105 209.38 383.866 181.29 383.866 181.29C383.866 181.29 387.73 186.825 390.657 185.346C393.996 183.648 393.39 179.569 391 179.268C388.611 178.968 398.66 170.024 396.179 163.161C393.698 156.297 380.711 145.193 377.624 147.088Z" fill="white" stroke="#263238" stroke-linecap="round" stroke-linejoin="round"/>
<path d="M375.737 139.08C375.737 139.08 362.281 137.763 360.966 144.211C359.651 150.658 366.294 154.263 374.068 153.801C381.842 153.339 388.748 154.518 389.594 155.823C390.44 157.129 379.899 158.539 382.128 160.445C383.427 161.587 385.063 162.261 386.781 162.363C386.781 162.363 383.352 162.999 383.352 165.448C383.352 167.898 384.415 178.794 386.095 178.956C387.776 179.118 390.977 179.222 390.977 179.222C394.152 177.972 397.099 176.199 399.701 173.976C403.668 170.452 405.417 162.317 401.336 157.025C397.254 151.733 394.11 146.706 390.886 142.489C387.662 138.271 384.712 133.811 377.624 132.089C370.535 130.368 366.396 133.037 375.737 139.08Z" fill="#263238" stroke="#263238" stroke-linecap="round" stroke-linejoin="round"/>
<path d="M401.293 166.835C401.405 168.277 401.316 169.728 401.027 171.145" stroke="white" stroke-linecap="round" stroke-linejoin="round"/>
<path d="M378.344 147.065C378.344 147.065 363.481 147.065 368.786 150.439C374.091 153.813 383.089 149.353 393.378 154.691C395.12 155.528 396.668 156.725 397.925 158.203C399.181 159.682 400.117 161.41 400.672 163.276" stroke="white" stroke-linecap="round" stroke-linejoin="round"/>
<path d="M386.187 159.232C386.187 159.232 395.745 165.183 396.385 172.532" stroke="white" stroke-linecap="round" stroke-linejoin="round"/>
<path d="M364.11 184.375C364.11 184.375 375.68 184.78 379.053 182.422" stroke="#263238" stroke-linecap="round" stroke-linejoin="round"/>
<path d="M361.458 174.334C361.458 174.334 369.609 177.581 372.49 172.74" stroke="#263238" stroke-linecap="round" stroke-linejoin="round"/>
<path d="M371.141 171.63L374.594 173.433" stroke="#263238" stroke-linecap="round" stroke-linejoin="round"/>
<path d="M365.162 163.461C365.162 163.461 357.639 163.693 357.524 164.906C357.41 166.119 361.869 169.978 361.869 169.978" fill="white"/>
<path d="M365.162 163.461C365.162 163.461 357.639 163.693 357.524 164.906C357.41 166.119 361.869 169.978 361.869 169.978" stroke="#263238" stroke-linecap="round" stroke-linejoin="round"/>
<path d="M366.328 161.231C365.882 162.236 365.116 162.883 364.613 162.652C364.11 162.421 364.064 161.427 364.522 160.411C364.979 159.394 365.733 158.758 366.237 158.989C366.74 159.22 366.774 160.214 366.328 161.231Z" fill="#263238"/>
<path d="M372.319 165.079C371.873 166.096 371.095 166.731 370.604 166.5C370.112 166.269 370.055 165.276 370.501 164.259C370.947 163.242 371.713 162.606 372.216 162.837C372.719 163.069 372.765 164.062 372.319 165.079Z" fill="#263238"/>
<path d="M373.325 158.238C373.325 158.238 376.926 158.92 376.114 163.889L373.325 158.238Z" fill="#263238" stroke="#263238" stroke-linecap="round" stroke-linejoin="round"/>
<path d="M370.284 155.58C370.284 155.58 368.557 152.715 365.562 156.123L370.284 155.58Z" fill="#263238" stroke="#263238" stroke-linecap="round" stroke-linejoin="round"/>
<path d="M309.746 193.481L309.563 185.254C310.64 185.251 311.672 184.818 312.434 184.05C313.196 183.281 313.627 182.24 313.633 181.152V158.77C313.63 157.68 313.201 156.635 312.438 155.864C311.675 155.094 310.642 154.659 309.563 154.656H258.492C257.416 154.662 256.385 155.098 255.625 155.869C254.865 156.639 254.437 157.682 254.434 158.77V181.186C254.437 182.273 254.865 183.315 255.626 184.083C256.386 184.852 257.417 185.285 258.492 185.288H302.658L309.746 193.481Z" fill="#263238"/>
<path d="M271.411 169.042C271.414 168.543 271.269 168.055 270.997 167.639C270.724 167.223 270.336 166.899 269.881 166.706C269.426 166.514 268.924 166.462 268.44 166.558C267.956 166.654 267.51 166.893 267.161 167.245C266.811 167.597 266.572 168.046 266.475 168.535C266.378 169.023 266.427 169.531 266.615 169.991C266.804 170.452 267.123 170.847 267.533 171.124C267.943 171.401 268.426 171.549 268.919 171.549C269.578 171.549 270.21 171.285 270.677 170.815C271.144 170.346 271.408 169.708 271.411 169.042Z" fill="#21BA95"/>
<path d="M286.091 169.042C286.094 168.543 285.949 168.054 285.676 167.638C285.403 167.222 285.014 166.897 284.558 166.705C284.102 166.513 283.6 166.462 283.116 166.559C282.631 166.656 282.186 166.896 281.837 167.249C281.487 167.602 281.25 168.052 281.154 168.542C281.058 169.031 281.108 169.539 281.298 169.999C281.489 170.46 281.81 170.854 282.221 171.129C282.633 171.405 283.116 171.551 283.61 171.549C284.268 171.549 284.899 171.285 285.365 170.815C285.83 170.345 286.091 169.707 286.091 169.042Z" fill="#21BA95"/>
<path d="M300.783 169.042C300.785 168.543 300.641 168.055 300.368 167.639C300.096 167.223 299.707 166.899 299.252 166.706C298.797 166.514 298.295 166.462 297.811 166.558C297.327 166.654 296.882 166.893 296.532 167.245C296.182 167.597 295.944 168.046 295.847 168.535C295.75 169.023 295.798 169.531 295.987 169.991C296.175 170.452 296.494 170.847 296.905 171.124C297.315 171.401 297.797 171.549 298.29 171.549C298.949 171.549 299.582 171.285 300.049 170.815C300.516 170.346 300.78 169.708 300.783 169.042Z" fill="#21BA95"/>
</svg>
