<svg width="750" height="500" viewBox="0 0 750 500" fill="none" xmlns="http://www.w3.org/2000/svg">
<path d="M661 402.128H89V402.414H661V402.128Z" fill="#E6E6E6"/>
<path d="M198.835 412.207H160.237V412.493H198.835V412.207Z" fill="#E6E6E6"/>
<path d="M230.135 412.058H207.232V412.344H230.135V412.058Z" fill="#E6E6E6"/>
<path d="M339.936 419.563H231.497V419.849H339.936V419.563Z" fill="#E6E6E6"/>
<path d="M456.373 409.645H379.176V409.931H456.373V409.645Z" fill="#E6E6E6"/>
<path d="M562.239 412.184H493.404V412.47H562.239V412.184Z" fill="#E6E6E6"/>
<path d="M360.128 351.106H139.233C137.503 351.103 135.844 350.413 134.621 349.188C133.399 347.964 132.712 346.304 132.712 344.573V34.0576C132.727 32.337 133.421 30.6919 134.642 29.4795C135.862 28.2672 137.512 27.5855 139.233 27.5825H360.128C361.86 27.5825 363.522 28.2707 364.747 29.4958C365.972 30.7208 366.66 32.3823 366.66 34.1148V344.573C366.66 346.306 365.972 347.967 364.747 349.193C363.522 350.418 361.86 351.106 360.128 351.106ZM139.233 27.8113C137.578 27.8144 135.993 28.4738 134.824 29.6448C133.655 30.8159 132.998 32.4029 132.998 34.0576V344.573C132.998 346.228 133.655 347.815 134.824 348.986C135.993 350.157 137.578 350.817 139.233 350.82H360.128C361.784 350.817 363.371 350.158 364.541 348.987C365.712 347.816 366.371 346.229 366.374 344.573V34.0576C366.371 32.4019 365.712 30.8149 364.541 29.6441C363.371 28.4734 361.784 27.8143 360.128 27.8113H139.233Z" fill="#E6E6E6"/>
<path d="M607.587 351.106H386.68C384.949 351.103 383.289 350.414 382.065 349.189C380.84 347.965 380.151 346.305 380.148 344.573V34.0576C380.166 32.336 380.862 30.6909 382.085 29.4788C383.307 28.2668 384.959 27.5854 386.68 27.5825H607.587C609.305 27.5885 610.952 28.2715 612.171 29.4835C613.389 30.6956 614.081 32.339 614.096 34.0576V344.573C614.096 346.302 613.411 347.96 612.191 349.184C610.971 350.409 609.315 351.1 607.587 351.106ZM386.68 27.8113C385.025 27.8143 383.438 28.4734 382.267 29.6441C381.096 30.8149 380.437 32.4019 380.434 34.0576V344.573C380.437 346.229 381.096 347.816 382.267 348.987C383.438 350.158 385.025 350.817 386.68 350.82H607.587C609.242 350.817 610.829 350.158 612 348.987C613.171 347.816 613.83 346.229 613.833 344.573V34.0576C613.83 32.4019 613.171 30.8149 612 29.6441C610.829 28.4734 609.242 27.8143 607.587 27.8113H386.68Z" fill="#E6E6E6"/>
<path d="M401.85 328.454C381.544 296.983 383.843 389.739 346.537 348.52C300.697 297.887 234.929 280.91 263.677 319.669C292.426 358.427 275.323 371.846 202.759 328.454C150.135 296.983 247.181 391.374 220.606 387.748C194.031 384.121 153.716 375.358 188.093 402.037L411.105 402.128C411.105 402.128 422.156 359.892 401.85 328.454Z" fill="#F5F5F5"/>
<path d="M500.279 402.128H450.664C424.81 384.316 410.418 336.611 446.786 284.765C453.45 275.369 460.996 266.631 469.323 258.67C483.085 331.486 542.39 380.529 500.279 402.128Z" fill="#EBEBEB"/>
<path d="M408.679 402.128H458.295C481.323 388.961 488.096 353.703 443.48 315.379C435.088 308.273 426.162 301.824 416.779 296.091C414.617 349.916 363.137 386.158 408.679 402.128Z" fill="#EBEBEB"/>
<path d="M536.029 402.128H494.994C475.947 391.237 470.341 362.088 507.246 330.376C514.184 324.496 521.566 319.161 529.326 314.417C531.11 358.942 573.701 388.915 536.029 402.128Z" fill="#EBEBEB"/>
<path d="M506.56 402.128C506.56 402.128 507.704 388.515 520.151 381.536C517.052 387.936 515.676 395.034 516.158 402.128H506.56Z" fill="#F5F5F5"/>
<path d="M439.441 402.128C439.441 402.128 438.297 388.515 425.851 381.536C428.95 387.936 430.326 395.034 429.843 402.128H439.441Z" fill="#F5F5F5"/>
<path d="M269.111 402.128C269.111 402.128 267.967 388.515 255.521 381.536C258.62 387.936 259.996 395.034 259.513 402.128H269.111Z" fill="#EBEBEB"/>
<path d="M161.369 402.128C161.369 402.128 157.365 383.115 138.741 373.322C144.158 382.011 147.331 391.91 147.973 402.128H161.369Z" fill="#FAFAFA"/>
<path d="M590.987 402.128C590.987 402.128 594.145 374.168 571.436 359.8C577.911 380.071 571.287 402.128 571.287 402.128H590.987Z" fill="#EBEBEB"/>
<path d="M578.369 402.128C578.369 402.128 584.775 379.248 607.964 367.534C600.772 377.825 596.144 389.686 594.465 402.128H578.369Z" fill="#EBEBEB"/>
<path d="M499.353 402.128C499.353 402.128 500.188 379.248 515.369 370.977C508.596 382.703 508.985 402.128 508.985 402.128H499.353Z" fill="#F5F5F5"/>
<path d="M344.936 402.128C345.231 399.827 346.048 397.624 347.325 395.687C348.602 393.749 350.305 392.13 352.303 390.951C350.62 394.424 349.874 398.278 350.141 402.128H344.936Z" fill="#EBEBEB"/>
<path d="M344.741 402.128C344.446 399.827 343.629 397.624 342.352 395.687C341.075 393.749 339.372 392.13 337.374 390.951C339.057 394.424 339.803 398.278 339.536 402.128H344.741Z" fill="#EBEBEB"/>
<path d="M341.057 402.128C341.057 402.128 341.515 389.738 349.729 385.231C346.057 391.592 346.297 402.128 346.297 402.128H341.057Z" fill="#EBEBEB"/>
<path d="M204.018 402.128C204.018 402.128 204.99 392.244 192.578 385.231C197.68 395.104 194.443 402.128 194.443 402.128H204.018Z" fill="#EBEBEB"/>
<path d="M204.372 402.128C204.372 402.128 205.516 388.515 217.963 381.536C214.864 387.936 213.488 395.034 213.971 402.128H204.372Z" fill="#EBEBEB"/>
<path d="M211.168 402.128C211.168 402.128 210.333 379.248 195.152 370.977C201.924 382.703 201.535 402.128 201.535 402.128H211.168Z" fill="#EBEBEB"/>
<path d="M150.238 177.355C154.368 172.139 162.685 168.1 168.828 168.352C169.737 168.321 170.643 168.471 171.493 168.793C172.344 169.115 173.122 169.603 173.782 170.228C185.005 163.73 197.92 159.726 208.582 160.172C214.005 160.39 218.226 161.728 221.166 163.913C233.213 154.098 248.622 147.142 259.719 147.142C266.045 147.142 270.015 149.43 271.388 153.148C283.755 146.57 296.453 142.521 306.703 142.521C323.028 142.521 328.336 152.817 321.655 167.242C324.332 169.954 337.214 173.763 336.687 178.316H149.518C149.746 177.996 149.975 177.687 150.238 177.355Z" fill="#F5F5F5"/>
<path d="M333.816 87.139C336.848 87.2877 338.964 88.3974 340.131 90.1934C355.415 79.6 372.655 73.1021 386.532 73.8228C393.624 74.166 399.013 76.3625 402.605 79.9203C419.216 63.9043 439.933 52.6588 454.519 52.6588C462.813 52.6588 467.755 56.3196 469.22 62.4286C485.991 51.6864 502.968 45.1084 516.375 45.1084C532.986 45.1084 540.331 55.2214 538.043 70.7912C546.051 66.2152 553.91 63.5954 560.317 63.5954C569.194 63.5954 573.347 68.7206 572.626 76.74C573.39 76.7363 574.155 76.7783 574.914 76.8658C588.459 78.1929 593.653 88.569 587.143 100.409H309.655C315.729 92.5958 326.197 86.75 333.816 87.139Z" fill="#F5F5F5"/>
<path d="M473.315 191.174C473.91 191.151 474.501 191.273 475.037 191.53C475.574 191.788 476.039 192.172 476.393 192.65C483.852 187.491 492.249 184.322 499.021 184.642C501.912 184.623 504.707 185.684 506.857 187.617C514.957 179.837 525.058 174.323 532.163 174.323C536.213 174.323 538.615 176.108 539.336 179.082C547.515 173.854 555.786 170.64 562.319 170.64C570.43 170.64 573.999 175.57 572.889 183.224C576.79 181.016 580.623 179.712 583.746 179.712C588.07 179.712 590.106 182.205 589.752 186.118C590.129 186.118 590.507 186.118 590.896 186.118C597.497 186.77 600.048 191.838 596.845 197.558H461.555C464.518 193.817 469.62 190.969 473.315 191.174Z" fill="#F5F5F5"/>
<path d="M375 453.791C497.502 453.791 596.81 447.993 596.81 440.841C596.81 433.689 497.502 427.891 375 427.891C252.498 427.891 153.19 433.689 153.19 440.841C153.19 447.993 252.498 453.791 375 453.791Z" fill="#F5F5F5"/>
<path d="M258.246 93.7445C262.776 89.2144 262.776 81.8696 258.246 77.3394C253.716 72.8093 246.371 72.8093 241.841 77.3394C237.311 81.8696 237.311 89.2144 241.841 93.7445C246.371 98.2747 253.716 98.2747 258.246 93.7445Z" fill="#21BA95"/>
<path opacity="0.1" d="M258.246 93.7445C262.776 89.2144 262.776 81.8696 258.246 77.3394C253.716 72.8093 246.371 72.8093 241.841 77.3394C237.311 81.8696 237.311 89.2144 241.841 93.7445C246.371 98.2747 253.716 98.2747 258.246 93.7445Z" fill="white"/>
<path d="M270.858 261.455C277.083 259.939 280.9 253.664 279.383 247.439C277.867 241.214 271.592 237.398 265.367 238.914C259.143 240.43 255.326 246.705 256.842 252.93C258.358 259.154 264.634 262.971 270.858 261.455Z" fill="#21BA95"/>
<path opacity="0.2" d="M270.858 261.455C277.083 259.939 280.9 253.664 279.383 247.439C277.867 241.214 271.592 237.398 265.367 238.914C259.143 240.43 255.326 246.705 256.842 252.93C258.358 259.154 264.634 262.971 270.858 261.455Z" fill="#21BA95"/>
<g opacity="0.1">
<path d="M270.858 261.455C277.083 259.939 280.9 253.664 279.383 247.44C277.867 241.215 271.592 237.398 265.367 238.914C259.143 240.431 255.326 246.706 256.842 252.93C258.358 259.155 264.634 262.972 270.858 261.455Z" fill="white"/>
<path opacity="0.2" d="M270.858 261.455C277.083 259.939 280.9 253.664 279.383 247.44C277.867 241.215 271.592 237.398 265.367 238.914C259.143 240.431 255.326 246.706 256.842 252.93C258.358 259.155 264.634 262.972 270.858 261.455Z" fill="white"/>
</g>
<path d="M446.223 95.7955C451.883 90.1351 451.883 80.9577 446.223 75.2972C440.562 69.6368 431.385 69.6368 425.724 75.2973C420.064 80.9577 420.064 90.1351 425.724 95.7955C431.385 101.456 440.562 101.456 446.223 95.7955Z" fill="#21BA95"/>
<path opacity="0.2" d="M446.223 95.7955C451.883 90.1351 451.883 80.9577 446.223 75.2972C440.562 69.6368 431.385 69.6368 425.724 75.2973C420.064 80.9577 420.064 90.1351 425.724 95.7955C431.385 101.456 440.562 101.456 446.223 95.7955Z" fill="#21BA95"/>
<g opacity="0.1">
<path d="M446.223 95.7951C451.883 90.1346 451.883 80.9572 446.223 75.2968C440.562 69.6363 431.385 69.6363 425.724 75.2968C420.064 80.9572 420.064 90.1346 425.724 95.795C431.385 101.455 440.562 101.456 446.223 95.7951Z" fill="white"/>
<path opacity="0.2" d="M446.223 95.7951C451.883 90.1346 451.883 80.9572 446.223 75.2968C440.562 69.6363 431.385 69.6363 425.724 75.2968C420.064 80.9572 420.064 90.1346 425.724 95.795C431.385 101.455 440.562 101.456 446.223 95.7951Z" fill="white"/>
</g>
<path d="M497.625 100.032C504.834 100.032 510.678 94.1878 510.678 86.9788C510.678 79.7698 504.834 73.9258 497.625 73.9258C490.416 73.9258 484.572 79.7698 484.572 86.9788C484.572 94.1878 490.416 100.032 497.625 100.032Z" fill="#21BA95"/>
<path opacity="0.2" d="M497.625 100.032C504.834 100.032 510.678 94.1878 510.678 86.9788C510.678 79.7698 504.834 73.9258 497.625 73.9258C490.416 73.9258 484.572 79.7698 484.572 86.9788C484.572 94.1878 490.416 100.032 497.625 100.032Z" fill="#21BA95"/>
<g opacity="0.3">
<path d="M497.625 100.032C504.834 100.032 510.678 94.1878 510.678 86.9788C510.678 79.7698 504.834 73.9258 497.625 73.9258C490.416 73.9258 484.572 79.7698 484.572 86.9788C484.572 94.1878 490.416 100.032 497.625 100.032Z" fill="white"/>
<path opacity="0.2" d="M497.625 100.032C504.834 100.032 510.678 94.1878 510.678 86.9788C510.678 79.7698 504.834 73.9258 497.625 73.9258C490.416 73.9258 484.572 79.7698 484.572 86.9788C484.572 94.1878 490.416 100.032 497.625 100.032Z" fill="white"/>
</g>
<path d="M282.185 140.379C291.437 135.189 294.73 123.482 289.54 114.23C284.35 104.978 272.643 101.685 263.391 106.875C254.139 112.065 250.846 123.772 256.036 133.024C261.226 142.276 272.933 145.569 282.185 140.379Z" fill="#21BA95"/>
<path opacity="0.2" d="M282.185 140.379C291.437 135.189 294.73 123.482 289.54 114.23C284.35 104.978 272.643 101.685 263.391 106.875C254.139 112.065 250.846 123.772 256.036 133.024C261.226 142.276 272.933 145.569 282.185 140.379Z" fill="#21BA95"/>
<g opacity="0.3">
<path d="M282.185 140.379C291.437 135.189 294.73 123.482 289.54 114.23C284.35 104.978 272.643 101.685 263.391 106.875C254.139 112.065 250.846 123.772 256.036 133.024C261.226 142.276 272.933 145.569 282.185 140.379Z" fill="white"/>
<path opacity="0.2" d="M282.185 140.379C291.437 135.189 294.73 123.482 289.54 114.23C284.35 104.978 272.643 101.685 263.391 106.875C254.139 112.065 250.846 123.772 256.036 133.024C261.226 142.276 272.933 145.569 282.185 140.379Z" fill="white"/>
</g>
<path d="M345.005 56.236C346.593 50.0293 342.849 43.7105 336.642 42.1227C330.435 40.5349 324.116 44.2792 322.529 50.4859C320.941 56.6926 324.685 63.0113 330.892 64.5992C337.099 66.187 343.417 62.4427 345.005 56.236Z" fill="#21BA95"/>
<path opacity="0.2" d="M345.005 56.236C346.593 50.0293 342.849 43.7105 336.642 42.1227C330.435 40.5349 324.116 44.2792 322.529 50.4859C320.941 56.6926 324.685 63.0113 330.892 64.5992C337.099 66.187 343.417 62.4427 345.005 56.236Z" fill="#21BA95"/>
<g opacity="0.3">
<path d="M345.005 56.236C346.593 50.0293 342.849 43.7105 336.642 42.1227C330.435 40.5349 324.116 44.2792 322.529 50.4859C320.941 56.6926 324.685 63.0113 330.892 64.5992C337.099 66.187 343.417 62.4427 345.005 56.236Z" fill="white"/>
<path opacity="0.2" d="M345.005 56.236C346.593 50.0293 342.849 43.7105 336.642 42.1227C330.435 40.5349 324.116 44.2792 322.529 50.4859C320.941 56.6926 324.685 63.0113 330.892 64.5992C337.099 66.187 343.417 62.4427 345.005 56.236Z" fill="white"/>
</g>
<path d="M267.169 194.8C274.67 187.299 274.67 175.137 267.169 167.636C259.668 160.135 247.506 160.135 240.005 167.636C232.504 175.137 232.504 187.299 240.005 194.8C247.506 202.301 259.668 202.301 267.169 194.8Z" fill="#21BA95"/>
<path opacity="0.1" d="M267.169 194.8C274.67 187.299 274.67 175.137 267.169 167.636C259.668 160.135 247.506 160.135 240.005 167.636C232.504 175.137 232.504 187.299 240.005 194.8C247.506 202.301 259.668 202.301 267.169 194.8Z" fill="white"/>
<path d="M407.604 69.213C414.011 69.213 419.204 64.0194 419.204 57.6129C419.204 51.2063 414.011 46.0127 407.604 46.0127C401.197 46.0127 396.004 51.2063 396.004 57.6129C396.004 64.0194 401.197 69.213 407.604 69.213Z" fill="#21BA95"/>
<path opacity="0.1" d="M407.604 69.213C414.011 69.213 419.204 64.0194 419.204 57.6129C419.204 51.2063 414.011 46.0127 407.604 46.0127C401.197 46.0127 396.004 51.2063 396.004 57.6129C396.004 64.0194 401.197 69.213 407.604 69.213Z" fill="white"/>
<path d="M391.514 81.389C394.044 71.087 387.744 60.6844 377.442 58.154C367.14 55.6236 356.737 61.9237 354.207 72.2256C351.677 82.5275 357.977 92.9302 368.279 95.4606C378.581 97.991 388.983 91.6909 391.514 81.389Z" fill="#21BA95"/>
<path opacity="0.1" d="M391.514 81.389C394.044 71.087 387.744 60.6844 377.442 58.154C367.14 55.6236 356.737 61.9237 354.207 72.2256C351.677 82.5275 357.977 92.9302 368.279 95.4606C378.581 97.991 388.983 91.6909 391.514 81.389Z" fill="white"/>
<path d="M244.114 244.252C246.535 233.923 240.124 223.588 229.796 221.168C219.468 218.747 209.133 225.158 206.712 235.486C204.292 245.814 210.702 256.149 221.03 258.57C231.359 260.99 241.694 254.58 244.114 244.252Z" fill="#21BA95"/>
<path opacity="0.4" d="M244.114 244.252C246.535 233.923 240.124 223.588 229.796 221.168C219.468 218.747 209.133 225.158 206.712 235.486C204.292 245.814 210.702 256.149 221.03 258.57C231.359 260.99 241.694 254.58 244.114 244.252Z" fill="black"/>
<path d="M477.053 65.9798C478.518 59.743 474.65 53.4993 468.413 52.0342C462.176 50.569 455.932 54.4373 454.467 60.6741C453.002 66.9109 456.87 73.1545 463.107 74.6196C469.344 76.0848 475.588 72.2166 477.053 65.9798Z" fill="#21BA95"/>
<path opacity="0.4" d="M477.053 65.9798C478.518 59.743 474.65 53.4993 468.413 52.0342C462.176 50.569 455.932 54.4373 454.467 60.6741C453.002 66.9109 456.87 73.1545 463.107 74.6196C469.344 76.0848 475.588 72.2166 477.053 65.9798Z" fill="black"/>
<path d="M232.047 143.915C237.707 138.255 237.707 129.077 232.047 123.417C226.386 117.756 217.209 117.756 211.548 123.417C205.888 129.077 205.888 138.255 211.548 143.915C217.209 149.576 226.386 149.576 232.047 143.915Z" fill="#21BA95"/>
<path opacity="0.4" d="M232.047 143.915C237.707 138.255 237.707 129.077 232.047 123.417C226.386 117.756 217.209 117.756 211.548 123.417C205.888 129.077 205.888 138.255 211.548 143.915C217.209 149.576 226.386 149.576 232.047 143.915Z" fill="black"/>
<path d="M234.608 242.311C235.733 241.186 236.508 239.76 236.841 238.204C237.174 236.649 237.049 235.03 236.483 233.544C235.917 232.057 234.933 230.766 233.649 229.826C232.366 228.886 230.838 228.337 229.25 228.245C227.662 228.154 226.081 228.523 224.698 229.309C223.315 230.096 222.189 231.265 221.456 232.677C220.722 234.088 220.413 235.682 220.564 237.266C220.716 238.849 221.322 240.355 222.31 241.602C221.75 242.037 221.166 242.483 220.674 242.941C219.908 243.593 219.153 244.268 218.386 244.943C217.62 245.618 216.911 246.315 216.19 247.025L215.046 248.077C214.854 248.25 214.698 248.46 214.588 248.695C214.526 248.821 214.484 248.956 214.462 249.095C214.438 249.258 214.438 249.424 214.462 249.587C214.49 249.881 214.62 250.156 214.829 250.365C215.037 250.574 215.312 250.703 215.606 250.731C215.774 250.75 215.943 250.75 216.11 250.731C216.247 250.698 216.381 250.652 216.51 250.594C216.74 250.481 216.945 250.326 217.117 250.136L218.18 249.061C218.878 248.34 219.565 247.597 220.251 246.864C220.937 246.132 221.601 245.354 222.253 244.576C222.711 244.039 223.157 243.501 223.592 242.952C225.183 244.225 227.189 244.864 229.223 244.745C231.257 244.627 233.175 243.76 234.608 242.311ZM224.175 241.087C223.253 240.179 222.622 239.018 222.363 237.75C222.103 236.482 222.227 235.166 222.717 233.969C223.208 232.772 224.044 231.748 225.118 231.027C226.192 230.306 227.457 229.921 228.751 229.921C230.045 229.921 231.31 230.306 232.384 231.027C233.458 231.748 234.294 232.772 234.785 233.969C235.275 235.166 235.399 236.482 235.139 237.75C234.88 239.018 234.249 240.179 233.327 241.087C232.109 242.292 230.464 242.967 228.751 242.967C227.038 242.967 225.394 242.292 224.175 241.087Z" fill="white"/>
<path d="M503.483 88.8552C504.227 88.1111 504.74 87.1675 504.961 86.1382C505.181 85.1089 505.099 84.0379 504.724 83.0542C504.35 82.0705 503.699 81.2161 502.85 80.594C502.001 79.9719 500.99 79.6087 499.939 79.5481C498.888 79.4875 497.842 79.7321 496.927 80.2525C496.012 80.7728 495.267 81.5467 494.782 82.4809C494.297 83.415 494.092 84.4695 494.193 85.5173C494.293 86.5651 494.695 87.5614 495.349 88.3862C494.983 88.6722 494.628 88.9582 494.273 89.2671C493.919 89.576 493.255 90.1365 492.763 90.5827L491.311 91.9555C491.07 92.1843 490.841 92.4245 490.601 92.6648C490.474 92.7747 490.372 92.9114 490.304 93.0652C490.213 93.2496 490.173 93.4551 490.189 93.66C490.205 93.8581 490.291 94.0441 490.431 94.1845C490.572 94.325 490.758 94.4108 490.956 94.4265C491.066 94.4445 491.178 94.4445 491.288 94.4265L491.551 94.335C491.702 94.2625 491.838 94.1615 491.951 94.0376L492.649 93.3168C493.118 92.8478 493.576 92.3559 494.022 91.864C494.468 91.372 494.914 90.8801 495.349 90.3653C495.784 89.8505 495.944 89.656 496.23 89.29C497.282 90.1183 498.602 90.5315 499.939 90.4514C501.276 90.3713 502.537 89.8033 503.483 88.8552ZM496.619 88.0316C496.019 87.4292 495.611 86.6627 495.447 85.8289C495.283 84.995 495.369 84.1312 495.695 83.3464C496.022 82.5616 496.573 81.891 497.28 81.4193C497.987 80.9475 498.818 80.6957 499.667 80.6957C500.517 80.6957 501.348 80.9475 502.055 81.4193C502.762 81.891 503.313 82.5616 503.639 83.3464C503.966 84.1312 504.052 84.995 503.888 85.8289C503.723 86.6627 503.316 87.4292 502.716 88.0316C502.316 88.4401 501.838 88.7646 501.31 88.9861C500.783 89.2077 500.217 89.3218 499.645 89.3218C499.072 89.3218 498.506 89.2077 497.979 88.9861C497.451 88.7646 496.973 88.4401 496.573 88.0316H496.619Z" fill="white"/>
<path d="M255.486 87.2766C256.179 86.5836 256.656 85.7051 256.861 84.7471C257.065 83.7891 256.988 82.7923 256.639 81.8769C256.29 80.9615 255.684 80.1666 254.894 79.5879C254.103 79.0092 253.162 78.6714 252.184 78.6153C251.206 78.5591 250.233 78.787 249.381 79.2715C248.53 79.7559 247.837 80.4763 247.385 81.3457C246.934 82.2152 246.744 83.1966 246.837 84.1717C246.931 85.1469 247.304 86.0742 247.913 86.8419C247.57 87.105 247.238 87.3795 246.906 87.6655C246.575 87.9515 245.968 88.4778 245.511 88.901C245.053 89.3243 244.595 89.7476 244.149 90.1709C243.932 90.3882 243.715 90.617 243.486 90.8344C243.373 90.939 243.28 91.063 243.211 91.2005C243.173 91.2801 243.146 91.3649 243.131 91.4522C243.113 91.5543 243.113 91.6589 243.131 91.761C243.142 91.9456 243.22 92.1198 243.351 92.2505C243.482 92.3812 243.656 92.4594 243.84 92.4703C243.943 92.4888 244.047 92.4888 244.149 92.4703C244.237 92.4558 244.321 92.4288 244.401 92.3902C244.538 92.3214 244.663 92.2284 244.767 92.1157L245.431 91.4522C245.854 91.006 246.289 90.5484 246.7 90.0908C247.112 89.6332 247.536 89.1642 247.936 88.6951C248.336 88.2261 248.496 88.0316 248.76 87.6884C249.736 88.4563 250.961 88.8385 252.201 88.7626C253.441 88.6867 254.611 88.1578 255.486 87.2766ZM249.057 86.5215C248.501 85.9576 248.125 85.2421 247.975 84.4648C247.824 83.6875 247.907 82.8831 248.213 82.1528C248.519 81.4225 249.033 80.7988 249.692 80.3602C250.351 79.9216 251.125 79.6875 251.917 79.6875C252.709 79.6875 253.483 79.9216 254.142 80.3602C254.801 80.7988 255.316 81.4225 255.621 82.1528C255.927 82.8831 256.01 83.6875 255.86 84.4648C255.709 85.2421 255.333 85.9576 254.777 86.5215C254.403 86.9006 253.958 87.2017 253.467 87.4071C252.976 87.6126 252.449 87.7184 251.917 87.7184C251.385 87.7184 250.858 87.6126 250.367 87.4071C249.876 87.2017 249.431 86.9006 249.057 86.5215Z" fill="white"/>
<path d="M260.028 175.582C260.049 175.457 260.029 175.328 259.971 175.215C259.914 175.101 259.821 175.01 259.708 174.953C258.438 174.415 257.071 174.146 255.692 174.163C253.329 174.169 251.064 175.112 249.393 176.784C247.723 178.457 246.784 180.723 246.781 183.087C246.781 186.37 248.977 188.086 251.151 188.086C252.056 188.102 252.952 187.903 253.766 187.505C254.579 187.107 255.286 186.522 255.83 185.798C255.967 186.294 256.222 186.749 256.573 187.125C256.872 187.426 257.229 187.664 257.622 187.823C258.015 187.982 258.437 188.06 258.861 188.051C262.293 188.051 265.725 184.974 265.725 179.105C265.791 177.671 265.556 176.238 265.035 174.9C264.514 173.562 263.719 172.347 262.701 171.335C261.683 170.322 260.464 169.533 259.123 169.02C257.782 168.506 256.349 168.278 254.914 168.352C247.261 168.352 241.484 174.415 241.484 182.446C241.484 189.15 246.209 194.012 252.729 194.012C254.997 194.083 257.245 193.575 259.262 192.536C259.384 192.47 259.479 192.362 259.527 192.231C259.576 192.1 259.575 191.957 259.525 191.827L258.964 190.317C258.936 190.239 258.892 190.169 258.835 190.11C258.778 190.05 258.709 190.004 258.632 189.973C258.558 189.937 258.475 189.918 258.392 189.918C258.309 189.918 258.227 189.937 258.152 189.973C256.595 190.765 254.865 191.158 253.118 191.117C248.039 191.117 244.63 187.525 244.63 182.183C244.63 175.731 248.84 171.063 254.628 171.063C259.536 171.063 262.636 174.198 262.636 179.254C262.758 181.13 262.147 182.98 260.932 184.414C260.538 184.836 259.998 185.093 259.422 185.134C259.334 185.14 259.247 185.124 259.167 185.088C259.088 185.052 259.018 184.997 258.964 184.928C258.77 184.677 258.495 183.956 258.907 181.862L260.028 175.582ZM255.269 177.172C255.653 177.168 256.036 177.203 256.413 177.275L255.772 180.707C255.418 182.698 253.702 185.02 252.032 185.02C250.361 185.02 250.304 183.727 250.304 182.938C250.304 179.815 252.592 177.172 255.269 177.172Z" fill="white"/>
<path d="M411.505 54.2039C411.522 54.1281 411.512 54.0489 411.476 53.9799C411.441 53.9109 411.382 53.8566 411.311 53.8263C410.545 53.4981 409.719 53.3344 408.885 53.3459C407.454 53.3489 406.083 53.9187 405.071 54.9307C404.059 55.9427 403.489 57.3144 403.486 58.7455C403.448 59.1205 403.487 59.4993 403.602 59.8585C403.716 60.2176 403.903 60.5495 404.151 60.8336C404.398 61.1177 404.702 61.348 405.042 61.5103C405.382 61.6726 405.752 61.7634 406.128 61.7771C406.676 61.7929 407.219 61.6776 407.712 61.4408C408.206 61.204 408.635 60.8525 408.965 60.4158C409.048 60.7146 409.201 60.9893 409.412 61.2166C409.593 61.4007 409.811 61.5454 410.051 61.6419C410.291 61.7383 410.549 61.7843 410.807 61.7771C412.866 61.7771 414.949 59.9124 414.949 56.3546C414.985 55.4862 414.839 54.6199 414.522 53.8108C414.205 53.0018 413.722 52.2676 413.106 51.6552C412.489 51.0429 411.751 50.5657 410.94 50.254C410.129 49.9424 409.262 49.8032 408.393 49.8452C407.292 49.8471 406.202 50.0722 405.189 50.5069C404.177 50.9416 403.263 51.5769 402.503 52.3744C401.743 53.172 401.152 54.1152 400.767 55.1473C400.381 56.1794 400.209 57.2789 400.26 58.3795C400.222 59.2874 400.37 60.1934 400.695 61.0422C401.02 61.8909 401.514 62.6644 402.148 63.3155C402.782 63.9665 403.542 64.4814 404.382 64.8287C405.222 65.1759 406.123 65.3482 407.032 65.335C408.406 65.3823 409.769 65.075 410.99 64.4427C411.066 64.4055 411.125 64.3418 411.157 64.2637C411.188 64.1857 411.19 64.0987 411.162 64.0194L410.819 63.1042C410.802 63.0565 410.775 63.0131 410.74 62.9774C410.704 62.9417 410.661 62.9147 410.613 62.8983C410.568 62.8761 410.519 62.8646 410.47 62.8646C410.42 62.8646 410.371 62.8761 410.327 62.8983C409.381 63.3774 408.332 63.6171 407.272 63.5961C406.568 63.6179 405.867 63.4906 405.216 63.2226C404.565 62.9546 403.977 62.552 403.492 62.0411C403.007 61.5301 402.636 60.9225 402.402 60.258C402.168 59.5934 402.077 58.887 402.136 58.185C402.136 54.2839 404.687 51.4583 408.188 51.4583C408.841 51.4216 409.496 51.5257 410.106 51.7635C410.716 52.0014 411.268 52.3675 411.725 52.8371C412.181 53.3067 412.532 53.8689 412.753 54.4856C412.973 55.1023 413.059 55.7591 413.004 56.4118C413.078 57.5469 412.709 58.6664 411.974 59.5349C411.858 59.6643 411.717 59.7693 411.56 59.8439C411.403 59.9185 411.233 59.9612 411.059 59.9696C411.007 59.9742 410.955 59.9661 410.908 59.9462C410.86 59.9263 410.818 59.8951 410.784 59.8552C410.659 59.7065 410.498 59.2603 410.784 57.9905L411.505 54.2039ZM408.634 55.1648C408.857 55.1644 409.079 55.1874 409.297 55.2335L408.908 57.327C408.691 58.5396 407.661 59.9467 406.62 59.9467C405.579 59.9467 405.556 59.1459 405.556 58.6769C405.509 57.8055 405.804 56.9502 406.379 56.2939C406.955 55.6375 407.764 55.2323 408.634 55.1648Z" fill="white"/>
<path d="M497.862 126.465C500.317 116.145 493.941 105.789 483.621 103.334C473.3 100.879 462.944 107.255 460.489 117.575C458.034 127.896 464.411 138.252 474.731 140.707C485.051 143.161 495.407 136.785 497.862 126.465Z" fill="#21BA95"/>
<path opacity="0.5" d="M497.862 126.465C500.317 116.145 493.941 105.789 483.621 103.334C473.3 100.879 462.944 107.255 460.489 117.575C458.034 127.896 464.411 138.252 474.731 140.707C485.051 143.161 495.407 136.785 497.862 126.465Z" fill="black"/>
<path d="M485.625 116.391C485.652 116.266 485.634 116.134 485.576 116.02C485.518 115.905 485.422 115.814 485.304 115.762C484.035 115.223 482.668 114.954 481.289 114.973C478.923 114.976 476.655 115.917 474.983 117.59C473.31 119.262 472.369 121.53 472.366 123.896C472.366 127.191 474.574 128.907 476.747 128.907C477.655 128.925 478.553 128.727 479.369 128.329C480.184 127.931 480.893 127.345 481.438 126.619C481.567 127.115 481.819 127.572 482.17 127.946C482.469 128.247 482.825 128.484 483.219 128.644C483.612 128.803 484.034 128.881 484.458 128.872C487.89 128.872 491.322 125.795 491.322 119.915C491.389 118.478 491.155 117.044 490.634 115.703C490.114 114.363 489.318 113.146 488.298 112.132C487.279 111.118 486.058 110.329 484.715 109.815C483.372 109.301 481.936 109.075 480.5 109.15C472.835 109.15 467.058 115.224 467.058 123.267C467.058 129.971 471.782 134.833 478.315 134.833C480.582 134.904 482.83 134.396 484.847 133.357C484.973 133.297 485.071 133.192 485.122 133.062C485.173 132.933 485.173 132.788 485.121 132.659L484.561 131.137C484.532 131.06 484.487 130.99 484.427 130.932C484.368 130.875 484.296 130.832 484.218 130.806C484.142 130.772 484.06 130.754 483.977 130.754C483.895 130.754 483.813 130.772 483.737 130.806C482.177 131.6 480.443 131.994 478.692 131.95C473.624 131.95 470.204 128.358 470.204 123.004C470.204 116.551 474.414 111.872 480.214 111.872C485.121 111.872 488.222 115.019 488.222 120.075C488.338 121.953 487.728 123.805 486.517 125.246C486.124 125.674 485.577 125.93 484.996 125.955C484.909 125.962 484.823 125.948 484.743 125.914C484.663 125.88 484.593 125.828 484.538 125.761C484.343 125.509 484.069 124.777 484.538 122.683L485.625 116.391ZM480.866 117.959C481.25 117.955 481.633 117.989 482.01 118.062L481.369 121.494C481.014 123.496 479.298 125.818 477.628 125.818C475.958 125.818 475.866 124.502 475.866 123.713C475.832 120.624 478.143 117.959 480.866 117.959Z" fill="white"/>
<path d="M284.761 123.678C284.761 123.678 284.761 123.678 284.761 123.61C284.766 122.993 284.72 122.377 284.624 121.768C284.171 119.009 282.769 116.495 280.659 114.661C278.549 112.827 275.864 111.788 273.07 111.724H272.475C271.942 111.74 271.411 111.789 270.885 111.872C268.093 112.329 265.554 113.76 263.718 115.911C261.881 118.061 260.866 120.793 260.852 123.621C260.852 123.621 260.852 123.621 260.852 123.678C260.852 123.736 260.852 123.678 260.852 123.759C260.847 124.375 260.892 124.991 260.989 125.6C261.448 128.398 262.884 130.943 265.041 132.784C267.198 134.625 269.937 135.642 272.772 135.656H272.829C275.995 135.638 279.025 134.368 281.259 132.124C283.492 129.88 284.747 126.844 284.75 123.678H284.761ZM281.615 128.415H279.522C279.842 127.184 280.03 125.922 280.082 124.651H282.759C282.626 125.953 282.238 127.217 281.615 128.369V128.415ZM263.963 118.954H266.057C265.746 120.186 265.562 121.447 265.508 122.717H262.888C262.986 121.388 263.351 120.092 263.963 118.908V118.954ZM278.092 122.008C278.092 122.248 278.092 122.477 278.092 122.717H273.722V118.954H277.451C277.763 119.933 277.977 120.941 278.092 121.962V122.008ZM273.767 117.009V113.84C274.052 113.94 274.321 114.079 274.568 114.252C275.517 114.972 276.269 115.92 276.753 117.009H273.767ZM271.823 113.84V117.009H268.825C269.374 115.592 270.448 114.441 271.823 113.794V113.84ZM271.823 118.954V122.717H267.464C267.534 121.443 267.749 120.18 268.105 118.954H271.823ZM262.899 125.291C262.865 125.079 262.842 124.865 262.831 124.651H265.508C265.508 124.948 265.508 125.234 265.565 125.532C265.652 126.505 265.82 127.469 266.068 128.415H263.963C263.428 127.427 263.064 126.355 262.888 125.246L262.899 125.291ZM267.475 125.36C267.475 125.12 267.475 124.891 267.475 124.651H271.845V128.415H268.116C267.795 127.406 267.576 126.367 267.464 125.314L267.475 125.36ZM271.8 130.359V133.517C271.515 133.423 271.245 133.288 270.999 133.116C270.05 132.397 269.298 131.448 268.814 130.359H271.8ZM273.745 133.517V130.314H276.742C276.188 131.706 275.124 132.835 273.767 133.471L273.745 133.517ZM273.745 128.415V124.651H278.103C278.043 125.926 277.831 127.189 277.474 128.415H273.745ZM280.059 122.695C280.059 122.397 280.059 122.1 280.002 121.814C279.911 120.841 279.743 119.877 279.499 118.931H281.604C282.127 119.906 282.487 120.962 282.668 122.054C282.668 122.271 282.668 122.477 282.736 122.695H280.059ZM280.242 116.975H278.904C278.632 116.296 278.302 115.642 277.92 115.018C278.172 115.179 278.435 115.339 278.675 115.522C279.257 115.942 279.79 116.426 280.265 116.963L280.242 116.975ZM267.658 115.03C267.278 115.65 266.949 116.301 266.675 116.975H265.29C265.984 116.206 266.79 115.546 267.681 115.018L267.658 115.03ZM265.302 130.325H266.686C266.958 131.006 267.291 131.661 267.681 132.281C266.8 131.75 266.005 131.086 265.325 130.314L265.302 130.325ZM277.886 132.27C278.266 131.649 278.595 130.999 278.87 130.325H280.242C279.565 131.082 278.778 131.733 277.909 132.258L277.886 132.27Z" fill="white"/>
<path d="M475.294 63.2755C475.285 62.8928 475.255 62.5108 475.203 62.1315C474.914 60.3487 474.01 58.7235 472.647 57.5384C471.285 56.3533 469.55 55.6834 467.744 55.645H467.355C467.014 55.6533 466.674 55.6839 466.337 55.7365C464.535 56.0313 462.896 56.955 461.711 58.3435C460.525 59.732 459.87 61.4956 459.862 63.3213C459.861 63.7044 459.892 64.0871 459.953 64.4653C460.226 66.2888 461.141 67.955 462.534 69.1632C463.927 70.3714 465.706 71.0423 467.55 71.0547C467.96 71.0545 468.369 71.0201 468.774 70.9517C470.575 70.6576 472.213 69.736 473.4 68.3501C474.587 66.9642 475.246 65.2032 475.26 63.3785L475.294 63.2755ZM473.27 66.33H471.92C472.122 65.5323 472.241 64.7156 472.274 63.8933H474.002C473.924 64.7465 473.675 65.5753 473.27 66.33ZM461.83 60.221H463.179C462.982 61.0159 462.863 61.8282 462.825 62.6463H461.143C461.222 61.797 461.471 60.9722 461.875 60.221H461.83ZM470.982 62.1887C470.982 62.3489 470.982 62.4976 470.982 62.6463H468.167V60.221H470.57C470.775 60.8615 470.916 61.5206 470.993 62.1887H470.982ZM468.19 58.9626V56.9149C468.373 56.984 468.546 57.0763 468.705 57.1894C469.317 57.6512 469.802 58.2615 470.112 58.9626H468.19ZM466.932 56.9263V58.9626H464.998C465.362 58.0597 466.058 57.3308 466.943 56.9263H466.932ZM466.932 60.221V62.6463H464.118C464.161 61.8248 464.3 61.011 464.529 60.221H466.932ZM461.212 64.3051C461.212 64.1678 461.212 64.0305 461.212 63.8933H462.939V64.4653C463 65.0946 463.111 65.7182 463.271 66.33H461.91C461.556 65.7011 461.312 65.0162 461.189 64.3051H461.212ZM464.186 64.3051C464.186 64.1564 464.186 64.0077 464.186 63.8475H467V66.2842H464.598C464.388 65.6561 464.242 65.0084 464.163 64.3509L464.186 64.3051ZM466.943 67.6227V69.6705C466.763 69.6011 466.59 69.5129 466.428 69.4073C465.817 68.9402 465.333 68.3264 465.021 67.6227H466.943ZM468.202 69.6705V67.6227H470.135C469.765 68.5094 469.075 69.2242 468.202 69.6247V69.6705ZM468.202 66.3757V63.8933H471.016C470.976 64.7181 470.841 65.5356 470.615 66.33L468.202 66.3757ZM472.24 62.6463V62.0743C472.178 61.4496 472.071 60.8303 471.92 60.221H473.27C473.615 60.8467 473.847 61.5282 473.956 62.2345C473.956 62.3717 473.956 62.509 473.956 62.6463H472.24ZM472.366 58.9626H471.462C471.289 58.5257 471.079 58.1046 470.833 57.7042L471.325 58.0245C471.715 58.2985 472.076 58.6129 472.4 58.9626H472.366ZM464.232 57.7157C463.982 58.1118 463.768 58.529 463.591 58.9626H462.699C463.143 58.4705 463.66 58.0498 464.232 57.7157ZM462.756 67.6227H463.648C463.825 68.0637 464.039 68.4885 464.289 68.8925C463.716 68.5502 463.199 68.1219 462.756 67.6227ZM470.879 68.8811C471.122 68.4795 471.333 68.0586 471.508 67.6227H472.4C471.957 68.1014 471.444 68.5102 470.879 68.8353V68.8811Z" fill="white"/>
<path d="M550.914 184.074C553.369 173.754 546.993 163.398 536.672 160.943C526.352 158.488 515.996 164.864 513.541 175.185C511.086 185.505 517.462 195.861 527.783 198.316C538.103 200.771 548.459 194.395 550.914 184.074Z" fill="#21BA95"/>
<path d="M541.28 171.132H523.194C522.284 171.132 521.411 171.493 520.767 172.137C520.123 172.781 519.762 173.654 519.762 174.564V183.899C519.762 184.809 520.123 185.682 520.767 186.326C521.411 186.969 522.284 187.331 523.194 187.331H536.464L536.373 190.591L539.725 187.331H541.28C542.191 187.331 543.064 186.969 543.707 186.326C544.351 185.682 544.712 184.809 544.712 183.899V174.587C544.715 174.134 544.629 173.685 544.458 173.266C544.287 172.847 544.034 172.466 543.715 172.145C543.396 171.824 543.017 171.569 542.599 171.395C542.181 171.221 541.733 171.132 541.28 171.132ZM522.782 175.159C522.785 174.903 522.889 174.658 523.071 174.479C523.253 174.299 523.498 174.198 523.754 174.198H527.907C528.162 174.198 528.406 174.299 528.587 174.479C528.767 174.659 528.868 174.904 528.868 175.159C528.868 175.414 528.767 175.658 528.587 175.838C528.406 176.018 528.162 176.12 527.907 176.12H523.72C523.47 176.111 523.233 176.006 523.059 175.827C522.884 175.648 522.785 175.409 522.782 175.159ZM540.251 184.196H533.055C532.921 184.211 532.785 184.197 532.657 184.156C532.528 184.115 532.41 184.047 532.309 183.957C532.208 183.867 532.128 183.756 532.073 183.633C532.018 183.51 531.989 183.376 531.989 183.241C531.989 183.106 532.018 182.973 532.073 182.849C532.128 182.726 532.208 182.616 532.309 182.526C532.41 182.435 532.528 182.367 532.657 182.326C532.785 182.285 532.921 182.271 533.055 182.286H540.251C540.385 182.271 540.521 182.285 540.649 182.326C540.778 182.367 540.896 182.435 540.997 182.526C541.098 182.616 541.178 182.726 541.233 182.849C541.288 182.973 541.317 183.106 541.317 183.241C541.317 183.376 541.288 183.51 541.233 183.633C541.178 183.756 541.098 183.867 540.997 183.957C540.896 184.047 540.778 184.115 540.649 184.156C540.521 184.197 540.385 184.211 540.251 184.196ZM540.251 180.158H524.715C524.48 180.132 524.263 180.02 524.104 179.844C523.946 179.668 523.859 179.44 523.859 179.203C523.859 178.966 523.946 178.738 524.104 178.561C524.263 178.385 524.48 178.273 524.715 178.248H540.251C540.385 178.233 540.521 178.247 540.649 178.288C540.778 178.329 540.896 178.397 540.997 178.487C541.098 178.577 541.178 178.688 541.233 178.811C541.288 178.934 541.317 179.068 541.317 179.203C541.317 179.338 541.288 179.471 541.233 179.595C541.178 179.718 541.098 179.828 540.997 179.918C540.896 180.008 540.778 180.076 540.649 180.118C540.521 180.159 540.385 180.173 540.251 180.158ZM540.251 176.12H531.099C530.844 176.12 530.6 176.018 530.419 175.838C530.239 175.658 530.138 175.414 530.138 175.159C530.138 174.904 530.239 174.659 530.419 174.479C530.6 174.299 530.844 174.198 531.099 174.198H540.251C540.506 174.198 540.75 174.299 540.93 174.479C541.111 174.659 541.212 174.904 541.212 175.159C541.212 175.414 541.111 175.658 540.93 175.838C540.75 176.018 540.506 176.12 540.251 176.12Z" fill="white"/>
<path d="M228.282 127.865H215.309C214.652 127.868 214.022 128.131 213.557 128.596C213.092 129.061 212.83 129.69 212.827 130.348V137.052C212.83 137.709 213.092 138.339 213.557 138.804C214.022 139.269 214.652 139.531 215.309 139.534H224.827L224.758 141.822L227.161 139.534H228.305C228.962 139.531 229.592 139.269 230.057 138.804C230.522 138.339 230.784 137.709 230.787 137.052V130.348C230.786 130.02 230.72 129.696 230.593 129.394C230.466 129.092 230.281 128.818 230.049 128.588C229.816 128.357 229.54 128.175 229.237 128.051C228.934 127.927 228.609 127.864 228.282 127.865ZM215.012 130.725C215.012 130.54 215.085 130.363 215.216 130.232C215.347 130.101 215.524 130.027 215.709 130.027H218.695C218.864 130.049 219.018 130.131 219.13 130.259C219.242 130.386 219.304 130.55 219.304 130.72C219.304 130.889 219.242 131.053 219.13 131.18C219.018 131.308 218.864 131.39 218.695 131.412H215.709C215.526 131.412 215.351 131.34 215.22 131.211C215.089 131.083 215.015 130.908 215.012 130.725ZM227.596 137.2H222.425C222.328 137.213 222.23 137.205 222.136 137.176C222.043 137.148 221.957 137.1 221.883 137.035C221.81 136.971 221.751 136.892 221.711 136.803C221.671 136.714 221.65 136.617 221.65 136.52C221.65 136.422 221.671 136.326 221.711 136.237C221.751 136.148 221.81 136.068 221.883 136.004C221.957 135.94 222.043 135.891 222.136 135.863C222.23 135.835 222.328 135.826 222.425 135.839H227.596C227.692 135.826 227.791 135.835 227.884 135.863C227.977 135.891 228.064 135.94 228.137 136.004C228.21 136.068 228.269 136.148 228.309 136.237C228.35 136.326 228.37 136.422 228.37 136.52C228.37 136.617 228.35 136.714 228.309 136.803C228.269 136.892 228.21 136.971 228.137 137.035C228.064 137.1 227.977 137.148 227.884 137.176C227.791 137.205 227.692 137.213 227.596 137.2ZM227.596 134.306H216.453C216.271 134.306 216.096 134.234 215.968 134.105C215.839 133.976 215.767 133.802 215.767 133.62C215.767 133.438 215.839 133.263 215.968 133.134C216.096 133.005 216.271 132.933 216.453 132.933H227.596C227.778 132.933 227.952 133.005 228.081 133.134C228.21 133.263 228.282 133.438 228.282 133.62C228.282 133.802 228.21 133.976 228.081 134.105C227.952 134.234 227.778 134.306 227.596 134.306ZM227.596 131.412H220.995C220.826 131.39 220.672 131.308 220.56 131.18C220.448 131.053 220.386 130.889 220.386 130.72C220.386 130.55 220.448 130.386 220.56 130.259C220.672 130.131 220.826 130.049 220.995 130.027H227.596C227.764 130.049 227.918 130.131 228.03 130.259C228.142 130.386 228.204 130.55 228.204 130.72C228.204 130.889 228.142 131.053 228.03 131.18C227.918 131.308 227.764 131.39 227.596 131.412Z" fill="white"/>
<path d="M339.021 48.4717H328.508C327.979 48.4746 327.472 48.6846 327.095 49.0566C326.719 49.4286 326.503 49.9332 326.494 50.4623V55.8848C326.497 56.4179 326.71 56.9283 327.087 57.3052C327.464 57.6822 327.975 57.8953 328.508 57.8983H336.218V59.7973L338.175 57.8983H339.078C339.611 57.8953 340.122 57.6822 340.499 57.3052C340.876 56.9283 341.089 56.4179 341.092 55.8848V50.4623C341.087 50.1954 341.03 49.932 340.924 49.6873C340.817 49.4425 340.663 49.2213 340.471 49.0363C340.278 48.8513 340.051 48.7062 339.802 48.6093C339.553 48.5124 339.288 48.4656 339.021 48.4717ZM328.268 50.7597C328.268 50.611 328.327 50.4685 328.432 50.3633C328.537 50.2582 328.679 50.1991 328.828 50.1991H331.253C331.326 50.1991 331.399 50.2137 331.466 50.242C331.534 50.2703 331.595 50.3118 331.646 50.364C331.697 50.4162 331.737 50.4781 331.764 50.5461C331.791 50.614 331.804 50.6866 331.803 50.7597C331.803 50.9064 331.745 51.0473 331.642 51.1521C331.54 51.2569 331.4 51.3173 331.253 51.3203H328.828C328.684 51.3177 328.547 51.2608 328.443 51.1612C328.339 51.0615 328.276 50.9263 328.268 50.7826V50.7597ZM338.392 56.0336H334.205C334.053 56.0336 333.908 55.9733 333.8 55.866C333.693 55.7587 333.633 55.6133 333.633 55.4616C333.633 55.3099 333.693 55.1644 333.8 55.0571C333.908 54.9498 334.053 54.8896 334.205 54.8896H338.392C338.544 54.8896 338.689 54.9498 338.796 55.0571C338.904 55.1644 338.964 55.3099 338.964 55.4616C338.964 55.6133 338.904 55.7587 338.796 55.866C338.689 55.9733 338.544 56.0336 338.392 56.0336ZM338.392 53.6884H329.354C329.208 53.6854 329.068 53.625 328.965 53.5202C328.863 53.4154 328.805 53.2745 328.805 53.1278C328.805 53.0557 328.819 52.9843 328.847 52.9176C328.875 52.851 328.915 52.7905 328.966 52.7395C329.017 52.6885 329.078 52.6481 329.144 52.6205C329.211 52.5929 329.282 52.5787 329.354 52.5787H338.392C338.465 52.5771 338.537 52.5902 338.604 52.6173C338.671 52.6443 338.732 52.6847 338.784 52.736C338.835 52.7873 338.875 52.8485 338.902 52.9158C338.93 52.9831 338.943 53.0553 338.941 53.1278C338.943 53.2009 338.93 53.2735 338.903 53.3414C338.876 53.4094 338.836 53.4713 338.784 53.5235C338.733 53.5757 338.672 53.6172 338.605 53.6455C338.537 53.6738 338.465 53.6884 338.392 53.6884ZM338.392 51.4004H333.038C332.891 51.3974 332.752 51.337 332.649 51.2322C332.546 51.1274 332.489 50.9865 332.489 50.8398C332.487 50.7667 332.5 50.6941 332.527 50.6261C332.554 50.5582 332.595 50.4963 332.646 50.4441C332.697 50.3919 332.758 50.3504 332.825 50.3221C332.893 50.2938 332.965 50.2792 333.038 50.2792H338.392C338.465 50.2792 338.537 50.2938 338.605 50.3221C338.672 50.3504 338.733 50.3919 338.784 50.4441C338.836 50.4963 338.876 50.5582 338.903 50.6261C338.93 50.6941 338.943 50.7667 338.941 50.8398C338.927 50.9764 338.863 51.1031 338.762 51.1959C338.661 51.2887 338.529 51.3411 338.392 51.3431V51.4004Z" fill="white"/>
<path d="M322.371 95.7853C328.032 90.1248 328.032 80.9474 322.371 75.287C316.711 69.6265 307.534 69.6265 301.873 75.287C296.213 80.9474 296.213 90.1248 301.873 95.7853C307.534 101.446 316.711 101.446 322.371 95.7853Z" fill="#21BA95"/>
<path opacity="0.4" d="M322.371 95.7853C328.032 90.1248 328.032 80.9474 322.371 75.287C316.711 69.6265 307.534 69.6265 301.873 75.287C296.213 80.9474 296.213 90.1248 301.873 95.7853C307.534 101.446 316.711 101.446 322.371 95.7853Z" fill="black"/>
<path d="M314.368 83.135C310.936 82.094 308.797 78.3531 308.797 78.3531C308.797 78.3531 307.653 78.2844 307.653 79.2683C307.637 79.929 307.756 80.586 308.002 81.1995C308.248 81.8131 308.615 82.3703 309.083 82.8376L307.435 82.746C306.846 82.7149 306.255 82.7767 305.685 82.9291L305.136 83.0778C304.68 83.204 304.292 83.5028 304.052 83.9107C303.813 84.3185 303.742 84.8035 303.855 85.2628L304.644 88.466C304.876 89.4349 305.464 90.2813 306.29 90.8384C307.116 91.3954 308.12 91.6225 309.106 91.4748C310.787 91.2345 313.407 90.8456 313.853 90.7655L315.054 90.6625L315.466 83.4668L314.368 83.135Z" fill="white"/>
<path d="M319.768 82.1401H315.134C314.774 82.1401 314.482 82.4321 314.482 82.7922V90.9833C314.482 91.3434 314.774 91.6353 315.134 91.6353H319.768C320.128 91.6353 320.42 91.3434 320.42 90.9833V82.7922C320.42 82.4321 320.128 82.1401 319.768 82.1401Z" fill="#21BA95"/>
<path opacity="0.4" d="M319.768 82.1401H315.134C314.774 82.1401 314.482 82.4321 314.482 82.7922V90.9833C314.482 91.3434 314.774 91.6353 315.134 91.6353H319.768C320.128 91.6353 320.42 91.3434 320.42 90.9833V82.7922C320.42 82.4321 320.128 82.1401 319.768 82.1401Z" fill="white"/>
<path d="M380.789 69.0757H364.956C364.193 69.0817 363.463 69.3873 362.924 69.9267C362.384 70.466 362.079 71.1958 362.073 71.9586V81.6826C362.076 82.4462 362.38 83.1778 362.92 83.7177C363.46 84.2577 364.192 84.5624 364.956 84.5654H380.789C381.553 84.5654 382.286 84.2617 382.827 83.7211C383.368 83.1804 383.671 82.4472 383.671 81.6826V71.9586C383.668 71.1949 383.364 70.4634 382.824 69.9234C382.284 69.3834 381.552 69.0787 380.789 69.0757ZM370.355 80.8932V72.7594L377.391 76.7748L370.355 80.8932Z" fill="white"/>
<path d="M529.886 148.149C536.293 148.149 541.486 142.955 541.486 136.548C541.486 130.142 536.293 124.948 529.886 124.948C523.48 124.948 518.286 130.142 518.286 136.548C518.286 142.955 523.48 148.149 529.886 148.149Z" fill="#21BA95"/>
<path opacity="0.2" d="M529.886 148.149C536.293 148.149 541.486 142.955 541.486 136.548C541.486 130.142 536.293 124.948 529.886 124.948C523.48 124.948 518.286 130.142 518.286 136.548C518.286 142.955 523.48 148.149 529.886 148.149Z" fill="black"/>
<path d="M534.908 131.847H525.299C524.835 131.85 524.392 132.036 524.064 132.363C523.737 132.691 523.551 133.134 523.548 133.597V139.501C523.551 139.964 523.737 140.407 524.064 140.735C524.392 141.062 524.835 141.248 525.299 141.251H534.908C535.372 141.248 535.815 141.062 536.143 140.735C536.47 140.407 536.656 139.964 536.659 139.501V133.597C536.656 133.134 536.47 132.691 536.143 132.363C535.815 132.036 535.372 131.85 534.908 131.847ZM528.57 139.02V134.089L532.838 136.549L528.57 139.02Z" fill="white"/>
<path d="M272.932 245.469H263.323C262.861 245.472 262.418 245.658 262.092 245.985C261.767 246.313 261.584 246.757 261.584 247.219V253.122C261.584 253.35 261.629 253.577 261.716 253.788C261.804 253.999 261.932 254.19 262.093 254.352C262.255 254.513 262.446 254.641 262.657 254.729C262.868 254.816 263.094 254.861 263.323 254.861H272.932C273.395 254.861 273.838 254.678 274.166 254.352C274.494 254.027 274.68 253.584 274.683 253.122V247.231C274.683 246.765 274.499 246.319 274.171 245.989C273.843 245.659 273.398 245.472 272.932 245.469ZM266.595 252.642V247.7L270.873 250.171L266.595 252.642Z" fill="white"/>
<path d="M496.365 196.177C502.026 190.516 502.026 181.339 496.365 175.679C490.705 170.018 481.527 170.018 475.867 175.679C470.207 181.339 470.207 190.516 475.867 196.177C481.527 201.837 490.705 201.837 496.365 196.177Z" fill="#21BA95"/>
<path opacity="0.2" d="M496.365 196.177C502.026 190.516 502.026 181.339 496.365 175.679C490.705 170.018 481.527 170.018 475.867 175.679C470.207 181.339 470.207 190.516 475.867 196.177C481.527 201.837 490.705 201.837 496.365 196.177Z" fill="white"/>
<path d="M486.117 177.161C483.998 177.172 481.956 177.959 480.378 179.373C478.799 180.787 477.794 182.73 477.55 184.835C477.306 186.94 477.842 189.062 479.056 190.799C480.269 192.536 482.077 193.768 484.137 194.264L486.117 196.78L488.096 194.264C490.176 193.789 492.007 192.563 493.239 190.821C494.471 189.08 495.016 186.944 494.771 184.825C494.526 182.706 493.507 180.752 491.91 179.338C490.313 177.923 488.25 177.148 486.117 177.161ZM486.117 189.436C485.402 189.436 484.703 189.224 484.108 188.827C483.514 188.429 483.05 187.865 482.777 187.204C482.503 186.544 482.432 185.817 482.571 185.116C482.711 184.414 483.055 183.77 483.56 183.265C484.066 182.759 484.71 182.415 485.411 182.275C486.113 182.136 486.839 182.207 487.5 182.481C488.161 182.755 488.725 183.218 489.122 183.812C489.52 184.407 489.732 185.106 489.732 185.821C489.733 186.296 489.641 186.767 489.46 187.206C489.278 187.645 489.012 188.044 488.676 188.38C488.34 188.716 487.941 188.983 487.502 189.164C487.063 189.345 486.592 189.437 486.117 189.436Z" fill="white"/>
<path d="M435.975 76.7744C433.81 76.7193 431.703 77.4765 430.068 78.8969C428.433 80.3173 427.389 82.298 427.14 84.4496C426.892 86.6011 427.458 88.7676 428.727 90.5228C429.996 92.2781 431.875 93.4951 433.996 93.9344L435.975 96.4512L437.92 93.9344C440.064 93.5241 441.973 92.3195 443.267 90.5616C444.561 88.8037 445.143 86.6221 444.897 84.4534C444.651 82.2847 443.596 80.2887 441.941 78.8649C440.287 77.4411 438.156 76.6945 435.975 76.7744ZM435.975 89.0495C435.26 89.0495 434.561 88.8375 433.967 88.4402C433.372 88.043 432.909 87.4784 432.635 86.8179C432.362 86.1573 432.29 85.4304 432.43 84.7292C432.569 84.0279 432.913 83.3838 433.419 82.8782C433.925 82.3727 434.569 82.0284 435.27 81.8889C435.971 81.7494 436.698 81.821 437.359 82.0946C438.019 82.3682 438.584 82.8315 438.981 83.426C439.378 84.0205 439.59 84.7195 439.59 85.4344C439.598 85.9134 439.51 86.3891 439.331 86.8337C439.153 87.2783 438.888 87.6829 438.551 88.0237C438.215 88.3646 437.813 88.6349 437.371 88.8189C436.929 89.0029 436.454 89.0968 435.975 89.0952V89.0495Z" fill="white"/>
<path d="M537.734 204.994C475.134 201.871 435.06 224.603 410.887 249.313C439.705 183.419 507.04 141.045 507.04 141.045C451.362 155.505 419.524 186.679 401.541 216.835C422.053 143.504 474.288 84.2681 474.288 84.2681C426.24 115.156 403.028 154.773 391.805 189.081C396.633 112.308 417.259 76.7749 417.259 76.7749C417.259 76.7749 378.787 89.9767 375.069 202.077C371.362 90.0224 332.889 76.7749 332.889 76.7749C332.889 76.7749 353.481 112.239 358.332 189.036C347.109 154.716 323.863 115.076 275.861 84.2223C275.861 84.2223 328.085 143.459 348.608 216.789C330.624 186.633 298.787 155.459 243.108 140.999C243.108 140.999 310.444 183.327 339.204 249.267C315.031 224.557 274.957 201.826 212.357 204.949C212.357 204.949 358.137 232.107 350.919 352.056C348.631 390.746 339.868 416.12 333.29 440.796H412.317C414.605 414.621 405.087 377.876 399.973 350.774C383.603 234.967 537.734 204.994 537.734 204.994Z" fill="#21BA95"/>
<path opacity="0.5" d="M537.734 204.994C475.134 201.871 435.06 224.603 410.887 249.313C439.705 183.419 507.04 141.045 507.04 141.045C451.362 155.505 419.524 186.679 401.541 216.835C422.053 143.504 474.288 84.2681 474.288 84.2681C426.24 115.156 403.028 154.773 391.805 189.081C396.633 112.308 417.259 76.7749 417.259 76.7749C417.259 76.7749 378.787 89.9767 375.069 202.077C371.362 90.0224 332.889 76.7749 332.889 76.7749C332.889 76.7749 353.481 112.239 358.332 189.036C347.109 154.716 323.863 115.076 275.861 84.2223C275.861 84.2223 328.085 143.459 348.608 216.789C330.624 186.633 298.787 155.459 243.108 140.999C243.108 140.999 310.444 183.327 339.204 249.267C315.031 224.557 274.957 201.826 212.357 204.949C212.357 204.949 358.137 232.107 350.919 352.056C348.631 390.746 339.868 416.12 333.29 440.796H412.317C414.605 414.621 405.087 377.876 399.973 350.774C383.603 234.967 537.734 204.994 537.734 204.994Z" fill="white"/>
<path d="M530.411 258.947C537.912 251.446 537.912 239.284 530.411 231.783C522.91 224.282 510.748 224.282 503.247 231.783C495.746 239.284 495.746 251.446 503.247 258.947C510.748 266.448 522.91 266.448 530.411 258.947Z" fill="#21BA95"/>
<path opacity="0.5" d="M530.411 258.947C537.912 251.446 537.912 239.284 530.411 231.783C522.91 224.282 510.748 224.282 503.247 231.783C495.746 239.284 495.746 251.446 503.247 258.947C510.748 266.448 522.91 266.448 530.411 258.947Z" fill="white"/>
<path d="M519.91 241.957C515.243 240.527 512.349 235.448 512.349 235.448C512.349 235.448 510.873 235.368 510.804 236.706C510.784 237.596 510.946 238.481 511.278 239.307C511.61 240.133 512.107 240.883 512.738 241.511L510.45 241.385C509.648 241.337 508.844 241.422 508.07 241.637L507.326 241.831C506.71 242.006 506.186 242.411 505.862 242.963C505.538 243.515 505.439 244.171 505.588 244.794L506.663 249.153C506.98 250.466 507.776 251.614 508.896 252.369C510.016 253.125 511.378 253.435 512.715 253.237C515.003 252.905 518.56 252.39 519.178 252.276L520.803 252.139L521.363 242.357L519.91 241.957Z" fill="white"/>
<path d="M527.209 240.607H520.929C520.436 240.607 520.036 241.006 520.036 241.499V252.607C520.036 253.1 520.436 253.5 520.929 253.5H527.209C527.702 253.5 528.102 253.1 528.102 252.607V241.499C528.102 241.006 527.702 240.607 527.209 240.607Z" fill="#21BA95"/>
<path opacity="0.3" d="M527.209 240.607H520.929C520.436 240.607 520.036 241.006 520.036 241.499V252.607C520.036 253.1 520.436 253.5 520.929 253.5H527.209C527.702 253.5 528.102 253.1 528.102 252.607V241.499C528.102 241.006 527.702 240.607 527.209 240.607Z" fill="black"/>
<path d="M221.966 187.696C223.815 179.908 219.001 172.095 211.213 170.245C203.424 168.395 195.611 173.209 193.761 180.998C191.911 188.786 196.726 196.6 204.514 198.449C212.303 200.299 220.116 195.485 221.966 187.696Z" fill="#21BA95"/>
<path opacity="0.1" d="M221.966 187.696C223.815 179.908 219.001 172.095 211.213 170.245C203.424 168.395 195.611 173.209 193.761 180.998C191.911 188.786 196.726 196.6 204.514 198.449C212.303 200.299 220.116 195.485 221.966 187.696Z" fill="white"/>
<path d="M209.566 181.908C206.134 180.856 204.006 177.115 204.006 177.115C204.006 177.115 202.862 177.058 202.862 178.042C202.846 178.702 202.964 179.36 203.21 179.974C203.455 180.587 203.824 181.144 204.292 181.611L202.645 181.519C202.055 181.482 201.464 181.544 200.895 181.702L200.346 181.851C199.891 181.975 199.502 182.271 199.263 182.677C199.024 183.083 198.952 183.567 199.064 184.025L199.854 187.239C199.976 187.747 200.198 188.226 200.506 188.648C200.815 189.07 201.203 189.427 201.65 189.699C202.448 190.185 203.39 190.379 204.315 190.248C205.997 189.996 208.617 189.619 209.063 189.539L210.207 189.436L210.607 182.229L209.566 181.908Z" fill="white"/>
<path d="M214.954 180.913H210.321C209.961 180.913 209.669 181.205 209.669 181.565V189.756C209.669 190.116 209.961 190.408 210.321 190.408H214.954C215.315 190.408 215.606 190.116 215.606 189.756V181.565C215.606 181.205 215.315 180.913 214.954 180.913Z" fill="#21BA95"/>
<path opacity="0.4" d="M214.954 180.913H210.321C209.961 180.913 209.669 181.205 209.669 181.565V189.756C209.669 190.116 209.961 190.408 210.321 190.408H214.954C215.315 190.408 215.606 190.116 215.606 189.756V181.565C215.606 181.205 215.315 180.913 214.954 180.913Z" fill="black"/>
<path d="M326.288 353.531C326.105 354.492 325.957 355.178 325.774 355.979L325.19 358.267C324.79 359.777 324.367 361.253 323.92 362.729C322.994 365.657 321.987 368.552 320.866 371.389C319.745 374.226 318.578 377.017 317.331 379.786C316.713 381.17 316.05 382.543 315.386 383.904L314.883 384.922L314.608 385.494C314.46 385.78 314.322 386.066 314.162 386.318C313.57 387.335 312.847 388.27 312.011 389.098C310.572 390.495 308.919 391.654 307.115 392.53C305.547 393.302 303.917 393.941 302.242 394.44C299.147 395.342 295.976 395.959 292.769 396.282C286.643 396.923 280.466 396.923 274.339 396.282L274.442 390.505C277.234 390.207 280.162 389.887 282.977 389.361C285.791 388.835 288.617 388.4 291.339 387.771C293.979 387.169 296.568 386.366 299.084 385.368C301.133 384.653 302.992 383.479 304.518 381.936C304.719 381.706 304.885 381.448 305.01 381.17L305.639 379.557C306.165 378.218 306.669 376.868 307.184 375.519C308.213 372.83 309.151 370.107 310.078 367.396C311.005 364.685 311.874 361.962 312.675 359.239C313.098 357.889 313.487 356.528 313.819 355.178L314.345 353.153L314.803 351.289L326.288 353.531Z" fill="#E4897B"/>
<path d="M318.486 339.174C313.91 340.318 310.661 359.297 310.661 359.297L323.348 367.922C323.348 367.922 335.521 348.806 331.974 343.75C328.29 338.476 325.213 337.469 318.486 339.174Z" fill="#21BA95"/>
<path opacity="0.6" d="M318.486 339.174C313.91 340.318 310.661 359.297 310.661 359.297L323.348 367.922C323.348 367.922 335.521 348.806 331.974 343.75C328.29 338.476 325.213 337.469 318.486 339.174Z" fill="black"/>
<path opacity="0.4" d="M318.075 346.06L327.925 348.348L328.874 357.981C327.203 361.386 325.358 364.704 323.349 367.922L315.649 362.694C315.981 358.267 316.816 349.046 318.075 346.06Z" fill="black"/>
<path d="M324.733 366.206C324.677 366.222 324.617 366.222 324.561 366.206L311.039 357.054C310.973 357.008 310.928 356.938 310.913 356.859C310.898 356.78 310.915 356.698 310.959 356.631C311.003 356.566 311.071 356.521 311.148 356.506C311.226 356.491 311.306 356.507 311.371 356.551L324.904 365.703C324.97 365.749 325.015 365.819 325.03 365.898C325.045 365.977 325.029 366.059 324.984 366.126C324.951 366.157 324.911 366.181 324.868 366.194C324.824 366.208 324.778 366.212 324.733 366.206Z" fill="white"/>
<path d="M318.486 339.173C318.486 339.173 313.224 341.038 323.829 406.601H369.2C368.433 388.136 368.411 376.742 377.208 338.853C370.856 337.54 364.418 336.691 357.943 336.313C351.088 335.821 344.206 335.821 337.351 336.313C328.519 337.126 318.486 339.173 318.486 339.173Z" fill="#21BA95"/>
<path opacity="0.6" d="M318.486 339.173C318.486 339.173 313.224 341.038 323.829 406.601H369.2C368.433 388.136 368.411 376.742 377.208 338.853C370.856 337.54 364.418 336.691 357.943 336.313C351.088 335.821 344.206 335.821 337.351 336.313C328.519 337.126 318.486 339.173 318.486 339.173Z" fill="black"/>
<path d="M396.622 419.38C395.478 404.702 374.6 405.4 360.517 407.207L358.607 407.471C358.195 406.578 357.188 406.155 355.518 406.395C344.009 406.109 328.462 406.601 328.462 406.601C321.141 405.057 307.001 404.039 296.259 403.981C286.066 403.913 271.846 403.981 264.398 406.109C257.877 407.997 251.231 409.335 250.018 415.261C248.805 421.187 250.167 435.35 261.893 438.141C274.9 441.264 290.664 442.351 304.541 444.811C304.541 444.811 305.983 439.857 308.271 433.153L308.545 433.268H308.648C312.554 433.859 316.514 434.013 320.454 433.725C321.683 433.64 322.899 434.014 323.868 434.775C324.836 435.536 325.487 436.63 325.694 437.844C326.678 443.747 332.615 450.668 360.151 449.856C387.687 449.044 397.811 434.057 396.622 419.38Z" fill="#21BA95"/>
<path opacity="0.2" d="M396.622 419.38C395.478 404.702 374.6 405.4 360.517 407.207L358.607 407.471C358.195 406.578 357.188 406.155 355.518 406.395C344.009 406.109 328.462 406.601 328.462 406.601C321.141 405.057 307.001 404.039 296.259 403.981C286.066 403.913 271.846 403.981 264.398 406.109C257.877 407.997 251.231 409.335 250.018 415.261C248.805 421.187 250.167 435.35 261.893 438.141C274.9 441.264 290.664 442.351 304.541 444.811C304.541 444.811 305.983 439.857 308.271 433.153L308.545 433.268H308.648C312.554 433.859 316.514 434.013 320.454 433.725C321.683 433.64 322.899 434.014 323.868 434.775C324.836 435.536 325.487 436.63 325.694 437.844C326.678 443.747 332.615 450.668 360.151 449.856C387.687 449.044 397.811 434.057 396.622 419.38Z" fill="black"/>
<path d="M369.875 403.958L370.241 408.019C370.401 408.339 370.024 408.66 369.497 408.66H323.6C323.2 408.66 322.856 408.454 322.834 408.202L322.422 404.141C322.422 403.855 322.742 403.615 323.2 403.615H369.143C369.284 403.603 369.426 403.628 369.555 403.689C369.683 403.749 369.793 403.842 369.875 403.958Z" fill="#21BA95"/>
<path opacity="0.7" d="M369.875 403.958L370.241 408.019C370.401 408.339 370.024 408.66 369.497 408.66H323.6C323.2 408.66 322.856 408.454 322.834 408.202L322.422 404.141C322.422 403.855 322.742 403.615 323.2 403.615H369.143C369.284 403.603 369.426 403.628 369.555 403.689C369.683 403.749 369.793 403.842 369.875 403.958Z" fill="white"/>
<path d="M363.709 409.072H364.933C365.185 409.072 365.368 408.946 365.356 408.797L364.773 403.512C364.773 403.363 364.544 403.237 364.304 403.237H363.068C362.828 403.237 362.633 403.363 362.656 403.512L363.228 408.797C363.251 408.946 363.457 409.072 363.709 409.072Z" fill="#21BA95"/>
<path d="M327.067 409.072H328.291C328.542 409.072 328.725 408.946 328.702 408.797L328.13 403.512C328.13 403.363 327.902 403.237 327.65 403.237H326.426C326.174 403.237 325.991 403.363 326.003 403.512L326.586 408.797C326.597 408.946 326.815 409.072 327.067 409.072Z" fill="#21BA95"/>
<path d="M345.382 409.072H346.617C346.858 409.072 347.041 408.946 347.029 408.797L346.457 403.512C346.457 403.363 346.217 403.237 345.977 403.237H344.741C344.501 403.237 344.318 403.363 344.329 403.512L344.913 408.797C344.924 408.946 345.142 409.072 345.382 409.072Z" fill="#21BA95"/>
<g opacity="0.6">
<path d="M363.709 409.072H364.933C365.185 409.072 365.368 408.946 365.356 408.797L364.773 403.512C364.773 403.363 364.544 403.237 364.304 403.237H363.068C362.828 403.237 362.633 403.363 362.656 403.512L363.228 408.797C363.251 408.946 363.457 409.072 363.709 409.072Z" fill="black"/>
<path d="M327.067 409.072H328.291C328.542 409.072 328.725 408.946 328.702 408.797L328.13 403.512C328.13 403.363 327.902 403.237 327.65 403.237H326.426C326.174 403.237 325.991 403.363 326.003 403.512L326.586 408.797C326.597 408.946 326.815 409.072 327.067 409.072Z" fill="black"/>
<path d="M345.382 409.072H346.618C346.858 409.072 347.041 408.946 347.029 408.797L346.457 403.512C346.457 403.363 346.217 403.237 345.977 403.237H344.741C344.501 403.237 344.318 403.363 344.33 403.512L344.913 408.797C344.924 408.946 345.142 409.072 345.382 409.072Z" fill="black"/>
</g>
<path d="M276.09 390.447L268.162 382.439L267.121 393.754C267.121 393.754 273.07 397.769 277.177 395.607L276.09 390.447Z" fill="#E4897B"/>
<path d="M258.85 381.215L258.495 390.733L267.121 393.731L268.162 382.417L258.85 381.215Z" fill="#E4897B"/>
<path opacity="0.6" d="M366.569 356.448L372.415 361.424C371.168 368.059 370.333 373.585 369.795 378.493C368.697 373.562 365.917 360.212 366.569 356.448Z" fill="black"/>
<path d="M371.179 324.942C367.633 318.753 364.132 311.272 367.461 300.815C371.282 288.803 369.2 282.866 366.786 279.995C364.601 277.398 361.158 276.231 357.062 276.666C355.954 276.678 354.862 276.933 353.862 277.411C352.862 277.889 351.979 278.579 351.274 279.434C351.274 279.434 333.587 280.944 322.262 294.02C325.922 304.671 320.683 317.621 313.945 322.54C335.418 340.741 358.435 335.044 365.963 331.692C369.578 330.067 370.859 327.814 370.069 324.176L370.687 325.263C370.71 325.307 370.744 325.344 370.787 325.37C370.829 325.397 370.878 325.411 370.927 325.411C370.976 325.423 371.027 325.423 371.076 325.411C371.121 325.395 371.161 325.367 371.192 325.331C371.223 325.295 371.245 325.252 371.255 325.205C371.265 325.158 371.264 325.11 371.251 325.064C371.237 325.018 371.213 324.976 371.179 324.942ZM366.351 280.326C367.536 281.822 368.323 283.593 368.639 285.474C367.95 283.611 366.873 281.915 365.481 280.497C364.089 279.08 362.413 277.973 360.563 277.249C362.818 277.546 364.881 278.671 366.351 280.406V280.326ZM366.065 299.969C367.064 298.224 367.87 296.375 368.468 294.455C368.083 296.538 367.563 298.594 366.912 300.61C365.341 305.234 365.123 310.211 366.283 314.955C364.361 310.15 363.411 304.739 366.065 300.003V299.969Z" fill="#263238"/>
<path d="M361.386 311.123C361.386 311.505 361.235 311.872 360.964 312.142C360.694 312.412 360.327 312.564 359.945 312.564C359.563 312.564 359.196 312.412 358.926 312.142C358.655 311.872 358.504 311.505 358.504 311.123C358.504 310.74 358.655 310.374 358.926 310.103C359.196 309.833 359.563 309.681 359.945 309.681C360.327 309.681 360.694 309.833 360.964 310.103C361.235 310.374 361.386 310.74 361.386 311.123Z" fill="white"/>
<path d="M343.849 346.953C341.687 346.953 335.12 346.953 332.878 342.297C332.479 341.412 332.262 340.455 332.241 339.484C332.219 338.513 332.393 337.548 332.752 336.646C332.781 336.571 332.837 336.509 332.91 336.475C332.982 336.441 333.065 336.437 333.141 336.463C333.216 336.491 333.277 336.547 333.311 336.62C333.346 336.693 333.35 336.776 333.324 336.852C332.993 337.678 332.83 338.562 332.846 339.452C332.862 340.342 333.055 341.22 333.416 342.034C335.498 346.358 341.778 346.358 343.849 346.358C358.538 346.358 361.078 337.549 361.181 337.206L361.364 336.508C361.385 336.432 361.435 336.367 361.503 336.326C361.571 336.286 361.652 336.273 361.73 336.291C361.769 336.3 361.807 336.317 361.84 336.342C361.873 336.366 361.9 336.397 361.921 336.432C361.941 336.468 361.954 336.507 361.958 336.548C361.963 336.588 361.959 336.629 361.947 336.668L361.764 337.355C361.65 337.732 358.984 346.953 343.849 346.953Z" fill="white"/>
<path d="M355.93 313.113C354.637 319.748 353.333 331.886 357.977 336.314C357.977 336.314 356.158 343.04 343.849 343.04C331.997 343.04 337.374 336.314 337.374 336.314C344.764 334.552 344.57 329.061 343.288 323.913L355.93 313.113Z" fill="#E4897B"/>
<path d="M350.782 317.518L343.288 323.878C343.606 325.074 343.82 326.295 343.929 327.528C346.755 327.127 350.633 324.027 350.93 321.064C351.093 319.882 351.043 318.681 350.782 317.518Z" fill="#CE6F64"/>
<path d="M356.696 295.644C357.977 306.661 358.755 311.294 354.259 317.872C347.487 327.768 333.667 326.921 329.091 316.522C324.996 307.153 323.589 290.714 333.484 284.49C335.656 283.092 338.15 282.274 340.728 282.114C343.306 281.954 345.881 282.458 348.209 283.576C350.537 284.695 352.54 286.392 354.025 288.504C355.511 290.617 356.431 293.075 356.696 295.644Z" fill="#E4897B"/>
<path d="M346.183 286.206C343.677 291.034 325.408 296.834 316.69 296.296C317.957 295.654 319.115 294.816 320.122 293.814C320.122 290.05 320.122 281.836 325.751 277.157C329.073 274.303 333.059 272.33 337.343 271.42C341.627 270.511 346.072 270.694 350.267 271.952C351.927 272.437 353.442 273.321 354.681 274.528C355.92 275.734 356.843 277.227 357.371 278.873L357.989 280.772L346.183 286.206Z" fill="#263238"/>
<path d="M350.072 282.5L345.256 285.223C345.256 285.223 342.076 302.234 357.669 301.799C357.611 301.799 357.463 284.982 350.072 282.5Z" fill="#263238"/>
<path d="M361.363 303.412C361.141 305.539 360.119 307.501 358.503 308.903C356.341 310.733 354.191 309.109 353.927 306.478C353.664 304.098 354.454 300.289 357.051 299.476C359.647 298.664 361.604 300.815 361.363 303.412Z" fill="#E4897B"/>
<path d="M306.12 443.14L309.346 431.014C309.395 430.803 309.52 430.618 309.698 430.493C309.875 430.369 310.092 430.314 310.307 430.339L320.271 431.483C320.527 431.518 320.772 431.608 320.99 431.748C321.207 431.887 321.392 432.072 321.531 432.289C321.671 432.507 321.761 432.752 321.796 433.008C321.831 433.264 321.811 433.524 321.735 433.771C320.534 437.981 319.745 439.949 318.303 445.28C317.434 448.563 316.015 455.438 314.769 459.969C313.522 464.499 309.049 463.549 309.049 461.559C309.483 452.613 307.905 448.62 306.223 445.131C305.955 444.5 305.918 443.795 306.12 443.14Z" fill="#263238"/>
<path d="M330.727 445.657L333.953 433.531C334.013 433.323 333.995 433.1 333.902 432.904C333.809 432.709 333.649 432.553 333.45 432.467L324.218 428.532C323.983 428.441 323.731 428.401 323.48 428.415C323.228 428.428 322.982 428.494 322.758 428.608C322.534 428.722 322.336 428.883 322.177 429.078C322.019 429.274 321.903 429.501 321.838 429.744C320.786 434 320.488 436.105 319.07 441.436C318.2 444.719 316.05 451.412 314.837 455.942C313.624 460.472 318.052 461.914 318.955 460.129C323.028 452.121 326.426 449.49 329.583 447.282C330.139 446.887 330.543 446.314 330.727 445.657Z" fill="#263238"/>
<path d="M340.737 301.65C340.897 302.543 340.554 303.343 339.971 303.446C339.387 303.549 338.827 302.909 338.632 302.028C338.438 301.147 338.815 300.335 339.399 300.232C339.982 300.129 340.577 300.758 340.737 301.65Z" fill="#263238"/>
<path d="M330.704 303.446C330.865 304.327 330.521 305.128 329.949 305.242C329.377 305.357 328.805 304.705 328.611 303.824C328.416 302.943 328.794 302.131 329.366 302.028C329.938 301.925 330.556 302.554 330.704 303.446Z" fill="#263238"/>
<path d="M329.64 302.028L327.352 301.799C327.352 301.799 328.782 303.286 329.64 302.028Z" fill="#263238"/>
<path d="M333.633 304.499C333.219 306.66 332.51 308.754 331.528 310.722C332.041 310.96 332.599 311.083 333.164 311.083C333.729 311.083 334.287 310.96 334.8 310.722L333.633 304.499Z" fill="#DE5753"/>
<path d="M339.319 313.193C339.276 313.201 339.232 313.191 339.197 313.167C339.162 313.142 339.137 313.104 339.13 313.062C339.122 313.019 339.132 312.976 339.157 312.94C339.181 312.905 339.219 312.881 339.261 312.873C341 312.168 342.412 310.837 343.22 309.144C343.227 309.123 343.239 309.104 343.254 309.088C343.269 309.071 343.288 309.059 343.308 309.05C343.329 309.042 343.351 309.037 343.373 309.038C343.395 309.038 343.417 309.043 343.437 309.052C343.458 309.061 343.478 309.074 343.494 309.09C343.51 309.106 343.523 309.126 343.531 309.147C343.54 309.168 343.544 309.191 343.544 309.214C343.543 309.237 343.538 309.26 343.529 309.281C342.693 311.066 341.208 312.465 339.376 313.193H339.319Z" fill="#263238"/>
<path d="M341.961 295.965C341.879 295.961 341.799 295.933 341.732 295.885C341.217 295.417 340.597 295.079 339.924 294.9C339.252 294.721 338.546 294.705 337.866 294.855C337.779 294.88 337.686 294.87 337.607 294.827C337.528 294.784 337.469 294.712 337.442 294.626C337.42 294.54 337.432 294.448 337.474 294.37C337.517 294.291 337.587 294.232 337.671 294.203C338.459 294.022 339.279 294.031 340.063 294.23C340.847 294.429 341.572 294.812 342.179 295.347C342.241 295.409 342.276 295.493 342.276 295.581C342.276 295.669 342.241 295.754 342.179 295.816C342.154 295.854 342.123 295.887 342.085 295.913C342.048 295.938 342.006 295.956 341.961 295.965Z" fill="#263238"/>
<path d="M324.984 299.854C324.914 299.85 324.847 299.826 324.79 299.785C324.718 299.733 324.67 299.654 324.655 299.567C324.64 299.48 324.66 299.39 324.71 299.316C325.154 298.637 325.754 298.075 326.461 297.676C327.168 297.278 327.96 297.056 328.771 297.028C328.86 297.031 328.944 297.069 329.006 297.133C329.068 297.197 329.103 297.282 329.103 297.372C329.09 297.459 329.048 297.539 328.984 297.6C328.919 297.66 328.836 297.696 328.748 297.703C328.061 297.736 327.392 297.932 326.795 298.274C326.199 298.616 325.692 299.095 325.316 299.671C325.284 299.73 325.235 299.778 325.177 299.811C325.118 299.843 325.051 299.858 324.984 299.854Z" fill="#263238"/>
<path d="M339.662 300.232L337.374 300.003C337.374 300.003 338.815 301.467 339.662 300.232Z" fill="#263238"/>
<path d="M381.521 351.334C382.665 354.675 383.66 357.958 384.644 361.299C385.628 364.639 386.44 368.014 387.241 371.423C388.042 374.832 388.728 378.287 389.243 381.879C389.506 383.664 389.712 385.483 389.815 387.405C389.815 388.366 389.884 389.35 389.815 390.379V391.169V391.603L389.758 392.198C389.671 392.975 389.506 393.742 389.266 394.486C388.427 396.89 386.999 399.045 385.113 400.755C383.621 402.144 381.992 403.378 380.251 404.439C377.083 406.318 373.747 407.9 370.287 409.164C363.683 411.607 356.86 413.411 349.912 414.552L348.528 408.946C354.771 406.721 360.882 404.143 366.832 401.224C369.63 399.84 372.309 398.225 374.84 396.397C375.959 395.605 376.991 394.696 377.917 393.685C378.546 393.043 379.009 392.258 379.267 391.397C379.266 390.357 379.198 389.317 379.061 388.286C378.878 386.81 378.604 385.254 378.295 383.71C377.689 380.575 376.876 377.372 376.007 374.18C375.137 370.988 374.234 367.774 373.284 364.582C372.335 361.39 371.339 358.141 370.378 355.03L381.521 351.334Z" fill="#E4897B"/>
<path d="M350.816 409.278L340.211 406.601L345.256 416.771C345.256 416.771 352.418 417.08 354.786 413.088L350.816 409.278Z" fill="#E4897B"/>
<path d="M331.654 410.468L336.344 418.75L345.268 416.771L340.211 406.601L331.654 410.468Z" fill="#E4897B"/>
<path d="M306.085 445.303L310.273 429.595L304.758 427.319L296.991 444.181L306.085 445.303Z" fill="#21BA95"/>
<path opacity="0.7" d="M306.085 445.303L310.273 429.595L304.758 427.319L296.991 444.181L306.085 445.303Z" fill="white"/>
<path d="M330.212 445.508L332.844 430.796L339.273 430.556L338.77 449.283L330.212 445.508Z" fill="#21BA95"/>
<path opacity="0.7" d="M330.212 445.508L332.844 430.796L339.273 430.556L338.77 449.283L330.212 445.508Z" fill="white"/>
<path d="M304.781 450.302C304.589 450.302 304.398 450.263 304.221 450.187C304.094 450.146 303.98 450.073 303.89 449.974C303.8 449.876 303.737 449.757 303.706 449.627C303.351 448.151 306.669 444.467 307.046 444.044C307.077 444.025 307.113 444.015 307.149 444.015C307.186 444.015 307.221 444.025 307.252 444.044C307.29 444.059 307.322 444.086 307.343 444.122C307.364 444.157 307.372 444.198 307.367 444.239C307.252 446.058 306.863 449.249 305.525 450.119C305.3 450.25 305.042 450.314 304.781 450.302ZM306.955 444.719C305.811 446.023 303.832 448.574 304.072 449.547C304.089 449.617 304.125 449.682 304.175 449.734C304.225 449.786 304.288 449.824 304.358 449.844C304.513 449.91 304.682 449.936 304.85 449.92C305.018 449.904 305.179 449.846 305.319 449.753C306.131 449.226 306.726 447.362 306.955 444.719Z" fill="#21BA95"/>
<path d="M302.779 446.893C302.623 446.898 302.467 446.871 302.322 446.813C302.07 446.698 301.784 446.412 301.898 445.737C301.935 445.486 302.024 445.245 302.16 445.03C302.296 444.815 302.476 444.631 302.688 444.491C304.152 443.449 307.092 443.964 307.264 443.987C307.296 443.994 307.326 444.009 307.35 444.031C307.374 444.053 307.392 444.082 307.401 444.113C307.415 444.141 307.423 444.173 307.423 444.205C307.423 444.236 307.415 444.268 307.401 444.296C306.52 445.28 304.072 446.893 302.779 446.893ZM305.422 444.216C304.544 444.165 303.671 444.367 302.905 444.799C302.735 444.911 302.589 445.057 302.479 445.229C302.369 445.4 302.295 445.593 302.265 445.795C302.184 446.332 302.402 446.435 302.47 446.47C303.237 446.813 305.685 445.474 306.806 444.307C306.347 444.251 305.885 444.221 305.422 444.216Z" fill="#21BA95"/>
<path d="M329.023 452.727H328.863C328.637 452.698 328.422 452.614 328.236 452.483C328.051 452.351 327.9 452.175 327.799 451.972C327.067 450.553 328.313 447.59 329.114 445.954C329.13 445.92 329.155 445.891 329.186 445.871C329.218 445.851 329.254 445.84 329.292 445.84C329.329 445.84 329.366 445.851 329.397 445.871C329.429 445.891 329.454 445.92 329.469 445.954C329.595 446.504 330.613 451.354 329.583 452.452C329.515 452.536 329.43 452.604 329.333 452.651C329.236 452.699 329.131 452.725 329.023 452.727ZM329.217 446.607C328.611 447.934 327.524 450.611 328.13 451.789C328.206 451.94 328.317 452.07 328.455 452.168C328.593 452.265 328.752 452.328 328.92 452.349C328.992 452.366 329.067 452.363 329.137 452.341C329.208 452.319 329.271 452.279 329.32 452.224C330.007 451.503 329.549 448.311 329.24 446.607H329.217Z" fill="#21BA95"/>
<path d="M332.272 450.725H332.203C330.956 450.599 329.343 447.476 329.103 446.057C329.095 446.025 329.098 445.991 329.11 445.961C329.122 445.93 329.144 445.904 329.171 445.886C329.199 445.869 329.231 445.859 329.263 445.859C329.295 445.859 329.327 445.869 329.354 445.886C329.469 445.886 332.283 446.938 333.038 448.563C333.146 448.792 333.207 449.041 333.217 449.295C333.227 449.548 333.185 449.801 333.095 450.039C332.878 450.588 332.546 450.725 332.272 450.725ZM329.537 446.286C329.949 447.853 331.402 450.222 332.237 450.302C332.317 450.302 332.558 450.302 332.741 449.833C332.819 449.652 332.859 449.457 332.859 449.261C332.859 449.064 332.819 448.869 332.741 448.689C332.146 447.51 330.293 446.641 329.537 446.286Z" fill="#21BA95"/>
<path d="M377.288 338.853C381.864 340.237 388.728 358.072 388.728 358.072L371.099 370.656C371.099 370.656 363.171 355.407 365.082 349.527C367.084 343.429 372.048 337.275 377.288 338.853Z" fill="#21BA95"/>
<path opacity="0.6" d="M377.288 338.853C381.864 340.237 388.728 358.072 388.728 358.072L371.099 370.656C371.099 370.656 363.171 355.407 365.082 349.527C367.084 343.429 372.048 337.275 377.288 338.853Z" fill="black"/>
<path d="M370.046 368.814C369.984 368.812 369.923 368.791 369.872 368.753C369.822 368.715 369.784 368.663 369.764 368.603C369.744 368.544 369.743 368.479 369.761 368.419C369.779 368.358 369.814 368.305 369.863 368.265L387.641 355.555C387.672 355.532 387.708 355.515 387.746 355.505C387.784 355.496 387.823 355.494 387.862 355.5C387.901 355.507 387.937 355.521 387.97 355.542C388.003 355.564 388.031 355.591 388.053 355.624C388.077 355.656 388.094 355.693 388.104 355.731C388.114 355.77 388.115 355.811 388.109 355.85C388.102 355.89 388.088 355.928 388.067 355.962C388.045 355.995 388.017 356.025 387.984 356.047L370.218 368.757C370.169 368.796 370.109 368.816 370.046 368.814Z" fill="white"/>
<path d="M242.536 375.244H322.159L333.702 422.262H254.079L242.536 375.244Z" fill="#21BA95"/>
<path d="M282.874 413.499L331.574 424.859L362.828 416.096L362.508 413.499H282.874Z" fill="#21BA95"/>
<path d="M240.088 375.244H319.711L331.242 422.262H251.631L240.088 375.244Z" fill="#21BA95"/>
<path opacity="0.5" d="M240.088 375.244H319.711L331.242 422.262H251.631L240.088 375.244Z" fill="white"/>
<path d="M251.631 422.262L251.951 424.859H331.574L331.253 422.262H251.631Z" fill="#21BA95"/>
<path opacity="0.5" d="M251.631 422.262L251.951 424.859H331.574L331.253 422.262H251.631Z" fill="white"/>
</svg>
